ISO-10303-21;
HEADER;
/* Generated by software containing ST-Developer
 * from STEP Tools, Inc. (www.steptools.com) 
 */
/* OPTION: using custom renumber hook */

FILE_DESCRIPTION(
/* description */ ('STEP AP242 Edition 2',
'CAx-IF Rec.Pracs.---Representation and Presentation of Product Manufa
cturing Information (PMI)---4.0---2014-10-13',
'CAx-IF Rec.Pracs.---3D Tessellated Geometry---0.4---2014-09-14','2;1',
'CAx-IF Rec.Pracs.---User Defined Attributes---1.5---2016-08-15'),
/* implementation_level */ '2;1');

FILE_NAME(
/* name */ 'Assembly 1 - Mug',
/* time_stamp */ '2026-09-04T01:58:22Z',
/* author */ (''),
/* organization */ (''),
/* preprocessor_version */ 'ST-DEVELOPER v20',
/* originating_system */ 'ONSHAPE BY PTC INC, 1.220',
/* authorisation */ '  ');

FILE_SCHEMA (('AP242_MANAGED_MODEL_BASED_3D_ENGINEERING_MIM_LF { 1 0 10303 442 3 1 4 }'));
ENDSEC;

DATA;
#10=SHAPE_REPRESENTATION_RELATIONSHIP('','',#143,#11);
#11=ADVANCED_BREP_SHAPE_REPRESENTATION('',(#141),#435);
#12=(
BOUNDED_SURFACE()
B_SPLINE_SURFACE(3,3,((#247,#248,#249,#250,#251,#252,#253,#254,#255,#256,
#257,#258),(#259,#260,#261,#262,#263,#264,#265,#266,#267,#268,#269,#270),
(#271,#272,#273,#274,#275,#276,#277,#278,#279,#280,#281,#282),(#283,#284,
#285,#286,#287,#288,#289,#290,#291,#292,#293,#294),(#295,#296,#297,#298,
#299,#300,#301,#302,#303,#304,#305,#306),(#307,#308,#309,#310,#311,#312,
#313,#314,#315,#316,#317,#318),(#319,#320,#321,#322,#323,#324,#325,#326,
#327,#328,#329,#330)),.UNSPECIFIED.,.T.,.F.,.F.)
B_SPLINE_SURFACE_WITH_KNOTS((4,3,4),(4,2,2,2,2,4),(0.,0.5,1.),(0.373610362599622,
0.686805181299811,0.843402590649906,0.921701295324953,1.,1.01132343909176),
 .UNSPECIFIED.)
GEOMETRIC_REPRESENTATION_ITEM()
RATIONAL_B_SPLINE_SURFACE(((1.,1.,1.,1.,1.,1.,1.,1.,1.,1.,1.,1.),(0.333333333333334,
0.333333333333334,0.333333333333334,0.333333333333334,0.333333333333334,
0.333333333333334,0.333333333333334,0.333333333333334,0.333333333333334,
0.333333333333334,0.333333333333334,0.333333333333334),(0.333333333333334,
0.333333333333334,0.333333333333334,0.333333333333334,0.333333333333334,
0.333333333333334,0.333333333333334,0.333333333333334,0.333333333333334,
0.333333333333334,0.333333333333334,0.333333333333334),(1.,1.,1.,1.,1.,
1.,1.,1.,1.,1.,1.,1.),(0.333333333333334,0.333333333333334,0.333333333333334,
0.333333333333334,0.333333333333334,0.333333333333334,0.333333333333334,
0.333333333333334,0.333333333333334,0.333333333333334,0.333333333333334,
0.333333333333334),(0.333333333333334,0.333333333333334,0.333333333333334,
0.333333333333334,0.333333333333334,0.333333333333334,0.333333333333334,
0.333333333333334,0.333333333333334,0.333333333333334,0.333333333333334,
0.333333333333334),(1.,1.,1.,1.,1.,1.,1.,1.,1.,1.,1.,1.)))
REPRESENTATION_ITEM('')
SURFACE()
);
#13=(
BOUNDED_SURFACE()
B_SPLINE_SURFACE(3,3,((#350,#351,#352,#353,#354,#355,#356,#357,#358,#359,
#360,#361),(#362,#363,#364,#365,#366,#367,#368,#369,#370,#371,#372,#373),
(#374,#375,#376,#377,#378,#379,#380,#381,#382,#383,#384,#385),(#386,#387,
#388,#389,#390,#391,#392,#393,#394,#395,#396,#397),(#398,#399,#400,#401,
#402,#403,#404,#405,#406,#407,#408,#409),(#410,#411,#412,#413,#414,#415,
#416,#417,#418,#419,#420,#421),(#422,#423,#424,#425,#426,#427,#428,#429,
#430,#431,#432,#433)),.UNSPECIFIED.,.T.,.F.,.F.)
B_SPLINE_SURFACE_WITH_KNOTS((4,3,4),(4,2,2,2,2,4),(0.,0.5,1.),(0.466427869693575,
0.733213934846787,0.866606967423394,0.933303483711697,1.,1.00551828692573),
 .UNSPECIFIED.)
GEOMETRIC_REPRESENTATION_ITEM()
RATIONAL_B_SPLINE_SURFACE(((1.,1.,1.,1.,1.,1.,1.,1.,1.,1.,1.,1.),(0.333333333333334,
0.333333333333334,0.333333333333334,0.333333333333334,0.333333333333334,
0.333333333333334,0.333333333333334,0.333333333333334,0.333333333333334,
0.333333333333334,0.333333333333334,0.333333333333334),(0.333333333333334,
0.333333333333334,0.333333333333334,0.333333333333334,0.333333333333334,
0.333333333333334,0.333333333333334,0.333333333333334,0.333333333333334,
0.333333333333334,0.333333333333334,0.333333333333334),(1.,1.,1.,1.,1.,
1.,1.,1.,1.,1.,1.,1.),(0.333333333333334,0.333333333333334,0.333333333333334,
0.333333333333334,0.333333333333334,0.333333333333334,0.333333333333334,
0.333333333333334,0.333333333333334,0.333333333333334,0.333333333333334,
0.333333333333334),(0.333333333333334,0.333333333333334,0.333333333333334,
0.333333333333334,0.333333333333334,0.333333333333334,0.333333333333334,
0.333333333333334,0.333333333333334,0.333333333333334,0.333333333333334,
0.333333333333334),(1.,1.,1.,1.,1.,1.,1.,1.,1.,1.,1.,1.)))
REPRESENTATION_ITEM('')
SURFACE()
);
#14=PLANE('',#148);
#15=PLANE('',#150);
#16=PLANE('',#153);
#17=CIRCLE('',#146,0.00375);
#18=CIRCLE('',#147,0.00375);
#19=CIRCLE('',#149,0.003);
#20=CIRCLE('',#152,0.003);
#21=CIRCLE('',#156,0.0005);
#22=CIRCLE('',#158,0.0005);
#23=ORIENTED_EDGE('',*,*,#47,.T.);
#24=ORIENTED_EDGE('',*,*,#48,.T.);
#25=ORIENTED_EDGE('',*,*,#49,.F.);
#26=ORIENTED_EDGE('',*,*,#50,.T.);
#27=ORIENTED_EDGE('',*,*,#51,.F.);
#28=ORIENTED_EDGE('',*,*,#49,.T.);
#29=ORIENTED_EDGE('',*,*,#50,.F.);
#30=ORIENTED_EDGE('',*,*,#52,.F.);
#31=ORIENTED_EDGE('',*,*,#51,.T.);
#32=ORIENTED_EDGE('',*,*,#52,.T.);
#33=ORIENTED_EDGE('',*,*,#53,.T.);
#34=ORIENTED_EDGE('',*,*,#54,.F.);
#35=ORIENTED_EDGE('',*,*,#47,.F.);
#36=ORIENTED_EDGE('',*,*,#55,.F.);
#37=ORIENTED_EDGE('',*,*,#48,.F.);
#38=ORIENTED_EDGE('',*,*,#56,.T.);
#39=ORIENTED_EDGE('',*,*,#57,.F.);
#40=ORIENTED_EDGE('',*,*,#55,.T.);
#41=ORIENTED_EDGE('',*,*,#56,.F.);
#42=ORIENTED_EDGE('',*,*,#57,.T.);
#43=ORIENTED_EDGE('',*,*,#58,.F.);
#44=ORIENTED_EDGE('',*,*,#53,.F.);
#45=ORIENTED_EDGE('',*,*,#54,.T.);
#46=ORIENTED_EDGE('',*,*,#58,.T.);
#47=EDGE_CURVE('',#59,#59,#71,.T.);
#48=EDGE_CURVE('',#60,#60,#72,.T.);
#49=EDGE_CURVE('',#61,#61,#17,.T.);
#50=EDGE_CURVE('',#62,#62,#18,.T.);
#51=EDGE_CURVE('',#63,#63,#19,.T.);
#52=EDGE_CURVE('',#64,#64,#20,.T.);
#53=EDGE_CURVE('',#65,#66,#73,.T.);
#54=EDGE_CURVE('',#65,#66,#74,.T.);
#55=EDGE_CURVE('',#67,#67,#21,.T.);
#56=EDGE_CURVE('',#68,#69,#75,.T.);
#57=EDGE_CURVE('',#68,#69,#76,.T.);
#58=EDGE_CURVE('',#70,#70,#22,.T.);
#59=VERTEX_POINT('',#202);
#60=VERTEX_POINT('',#214);
#61=VERTEX_POINT('',#216);
#62=VERTEX_POINT('',#218);
#63=VERTEX_POINT('',#221);
#64=VERTEX_POINT('',#225);
#65=VERTEX_POINT('',#235);
#66=VERTEX_POINT('',#236);
#67=VERTEX_POINT('',#246);
#68=VERTEX_POINT('',#338);
#69=VERTEX_POINT('',#339);
#70=VERTEX_POINT('',#349);
#71=B_SPLINE_CURVE_WITH_KNOTS('',3,(#191,#192,#193,#194,#195,#196,#197,
#198,#199,#200,#201),.UNSPECIFIED.,.T.,.F.,(1,1,1,1,1,1,1,1,1,1,1,1,1,1,
1),(-0.00117358601677926,-0.000782390677852839,-0.000391195338926419,9.80000213865143E-20,
0.00039119533892642,0.000782390677852839,0.00117358601677926,0.00156478135570568,
0.0019559766946321,0.00234717203355852,0.00273836737248494,0.00312956271141136,
0.00352075805033778,0.00391195338926419,0.00430314872819061),
 .UNSPECIFIED.);
#72=B_SPLINE_CURVE_WITH_KNOTS('',3,(#203,#204,#205,#206,#207,#208,#209,
#210,#211,#212,#213),.UNSPECIFIED.,.T.,.F.,(1,1,1,1,1,1,1,1,1,1,1,1,1,1,
1),(-0.00117358601677926,-0.000782390677852838,-0.000391195338926419,3.08015917628262E-19,
0.00039119533892642,0.000782390677852839,0.00117358601677926,0.00156478135570568,
0.0019559766946321,0.00234717203355852,0.00273836737248493,0.00312956271141135,
0.00352075805033777,0.00391195338926419,0.00430314872819061),
 .UNSPECIFIED.);
#73=B_SPLINE_CURVE_WITH_KNOTS('',3,(#228,#229,#230,#231,#232,#233,#234),
 .UNSPECIFIED.,.F.,.F.,(4,1,1,1,4),(-2.09301229078109E-5,0.00037007121723076,
0.000761072557369332,0.0011520738975079,0.00154307523764647),
 .UNSPECIFIED.);
#74=B_SPLINE_CURVE_WITH_KNOTS('',3,(#237,#238,#239,#240,#241,#242,#243),
 .UNSPECIFIED.,.F.,.F.,(4,1,1,1,4),(-2.09301228776713E-5,0.000370065023704948,
0.000761060170287568,0.00115205531687019,0.00154305046345281),
 .UNSPECIFIED.);
#75=B_SPLINE_CURVE_WITH_KNOTS('',3,(#331,#332,#333,#334,#335,#336,#337),
 .UNSPECIFIED.,.F.,.F.,(4,1,1,1,4),(-1.37746983379347E-5,0.00037730869306062,
0.000768392084459175,0.00115947547585773,0.00155055886725628),
 .UNSPECIFIED.);
#76=B_SPLINE_CURVE_WITH_KNOTS('',3,(#340,#341,#342,#343,#344,#345,#346),
 .UNSPECIFIED.,.F.,.F.,(4,1,1,1,4),(-1.37746984746131E-5,0.000377268483028129,
0.000768311664530871,0.00115935484603361,0.00155039802753636),
 .UNSPECIFIED.);
#77=EDGE_LOOP('',(#23));
#78=EDGE_LOOP('',(#24));
#79=EDGE_LOOP('',(#25));
#80=EDGE_LOOP('',(#26));
#81=EDGE_LOOP('',(#27));
#82=EDGE_LOOP('',(#28));
#83=EDGE_LOOP('',(#29));
#84=EDGE_LOOP('',(#30));
#85=EDGE_LOOP('',(#31));
#86=EDGE_LOOP('',(#32));
#87=EDGE_LOOP('',(#33,#34));
#88=EDGE_LOOP('',(#35));
#89=EDGE_LOOP('',(#36));
#90=EDGE_LOOP('',(#37));
#91=EDGE_LOOP('',(#38,#39));
#92=EDGE_LOOP('',(#40));
#93=EDGE_LOOP('',(#41,#42));
#94=EDGE_LOOP('',(#43));
#95=EDGE_LOOP('',(#44,#45));
#96=EDGE_LOOP('',(#46));
#97=FACE_BOUND('',#77,.T.);
#98=FACE_BOUND('',#78,.T.);
#99=FACE_BOUND('',#79,.T.);
#100=FACE_BOUND('',#80,.T.);
#101=FACE_BOUND('',#81,.T.);
#102=FACE_BOUND('',#82,.T.);
#103=FACE_BOUND('',#83,.T.);
#104=FACE_BOUND('',#84,.T.);
#105=FACE_BOUND('',#85,.T.);
#106=FACE_BOUND('',#86,.T.);
#107=FACE_BOUND('',#87,.T.);
#108=FACE_BOUND('',#88,.T.);
#109=FACE_BOUND('',#89,.T.);
#110=FACE_BOUND('',#90,.T.);
#111=FACE_BOUND('',#91,.T.);
#112=FACE_BOUND('',#92,.T.);
#113=FACE_BOUND('',#93,.T.);
#114=FACE_BOUND('',#94,.T.);
#115=FACE_BOUND('',#95,.T.);
#116=FACE_BOUND('',#96,.T.);
#117=CYLINDRICAL_SURFACE('',#145,0.00375);
#118=CYLINDRICAL_SURFACE('',#151,0.003);
#119=CYLINDRICAL_SURFACE('',#154,0.0005);
#120=CYLINDRICAL_SURFACE('',#155,0.0005);
#121=CYLINDRICAL_SURFACE('',#157,0.0005);
#122=ADVANCED_FACE('',(#97,#98,#99,#100),#117,.T.);
#123=ADVANCED_FACE('',(#101,#102),#14,.T.);
#124=ADVANCED_FACE('',(#103),#15,.F.);
#125=ADVANCED_FACE('',(#104,#105),#118,.F.);
#126=ADVANCED_FACE('',(#106),#16,.T.);
#127=ADVANCED_FACE('',(#107,#108),#119,.T.);
#128=ADVANCED_FACE('',(#109,#110),#120,.T.);
#129=ADVANCED_FACE('',(#111,#112),#12,.T.);
#130=ADVANCED_FACE('',(#113,#114),#121,.T.);
#131=ADVANCED_FACE('',(#115,#116),#13,.T.);
#132=CLOSED_SHELL('',(#122,#123,#124,#125,#126,#127,#128,#129,#130,#131));
#133=STYLED_ITEM('',(#134),#141);
#134=PRESENTATION_STYLE_ASSIGNMENT((#135));
#135=SURFACE_STYLE_USAGE(.BOTH.,#136);
#136=SURFACE_SIDE_STYLE('',(#137));
#137=SURFACE_STYLE_FILL_AREA(#138);
#138=FILL_AREA_STYLE('',(#139));
#139=FILL_AREA_STYLE_COLOUR('',#140);
#140=COLOUR_RGB('',0.654901960784314,0.823529411764706,0.576470588235294);
#141=MANIFOLD_SOLID_BREP('Mug',#132);
#142=SHAPE_DEFINITION_REPRESENTATION(#440,#143);
#143=SHAPE_REPRESENTATION('Mug',(#144),#435);
#144=AXIS2_PLACEMENT_3D('',#189,#159,#160);
#145=AXIS2_PLACEMENT_3D('',#190,#161,#162);
#146=AXIS2_PLACEMENT_3D('',#215,#163,#164);
#147=AXIS2_PLACEMENT_3D('',#217,#165,#166);
#148=AXIS2_PLACEMENT_3D('',#219,#167,#168);
#149=AXIS2_PLACEMENT_3D('',#220,#169,#170);
#150=AXIS2_PLACEMENT_3D('',#222,#171,#172);
#151=AXIS2_PLACEMENT_3D('',#223,#173,#174);
#152=AXIS2_PLACEMENT_3D('',#224,#175,#176);
#153=AXIS2_PLACEMENT_3D('',#226,#177,#178);
#154=AXIS2_PLACEMENT_3D('',#227,#179,#180);
#155=AXIS2_PLACEMENT_3D('',#244,#181,#182);
#156=AXIS2_PLACEMENT_3D('',#245,#183,#184);
#157=AXIS2_PLACEMENT_3D('',#347,#185,#186);
#158=AXIS2_PLACEMENT_3D('',#348,#187,#188);
#159=DIRECTION('',(0.,0.,1.));
#160=DIRECTION('',(1.,0.,0.));
#161=DIRECTION('',(0.,0.,-1.));
#162=DIRECTION('',(-1.,0.,0.));
#163=DIRECTION('',(0.,0.,1.));
#164=DIRECTION('',(1.,0.,0.));
#165=DIRECTION('',(0.,0.,1.));
#166=DIRECTION('',(1.,0.,0.));
#167=DIRECTION('',(0.,0.,1.));
#168=DIRECTION('',(1.,0.,0.));
#169=DIRECTION('',(0.,0.,1.));
#170=DIRECTION('',(1.,0.,0.));
#171=DIRECTION('',(0.,0.,1.));
#172=DIRECTION('',(1.,0.,0.));
#173=DIRECTION('',(0.,0.,1.));
#174=DIRECTION('',(1.,0.,0.));
#175=DIRECTION('',(0.,0.,1.));
#176=DIRECTION('',(1.,0.,0.));
#177=DIRECTION('',(0.,0.,1.));
#178=DIRECTION('',(1.,0.,0.));
#179=DIRECTION('',(0.,1.,0.));
#180=DIRECTION('',(0.,0.,1.));
#181=DIRECTION('',(0.,-1.,-1.22464679914735E-16));
#182=DIRECTION('',(0.,1.22464679914735E-16,-1.));
#183=DIRECTION('',(0.,-1.,0.));
#184=DIRECTION('',(0.,0.,-1.));
#185=DIRECTION('',(0.,1.22464679914735E-16,-1.));
#186=DIRECTION('',(0.,1.,1.22464679914735E-16));
#187=DIRECTION('',(0.,-1.38777878078145E-17,-1.));
#188=DIRECTION('',(0.,1.,-1.38777878078145E-17));
#189=CARTESIAN_POINT('',(0.,0.,0.));
#190=CARTESIAN_POINT('',(0.,0.0257457920364863,0.0075));
#191=CARTESIAN_POINT('',(-0.000392240856573347,0.0220125003480929,0.0012346459993778));
#192=CARTESIAN_POINT('',(9.60730637761126E-8,0.0219874456645621,0.00139739693596726));
#193=CARTESIAN_POINT('',(0.000391856564318244,0.0220124692125761,0.00123476484489381));
#194=CARTESIAN_POINT('',(0.000554038647492122,0.022037675709479,0.000843621954589217));
#195=CARTESIAN_POINT('',(0.000391988376745189,0.0220124769843555,0.000451423365875595));
#196=CARTESIAN_POINT('',(1.19277955842529E-7,0.0219874667197963,0.00028915421048371));
#197=CARTESIAN_POINT('',(-0.000391331081089632,0.022012408383974,0.000450958594810291));
#198=CARTESIAN_POINT('',(-0.000554106720305878,0.0220376850517431,0.000842682978032151));
#199=CARTESIAN_POINT('',(-0.000392240856573347,0.0220125003480929,0.0012346459993778));
#200=CARTESIAN_POINT('',(9.60730637761126E-8,0.0219874456645621,0.00139739693596726));
#201=CARTESIAN_POINT('',(0.000391856564318244,0.0220124692125761,0.00123476484489381));
#202=CARTESIAN_POINT('',(4.26120233202073E-19,0.0219957920364863,0.00134316643135678));
#203=CARTESIAN_POINT('',(0.000392240856573346,0.0220125003480929,0.00560852043197898));
#204=CARTESIAN_POINT('',(-9.60730637746964E-8,0.0219874456645621,0.00544576949538951));
#205=CARTESIAN_POINT('',(-0.000391856564318245,0.0220124692125761,0.00560840158646297));
#206=CARTESIAN_POINT('',(-0.000554038647492121,0.0220376757094789,0.00599954447676756));
#207=CARTESIAN_POINT('',(-0.000391988376745187,0.0220124769843555,0.00639174306548118));
#208=CARTESIAN_POINT('',(-1.19277955840881E-7,0.0219874667197963,0.00655401222087307));
#209=CARTESIAN_POINT('',(0.000391331081089633,0.022012408383974,0.00639220783654648));
#210=CARTESIAN_POINT('',(0.000554106720305879,0.0220376850517431,0.00600048345332462));
#211=CARTESIAN_POINT('',(0.000392240856573346,0.0220125003480929,0.00560852043197898));
#212=CARTESIAN_POINT('',(-9.60730637746964E-8,0.0219874456645621,0.00544576949538951));
#213=CARTESIAN_POINT('',(-0.000391856564318245,0.0220124692125761,0.00560840158646297));
#214=CARTESIAN_POINT('',(8.25708282421473E-21,0.0219957920364863,0.0055));
#215=CARTESIAN_POINT('',(0.,0.0257457920364863,0.0075));
#216=CARTESIAN_POINT('',(0.00375,0.0257457920364863,0.0075));
#217=CARTESIAN_POINT('',(0.,0.0257457920364863,0.));
#218=CARTESIAN_POINT('',(0.00375,0.0257457920364863,0.));
#219=CARTESIAN_POINT('',(0.,0.0257457920364863,0.0075));
#220=CARTESIAN_POINT('',(0.,0.0257457920364863,0.0075));
#221=CARTESIAN_POINT('',(0.003,0.0257457920364863,0.0075));
#222=CARTESIAN_POINT('',(0.,0.0257457920364863,0.));
#223=CARTESIAN_POINT('',(0.,0.0257457920364863,0.0015));
#224=CARTESIAN_POINT('',(0.,0.0257457920364863,0.0015));
#225=CARTESIAN_POINT('',(0.003,0.0257457920364863,0.0015));
#226=CARTESIAN_POINT('',(0.,0.0257457920364863,0.0015));
#227=CARTESIAN_POINT('',(3.25260651745652E-19,0.0208401231890317,0.000843166431356777));
#228=CARTESIAN_POINT('',(-0.0005,0.0210401231890316,0.000843166431356777));
#229=CARTESIAN_POINT('',(-0.0005,0.0210431111293579,0.000973494491745217));
#230=CARTESIAN_POINT('',(-0.00039167151458196,0.0210495117793993,0.00123526317358404));
#231=CARTESIAN_POINT('',(6.53608865906482E-8,0.0210537647499221,0.00139719135485048));
#232=CARTESIAN_POINT('',(0.000391927394671813,0.0210495044245952,0.00123496995055076));
#233=CARTESIAN_POINT('',(0.0005,0.0210431111293579,0.000973494491745216));
#234=CARTESIAN_POINT('',(0.0005,0.0210401231890317,0.000843166431356777));
#235=CARTESIAN_POINT('',(-0.0005,0.0210401231890316,0.000843166431356777));
#236=CARTESIAN_POINT('',(0.0005,0.0210401231890316,0.000843166431356777));
#237=CARTESIAN_POINT('',(-0.0005,0.0210401231890316,0.000843166431356777));
#238=CARTESIAN_POINT('',(-0.0005,0.0210371453386319,0.000712840205342727));
#239=CARTESIAN_POINT('',(-0.000391669016971782,0.0210311630317167,0.000451065707226147));
#240=CARTESIAN_POINT('',(6.58314208716954E-8,0.0210274618866076,0.000289143485481712));
#241=CARTESIAN_POINT('',(0.000391924684326592,0.0210311697344137,0.000451358983879959));
#242=CARTESIAN_POINT('',(0.0005,0.0210371453386332,0.000712840205342698));
#243=CARTESIAN_POINT('',(0.0005,0.0210401231890316,0.000843166431356777));
#244=CARTESIAN_POINT('',(3.25260651745652E-19,0.0226,0.006));
#245=CARTESIAN_POINT('',(3.25260651745652E-19,0.0211,0.006));
#246=CARTESIAN_POINT('',(3.25260651745652E-19,0.0211,0.0055));
#247=CARTESIAN_POINT('',(3.25260651745652E-19,0.0211,0.0055));
#248=CARTESIAN_POINT('',(3.25260651745652E-19,0.0208205691186571,0.0055));
#249=CARTESIAN_POINT('',(3.25260651745652E-19,0.0205433609023708,0.00537648923810525));
#250=CARTESIAN_POINT('',(3.25260651745652E-19,0.0202630658910013,0.00506485521582628));
#251=CARTESIAN_POINT('',(3.25260651745652E-19,0.0201919186760307,0.00494148612656156));
#252=CARTESIAN_POINT('',(3.25260651745652E-19,0.0201272454396967,0.00474213423542409));
#253=CARTESIAN_POINT('',(3.25260651745652E-19,0.0201126724842444,0.00467340187054436));
#254=CARTESIAN_POINT('',(3.25260651745652E-19,0.0200981511098168,0.00453438943354771));
#255=CARTESIAN_POINT('',(3.25260651745652E-19,0.0200963481560863,0.00448155800908866));
#256=CARTESIAN_POINT('',(3.25260651745652E-19,0.0201069270398969,0.00438180478237655));
#257=CARTESIAN_POINT('',(3.25260651745652E-19,0.0201083865386736,0.00436805126154082));
#258=CARTESIAN_POINT('',(3.25260651745652E-19,0.0201099268769847,0.00435354123820589));
#259=CARTESIAN_POINT('',(0.001,0.0211,0.0055));
#260=CARTESIAN_POINT('',(0.001,0.020820569118657,0.0055));
#261=CARTESIAN_POINT('',(0.001,0.0205433609023708,0.00537648923810524));
#262=CARTESIAN_POINT('',(0.001,0.0202630658910013,0.00506485521582628));
#263=CARTESIAN_POINT('',(0.001,0.0201919186760307,0.00494148612656157));
#264=CARTESIAN_POINT('',(0.001,0.0201272454396967,0.00474213423542409));
#265=CARTESIAN_POINT('',(0.001,0.0201126724842444,0.00467340187054437));
#266=CARTESIAN_POINT('',(0.001,0.0200981511098168,0.00453438943354771));
#267=CARTESIAN_POINT('',(0.001,0.0200963481560864,0.00448155800908866));
#268=CARTESIAN_POINT('',(0.001,0.0201069270398969,0.00438180478237654));
#269=CARTESIAN_POINT('',(0.001,0.0201083865386736,0.00436805126154081));
#270=CARTESIAN_POINT('',(0.001,0.0201099268769847,0.00435354123820589));
#271=CARTESIAN_POINT('',(0.001,0.0211,0.00649999999999999));
#272=CARTESIAN_POINT('',(0.001,0.0205411382373141,0.00649999999999999));
#273=CARTESIAN_POINT('',(0.001,0.0199867218047408,0.00625297847621232));
#274=CARTESIAN_POINT('',(0.001,0.019426131782003,0.00562971043165165));
#275=CARTESIAN_POINT('',(0.001,0.0192838373520613,0.00538297225312312));
#276=CARTESIAN_POINT('',(0.001,0.0191544908793934,0.00498426847084818));
#277=CARTESIAN_POINT('',(0.001,0.0191253449684886,0.00484680374108836));
#278=CARTESIAN_POINT('',(0.001,0.0190963022196337,0.00456877886709579));
#279=CARTESIAN_POINT('',(0.001,0.0190982486783974,0.00441082664933806));
#280=CARTESIAN_POINT('',(0.001,0.01911305110507,0.00427117157341792));
#281=CARTESIAN_POINT('',(0.001,0.0191148007535985,0.00425467686774669));
#282=CARTESIAN_POINT('',(0.001,0.019116471081447,0.00423893877047298));
#283=CARTESIAN_POINT('',(3.86492991703019E-19,0.0211,0.0065));
#284=CARTESIAN_POINT('',(3.86492991703019E-19,0.0205411382373141,0.0065));
#285=CARTESIAN_POINT('',(3.86492991703019E-19,0.0199867218047408,0.00625297847621231));
#286=CARTESIAN_POINT('',(3.86492991703019E-19,0.019426131782003,0.00562971043165165));
#287=CARTESIAN_POINT('',(3.86492991703019E-19,0.0192838373520614,0.00538297225312313));
#288=CARTESIAN_POINT('',(3.86492991703019E-19,0.0191544908793935,0.00498426847084818));
#289=CARTESIAN_POINT('',(3.86492991703019E-19,0.0191253449684886,0.00484680374108836));
#290=CARTESIAN_POINT('',(3.86492991703019E-19,0.0190963022196337,0.00456877886709579));
#291=CARTESIAN_POINT('',(3.86492991703019E-19,0.0190982486783975,0.00441082664933806));
#292=CARTESIAN_POINT('',(3.86492991703019E-19,0.01911305110507,0.00427117157341792));
#293=CARTESIAN_POINT('',(3.86492991703019E-19,0.0191148007535985,0.0042546768677467));
#294=CARTESIAN_POINT('',(3.86492991703019E-19,0.019116471081447,0.00423893877047299));
#295=CARTESIAN_POINT('',(-0.000999999999999999,0.0211,0.00649999999999999));
#296=CARTESIAN_POINT('',(-0.000999999999999999,0.0205411382373141,0.00649999999999999));
#297=CARTESIAN_POINT('',(-0.000999999999999999,0.0199867218047408,0.00625297847621232));
#298=CARTESIAN_POINT('',(-0.000999999999999999,0.019426131782003,0.00562971043165165));
#299=CARTESIAN_POINT('',(-0.000999999999999999,0.0192838373520613,0.00538297225312312));
#300=CARTESIAN_POINT('',(-0.000999999999999999,0.0191544908793934,0.00498426847084818));
#301=CARTESIAN_POINT('',(-0.000999999999999999,0.0191253449684886,0.00484680374108836));
#302=CARTESIAN_POINT('',(-0.000999999999999999,0.0190963022196337,0.00456877886709579));
#303=CARTESIAN_POINT('',(-0.000999999999999999,0.0190982486783974,0.00441082664933806));
#304=CARTESIAN_POINT('',(-0.000999999999999999,0.01911305110507,0.00427117157341792));
#305=CARTESIAN_POINT('',(-0.000999999999999999,0.0191148007535985,0.00425467686774669));
#306=CARTESIAN_POINT('',(-0.000999999999999999,0.019116471081447,0.00423893877047298));
#307=CARTESIAN_POINT('',(-0.000999999999999999,0.0211,0.0055));
#308=CARTESIAN_POINT('',(-0.000999999999999999,0.020820569118657,0.0055));
#309=CARTESIAN_POINT('',(-0.000999999999999999,0.0205433609023708,0.00537648923810524));
#310=CARTESIAN_POINT('',(-0.000999999999999999,0.0202630658910013,0.00506485521582628));
#311=CARTESIAN_POINT('',(-0.000999999999999999,0.0201919186760307,0.00494148612656157));
#312=CARTESIAN_POINT('',(-0.000999999999999999,0.0201272454396967,0.00474213423542409));
#313=CARTESIAN_POINT('',(-0.000999999999999999,0.0201126724842444,0.00467340187054437));
#314=CARTESIAN_POINT('',(-0.000999999999999999,0.0200981511098168,0.00453438943354771));
#315=CARTESIAN_POINT('',(-0.000999999999999999,0.0200963481560864,0.00448155800908866));
#316=CARTESIAN_POINT('',(-0.000999999999999999,0.0201069270398969,0.00438180478237654));
#317=CARTESIAN_POINT('',(-0.000999999999999999,0.0201083865386736,0.00436805126154081));
#318=CARTESIAN_POINT('',(-0.000999999999999999,0.0201099268769847,0.00435354123820589));
#319=CARTESIAN_POINT('',(3.25260651745652E-19,0.0211,0.0055));
#320=CARTESIAN_POINT('',(3.25260651745652E-19,0.0208205691186571,0.0055));
#321=CARTESIAN_POINT('',(3.25260651745652E-19,0.0205433609023708,0.00537648923810525));
#322=CARTESIAN_POINT('',(3.25260651745652E-19,0.0202630658910013,0.00506485521582628));
#323=CARTESIAN_POINT('',(3.25260651745652E-19,0.0201919186760307,0.00494148612656156));
#324=CARTESIAN_POINT('',(3.25260651745652E-19,0.0201272454396967,0.00474213423542409));
#325=CARTESIAN_POINT('',(3.25260651745652E-19,0.0201126724842444,0.00467340187054436));
#326=CARTESIAN_POINT('',(3.25260651745652E-19,0.0200981511098168,0.00453438943354771));
#327=CARTESIAN_POINT('',(3.25260651745652E-19,0.0200963481560863,0.00448155800908866));
#328=CARTESIAN_POINT('',(3.25260651745652E-19,0.0201069270398969,0.00438180478237655));
#329=CARTESIAN_POINT('',(3.25260651745652E-19,0.0201083865386736,0.00436805126154082));
#330=CARTESIAN_POINT('',(3.25260651745652E-19,0.0201099268769847,0.00435354123820589));
#331=CARTESIAN_POINT('',(0.0005,0.0196083856533326,0.00434161237164548));
#332=CARTESIAN_POINT('',(0.0005,0.0197385773139645,0.00434849444888692));
#333=CARTESIAN_POINT('',(0.000391880414103622,0.0200002478049588,0.00436233575333932));
#334=CARTESIAN_POINT('',(2.45975314692693E-7,0.0201623937728929,0.00437092106653872));
#335=CARTESIAN_POINT('',(-0.000391777968505194,0.0200004908267733,0.00436234861009225));
#336=CARTESIAN_POINT('',(-0.0005,0.0197385773136477,0.00434849445488403));
#337=CARTESIAN_POINT('',(-0.0005,0.0196083856533326,0.00434161237164551));
#338=CARTESIAN_POINT('',(0.0005,0.0196083856533326,0.00434161237164548));
#339=CARTESIAN_POINT('',(-0.0005,0.0196083856533326,0.00434161237164551));
#340=CARTESIAN_POINT('',(0.0005,0.0196083856533326,0.00434161237164548));
#341=CARTESIAN_POINT('',(0.0005,0.0194782065288516,0.00433474708939238));
#342=CARTESIAN_POINT('',(0.000391866358592123,0.0192164998463714,0.00432207545704773));
#343=CARTESIAN_POINT('',(2.43408264683173E-7,0.0190543897383864,0.00431548625831065));
#344=CARTESIAN_POINT('',(-0.000391760923052433,0.019216255314143,0.00432206427207506));
#345=CARTESIAN_POINT('',(-0.0005,0.0194782065286767,0.00433474709271183));
#346=CARTESIAN_POINT('',(-0.0005,0.0196083856533326,0.00434161237164551));
#347=CARTESIAN_POINT('',(3.25260651745652E-19,0.0196083856533326,0.00454161237164544));
#348=CARTESIAN_POINT('',(3.25260651745652E-19,0.0196083856533326,0.00234161237164545));
#349=CARTESIAN_POINT('',(3.25260651745652E-19,0.0201083856533326,0.00234161237164545));
#350=CARTESIAN_POINT('',(3.25260651745652E-19,0.0201083856533326,0.00234161237164545));
#351=CARTESIAN_POINT('',(3.25260651745652E-19,0.0201083856533326,0.00208740032254461));
#352=CARTESIAN_POINT('',(3.25260651745652E-19,0.0202097519832704,0.00183458124489411));
#353=CARTESIAN_POINT('',(3.25260651745652E-19,0.0204731763945209,0.00155888319955832));
#354=CARTESIAN_POINT('',(3.25260651745652E-19,0.02057849231092,0.00148407526279264));
#355=CARTESIAN_POINT('',(3.25260651745652E-19,0.0207520323421151,0.00140510207842192));
#356=CARTESIAN_POINT('',(3.25260651745652E-19,0.0208124054903044,0.00138430522912129));
#357=CARTESIAN_POINT('',(3.25260651745652E-19,0.0209360114052157,0.00135453165534074));
#358=CARTESIAN_POINT('',(3.25260651745652E-19,0.0209833205928246,0.00134628328905744));
#359=CARTESIAN_POINT('',(3.25260651745652E-19,0.0210694596512891,0.00134234767164412));
#360=CARTESIAN_POINT('',(3.25260651745652E-19,0.0210763542563712,0.00134203291357667));
#361=CARTESIAN_POINT('',(3.25260651745652E-19,0.0210835055986944,0.00134170663121594));
#362=CARTESIAN_POINT('',(0.001,0.0201083856533325,0.00234161237164544));
#363=CARTESIAN_POINT('',(0.001,0.0201083856533325,0.00208740032254461));
#364=CARTESIAN_POINT('',(0.001,0.0202097519832704,0.00183458124489411));
#365=CARTESIAN_POINT('',(0.001,0.0204731763945209,0.00155888319955833));
#366=CARTESIAN_POINT('',(0.001,0.0205784923109199,0.00148407526279264));
#367=CARTESIAN_POINT('',(0.001,0.0207520323421151,0.00140510207842192));
#368=CARTESIAN_POINT('',(0.001,0.0208124054903044,0.00138430522912129));
#369=CARTESIAN_POINT('',(0.001,0.0209360114052157,0.00135453165534074));
#370=CARTESIAN_POINT('',(0.001,0.0209833205928246,0.00134628328905744));
#371=CARTESIAN_POINT('',(0.001,0.0210694596512891,0.00134234767164412));
#372=CARTESIAN_POINT('',(0.001,0.0210763542563712,0.00134203291357667));
#373=CARTESIAN_POINT('',(0.001,0.0210835055986944,0.00134170663121594));
#374=CARTESIAN_POINT('',(0.001,0.0191083856533325,0.00234161237164544));
#375=CARTESIAN_POINT('',(0.001,0.0191083856533325,0.00183318827344378));
#376=CARTESIAN_POINT('',(0.001,0.0193111183132082,0.00132755011814277));
#377=CARTESIAN_POINT('',(0.001,0.0198379671357093,0.000776154027471205));
#378=CARTESIAN_POINT('',(0.001,0.0200485989685074,0.000626538153939792));
#379=CARTESIAN_POINT('',(0.001,0.0203956790308977,0.000468591785198416));
#380=CARTESIAN_POINT('',(0.001,0.020516425327276,0.000426998086597217));
#381=CARTESIAN_POINT('',(0.001,0.020763637157099,0.000367450939035966));
#382=CARTESIAN_POINT('',(0.001,0.0209059900480958,0.000348779636408832));
#383=CARTESIAN_POINT('',(0.001,0.0210265842262624,0.000343262889608574));
#384=CARTESIAN_POINT('',(0.001,0.0210354871663185,0.000342855969985052));
#385=CARTESIAN_POINT('',(0.001,0.0210441334066621,0.000342461087450802));
#386=CARTESIAN_POINT('',(3.86492991703019E-19,0.0191083856533325,0.00234161237164545));
#387=CARTESIAN_POINT('',(3.86492991703019E-19,0.0191083856533325,0.00183318827344378));
#388=CARTESIAN_POINT('',(3.86492991703019E-19,0.0193111183132082,0.00132755011814277));
#389=CARTESIAN_POINT('',(3.86492991703019E-19,0.0198379671357093,0.000776154027471206));
#390=CARTESIAN_POINT('',(3.86492991703019E-19,0.0200485989685074,0.000626538153939792));
#391=CARTESIAN_POINT('',(3.86492991703019E-19,0.0203956790308977,0.000468591785198416));
#392=CARTESIAN_POINT('',(3.86492991703019E-19,0.0205164253272761,0.000426998086597217));
#393=CARTESIAN_POINT('',(3.86492991703019E-19,0.020763637157099,0.000367450939035967));
#394=CARTESIAN_POINT('',(3.86492991703019E-19,0.0209059900480958,0.000348779636408832));
#395=CARTESIAN_POINT('',(3.86492991703019E-19,0.0210265842262624,0.000343262889608574));
#396=CARTESIAN_POINT('',(3.86492991703019E-19,0.0210354871663185,0.000342855969985053));
#397=CARTESIAN_POINT('',(3.86492991703019E-19,0.0210441334066621,0.000342461087450802));
#398=CARTESIAN_POINT('',(-0.000999999999999999,0.0191083856533325,0.00234161237164544));
#399=CARTESIAN_POINT('',(-0.000999999999999999,0.0191083856533325,0.00183318827344378));
#400=CARTESIAN_POINT('',(-0.000999999999999999,0.0193111183132082,0.00132755011814277));
#401=CARTESIAN_POINT('',(-0.000999999999999999,0.0198379671357093,0.000776154027471205));
#402=CARTESIAN_POINT('',(-0.000999999999999999,0.0200485989685074,0.000626538153939792));
#403=CARTESIAN_POINT('',(-0.000999999999999999,0.0203956790308977,0.000468591785198416));
#404=CARTESIAN_POINT('',(-0.000999999999999999,0.020516425327276,0.000426998086597217));
#405=CARTESIAN_POINT('',(-0.000999999999999999,0.020763637157099,0.000367450939035966));
#406=CARTESIAN_POINT('',(-0.000999999999999999,0.0209059900480958,0.000348779636408832));
#407=CARTESIAN_POINT('',(-0.000999999999999999,0.0210265842262624,0.000343262889608574));
#408=CARTESIAN_POINT('',(-0.000999999999999999,0.0210354871663185,0.000342855969985052));
#409=CARTESIAN_POINT('',(-0.000999999999999999,0.0210441334066621,0.000342461087450802));
#410=CARTESIAN_POINT('',(-0.000999999999999999,0.0201083856533325,0.00234161237164544));
#411=CARTESIAN_POINT('',(-0.000999999999999999,0.0201083856533325,0.00208740032254461));
#412=CARTESIAN_POINT('',(-0.000999999999999999,0.0202097519832704,0.00183458124489411));
#413=CARTESIAN_POINT('',(-0.000999999999999999,0.0204731763945209,0.00155888319955833));
#414=CARTESIAN_POINT('',(-0.000999999999999999,0.0205784923109199,0.00148407526279264));
#415=CARTESIAN_POINT('',(-0.000999999999999999,0.0207520323421151,0.00140510207842192));
#416=CARTESIAN_POINT('',(-0.000999999999999999,0.0208124054903044,0.00138430522912129));
#417=CARTESIAN_POINT('',(-0.000999999999999999,0.0209360114052157,0.00135453165534074));
#418=CARTESIAN_POINT('',(-0.000999999999999999,0.0209833205928246,0.00134628328905744));
#419=CARTESIAN_POINT('',(-0.000999999999999999,0.0210694596512891,0.00134234767164412));
#420=CARTESIAN_POINT('',(-0.000999999999999999,0.0210763542563712,0.00134203291357667));
#421=CARTESIAN_POINT('',(-0.000999999999999999,0.0210835055986944,0.00134170663121594));
#422=CARTESIAN_POINT('',(3.25260651745652E-19,0.0201083856533326,0.00234161237164545));
#423=CARTESIAN_POINT('',(3.25260651745652E-19,0.0201083856533326,0.00208740032254461));
#424=CARTESIAN_POINT('',(3.25260651745652E-19,0.0202097519832704,0.00183458124489411));
#425=CARTESIAN_POINT('',(3.25260651745652E-19,0.0204731763945209,0.00155888319955832));
#426=CARTESIAN_POINT('',(3.25260651745652E-19,0.02057849231092,0.00148407526279264));
#427=CARTESIAN_POINT('',(3.25260651745652E-19,0.0207520323421151,0.00140510207842192));
#428=CARTESIAN_POINT('',(3.25260651745652E-19,0.0208124054903044,0.00138430522912129));
#429=CARTESIAN_POINT('',(3.25260651745652E-19,0.0209360114052157,0.00135453165534074));
#430=CARTESIAN_POINT('',(3.25260651745652E-19,0.0209833205928246,0.00134628328905744));
#431=CARTESIAN_POINT('',(3.25260651745652E-19,0.0210694596512891,0.00134234767164412));
#432=CARTESIAN_POINT('',(3.25260651745652E-19,0.0210763542563712,0.00134203291357667));
#433=CARTESIAN_POINT('',(3.25260651745652E-19,0.0210835055986944,0.00134170663121594));
#434=MECHANICAL_DESIGN_GEOMETRIC_PRESENTATION_REPRESENTATION('',(#133),
#435);
#435=(
GEOMETRIC_REPRESENTATION_CONTEXT(3)
GLOBAL_UNCERTAINTY_ASSIGNED_CONTEXT((#436))
GLOBAL_UNIT_ASSIGNED_CONTEXT((#439,#438,#437))
REPRESENTATION_CONTEXT('Mug','TOP_LEVEL_ASSEMBLY_PART')
);
#436=UNCERTAINTY_MEASURE_WITH_UNIT(LENGTH_MEASURE(2.E-5),#439,
'DISTANCE_ACCURACY_VALUE','Maximum Tolerance applied to model');
#437=(
NAMED_UNIT(*)
SI_UNIT($,.STERADIAN.)
SOLID_ANGLE_UNIT()
);
#438=(
NAMED_UNIT(*)
PLANE_ANGLE_UNIT()
SI_UNIT($,.RADIAN.)
);
#439=(
LENGTH_UNIT()
NAMED_UNIT(*)
SI_UNIT($,.METRE.)
);
#440=PRODUCT_DEFINITION_SHAPE('','',#441);
#441=PRODUCT_DEFINITION('','',#443,#442);
#442=PRODUCT_DEFINITION_CONTEXT('',#449,'design');
#443=PRODUCT_DEFINITION_FORMATION_WITH_SPECIFIED_SOURCE('','',#445,
 .NOT_KNOWN.);
#444=PRODUCT_RELATED_PRODUCT_CATEGORY('','',(#445));
#445=PRODUCT('Mug','Mug','Mug',(#447));
#446=PRODUCT_CATEGORY('','');
#447=PRODUCT_CONTEXT('',#449,'mechanical');
#448=APPLICATION_PROTOCOL_DEFINITION('international standard',
'ap242_managed_model_based_3d_engineering',2020,#449);
#449=APPLICATION_CONTEXT('managed model based 3d engineering');
ENDSEC;
END-ISO-10303-21;
