ISO-10303-21;
HEADER;
/* Generated by software containing ST-Developer
 * from STEP Tools, Inc. (www.steptools.com) 
 */
/* OPTION: using custom renumber hook */

FILE_DESCRIPTION(
/* description */ ('STEP AP242 Edition 2',
'CAx-IF Rec.Pracs.---Representation and Presentation of Product Manufa
cturing Information (PMI)---4.0---2014-10-13',
'CAx-IF Rec.Pracs.---3D Tessellated Geometry---0.4---2014-09-14','2;1',
'CAx-IF Rec.Pracs.---User Defined Attributes---1.5---2016-08-15'),
/* implementation_level */ '2;1');

FILE_NAME(
/* name */ 'Assembly 1 - Nightstand',
/* time_stamp */ '2026-09-04T01:58:22Z',
/* author */ (''),
/* organization */ (''),
/* preprocessor_version */ 'ST-DEVELOPER v20',
/* originating_system */ 'ONSHAPE BY PTC INC, 1.220',
/* authorisation */ '  ');

FILE_SCHEMA (('AP242_MANAGED_MODEL_BASED_3D_ENGINEERING_MIM_LF { 1 0 10303 442 3 1 4 }'));
ENDSEC;

DATA;
#10=SHAPE_REPRESENTATION_RELATIONSHIP('','',#1375,#11);
#11=ADVANCED_BREP_SHAPE_REPRESENTATION('',(#1373),#2373);
#12=ELLIPSE('',#1436,0.00102425831468434,0.00072426);
#13=ELLIPSE('',#1446,0.00102425831468434,0.00072426);
#14=ELLIPSE('',#1448,0.00102425831468434,0.00072426);
#15=ELLIPSE('',#1450,0.00102425831468434,0.00072426);
#16=ELLIPSE('',#1452,0.00102425831468434,0.00072426);
#17=ELLIPSE('',#1478,0.00102425831468434,0.00072426);
#18=ELLIPSE('',#1480,0.00102425831468434,0.00072426);
#19=ELLIPSE('',#1498,0.00102425831468434,0.00072426);
#20=ELLIPSE('',#1500,0.00102425831468434,0.00072426);
#21=ELLIPSE('',#1504,0.00102425831468434,0.00072426);
#22=ELLIPSE('',#1506,0.00102425831468434,0.00072426);
#23=ELLIPSE('',#1523,0.00102425831468434,0.00072426);
#24=ELLIPSE('',#1526,0.00102425831468434,0.00072426);
#25=ELLIPSE('',#1527,0.00102425831468434,0.00072426);
#26=ELLIPSE('',#1529,0.00102425831468434,0.00072426);
#27=ELLIPSE('',#1531,0.00102425831468434,0.00072426);
#28=ELLIPSE('',#1534,0.00102425831468434,0.00072426);
#29=ELLIPSE('',#1535,0.00102425831468434,0.00072426);
#30=ELLIPSE('',#1537,0.00102425831468434,0.00072426);
#31=ELLIPSE('',#1539,0.00102425831468434,0.00072426);
#32=SPHERICAL_SURFACE('',#1425,0.00072426);
#33=SPHERICAL_SURFACE('',#1429,0.00072426);
#34=SPHERICAL_SURFACE('',#1441,0.00072426);
#35=SPHERICAL_SURFACE('',#1443,0.00072426);
#36=SPHERICAL_SURFACE('',#1453,0.00072426);
#37=SPHERICAL_SURFACE('',#1459,0.00072426);
#38=SPHERICAL_SURFACE('',#1466,0.00072426);
#39=SPHERICAL_SURFACE('',#1468,0.00072426);
#40=SPHERICAL_SURFACE('',#1475,0.00072426);
#41=SPHERICAL_SURFACE('',#1481,0.00072426);
#42=SPHERICAL_SURFACE('',#1491,0.00072426);
#43=SPHERICAL_SURFACE('',#1493,0.00072426);
#44=SPHERICAL_SURFACE('',#1495,0.00072426);
#45=SPHERICAL_SURFACE('',#1507,0.00072426);
#46=SPHERICAL_SURFACE('',#1518,0.00072426);
#47=SPHERICAL_SURFACE('',#1520,0.00072426);
#48=CYLINDRICAL_SURFACE('',#1407,0.001);
#49=CYLINDRICAL_SURFACE('',#1410,0.001);
#50=CYLINDRICAL_SURFACE('',#1413,0.00072426);
#51=CYLINDRICAL_SURFACE('',#1416,0.00072426);
#52=CYLINDRICAL_SURFACE('',#1419,0.00072426);
#53=CYLINDRICAL_SURFACE('',#1422,0.00072426);
#54=CYLINDRICAL_SURFACE('',#1427,0.00072426);
#55=CYLINDRICAL_SURFACE('',#1432,0.00072426);
#56=CYLINDRICAL_SURFACE('',#1434,0.00072426);
#57=CYLINDRICAL_SURFACE('',#1437,0.00072426);
#58=CYLINDRICAL_SURFACE('',#1439,0.00072426);
#59=CYLINDRICAL_SURFACE('',#1445,0.00072426);
#60=CYLINDRICAL_SURFACE('',#1447,0.00072426);
#61=CYLINDRICAL_SURFACE('',#1449,0.00072426);
#62=CYLINDRICAL_SURFACE('',#1451,0.00072426);
#63=CYLINDRICAL_SURFACE('',#1455,0.00072426);
#64=CYLINDRICAL_SURFACE('',#1457,0.00072426);
#65=CYLINDRICAL_SURFACE('',#1461,0.00072426);
#66=CYLINDRICAL_SURFACE('',#1463,0.00072426);
#67=CYLINDRICAL_SURFACE('',#1471,0.00072426);
#68=CYLINDRICAL_SURFACE('',#1473,0.00072426);
#69=CYLINDRICAL_SURFACE('',#1477,0.00072426);
#70=CYLINDRICAL_SURFACE('',#1479,0.00072426);
#71=CYLINDRICAL_SURFACE('',#1483,0.00072426);
#72=CYLINDRICAL_SURFACE('',#1485,0.00072426);
#73=CYLINDRICAL_SURFACE('',#1487,0.00072426);
#74=CYLINDRICAL_SURFACE('',#1489,0.00072426);
#75=CYLINDRICAL_SURFACE('',#1497,0.00072426);
#76=CYLINDRICAL_SURFACE('',#1499,0.00072426);
#77=CYLINDRICAL_SURFACE('',#1501,0.00072426);
#78=CYLINDRICAL_SURFACE('',#1503,0.00072426);
#79=CYLINDRICAL_SURFACE('',#1505,0.00072426);
#80=CYLINDRICAL_SURFACE('',#1510,0.00072426);
#81=CYLINDRICAL_SURFACE('',#1512,0.00072426);
#82=CYLINDRICAL_SURFACE('',#1514,0.00072426);
#83=CYLINDRICAL_SURFACE('',#1516,0.00072426);
#84=CYLINDRICAL_SURFACE('',#1522,0.00072426);
#85=CYLINDRICAL_SURFACE('',#1524,0.00072426);
#86=CYLINDRICAL_SURFACE('',#1525,0.00072426);
#87=CYLINDRICAL_SURFACE('',#1528,0.00072426);
#88=CYLINDRICAL_SURFACE('',#1530,0.00072426);
#89=CYLINDRICAL_SURFACE('',#1532,0.00072426);
#90=CYLINDRICAL_SURFACE('',#1533,0.00072426);
#91=CYLINDRICAL_SURFACE('',#1536,0.00072426);
#92=CYLINDRICAL_SURFACE('',#1538,0.00072426);
#93=CYLINDRICAL_SURFACE('',#1540,0.00072426);
#94=CIRCLE('',#1400,0.001);
#95=CIRCLE('',#1406,0.001);
#96=CIRCLE('',#1408,0.001);
#97=CIRCLE('',#1411,0.001);
#98=CIRCLE('',#1414,0.00072426);
#99=CIRCLE('',#1415,0.00072426);
#100=CIRCLE('',#1417,0.00072426);
#101=CIRCLE('',#1418,0.00072426);
#102=CIRCLE('',#1420,0.00072426);
#103=CIRCLE('',#1421,0.00072426);
#104=CIRCLE('',#1423,0.00072426);
#105=CIRCLE('',#1424,0.00072426);
#106=CIRCLE('',#1426,0.00072426);
#107=CIRCLE('',#1428,0.00072426);
#108=CIRCLE('',#1430,0.00072426);
#109=CIRCLE('',#1431,0.00072426);
#110=CIRCLE('',#1433,0.00072426);
#111=CIRCLE('',#1435,0.00072426);
#112=CIRCLE('',#1438,0.00072426);
#113=CIRCLE('',#1440,0.00072426);
#114=CIRCLE('',#1442,0.00072426);
#115=CIRCLE('',#1444,0.00072426);
#116=CIRCLE('',#1454,0.00072426);
#117=CIRCLE('',#1456,0.00072426);
#118=CIRCLE('',#1458,0.00072426);
#119=CIRCLE('',#1460,0.00072426);
#120=CIRCLE('',#1462,0.00072426);
#121=CIRCLE('',#1464,0.00072426);
#122=CIRCLE('',#1465,0.00072426);
#123=CIRCLE('',#1467,0.00072426);
#124=CIRCLE('',#1469,0.00072426);
#125=CIRCLE('',#1470,0.00072426);
#126=CIRCLE('',#1472,0.00072426);
#127=CIRCLE('',#1474,0.00072426);
#128=CIRCLE('',#1476,0.00072426);
#129=CIRCLE('',#1482,0.00072426);
#130=CIRCLE('',#1484,0.00072426);
#131=CIRCLE('',#1486,0.00072426);
#132=CIRCLE('',#1488,0.00072426);
#133=CIRCLE('',#1490,0.00072426);
#134=CIRCLE('',#1492,0.00072426);
#135=CIRCLE('',#1494,0.00072426);
#136=CIRCLE('',#1496,0.00072426);
#137=CIRCLE('',#1502,0.00072426);
#138=CIRCLE('',#1508,0.00072426);
#139=CIRCLE('',#1509,0.00072426);
#140=CIRCLE('',#1511,0.00072426);
#141=CIRCLE('',#1513,0.00072426);
#142=CIRCLE('',#1515,0.00072426);
#143=CIRCLE('',#1517,0.00072426);
#144=CIRCLE('',#1519,0.00072426);
#145=CIRCLE('',#1521,0.00072426);
#146=ORIENTED_EDGE('',*,*,#522,.T.);
#147=ORIENTED_EDGE('',*,*,#523,.T.);
#148=ORIENTED_EDGE('',*,*,#524,.T.);
#149=ORIENTED_EDGE('',*,*,#525,.T.);
#150=ORIENTED_EDGE('',*,*,#526,.T.);
#151=ORIENTED_EDGE('',*,*,#527,.T.);
#152=ORIENTED_EDGE('',*,*,#528,.T.);
#153=ORIENTED_EDGE('',*,*,#529,.T.);
#154=ORIENTED_EDGE('',*,*,#530,.T.);
#155=ORIENTED_EDGE('',*,*,#531,.T.);
#156=ORIENTED_EDGE('',*,*,#532,.T.);
#157=ORIENTED_EDGE('',*,*,#533,.T.);
#158=ORIENTED_EDGE('',*,*,#534,.T.);
#159=ORIENTED_EDGE('',*,*,#535,.T.);
#160=ORIENTED_EDGE('',*,*,#536,.T.);
#161=ORIENTED_EDGE('',*,*,#537,.T.);
#162=ORIENTED_EDGE('',*,*,#538,.T.);
#163=ORIENTED_EDGE('',*,*,#539,.T.);
#164=ORIENTED_EDGE('',*,*,#540,.T.);
#165=ORIENTED_EDGE('',*,*,#541,.T.);
#166=ORIENTED_EDGE('',*,*,#542,.T.);
#167=ORIENTED_EDGE('',*,*,#543,.T.);
#168=ORIENTED_EDGE('',*,*,#544,.T.);
#169=ORIENTED_EDGE('',*,*,#545,.T.);
#170=ORIENTED_EDGE('',*,*,#546,.T.);
#171=ORIENTED_EDGE('',*,*,#547,.T.);
#172=ORIENTED_EDGE('',*,*,#548,.T.);
#173=ORIENTED_EDGE('',*,*,#549,.T.);
#174=ORIENTED_EDGE('',*,*,#550,.T.);
#175=ORIENTED_EDGE('',*,*,#551,.T.);
#176=ORIENTED_EDGE('',*,*,#552,.T.);
#177=ORIENTED_EDGE('',*,*,#553,.T.);
#178=ORIENTED_EDGE('',*,*,#554,.T.);
#179=ORIENTED_EDGE('',*,*,#555,.T.);
#180=ORIENTED_EDGE('',*,*,#556,.T.);
#181=ORIENTED_EDGE('',*,*,#557,.T.);
#182=ORIENTED_EDGE('',*,*,#558,.T.);
#183=ORIENTED_EDGE('',*,*,#559,.T.);
#184=ORIENTED_EDGE('',*,*,#560,.T.);
#185=ORIENTED_EDGE('',*,*,#561,.T.);
#186=ORIENTED_EDGE('',*,*,#562,.T.);
#187=ORIENTED_EDGE('',*,*,#563,.T.);
#188=ORIENTED_EDGE('',*,*,#564,.T.);
#189=ORIENTED_EDGE('',*,*,#565,.T.);
#190=ORIENTED_EDGE('',*,*,#566,.T.);
#191=ORIENTED_EDGE('',*,*,#567,.T.);
#192=ORIENTED_EDGE('',*,*,#568,.T.);
#193=ORIENTED_EDGE('',*,*,#569,.T.);
#194=ORIENTED_EDGE('',*,*,#570,.T.);
#195=ORIENTED_EDGE('',*,*,#571,.T.);
#196=ORIENTED_EDGE('',*,*,#572,.T.);
#197=ORIENTED_EDGE('',*,*,#573,.T.);
#198=ORIENTED_EDGE('',*,*,#574,.T.);
#199=ORIENTED_EDGE('',*,*,#575,.T.);
#200=ORIENTED_EDGE('',*,*,#576,.T.);
#201=ORIENTED_EDGE('',*,*,#577,.T.);
#202=ORIENTED_EDGE('',*,*,#578,.T.);
#203=ORIENTED_EDGE('',*,*,#579,.T.);
#204=ORIENTED_EDGE('',*,*,#580,.T.);
#205=ORIENTED_EDGE('',*,*,#581,.T.);
#206=ORIENTED_EDGE('',*,*,#582,.T.);
#207=ORIENTED_EDGE('',*,*,#583,.T.);
#208=ORIENTED_EDGE('',*,*,#584,.F.);
#209=ORIENTED_EDGE('',*,*,#585,.T.);
#210=ORIENTED_EDGE('',*,*,#584,.T.);
#211=ORIENTED_EDGE('',*,*,#586,.T.);
#212=ORIENTED_EDGE('',*,*,#587,.T.);
#213=ORIENTED_EDGE('',*,*,#588,.T.);
#214=ORIENTED_EDGE('',*,*,#589,.T.);
#215=ORIENTED_EDGE('',*,*,#590,.T.);
#216=ORIENTED_EDGE('',*,*,#591,.F.);
#217=ORIENTED_EDGE('',*,*,#592,.F.);
#218=ORIENTED_EDGE('',*,*,#591,.T.);
#219=ORIENTED_EDGE('',*,*,#593,.T.);
#220=ORIENTED_EDGE('',*,*,#594,.T.);
#221=ORIENTED_EDGE('',*,*,#595,.T.);
#222=ORIENTED_EDGE('',*,*,#596,.T.);
#223=ORIENTED_EDGE('',*,*,#597,.T.);
#224=ORIENTED_EDGE('',*,*,#598,.F.);
#225=ORIENTED_EDGE('',*,*,#599,.F.);
#226=ORIENTED_EDGE('',*,*,#598,.T.);
#227=ORIENTED_EDGE('',*,*,#600,.T.);
#228=ORIENTED_EDGE('',*,*,#601,.T.);
#229=ORIENTED_EDGE('',*,*,#602,.F.);
#230=ORIENTED_EDGE('',*,*,#603,.T.);
#231=ORIENTED_EDGE('',*,*,#604,.T.);
#232=ORIENTED_EDGE('',*,*,#605,.F.);
#233=ORIENTED_EDGE('',*,*,#606,.T.);
#234=ORIENTED_EDGE('',*,*,#605,.T.);
#235=ORIENTED_EDGE('',*,*,#607,.T.);
#236=ORIENTED_EDGE('',*,*,#608,.T.);
#237=ORIENTED_EDGE('',*,*,#609,.F.);
#238=ORIENTED_EDGE('',*,*,#595,.F.);
#239=ORIENTED_EDGE('',*,*,#610,.T.);
#240=ORIENTED_EDGE('',*,*,#599,.T.);
#241=ORIENTED_EDGE('',*,*,#602,.T.);
#242=ORIENTED_EDGE('',*,*,#611,.T.);
#243=ORIENTED_EDGE('',*,*,#606,.F.);
#244=ORIENTED_EDGE('',*,*,#609,.T.);
#245=ORIENTED_EDGE('',*,*,#612,.T.);
#246=ORIENTED_EDGE('',*,*,#585,.F.);
#247=ORIENTED_EDGE('',*,*,#588,.F.);
#248=ORIENTED_EDGE('',*,*,#613,.T.);
#249=ORIENTED_EDGE('',*,*,#592,.T.);
#250=ORIENTED_EDGE('',*,*,#614,.T.);
#251=ORIENTED_EDGE('',*,*,#615,.T.);
#252=ORIENTED_EDGE('',*,*,#616,.F.);
#253=ORIENTED_EDGE('',*,*,#617,.T.);
#254=ORIENTED_EDGE('',*,*,#616,.T.);
#255=ORIENTED_EDGE('',*,*,#618,.T.);
#256=ORIENTED_EDGE('',*,*,#619,.F.);
#257=ORIENTED_EDGE('',*,*,#620,.F.);
#258=ORIENTED_EDGE('',*,*,#619,.T.);
#259=ORIENTED_EDGE('',*,*,#621,.T.);
#260=ORIENTED_EDGE('',*,*,#622,.F.);
#261=ORIENTED_EDGE('',*,*,#623,.F.);
#262=ORIENTED_EDGE('',*,*,#622,.T.);
#263=ORIENTED_EDGE('',*,*,#624,.T.);
#264=ORIENTED_EDGE('',*,*,#614,.F.);
#265=ORIENTED_EDGE('',*,*,#625,.T.);
#266=ORIENTED_EDGE('',*,*,#626,.F.);
#267=ORIENTED_EDGE('',*,*,#617,.F.);
#268=ORIENTED_EDGE('',*,*,#620,.T.);
#269=ORIENTED_EDGE('',*,*,#623,.T.);
#270=ORIENTED_EDGE('',*,*,#625,.F.);
#271=ORIENTED_EDGE('',*,*,#627,.T.);
#272=ORIENTED_EDGE('',*,*,#628,.T.);
#273=ORIENTED_EDGE('',*,*,#629,.F.);
#274=ORIENTED_EDGE('',*,*,#630,.T.);
#275=ORIENTED_EDGE('',*,*,#629,.T.);
#276=ORIENTED_EDGE('',*,*,#631,.T.);
#277=ORIENTED_EDGE('',*,*,#632,.F.);
#278=ORIENTED_EDGE('',*,*,#633,.F.);
#279=ORIENTED_EDGE('',*,*,#632,.T.);
#280=ORIENTED_EDGE('',*,*,#634,.T.);
#281=ORIENTED_EDGE('',*,*,#635,.F.);
#282=ORIENTED_EDGE('',*,*,#636,.F.);
#283=ORIENTED_EDGE('',*,*,#635,.T.);
#284=ORIENTED_EDGE('',*,*,#637,.T.);
#285=ORIENTED_EDGE('',*,*,#627,.F.);
#286=ORIENTED_EDGE('',*,*,#638,.T.);
#287=ORIENTED_EDGE('',*,*,#639,.F.);
#288=ORIENTED_EDGE('',*,*,#630,.F.);
#289=ORIENTED_EDGE('',*,*,#633,.T.);
#290=ORIENTED_EDGE('',*,*,#636,.T.);
#291=ORIENTED_EDGE('',*,*,#638,.F.);
#292=ORIENTED_EDGE('',*,*,#640,.F.);
#293=ORIENTED_EDGE('',*,*,#639,.T.);
#294=ORIENTED_EDGE('',*,*,#640,.T.);
#295=ORIENTED_EDGE('',*,*,#641,.F.);
#296=ORIENTED_EDGE('',*,*,#626,.T.);
#297=ORIENTED_EDGE('',*,*,#641,.T.);
#298=ORIENTED_EDGE('',*,*,#576,.F.);
#299=ORIENTED_EDGE('',*,*,#642,.T.);
#300=ORIENTED_EDGE('',*,*,#561,.F.);
#301=ORIENTED_EDGE('',*,*,#643,.T.);
#302=ORIENTED_EDGE('',*,*,#558,.F.);
#303=ORIENTED_EDGE('',*,*,#644,.T.);
#304=ORIENTED_EDGE('',*,*,#562,.F.);
#305=ORIENTED_EDGE('',*,*,#645,.T.);
#306=ORIENTED_EDGE('',*,*,#560,.F.);
#307=ORIENTED_EDGE('',*,*,#646,.T.);
#308=ORIENTED_EDGE('',*,*,#550,.F.);
#309=ORIENTED_EDGE('',*,*,#647,.T.);
#310=ORIENTED_EDGE('',*,*,#559,.F.);
#311=ORIENTED_EDGE('',*,*,#648,.T.);
#312=ORIENTED_EDGE('',*,*,#530,.F.);
#313=ORIENTED_EDGE('',*,*,#649,.T.);
#314=ORIENTED_EDGE('',*,*,#643,.F.);
#315=ORIENTED_EDGE('',*,*,#647,.F.);
#316=ORIENTED_EDGE('',*,*,#650,.F.);
#317=ORIENTED_EDGE('',*,*,#651,.F.);
#318=ORIENTED_EDGE('',*,*,#577,.F.);
#319=ORIENTED_EDGE('',*,*,#650,.T.);
#320=ORIENTED_EDGE('',*,*,#557,.F.);
#321=ORIENTED_EDGE('',*,*,#652,.F.);
#322=ORIENTED_EDGE('',*,*,#651,.T.);
#323=ORIENTED_EDGE('',*,*,#653,.F.);
#324=ORIENTED_EDGE('',*,*,#653,.T.);
#325=ORIENTED_EDGE('',*,*,#556,.F.);
#326=ORIENTED_EDGE('',*,*,#654,.F.);
#327=ORIENTED_EDGE('',*,*,#570,.F.);
#328=ORIENTED_EDGE('',*,*,#655,.F.);
#329=ORIENTED_EDGE('',*,*,#607,.F.);
#330=ORIENTED_EDGE('',*,*,#656,.F.);
#331=ORIENTED_EDGE('',*,*,#571,.F.);
#332=ORIENTED_EDGE('',*,*,#656,.T.);
#333=ORIENTED_EDGE('',*,*,#604,.F.);
#334=ORIENTED_EDGE('',*,*,#657,.F.);
#335=ORIENTED_EDGE('',*,*,#572,.F.);
#336=ORIENTED_EDGE('',*,*,#652,.T.);
#337=ORIENTED_EDGE('',*,*,#573,.F.);
#338=ORIENTED_EDGE('',*,*,#658,.F.);
#339=ORIENTED_EDGE('',*,*,#578,.F.);
#340=ORIENTED_EDGE('',*,*,#655,.T.);
#341=ORIENTED_EDGE('',*,*,#654,.T.);
#342=ORIENTED_EDGE('',*,*,#659,.F.);
#343=ORIENTED_EDGE('',*,*,#658,.T.);
#344=ORIENTED_EDGE('',*,*,#657,.T.);
#345=ORIENTED_EDGE('',*,*,#660,.F.);
#346=ORIENTED_EDGE('',*,*,#659,.T.);
#347=ORIENTED_EDGE('',*,*,#555,.F.);
#348=ORIENTED_EDGE('',*,*,#661,.F.);
#349=ORIENTED_EDGE('',*,*,#608,.F.);
#350=ORIENTED_EDGE('',*,*,#660,.T.);
#351=ORIENTED_EDGE('',*,*,#603,.F.);
#352=ORIENTED_EDGE('',*,*,#662,.F.);
#353=ORIENTED_EDGE('',*,*,#579,.F.);
#354=ORIENTED_EDGE('',*,*,#661,.T.);
#355=ORIENTED_EDGE('',*,*,#554,.F.);
#356=ORIENTED_EDGE('',*,*,#663,.F.);
#357=ORIENTED_EDGE('',*,*,#612,.F.);
#358=ORIENTED_EDGE('',*,*,#662,.T.);
#359=ORIENTED_EDGE('',*,*,#611,.F.);
#360=ORIENTED_EDGE('',*,*,#664,.F.);
#361=ORIENTED_EDGE('',*,*,#580,.F.);
#362=ORIENTED_EDGE('',*,*,#646,.F.);
#363=ORIENTED_EDGE('',*,*,#649,.F.);
#364=ORIENTED_EDGE('',*,*,#665,.F.);
#365=ORIENTED_EDGE('',*,*,#663,.T.);
#366=ORIENTED_EDGE('',*,*,#553,.F.);
#367=ORIENTED_EDGE('',*,*,#666,.F.);
#368=ORIENTED_EDGE('',*,*,#582,.F.);
#369=ORIENTED_EDGE('',*,*,#664,.T.);
#370=ORIENTED_EDGE('',*,*,#601,.F.);
#371=ORIENTED_EDGE('',*,*,#667,.F.);
#372=ORIENTED_EDGE('',*,*,#581,.F.);
#373=ORIENTED_EDGE('',*,*,#644,.F.);
#374=ORIENTED_EDGE('',*,*,#642,.F.);
#375=ORIENTED_EDGE('',*,*,#668,.F.);
#376=ORIENTED_EDGE('',*,*,#665,.T.);
#377=ORIENTED_EDGE('',*,*,#537,.F.);
#378=ORIENTED_EDGE('',*,*,#669,.F.);
#379=ORIENTED_EDGE('',*,*,#551,.F.);
#380=ORIENTED_EDGE('',*,*,#670,.F.);
#381=ORIENTED_EDGE('',*,*,#552,.F.);
#382=ORIENTED_EDGE('',*,*,#671,.F.);
#383=ORIENTED_EDGE('',*,*,#548,.F.);
#384=ORIENTED_EDGE('',*,*,#666,.T.);
#385=ORIENTED_EDGE('',*,*,#670,.T.);
#386=ORIENTED_EDGE('',*,*,#672,.F.);
#387=ORIENTED_EDGE('',*,*,#673,.F.);
#388=ORIENTED_EDGE('',*,*,#674,.F.);
#389=ORIENTED_EDGE('',*,*,#667,.T.);
#390=ORIENTED_EDGE('',*,*,#674,.T.);
#391=ORIENTED_EDGE('',*,*,#545,.F.);
#392=ORIENTED_EDGE('',*,*,#675,.F.);
#393=ORIENTED_EDGE('',*,*,#574,.F.);
#394=ORIENTED_EDGE('',*,*,#668,.T.);
#395=ORIENTED_EDGE('',*,*,#575,.F.);
#396=ORIENTED_EDGE('',*,*,#676,.F.);
#397=ORIENTED_EDGE('',*,*,#563,.F.);
#398=ORIENTED_EDGE('',*,*,#671,.T.);
#399=ORIENTED_EDGE('',*,*,#669,.T.);
#400=ORIENTED_EDGE('',*,*,#677,.F.);
#401=ORIENTED_EDGE('',*,*,#672,.T.);
#402=ORIENTED_EDGE('',*,*,#547,.F.);
#403=ORIENTED_EDGE('',*,*,#678,.F.);
#404=ORIENTED_EDGE('',*,*,#583,.F.);
#405=ORIENTED_EDGE('',*,*,#673,.T.);
#406=ORIENTED_EDGE('',*,*,#600,.F.);
#407=ORIENTED_EDGE('',*,*,#679,.F.);
#408=ORIENTED_EDGE('',*,*,#542,.F.);
#409=ORIENTED_EDGE('',*,*,#676,.T.);
#410=ORIENTED_EDGE('',*,*,#675,.T.);
#411=ORIENTED_EDGE('',*,*,#680,.F.);
#412=ORIENTED_EDGE('',*,*,#677,.T.);
#413=ORIENTED_EDGE('',*,*,#536,.F.);
#414=ORIENTED_EDGE('',*,*,#681,.F.);
#415=ORIENTED_EDGE('',*,*,#549,.F.);
#416=ORIENTED_EDGE('',*,*,#678,.T.);
#417=ORIENTED_EDGE('',*,*,#546,.F.);
#418=ORIENTED_EDGE('',*,*,#682,.F.);
#419=ORIENTED_EDGE('',*,*,#586,.F.);
#420=ORIENTED_EDGE('',*,*,#679,.T.);
#421=ORIENTED_EDGE('',*,*,#597,.F.);
#422=ORIENTED_EDGE('',*,*,#683,.F.);
#423=ORIENTED_EDGE('',*,*,#543,.F.);
#424=ORIENTED_EDGE('',*,*,#680,.T.);
#425=ORIENTED_EDGE('',*,*,#544,.F.);
#426=ORIENTED_EDGE('',*,*,#684,.F.);
#427=ORIENTED_EDGE('',*,*,#564,.F.);
#428=ORIENTED_EDGE('',*,*,#682,.T.);
#429=ORIENTED_EDGE('',*,*,#681,.T.);
#430=ORIENTED_EDGE('',*,*,#685,.F.);
#431=ORIENTED_EDGE('',*,*,#684,.T.);
#432=ORIENTED_EDGE('',*,*,#683,.T.);
#433=ORIENTED_EDGE('',*,*,#686,.F.);
#434=ORIENTED_EDGE('',*,*,#648,.F.);
#435=ORIENTED_EDGE('',*,*,#645,.F.);
#436=ORIENTED_EDGE('',*,*,#687,.F.);
#437=ORIENTED_EDGE('',*,*,#685,.T.);
#438=ORIENTED_EDGE('',*,*,#535,.F.);
#439=ORIENTED_EDGE('',*,*,#688,.F.);
#440=ORIENTED_EDGE('',*,*,#587,.F.);
#441=ORIENTED_EDGE('',*,*,#686,.T.);
#442=ORIENTED_EDGE('',*,*,#596,.F.);
#443=ORIENTED_EDGE('',*,*,#689,.F.);
#444=ORIENTED_EDGE('',*,*,#565,.F.);
#445=ORIENTED_EDGE('',*,*,#687,.T.);
#446=ORIENTED_EDGE('',*,*,#569,.F.);
#447=ORIENTED_EDGE('',*,*,#690,.F.);
#448=ORIENTED_EDGE('',*,*,#531,.F.);
#449=ORIENTED_EDGE('',*,*,#688,.T.);
#450=ORIENTED_EDGE('',*,*,#534,.F.);
#451=ORIENTED_EDGE('',*,*,#691,.F.);
#452=ORIENTED_EDGE('',*,*,#613,.F.);
#453=ORIENTED_EDGE('',*,*,#689,.T.);
#454=ORIENTED_EDGE('',*,*,#610,.F.);
#455=ORIENTED_EDGE('',*,*,#692,.F.);
#456=ORIENTED_EDGE('',*,*,#566,.F.);
#457=ORIENTED_EDGE('',*,*,#693,.F.);
#458=ORIENTED_EDGE('',*,*,#694,.F.);
#459=ORIENTED_EDGE('',*,*,#690,.T.);
#460=ORIENTED_EDGE('',*,*,#694,.T.);
#461=ORIENTED_EDGE('',*,*,#541,.F.);
#462=ORIENTED_EDGE('',*,*,#695,.F.);
#463=ORIENTED_EDGE('',*,*,#532,.F.);
#464=ORIENTED_EDGE('',*,*,#691,.T.);
#465=ORIENTED_EDGE('',*,*,#533,.F.);
#466=ORIENTED_EDGE('',*,*,#696,.F.);
#467=ORIENTED_EDGE('',*,*,#589,.F.);
#468=ORIENTED_EDGE('',*,*,#692,.T.);
#469=ORIENTED_EDGE('',*,*,#594,.F.);
#470=ORIENTED_EDGE('',*,*,#697,.F.);
#471=ORIENTED_EDGE('',*,*,#567,.F.);
#472=ORIENTED_EDGE('',*,*,#693,.T.);
#473=ORIENTED_EDGE('',*,*,#568,.F.);
#474=ORIENTED_EDGE('',*,*,#698,.F.);
#475=ORIENTED_EDGE('',*,*,#538,.F.);
#476=ORIENTED_EDGE('',*,*,#696,.T.);
#477=ORIENTED_EDGE('',*,*,#695,.T.);
#478=ORIENTED_EDGE('',*,*,#699,.F.);
#479=ORIENTED_EDGE('',*,*,#698,.T.);
#480=ORIENTED_EDGE('',*,*,#697,.T.);
#481=ORIENTED_EDGE('',*,*,#700,.F.);
#482=ORIENTED_EDGE('',*,*,#699,.T.);
#483=ORIENTED_EDGE('',*,*,#540,.F.);
#484=ORIENTED_EDGE('',*,*,#701,.F.);
#485=ORIENTED_EDGE('',*,*,#590,.F.);
#486=ORIENTED_EDGE('',*,*,#700,.T.);
#487=ORIENTED_EDGE('',*,*,#593,.F.);
#488=ORIENTED_EDGE('',*,*,#701,.T.);
#489=ORIENTED_EDGE('',*,*,#539,.F.);
#490=ORIENTED_EDGE('',*,*,#702,.F.);
#491=ORIENTED_EDGE('',*,*,#618,.F.);
#492=ORIENTED_EDGE('',*,*,#703,.F.);
#493=ORIENTED_EDGE('',*,*,#524,.F.);
#494=ORIENTED_EDGE('',*,*,#703,.T.);
#495=ORIENTED_EDGE('',*,*,#615,.F.);
#496=ORIENTED_EDGE('',*,*,#704,.F.);
#497=ORIENTED_EDGE('',*,*,#525,.F.);
#498=ORIENTED_EDGE('',*,*,#702,.T.);
#499=ORIENTED_EDGE('',*,*,#523,.F.);
#500=ORIENTED_EDGE('',*,*,#705,.F.);
#501=ORIENTED_EDGE('',*,*,#621,.F.);
#502=ORIENTED_EDGE('',*,*,#704,.T.);
#503=ORIENTED_EDGE('',*,*,#624,.F.);
#504=ORIENTED_EDGE('',*,*,#705,.T.);
#505=ORIENTED_EDGE('',*,*,#522,.F.);
#506=ORIENTED_EDGE('',*,*,#706,.F.);
#507=ORIENTED_EDGE('',*,*,#631,.F.);
#508=ORIENTED_EDGE('',*,*,#707,.F.);
#509=ORIENTED_EDGE('',*,*,#528,.F.);
#510=ORIENTED_EDGE('',*,*,#707,.T.);
#511=ORIENTED_EDGE('',*,*,#628,.F.);
#512=ORIENTED_EDGE('',*,*,#708,.F.);
#513=ORIENTED_EDGE('',*,*,#529,.F.);
#514=ORIENTED_EDGE('',*,*,#706,.T.);
#515=ORIENTED_EDGE('',*,*,#527,.F.);
#516=ORIENTED_EDGE('',*,*,#709,.F.);
#517=ORIENTED_EDGE('',*,*,#634,.F.);
#518=ORIENTED_EDGE('',*,*,#708,.T.);
#519=ORIENTED_EDGE('',*,*,#637,.F.);
#520=ORIENTED_EDGE('',*,*,#709,.T.);
#521=ORIENTED_EDGE('',*,*,#526,.F.);
#522=EDGE_CURVE('',#710,#711,#814,.T.);
#523=EDGE_CURVE('',#711,#712,#815,.F.);
#524=EDGE_CURVE('',#712,#713,#816,.F.);
#525=EDGE_CURVE('',#713,#710,#817,.T.);
#526=EDGE_CURVE('',#714,#715,#818,.T.);
#527=EDGE_CURVE('',#715,#716,#819,.F.);
#528=EDGE_CURVE('',#716,#717,#820,.F.);
#529=EDGE_CURVE('',#717,#714,#821,.T.);
#530=EDGE_CURVE('',#718,#719,#822,.F.);
#531=EDGE_CURVE('',#719,#720,#823,.T.);
#532=EDGE_CURVE('',#720,#721,#824,.T.);
#533=EDGE_CURVE('',#721,#722,#825,.F.);
#534=EDGE_CURVE('',#722,#723,#826,.T.);
#535=EDGE_CURVE('',#723,#724,#827,.T.);
#536=EDGE_CURVE('',#724,#725,#828,.T.);
#537=EDGE_CURVE('',#725,#718,#829,.F.);
#538=EDGE_CURVE('',#726,#727,#830,.T.);
#539=EDGE_CURVE('',#727,#728,#831,.T.);
#540=EDGE_CURVE('',#728,#729,#832,.F.);
#541=EDGE_CURVE('',#729,#726,#833,.F.);
#542=EDGE_CURVE('',#730,#731,#834,.F.);
#543=EDGE_CURVE('',#731,#732,#835,.F.);
#544=EDGE_CURVE('',#732,#733,#836,.T.);
#545=EDGE_CURVE('',#733,#730,#837,.T.);
#546=EDGE_CURVE('',#734,#735,#838,.T.);
#547=EDGE_CURVE('',#735,#736,#839,.T.);
#548=EDGE_CURVE('',#736,#737,#840,.F.);
#549=EDGE_CURVE('',#737,#734,#841,.F.);
#550=EDGE_CURVE('',#738,#739,#842,.F.);
#551=EDGE_CURVE('',#739,#740,#843,.T.);
#552=EDGE_CURVE('',#740,#741,#844,.T.);
#553=EDGE_CURVE('',#741,#742,#845,.F.);
#554=EDGE_CURVE('',#742,#743,#846,.T.);
#555=EDGE_CURVE('',#743,#744,#847,.T.);
#556=EDGE_CURVE('',#744,#745,#848,.T.);
#557=EDGE_CURVE('',#745,#738,#849,.F.);
#558=EDGE_CURVE('',#746,#747,#850,.F.);
#559=EDGE_CURVE('',#747,#748,#851,.T.);
#560=EDGE_CURVE('',#748,#749,#852,.T.);
#561=EDGE_CURVE('',#749,#746,#853,.F.);
#562=EDGE_CURVE('',#750,#751,#854,.T.);
#563=EDGE_CURVE('',#751,#752,#855,.T.);
#564=EDGE_CURVE('',#752,#753,#856,.F.);
#565=EDGE_CURVE('',#753,#754,#857,.F.);
#566=EDGE_CURVE('',#754,#755,#858,.F.);
#567=EDGE_CURVE('',#755,#756,#859,.T.);
#568=EDGE_CURVE('',#756,#757,#860,.F.);
#569=EDGE_CURVE('',#757,#750,#861,.F.);
#570=EDGE_CURVE('',#758,#759,#862,.F.);
#571=EDGE_CURVE('',#759,#760,#863,.F.);
#572=EDGE_CURVE('',#760,#761,#864,.T.);
#573=EDGE_CURVE('',#761,#758,#865,.T.);
#574=EDGE_CURVE('',#762,#763,#866,.F.);
#575=EDGE_CURVE('',#763,#764,#867,.F.);
#576=EDGE_CURVE('',#764,#765,#868,.T.);
#577=EDGE_CURVE('',#765,#766,#869,.T.);
#578=EDGE_CURVE('',#766,#767,#870,.F.);
#579=EDGE_CURVE('',#767,#768,#871,.F.);
#580=EDGE_CURVE('',#768,#769,#872,.F.);
#581=EDGE_CURVE('',#769,#762,#873,.T.);
#582=EDGE_CURVE('',#770,#771,#874,.T.);
#583=EDGE_CURVE('',#771,#772,#875,.F.);
#584=EDGE_CURVE('',#773,#772,#876,.T.);
#585=EDGE_CURVE('',#773,#770,#877,.T.);
#586=EDGE_CURVE('',#772,#774,#878,.F.);
#587=EDGE_CURVE('',#774,#775,#879,.F.);
#588=EDGE_CURVE('',#775,#773,#880,.T.);
#589=EDGE_CURVE('',#776,#777,#881,.T.);
#590=EDGE_CURVE('',#777,#778,#882,.T.);
#591=EDGE_CURVE('',#779,#778,#883,.T.);
#592=EDGE_CURVE('',#776,#779,#884,.T.);
#593=EDGE_CURVE('',#778,#780,#885,.F.);
#594=EDGE_CURVE('',#780,#781,#886,.F.);
#595=EDGE_CURVE('',#781,#779,#887,.T.);
#596=EDGE_CURVE('',#782,#783,#888,.T.);
#597=EDGE_CURVE('',#783,#784,#889,.T.);
#598=EDGE_CURVE('',#785,#784,#890,.T.);
#599=EDGE_CURVE('',#782,#785,#891,.T.);
#600=EDGE_CURVE('',#784,#786,#892,.T.);
#601=EDGE_CURVE('',#786,#787,#893,.F.);
#602=EDGE_CURVE('',#785,#787,#894,.T.);
#603=EDGE_CURVE('',#788,#789,#895,.T.);
#604=EDGE_CURVE('',#789,#790,#896,.F.);
#605=EDGE_CURVE('',#791,#790,#897,.T.);
#606=EDGE_CURVE('',#791,#788,#898,.T.);
#607=EDGE_CURVE('',#790,#792,#899,.T.);
#608=EDGE_CURVE('',#792,#793,#900,.F.);
#609=EDGE_CURVE('',#791,#793,#901,.T.);
#610=EDGE_CURVE('',#781,#782,#902,.T.);
#611=EDGE_CURVE('',#787,#788,#903,.T.);
#612=EDGE_CURVE('',#793,#770,#904,.F.);
#613=EDGE_CURVE('',#775,#776,#905,.F.);
#614=EDGE_CURVE('',#794,#795,#906,.T.);
#615=EDGE_CURVE('',#795,#796,#907,.F.);
#616=EDGE_CURVE('',#797,#796,#908,.T.);
#617=EDGE_CURVE('',#797,#794,#909,.T.);
#618=EDGE_CURVE('',#796,#798,#910,.T.);
#619=EDGE_CURVE('',#799,#798,#911,.T.);
#620=EDGE_CURVE('',#797,#799,#912,.T.);
#621=EDGE_CURVE('',#798,#800,#913,.T.);
#622=EDGE_CURVE('',#801,#800,#914,.T.);
#623=EDGE_CURVE('',#799,#801,#915,.T.);
#624=EDGE_CURVE('',#800,#795,#916,.F.);
#625=EDGE_CURVE('',#794,#801,#917,.T.);
#626=EDGE_CURVE('',#802,#802,#94,.T.);
#627=EDGE_CURVE('',#803,#804,#918,.T.);
#628=EDGE_CURVE('',#804,#805,#919,.F.);
#629=EDGE_CURVE('',#806,#805,#920,.T.);
#630=EDGE_CURVE('',#806,#803,#921,.T.);
#631=EDGE_CURVE('',#805,#807,#922,.T.);
#632=EDGE_CURVE('',#808,#807,#923,.T.);
#633=EDGE_CURVE('',#806,#808,#924,.T.);
#634=EDGE_CURVE('',#807,#809,#925,.T.);
#635=EDGE_CURVE('',#810,#809,#926,.T.);
#636=EDGE_CURVE('',#808,#810,#927,.T.);
#637=EDGE_CURVE('',#809,#804,#928,.F.);
#638=EDGE_CURVE('',#803,#810,#929,.T.);
#639=EDGE_CURVE('',#811,#811,#95,.T.);
#640=EDGE_CURVE('',#812,#812,#96,.T.);
#641=EDGE_CURVE('',#813,#813,#97,.T.);
#642=EDGE_CURVE('',#764,#746,#98,.F.);
#643=EDGE_CURVE('',#749,#765,#99,.T.);
#644=EDGE_CURVE('',#746,#751,#100,.T.);
#645=EDGE_CURVE('',#750,#747,#101,.F.);
#646=EDGE_CURVE('',#748,#739,#102,.T.);
#647=EDGE_CURVE('',#738,#749,#103,.F.);
#648=EDGE_CURVE('',#747,#719,#104,.T.);
#649=EDGE_CURVE('',#718,#748,#105,.F.);
#650=EDGE_CURVE('',#765,#738,#106,.T.);
#651=EDGE_CURVE('',#766,#745,#107,.T.);
#652=EDGE_CURVE('',#766,#758,#108,.F.);
#653=EDGE_CURVE('',#758,#745,#109,.F.);
#654=EDGE_CURVE('',#759,#744,#110,.T.);
#655=EDGE_CURVE('',#792,#759,#111,.T.);
#656=EDGE_CURVE('',#760,#790,#12,.F.);
#657=EDGE_CURVE('',#761,#789,#112,.T.);
#658=EDGE_CURVE('',#767,#761,#113,.T.);
#659=EDGE_CURVE('',#792,#744,#114,.F.);
#660=EDGE_CURVE('',#767,#789,#115,.F.);
#661=EDGE_CURVE('',#793,#743,#13,.T.);
#662=EDGE_CURVE('',#768,#788,#14,.T.);
#663=EDGE_CURVE('',#770,#742,#15,.T.);
#664=EDGE_CURVE('',#769,#787,#16,.T.);
#665=EDGE_CURVE('',#739,#718,#116,.T.);
#666=EDGE_CURVE('',#771,#741,#117,.T.);
#667=EDGE_CURVE('',#762,#786,#118,.T.);
#668=EDGE_CURVE('',#751,#764,#119,.T.);
#669=EDGE_CURVE('',#740,#725,#120,.T.);
#670=EDGE_CURVE('',#741,#736,#121,.T.);
#671=EDGE_CURVE('',#737,#740,#122,.T.);
#672=EDGE_CURVE('',#771,#736,#123,.F.);
#673=EDGE_CURVE('',#730,#786,#124,.F.);
#674=EDGE_CURVE('',#762,#730,#125,.F.);
#675=EDGE_CURVE('',#763,#733,#126,.T.);
#676=EDGE_CURVE('',#752,#763,#127,.T.);
#677=EDGE_CURVE('',#737,#725,#128,.F.);
#678=EDGE_CURVE('',#772,#735,#17,.T.);
#679=EDGE_CURVE('',#731,#784,#18,.F.);
#680=EDGE_CURVE('',#752,#733,#129,.F.);
#681=EDGE_CURVE('',#734,#724,#130,.T.);
#682=EDGE_CURVE('',#774,#734,#131,.T.);
#683=EDGE_CURVE('',#732,#783,#132,.T.);
#684=EDGE_CURVE('',#753,#732,#133,.T.);
#685=EDGE_CURVE('',#774,#724,#134,.F.);
#686=EDGE_CURVE('',#753,#783,#135,.F.);
#687=EDGE_CURVE('',#719,#750,#136,.T.);
#688=EDGE_CURVE('',#775,#723,#19,.F.);
#689=EDGE_CURVE('',#754,#782,#20,.F.);
#690=EDGE_CURVE('',#720,#757,#137,.T.);
#691=EDGE_CURVE('',#776,#722,#21,.F.);
#692=EDGE_CURVE('',#755,#781,#22,.F.);
#693=EDGE_CURVE('',#726,#757,#138,.F.);
#694=EDGE_CURVE('',#720,#726,#139,.F.);
#695=EDGE_CURVE('',#721,#729,#140,.T.);
#696=EDGE_CURVE('',#777,#721,#141,.T.);
#697=EDGE_CURVE('',#756,#780,#142,.T.);
#698=EDGE_CURVE('',#727,#756,#143,.T.);
#699=EDGE_CURVE('',#777,#729,#144,.F.);
#700=EDGE_CURVE('',#727,#780,#145,.F.);
#701=EDGE_CURVE('',#778,#728,#23,.T.);
#702=EDGE_CURVE('',#798,#712,#24,.F.);
#703=EDGE_CURVE('',#713,#796,#25,.T.);
#704=EDGE_CURVE('',#710,#795,#26,.T.);
#705=EDGE_CURVE('',#800,#711,#27,.F.);
#706=EDGE_CURVE('',#807,#716,#28,.F.);
#707=EDGE_CURVE('',#717,#805,#29,.T.);
#708=EDGE_CURVE('',#714,#804,#30,.T.);
#709=EDGE_CURVE('',#809,#715,#31,.F.);
#710=VERTEX_POINT('',#1990);
#711=VERTEX_POINT('',#1991);
#712=VERTEX_POINT('',#1993);
#713=VERTEX_POINT('',#1995);
#714=VERTEX_POINT('',#1998);
#715=VERTEX_POINT('',#1999);
#716=VERTEX_POINT('',#2001);
#717=VERTEX_POINT('',#2003);
#718=VERTEX_POINT('',#2006);
#719=VERTEX_POINT('',#2007);
#720=VERTEX_POINT('',#2009);
#721=VERTEX_POINT('',#2011);
#722=VERTEX_POINT('',#2013);
#723=VERTEX_POINT('',#2015);
#724=VERTEX_POINT('',#2017);
#725=VERTEX_POINT('',#2019);
#726=VERTEX_POINT('',#2023);
#727=VERTEX_POINT('',#2024);
#728=VERTEX_POINT('',#2026);
#729=VERTEX_POINT('',#2028);
#730=VERTEX_POINT('',#2032);
#731=VERTEX_POINT('',#2033);
#732=VERTEX_POINT('',#2035);
#733=VERTEX_POINT('',#2037);
#734=VERTEX_POINT('',#2041);
#735=VERTEX_POINT('',#2042);
#736=VERTEX_POINT('',#2044);
#737=VERTEX_POINT('',#2046);
#738=VERTEX_POINT('',#2050);
#739=VERTEX_POINT('',#2051);
#740=VERTEX_POINT('',#2053);
#741=VERTEX_POINT('',#2055);
#742=VERTEX_POINT('',#2057);
#743=VERTEX_POINT('',#2059);
#744=VERTEX_POINT('',#2061);
#745=VERTEX_POINT('',#2063);
#746=VERTEX_POINT('',#2067);
#747=VERTEX_POINT('',#2068);
#748=VERTEX_POINT('',#2070);
#749=VERTEX_POINT('',#2072);
#750=VERTEX_POINT('',#2076);
#751=VERTEX_POINT('',#2077);
#752=VERTEX_POINT('',#2079);
#753=VERTEX_POINT('',#2081);
#754=VERTEX_POINT('',#2083);
#755=VERTEX_POINT('',#2085);
#756=VERTEX_POINT('',#2087);
#757=VERTEX_POINT('',#2089);
#758=VERTEX_POINT('',#2093);
#759=VERTEX_POINT('',#2094);
#760=VERTEX_POINT('',#2096);
#761=VERTEX_POINT('',#2098);
#762=VERTEX_POINT('',#2102);
#763=VERTEX_POINT('',#2103);
#764=VERTEX_POINT('',#2105);
#765=VERTEX_POINT('',#2107);
#766=VERTEX_POINT('',#2109);
#767=VERTEX_POINT('',#2111);
#768=VERTEX_POINT('',#2113);
#769=VERTEX_POINT('',#2115);
#770=VERTEX_POINT('',#2119);
#771=VERTEX_POINT('',#2120);
#772=VERTEX_POINT('',#2122);
#773=VERTEX_POINT('',#2124);
#774=VERTEX_POINT('',#2128);
#775=VERTEX_POINT('',#2130);
#776=VERTEX_POINT('',#2134);
#777=VERTEX_POINT('',#2135);
#778=VERTEX_POINT('',#2137);
#779=VERTEX_POINT('',#2139);
#780=VERTEX_POINT('',#2143);
#781=VERTEX_POINT('',#2145);
#782=VERTEX_POINT('',#2149);
#783=VERTEX_POINT('',#2150);
#784=VERTEX_POINT('',#2152);
#785=VERTEX_POINT('',#2154);
#786=VERTEX_POINT('',#2158);
#787=VERTEX_POINT('',#2160);
#788=VERTEX_POINT('',#2164);
#789=VERTEX_POINT('',#2165);
#790=VERTEX_POINT('',#2167);
#791=VERTEX_POINT('',#2169);
#792=VERTEX_POINT('',#2173);
#793=VERTEX_POINT('',#2175);
#794=VERTEX_POINT('',#2184);
#795=VERTEX_POINT('',#2185);
#796=VERTEX_POINT('',#2187);
#797=VERTEX_POINT('',#2189);
#798=VERTEX_POINT('',#2193);
#799=VERTEX_POINT('',#2195);
#800=VERTEX_POINT('',#2199);
#801=VERTEX_POINT('',#2201);
#802=VERTEX_POINT('',#2208);
#803=VERTEX_POINT('',#2211);
#804=VERTEX_POINT('',#2212);
#805=VERTEX_POINT('',#2214);
#806=VERTEX_POINT('',#2216);
#807=VERTEX_POINT('',#2220);
#808=VERTEX_POINT('',#2222);
#809=VERTEX_POINT('',#2226);
#810=VERTEX_POINT('',#2228);
#811=VERTEX_POINT('',#2235);
#812=VERTEX_POINT('',#2238);
#813=VERTEX_POINT('',#2242);
#814=LINE('',#1989,#930);
#815=LINE('',#1992,#931);
#816=LINE('',#1994,#932);
#817=LINE('',#1996,#933);
#818=LINE('',#1997,#934);
#819=LINE('',#2000,#935);
#820=LINE('',#2002,#936);
#821=LINE('',#2004,#937);
#822=LINE('',#2005,#938);
#823=LINE('',#2008,#939);
#824=LINE('',#2010,#940);
#825=LINE('',#2012,#941);
#826=LINE('',#2014,#942);
#827=LINE('',#2016,#943);
#828=LINE('',#2018,#944);
#829=LINE('',#2020,#945);
#830=LINE('',#2022,#946);
#831=LINE('',#2025,#947);
#832=LINE('',#2027,#948);
#833=LINE('',#2029,#949);
#834=LINE('',#2031,#950);
#835=LINE('',#2034,#951);
#836=LINE('',#2036,#952);
#837=LINE('',#2038,#953);
#838=LINE('',#2040,#954);
#839=LINE('',#2043,#955);
#840=LINE('',#2045,#956);
#841=LINE('',#2047,#957);
#842=LINE('',#2049,#958);
#843=LINE('',#2052,#959);
#844=LINE('',#2054,#960);
#845=LINE('',#2056,#961);
#846=LINE('',#2058,#962);
#847=LINE('',#2060,#963);
#848=LINE('',#2062,#964);
#849=LINE('',#2064,#965);
#850=LINE('',#2066,#966);
#851=LINE('',#2069,#967);
#852=LINE('',#2071,#968);
#853=LINE('',#2073,#969);
#854=LINE('',#2075,#970);
#855=LINE('',#2078,#971);
#856=LINE('',#2080,#972);
#857=LINE('',#2082,#973);
#858=LINE('',#2084,#974);
#859=LINE('',#2086,#975);
#860=LINE('',#2088,#976);
#861=LINE('',#2090,#977);
#862=LINE('',#2092,#978);
#863=LINE('',#2095,#979);
#864=LINE('',#2097,#980);
#865=LINE('',#2099,#981);
#866=LINE('',#2101,#982);
#867=LINE('',#2104,#983);
#868=LINE('',#2106,#984);
#869=LINE('',#2108,#985);
#870=LINE('',#2110,#986);
#871=LINE('',#2112,#987);
#872=LINE('',#2114,#988);
#873=LINE('',#2116,#989);
#874=LINE('',#2118,#990);
#875=LINE('',#2121,#991);
#876=LINE('',#2123,#992);
#877=LINE('',#2125,#993);
#878=LINE('',#2127,#994);
#879=LINE('',#2129,#995);
#880=LINE('',#2131,#996);
#881=LINE('',#2133,#997);
#882=LINE('',#2136,#998);
#883=LINE('',#2138,#999);
#884=LINE('',#2140,#1000);
#885=LINE('',#2142,#1001);
#886=LINE('',#2144,#1002);
#887=LINE('',#2146,#1003);
#888=LINE('',#2148,#1004);
#889=LINE('',#2151,#1005);
#890=LINE('',#2153,#1006);
#891=LINE('',#2155,#1007);
#892=LINE('',#2157,#1008);
#893=LINE('',#2159,#1009);
#894=LINE('',#2161,#1010);
#895=LINE('',#2163,#1011);
#896=LINE('',#2166,#1012);
#897=LINE('',#2168,#1013);
#898=LINE('',#2170,#1014);
#899=LINE('',#2172,#1015);
#900=LINE('',#2174,#1016);
#901=LINE('',#2176,#1017);
#902=LINE('',#2178,#1018);
#903=LINE('',#2179,#1019);
#904=LINE('',#2180,#1020);
#905=LINE('',#2181,#1021);
#906=LINE('',#2183,#1022);
#907=LINE('',#2186,#1023);
#908=LINE('',#2188,#1024);
#909=LINE('',#2190,#1025);
#910=LINE('',#2192,#1026);
#911=LINE('',#2194,#1027);
#912=LINE('',#2196,#1028);
#913=LINE('',#2198,#1029);
#914=LINE('',#2200,#1030);
#915=LINE('',#2202,#1031);
#916=LINE('',#2204,#1032);
#917=LINE('',#2205,#1033);
#918=LINE('',#2210,#1034);
#919=LINE('',#2213,#1035);
#920=LINE('',#2215,#1036);
#921=LINE('',#2217,#1037);
#922=LINE('',#2219,#1038);
#923=LINE('',#2221,#1039);
#924=LINE('',#2223,#1040);
#925=LINE('',#2225,#1041);
#926=LINE('',#2227,#1042);
#927=LINE('',#2229,#1043);
#928=LINE('',#2231,#1044);
#929=LINE('',#2232,#1045);
#930=VECTOR('',#1545,1.);
#931=VECTOR('',#1546,1.);
#932=VECTOR('',#1547,1.);
#933=VECTOR('',#1548,1.);
#934=VECTOR('',#1549,1.);
#935=VECTOR('',#1550,1.);
#936=VECTOR('',#1551,1.);
#937=VECTOR('',#1552,1.);
#938=VECTOR('',#1553,1.);
#939=VECTOR('',#1554,1.);
#940=VECTOR('',#1555,1.);
#941=VECTOR('',#1556,1.);
#942=VECTOR('',#1557,1.);
#943=VECTOR('',#1558,1.);
#944=VECTOR('',#1559,1.);
#945=VECTOR('',#1560,1.);
#946=VECTOR('',#1563,1.);
#947=VECTOR('',#1564,1.);
#948=VECTOR('',#1565,1.);
#949=VECTOR('',#1566,1.);
#950=VECTOR('',#1569,1.);
#951=VECTOR('',#1570,1.);
#952=VECTOR('',#1571,1.);
#953=VECTOR('',#1572,1.);
#954=VECTOR('',#1575,1.);
#955=VECTOR('',#1576,1.);
#956=VECTOR('',#1577,1.);
#957=VECTOR('',#1578,1.);
#958=VECTOR('',#1581,1.);
#959=VECTOR('',#1582,1.);
#960=VECTOR('',#1583,1.);
#961=VECTOR('',#1584,1.);
#962=VECTOR('',#1585,1.);
#963=VECTOR('',#1586,1.);
#964=VECTOR('',#1587,1.);
#965=VECTOR('',#1588,1.);
#966=VECTOR('',#1591,1.);
#967=VECTOR('',#1592,1.);
#968=VECTOR('',#1593,1.);
#969=VECTOR('',#1594,1.);
#970=VECTOR('',#1597,1.);
#971=VECTOR('',#1598,1.);
#972=VECTOR('',#1599,1.);
#973=VECTOR('',#1600,1.);
#974=VECTOR('',#1601,1.);
#975=VECTOR('',#1602,1.);
#976=VECTOR('',#1603,1.);
#977=VECTOR('',#1604,1.);
#978=VECTOR('',#1607,1.);
#979=VECTOR('',#1608,1.);
#980=VECTOR('',#1609,1.);
#981=VECTOR('',#1610,1.);
#982=VECTOR('',#1613,1.);
#983=VECTOR('',#1614,1.);
#984=VECTOR('',#1615,1.);
#985=VECTOR('',#1616,1.);
#986=VECTOR('',#1617,1.);
#987=VECTOR('',#1618,1.);
#988=VECTOR('',#1619,1.);
#989=VECTOR('',#1620,1.);
#990=VECTOR('',#1623,1.);
#991=VECTOR('',#1624,1.);
#992=VECTOR('',#1625,1.);
#993=VECTOR('',#1626,1.);
#994=VECTOR('',#1629,1.);
#995=VECTOR('',#1630,1.);
#996=VECTOR('',#1631,1.);
#997=VECTOR('',#1634,1.);
#998=VECTOR('',#1635,1.);
#999=VECTOR('',#1636,1.);
#1000=VECTOR('',#1637,1.);
#1001=VECTOR('',#1640,1.);
#1002=VECTOR('',#1641,1.);
#1003=VECTOR('',#1642,1.);
#1004=VECTOR('',#1645,1.);
#1005=VECTOR('',#1646,1.);
#1006=VECTOR('',#1647,1.);
#1007=VECTOR('',#1648,1.);
#1008=VECTOR('',#1651,1.);
#1009=VECTOR('',#1652,1.);
#1010=VECTOR('',#1653,1.);
#1011=VECTOR('',#1656,1.);
#1012=VECTOR('',#1657,1.);
#1013=VECTOR('',#1658,1.);
#1014=VECTOR('',#1659,1.);
#1015=VECTOR('',#1662,1.);
#1016=VECTOR('',#1663,1.);
#1017=VECTOR('',#1664,1.);
#1018=VECTOR('',#1667,1.);
#1019=VECTOR('',#1668,1.);
#1020=VECTOR('',#1669,1.);
#1021=VECTOR('',#1670,1.);
#1022=VECTOR('',#1673,1.);
#1023=VECTOR('',#1674,1.);
#1024=VECTOR('',#1675,1.);
#1025=VECTOR('',#1676,1.);
#1026=VECTOR('',#1679,1.);
#1027=VECTOR('',#1680,1.);
#1028=VECTOR('',#1681,1.);
#1029=VECTOR('',#1684,1.);
#1030=VECTOR('',#1685,1.);
#1031=VECTOR('',#1686,1.);
#1032=VECTOR('',#1689,1.);
#1033=VECTOR('',#1690,1.);
#1034=VECTOR('',#1697,1.);
#1035=VECTOR('',#1698,1.);
#1036=VECTOR('',#1699,1.);
#1037=VECTOR('',#1700,1.);
#1038=VECTOR('',#1703,1.);
#1039=VECTOR('',#1704,1.);
#1040=VECTOR('',#1705,1.);
#1041=VECTOR('',#1708,1.);
#1042=VECTOR('',#1709,1.);
#1043=VECTOR('',#1710,1.);
#1044=VECTOR('',#1713,1.);
#1045=VECTOR('',#1714,1.);
#1046=EDGE_LOOP('',(#146,#147,#148,#149));
#1047=EDGE_LOOP('',(#150,#151,#152,#153));
#1048=EDGE_LOOP('',(#154,#155,#156,#157,#158,#159,#160,#161));
#1049=EDGE_LOOP('',(#162,#163,#164,#165));
#1050=EDGE_LOOP('',(#166,#167,#168,#169));
#1051=EDGE_LOOP('',(#170,#171,#172,#173));
#1052=EDGE_LOOP('',(#174,#175,#176,#177,#178,#179,#180,#181));
#1053=EDGE_LOOP('',(#182,#183,#184,#185));
#1054=EDGE_LOOP('',(#186,#187,#188,#189,#190,#191,#192,#193));
#1055=EDGE_LOOP('',(#194,#195,#196,#197));
#1056=EDGE_LOOP('',(#198,#199,#200,#201,#202,#203,#204,#205));
#1057=EDGE_LOOP('',(#206,#207,#208,#209));
#1058=EDGE_LOOP('',(#210,#211,#212,#213));
#1059=EDGE_LOOP('',(#214,#215,#216,#217));
#1060=EDGE_LOOP('',(#218,#219,#220,#221));
#1061=EDGE_LOOP('',(#222,#223,#224,#225));
#1062=EDGE_LOOP('',(#226,#227,#228,#229));
#1063=EDGE_LOOP('',(#230,#231,#232,#233));
#1064=EDGE_LOOP('',(#234,#235,#236,#237));
#1065=EDGE_LOOP('',(#238,#239,#240,#241,#242,#243,#244,#245,#246,#247,#248,
#249));
#1066=EDGE_LOOP('',(#250,#251,#252,#253));
#1067=EDGE_LOOP('',(#254,#255,#256,#257));
#1068=EDGE_LOOP('',(#258,#259,#260,#261));
#1069=EDGE_LOOP('',(#262,#263,#264,#265));
#1070=EDGE_LOOP('',(#266));
#1071=EDGE_LOOP('',(#267,#268,#269,#270));
#1072=EDGE_LOOP('',(#271,#272,#273,#274));
#1073=EDGE_LOOP('',(#275,#276,#277,#278));
#1074=EDGE_LOOP('',(#279,#280,#281,#282));
#1075=EDGE_LOOP('',(#283,#284,#285,#286));
#1076=EDGE_LOOP('',(#287));
#1077=EDGE_LOOP('',(#288,#289,#290,#291));
#1078=EDGE_LOOP('',(#292));
#1079=EDGE_LOOP('',(#293));
#1080=EDGE_LOOP('',(#294));
#1081=EDGE_LOOP('',(#295));
#1082=EDGE_LOOP('',(#296));
#1083=EDGE_LOOP('',(#297));
#1084=EDGE_LOOP('',(#298,#299,#300,#301));
#1085=EDGE_LOOP('',(#302,#303,#304,#305));
#1086=EDGE_LOOP('',(#306,#307,#308,#309));
#1087=EDGE_LOOP('',(#310,#311,#312,#313));
#1088=EDGE_LOOP('',(#314,#315,#316));
#1089=EDGE_LOOP('',(#317,#318,#319,#320));
#1090=EDGE_LOOP('',(#321,#322,#323));
#1091=EDGE_LOOP('',(#324,#325,#326,#327));
#1092=EDGE_LOOP('',(#328,#329,#330,#331));
#1093=EDGE_LOOP('',(#332,#333,#334,#335));
#1094=EDGE_LOOP('',(#336,#337,#338,#339));
#1095=EDGE_LOOP('',(#340,#341,#342));
#1096=EDGE_LOOP('',(#343,#344,#345));
#1097=EDGE_LOOP('',(#346,#347,#348,#349));
#1098=EDGE_LOOP('',(#350,#351,#352,#353));
#1099=EDGE_LOOP('',(#354,#355,#356,#357));
#1100=EDGE_LOOP('',(#358,#359,#360,#361));
#1101=EDGE_LOOP('',(#362,#363,#364));
#1102=EDGE_LOOP('',(#365,#366,#367,#368));
#1103=EDGE_LOOP('',(#369,#370,#371,#372));
#1104=EDGE_LOOP('',(#373,#374,#375));
#1105=EDGE_LOOP('',(#376,#377,#378,#379));
#1106=EDGE_LOOP('',(#380,#381,#382,#383));
#1107=EDGE_LOOP('',(#384,#385,#386));
#1108=EDGE_LOOP('',(#387,#388,#389));
#1109=EDGE_LOOP('',(#390,#391,#392,#393));
#1110=EDGE_LOOP('',(#394,#395,#396,#397));
#1111=EDGE_LOOP('',(#398,#399,#400));
#1112=EDGE_LOOP('',(#401,#402,#403,#404));
#1113=EDGE_LOOP('',(#405,#406,#407,#408));
#1114=EDGE_LOOP('',(#409,#410,#411));
#1115=EDGE_LOOP('',(#412,#413,#414,#415));
#1116=EDGE_LOOP('',(#416,#417,#418,#419));
#1117=EDGE_LOOP('',(#420,#421,#422,#423));
#1118=EDGE_LOOP('',(#424,#425,#426,#427));
#1119=EDGE_LOOP('',(#428,#429,#430));
#1120=EDGE_LOOP('',(#431,#432,#433));
#1121=EDGE_LOOP('',(#434,#435,#436));
#1122=EDGE_LOOP('',(#437,#438,#439,#440));
#1123=EDGE_LOOP('',(#441,#442,#443,#444));
#1124=EDGE_LOOP('',(#445,#446,#447,#448));
#1125=EDGE_LOOP('',(#449,#450,#451,#452));
#1126=EDGE_LOOP('',(#453,#454,#455,#456));
#1127=EDGE_LOOP('',(#457,#458,#459));
#1128=EDGE_LOOP('',(#460,#461,#462,#463));
#1129=EDGE_LOOP('',(#464,#465,#466,#467));
#1130=EDGE_LOOP('',(#468,#469,#470,#471));
#1131=EDGE_LOOP('',(#472,#473,#474,#475));
#1132=EDGE_LOOP('',(#476,#477,#478));
#1133=EDGE_LOOP('',(#479,#480,#481));
#1134=EDGE_LOOP('',(#482,#483,#484,#485));
#1135=EDGE_LOOP('',(#486,#487,#488,#489));
#1136=EDGE_LOOP('',(#490,#491,#492,#493));
#1137=EDGE_LOOP('',(#494,#495,#496,#497));
#1138=EDGE_LOOP('',(#498,#499,#500,#501));
#1139=EDGE_LOOP('',(#502,#503,#504,#505));
#1140=EDGE_LOOP('',(#506,#507,#508,#509));
#1141=EDGE_LOOP('',(#510,#511,#512,#513));
#1142=EDGE_LOOP('',(#514,#515,#516,#517));
#1143=EDGE_LOOP('',(#518,#519,#520,#521));
#1144=FACE_BOUND('',#1046,.T.);
#1145=FACE_BOUND('',#1047,.T.);
#1146=FACE_BOUND('',#1048,.T.);
#1147=FACE_BOUND('',#1049,.T.);
#1148=FACE_BOUND('',#1050,.T.);
#1149=FACE_BOUND('',#1051,.T.);
#1150=FACE_BOUND('',#1052,.T.);
#1151=FACE_BOUND('',#1053,.T.);
#1152=FACE_BOUND('',#1054,.T.);
#1153=FACE_BOUND('',#1055,.T.);
#1154=FACE_BOUND('',#1056,.T.);
#1155=FACE_BOUND('',#1057,.T.);
#1156=FACE_BOUND('',#1058,.T.);
#1157=FACE_BOUND('',#1059,.T.);
#1158=FACE_BOUND('',#1060,.T.);
#1159=FACE_BOUND('',#1061,.T.);
#1160=FACE_BOUND('',#1062,.T.);
#1161=FACE_BOUND('',#1063,.T.);
#1162=FACE_BOUND('',#1064,.T.);
#1163=FACE_BOUND('',#1065,.T.);
#1164=FACE_BOUND('',#1066,.T.);
#1165=FACE_BOUND('',#1067,.T.);
#1166=FACE_BOUND('',#1068,.T.);
#1167=FACE_BOUND('',#1069,.T.);
#1168=FACE_BOUND('',#1070,.T.);
#1169=FACE_BOUND('',#1071,.T.);
#1170=FACE_BOUND('',#1072,.T.);
#1171=FACE_BOUND('',#1073,.T.);
#1172=FACE_BOUND('',#1074,.T.);
#1173=FACE_BOUND('',#1075,.T.);
#1174=FACE_BOUND('',#1076,.T.);
#1175=FACE_BOUND('',#1077,.T.);
#1176=FACE_BOUND('',#1078,.T.);
#1177=FACE_BOUND('',#1079,.T.);
#1178=FACE_BOUND('',#1080,.T.);
#1179=FACE_BOUND('',#1081,.T.);
#1180=FACE_BOUND('',#1082,.T.);
#1181=FACE_BOUND('',#1083,.T.);
#1182=FACE_BOUND('',#1084,.T.);
#1183=FACE_BOUND('',#1085,.T.);
#1184=FACE_BOUND('',#1086,.T.);
#1185=FACE_BOUND('',#1087,.T.);
#1186=FACE_BOUND('',#1088,.T.);
#1187=FACE_BOUND('',#1089,.T.);
#1188=FACE_BOUND('',#1090,.T.);
#1189=FACE_BOUND('',#1091,.T.);
#1190=FACE_BOUND('',#1092,.T.);
#1191=FACE_BOUND('',#1093,.T.);
#1192=FACE_BOUND('',#1094,.T.);
#1193=FACE_BOUND('',#1095,.T.);
#1194=FACE_BOUND('',#1096,.T.);
#1195=FACE_BOUND('',#1097,.T.);
#1196=FACE_BOUND('',#1098,.T.);
#1197=FACE_BOUND('',#1099,.T.);
#1198=FACE_BOUND('',#1100,.T.);
#1199=FACE_BOUND('',#1101,.T.);
#1200=FACE_BOUND('',#1102,.T.);
#1201=FACE_BOUND('',#1103,.T.);
#1202=FACE_BOUND('',#1104,.T.);
#1203=FACE_BOUND('',#1105,.T.);
#1204=FACE_BOUND('',#1106,.T.);
#1205=FACE_BOUND('',#1107,.T.);
#1206=FACE_BOUND('',#1108,.T.);
#1207=FACE_BOUND('',#1109,.T.);
#1208=FACE_BOUND('',#1110,.T.);
#1209=FACE_BOUND('',#1111,.T.);
#1210=FACE_BOUND('',#1112,.T.);
#1211=FACE_BOUND('',#1113,.T.);
#1212=FACE_BOUND('',#1114,.T.);
#1213=FACE_BOUND('',#1115,.T.);
#1214=FACE_BOUND('',#1116,.T.);
#1215=FACE_BOUND('',#1117,.T.);
#1216=FACE_BOUND('',#1118,.T.);
#1217=FACE_BOUND('',#1119,.T.);
#1218=FACE_BOUND('',#1120,.T.);
#1219=FACE_BOUND('',#1121,.T.);
#1220=FACE_BOUND('',#1122,.T.);
#1221=FACE_BOUND('',#1123,.T.);
#1222=FACE_BOUND('',#1124,.T.);
#1223=FACE_BOUND('',#1125,.T.);
#1224=FACE_BOUND('',#1126,.T.);
#1225=FACE_BOUND('',#1127,.T.);
#1226=FACE_BOUND('',#1128,.T.);
#1227=FACE_BOUND('',#1129,.T.);
#1228=FACE_BOUND('',#1130,.T.);
#1229=FACE_BOUND('',#1131,.T.);
#1230=FACE_BOUND('',#1132,.T.);
#1231=FACE_BOUND('',#1133,.T.);
#1232=FACE_BOUND('',#1134,.T.);
#1233=FACE_BOUND('',#1135,.T.);
#1234=FACE_BOUND('',#1136,.T.);
#1235=FACE_BOUND('',#1137,.T.);
#1236=FACE_BOUND('',#1138,.T.);
#1237=FACE_BOUND('',#1139,.T.);
#1238=FACE_BOUND('',#1140,.T.);
#1239=FACE_BOUND('',#1141,.T.);
#1240=FACE_BOUND('',#1142,.T.);
#1241=FACE_BOUND('',#1143,.T.);
#1242=PLANE('',#1377);
#1243=PLANE('',#1378);
#1244=PLANE('',#1379);
#1245=PLANE('',#1380);
#1246=PLANE('',#1381);
#1247=PLANE('',#1382);
#1248=PLANE('',#1383);
#1249=PLANE('',#1384);
#1250=PLANE('',#1385);
#1251=PLANE('',#1386);
#1252=PLANE('',#1387);
#1253=PLANE('',#1388);
#1254=PLANE('',#1389);
#1255=PLANE('',#1390);
#1256=PLANE('',#1391);
#1257=PLANE('',#1392);
#1258=PLANE('',#1393);
#1259=PLANE('',#1394);
#1260=PLANE('',#1395);
#1261=PLANE('',#1396);
#1262=PLANE('',#1397);
#1263=PLANE('',#1398);
#1264=PLANE('',#1399);
#1265=PLANE('',#1401);
#1266=PLANE('',#1402);
#1267=PLANE('',#1403);
#1268=PLANE('',#1404);
#1269=PLANE('',#1405);
#1270=PLANE('',#1409);
#1271=PLANE('',#1412);
#1272=ADVANCED_FACE('',(#1144,#1145,#1146),#1242,.T.);
#1273=ADVANCED_FACE('',(#1147),#1243,.F.);
#1274=ADVANCED_FACE('',(#1148),#1244,.F.);
#1275=ADVANCED_FACE('',(#1149),#1245,.F.);
#1276=ADVANCED_FACE('',(#1150),#1246,.T.);
#1277=ADVANCED_FACE('',(#1151),#1247,.T.);
#1278=ADVANCED_FACE('',(#1152),#1248,.F.);
#1279=ADVANCED_FACE('',(#1153),#1249,.F.);
#1280=ADVANCED_FACE('',(#1154),#1250,.F.);
#1281=ADVANCED_FACE('',(#1155),#1251,.T.);
#1282=ADVANCED_FACE('',(#1156),#1252,.T.);
#1283=ADVANCED_FACE('',(#1157),#1253,.F.);
#1284=ADVANCED_FACE('',(#1158),#1254,.T.);
#1285=ADVANCED_FACE('',(#1159),#1255,.F.);
#1286=ADVANCED_FACE('',(#1160),#1256,.F.);
#1287=ADVANCED_FACE('',(#1161),#1257,.T.);
#1288=ADVANCED_FACE('',(#1162),#1258,.F.);
#1289=ADVANCED_FACE('',(#1163),#1259,.T.);
#1290=ADVANCED_FACE('',(#1164),#1260,.T.);
#1291=ADVANCED_FACE('',(#1165),#1261,.F.);
#1292=ADVANCED_FACE('',(#1166),#1262,.F.);
#1293=ADVANCED_FACE('',(#1167),#1263,.T.);
#1294=ADVANCED_FACE('',(#1168,#1169),#1264,.T.);
#1295=ADVANCED_FACE('',(#1170),#1265,.T.);
#1296=ADVANCED_FACE('',(#1171),#1266,.F.);
#1297=ADVANCED_FACE('',(#1172),#1267,.F.);
#1298=ADVANCED_FACE('',(#1173),#1268,.T.);
#1299=ADVANCED_FACE('',(#1174,#1175),#1269,.T.);
#1300=ADVANCED_FACE('',(#1176,#1177),#48,.F.);
#1301=ADVANCED_FACE('',(#1178),#1270,.T.);
#1302=ADVANCED_FACE('',(#1179,#1180),#49,.F.);
#1303=ADVANCED_FACE('',(#1181),#1271,.T.);
#1304=ADVANCED_FACE('',(#1182),#50,.T.);
#1305=ADVANCED_FACE('',(#1183),#51,.T.);
#1306=ADVANCED_FACE('',(#1184),#52,.T.);
#1307=ADVANCED_FACE('',(#1185),#53,.T.);
#1308=ADVANCED_FACE('',(#1186),#32,.T.);
#1309=ADVANCED_FACE('',(#1187),#54,.T.);
#1310=ADVANCED_FACE('',(#1188),#33,.T.);
#1311=ADVANCED_FACE('',(#1189),#55,.T.);
#1312=ADVANCED_FACE('',(#1190),#56,.T.);
#1313=ADVANCED_FACE('',(#1191),#57,.T.);
#1314=ADVANCED_FACE('',(#1192),#58,.T.);
#1315=ADVANCED_FACE('',(#1193),#34,.T.);
#1316=ADVANCED_FACE('',(#1194),#35,.T.);
#1317=ADVANCED_FACE('',(#1195),#59,.T.);
#1318=ADVANCED_FACE('',(#1196),#60,.T.);
#1319=ADVANCED_FACE('',(#1197),#61,.T.);
#1320=ADVANCED_FACE('',(#1198),#62,.T.);
#1321=ADVANCED_FACE('',(#1199),#36,.T.);
#1322=ADVANCED_FACE('',(#1200),#63,.T.);
#1323=ADVANCED_FACE('',(#1201),#64,.T.);
#1324=ADVANCED_FACE('',(#1202),#37,.T.);
#1325=ADVANCED_FACE('',(#1203),#65,.T.);
#1326=ADVANCED_FACE('',(#1204),#66,.T.);
#1327=ADVANCED_FACE('',(#1205),#38,.T.);
#1328=ADVANCED_FACE('',(#1206),#39,.T.);
#1329=ADVANCED_FACE('',(#1207),#67,.T.);
#1330=ADVANCED_FACE('',(#1208),#68,.T.);
#1331=ADVANCED_FACE('',(#1209),#40,.T.);
#1332=ADVANCED_FACE('',(#1210),#69,.T.);
#1333=ADVANCED_FACE('',(#1211),#70,.T.);
#1334=ADVANCED_FACE('',(#1212),#41,.T.);
#1335=ADVANCED_FACE('',(#1213),#71,.T.);
#1336=ADVANCED_FACE('',(#1214),#72,.T.);
#1337=ADVANCED_FACE('',(#1215),#73,.T.);
#1338=ADVANCED_FACE('',(#1216),#74,.T.);
#1339=ADVANCED_FACE('',(#1217),#42,.T.);
#1340=ADVANCED_FACE('',(#1218),#43,.T.);
#1341=ADVANCED_FACE('',(#1219),#44,.T.);
#1342=ADVANCED_FACE('',(#1220),#75,.T.);
#1343=ADVANCED_FACE('',(#1221),#76,.T.);
#1344=ADVANCED_FACE('',(#1222),#77,.T.);
#1345=ADVANCED_FACE('',(#1223),#78,.T.);
#1346=ADVANCED_FACE('',(#1224),#79,.T.);
#1347=ADVANCED_FACE('',(#1225),#45,.T.);
#1348=ADVANCED_FACE('',(#1226),#80,.T.);
#1349=ADVANCED_FACE('',(#1227),#81,.T.);
#1350=ADVANCED_FACE('',(#1228),#82,.T.);
#1351=ADVANCED_FACE('',(#1229),#83,.T.);
#1352=ADVANCED_FACE('',(#1230),#46,.T.);
#1353=ADVANCED_FACE('',(#1231),#47,.T.);
#1354=ADVANCED_FACE('',(#1232),#84,.T.);
#1355=ADVANCED_FACE('',(#1233),#85,.T.);
#1356=ADVANCED_FACE('',(#1234),#86,.F.);
#1357=ADVANCED_FACE('',(#1235),#87,.F.);
#1358=ADVANCED_FACE('',(#1236),#88,.F.);
#1359=ADVANCED_FACE('',(#1237),#89,.F.);
#1360=ADVANCED_FACE('',(#1238),#90,.F.);
#1361=ADVANCED_FACE('',(#1239),#91,.F.);
#1362=ADVANCED_FACE('',(#1240),#92,.F.);
#1363=ADVANCED_FACE('',(#1241),#93,.F.);
#1364=CLOSED_SHELL('',(#1272,#1273,#1274,#1275,#1276,#1277,#1278,#1279,
#1280,#1281,#1282,#1283,#1284,#1285,#1286,#1287,#1288,#1289,#1290,#1291,
#1292,#1293,#1294,#1295,#1296,#1297,#1298,#1299,#1300,#1301,#1302,#1303,
#1304,#1305,#1306,#1307,#1308,#1309,#1310,#1311,#1312,#1313,#1314,#1315,
#1316,#1317,#1318,#1319,#1320,#1321,#1322,#1323,#1324,#1325,#1326,#1327,
#1328,#1329,#1330,#1331,#1332,#1333,#1334,#1335,#1336,#1337,#1338,#1339,
#1340,#1341,#1342,#1343,#1344,#1345,#1346,#1347,#1348,#1349,#1350,#1351,
#1352,#1353,#1354,#1355,#1356,#1357,#1358,#1359,#1360,#1361,#1362,#1363));
#1365=STYLED_ITEM('',(#1366),#1373);
#1366=PRESENTATION_STYLE_ASSIGNMENT((#1367));
#1367=SURFACE_STYLE_USAGE(.BOTH.,#1368);
#1368=SURFACE_SIDE_STYLE('',(#1369));
#1369=SURFACE_STYLE_FILL_AREA(#1370);
#1370=FILL_AREA_STYLE('',(#1371));
#1371=FILL_AREA_STYLE_COLOUR('',#1372);
#1372=COLOUR_RGB('',0.8,0.635294117647059,0.47843137254902);
#1373=MANIFOLD_SOLID_BREP('Nightstand',#1364);
#1374=SHAPE_DEFINITION_REPRESENTATION(#2378,#1375);
#1375=SHAPE_REPRESENTATION('Nightstand',(#1376),#2373);
#1376=AXIS2_PLACEMENT_3D('',#1987,#1541,#1542);
#1377=AXIS2_PLACEMENT_3D('',#1988,#1543,#1544);
#1378=AXIS2_PLACEMENT_3D('',#2021,#1561,#1562);
#1379=AXIS2_PLACEMENT_3D('',#2030,#1567,#1568);
#1380=AXIS2_PLACEMENT_3D('',#2039,#1573,#1574);
#1381=AXIS2_PLACEMENT_3D('',#2048,#1579,#1580);
#1382=AXIS2_PLACEMENT_3D('',#2065,#1589,#1590);
#1383=AXIS2_PLACEMENT_3D('',#2074,#1595,#1596);
#1384=AXIS2_PLACEMENT_3D('',#2091,#1605,#1606);
#1385=AXIS2_PLACEMENT_3D('',#2100,#1611,#1612);
#1386=AXIS2_PLACEMENT_3D('',#2117,#1621,#1622);
#1387=AXIS2_PLACEMENT_3D('',#2126,#1627,#1628);
#1388=AXIS2_PLACEMENT_3D('',#2132,#1632,#1633);
#1389=AXIS2_PLACEMENT_3D('',#2141,#1638,#1639);
#1390=AXIS2_PLACEMENT_3D('',#2147,#1643,#1644);
#1391=AXIS2_PLACEMENT_3D('',#2156,#1649,#1650);
#1392=AXIS2_PLACEMENT_3D('',#2162,#1654,#1655);
#1393=AXIS2_PLACEMENT_3D('',#2171,#1660,#1661);
#1394=AXIS2_PLACEMENT_3D('',#2177,#1665,#1666);
#1395=AXIS2_PLACEMENT_3D('',#2182,#1671,#1672);
#1396=AXIS2_PLACEMENT_3D('',#2191,#1677,#1678);
#1397=AXIS2_PLACEMENT_3D('',#2197,#1682,#1683);
#1398=AXIS2_PLACEMENT_3D('',#2203,#1687,#1688);
#1399=AXIS2_PLACEMENT_3D('',#2206,#1691,#1692);
#1400=AXIS2_PLACEMENT_3D('',#2207,#1693,#1694);
#1401=AXIS2_PLACEMENT_3D('',#2209,#1695,#1696);
#1402=AXIS2_PLACEMENT_3D('',#2218,#1701,#1702);
#1403=AXIS2_PLACEMENT_3D('',#2224,#1706,#1707);
#1404=AXIS2_PLACEMENT_3D('',#2230,#1711,#1712);
#1405=AXIS2_PLACEMENT_3D('',#2233,#1715,#1716);
#1406=AXIS2_PLACEMENT_3D('',#2234,#1717,#1718);
#1407=AXIS2_PLACEMENT_3D('',#2236,#1719,#1720);
#1408=AXIS2_PLACEMENT_3D('',#2237,#1721,#1722);
#1409=AXIS2_PLACEMENT_3D('',#2239,#1723,#1724);
#1410=AXIS2_PLACEMENT_3D('',#2240,#1725,#1726);
#1411=AXIS2_PLACEMENT_3D('',#2241,#1727,#1728);
#1412=AXIS2_PLACEMENT_3D('',#2243,#1729,#1730);
#1413=AXIS2_PLACEMENT_3D('',#2244,#1731,#1732);
#1414=AXIS2_PLACEMENT_3D('',#2245,#1733,#1734);
#1415=AXIS2_PLACEMENT_3D('',#2246,#1735,#1736);
#1416=AXIS2_PLACEMENT_3D('',#2247,#1737,#1738);
#1417=AXIS2_PLACEMENT_3D('',#2248,#1739,#1740);
#1418=AXIS2_PLACEMENT_3D('',#2249,#1741,#1742);
#1419=AXIS2_PLACEMENT_3D('',#2250,#1743,#1744);
#1420=AXIS2_PLACEMENT_3D('',#2251,#1745,#1746);
#1421=AXIS2_PLACEMENT_3D('',#2252,#1747,#1748);
#1422=AXIS2_PLACEMENT_3D('',#2253,#1749,#1750);
#1423=AXIS2_PLACEMENT_3D('',#2254,#1751,#1752);
#1424=AXIS2_PLACEMENT_3D('',#2255,#1753,#1754);
#1425=AXIS2_PLACEMENT_3D('',#2256,#1755,#1756);
#1426=AXIS2_PLACEMENT_3D('',#2257,#1757,#1758);
#1427=AXIS2_PLACEMENT_3D('',#2258,#1759,#1760);
#1428=AXIS2_PLACEMENT_3D('',#2259,#1761,#1762);
#1429=AXIS2_PLACEMENT_3D('',#2260,#1763,#1764);
#1430=AXIS2_PLACEMENT_3D('',#2261,#1765,#1766);
#1431=AXIS2_PLACEMENT_3D('',#2262,#1767,#1768);
#1432=AXIS2_PLACEMENT_3D('',#2263,#1769,#1770);
#1433=AXIS2_PLACEMENT_3D('',#2264,#1771,#1772);
#1434=AXIS2_PLACEMENT_3D('',#2265,#1773,#1774);
#1435=AXIS2_PLACEMENT_3D('',#2266,#1775,#1776);
#1436=AXIS2_PLACEMENT_3D('',#2267,#1777,#1778);
#1437=AXIS2_PLACEMENT_3D('',#2268,#1779,#1780);
#1438=AXIS2_PLACEMENT_3D('',#2269,#1781,#1782);
#1439=AXIS2_PLACEMENT_3D('',#2270,#1783,#1784);
#1440=AXIS2_PLACEMENT_3D('',#2271,#1785,#1786);
#1441=AXIS2_PLACEMENT_3D('',#2272,#1787,#1788);
#1442=AXIS2_PLACEMENT_3D('',#2273,#1789,#1790);
#1443=AXIS2_PLACEMENT_3D('',#2274,#1791,#1792);
#1444=AXIS2_PLACEMENT_3D('',#2275,#1793,#1794);
#1445=AXIS2_PLACEMENT_3D('',#2276,#1795,#1796);
#1446=AXIS2_PLACEMENT_3D('',#2277,#1797,#1798);
#1447=AXIS2_PLACEMENT_3D('',#2278,#1799,#1800);
#1448=AXIS2_PLACEMENT_3D('',#2279,#1801,#1802);
#1449=AXIS2_PLACEMENT_3D('',#2280,#1803,#1804);
#1450=AXIS2_PLACEMENT_3D('',#2281,#1805,#1806);
#1451=AXIS2_PLACEMENT_3D('',#2282,#1807,#1808);
#1452=AXIS2_PLACEMENT_3D('',#2283,#1809,#1810);
#1453=AXIS2_PLACEMENT_3D('',#2284,#1811,#1812);
#1454=AXIS2_PLACEMENT_3D('',#2285,#1813,#1814);
#1455=AXIS2_PLACEMENT_3D('',#2286,#1815,#1816);
#1456=AXIS2_PLACEMENT_3D('',#2287,#1817,#1818);
#1457=AXIS2_PLACEMENT_3D('',#2288,#1819,#1820);
#1458=AXIS2_PLACEMENT_3D('',#2289,#1821,#1822);
#1459=AXIS2_PLACEMENT_3D('',#2290,#1823,#1824);
#1460=AXIS2_PLACEMENT_3D('',#2291,#1825,#1826);
#1461=AXIS2_PLACEMENT_3D('',#2292,#1827,#1828);
#1462=AXIS2_PLACEMENT_3D('',#2293,#1829,#1830);
#1463=AXIS2_PLACEMENT_3D('',#2294,#1831,#1832);
#1464=AXIS2_PLACEMENT_3D('',#2295,#1833,#1834);
#1465=AXIS2_PLACEMENT_3D('',#2296,#1835,#1836);
#1466=AXIS2_PLACEMENT_3D('',#2297,#1837,#1838);
#1467=AXIS2_PLACEMENT_3D('',#2298,#1839,#1840);
#1468=AXIS2_PLACEMENT_3D('',#2299,#1841,#1842);
#1469=AXIS2_PLACEMENT_3D('',#2300,#1843,#1844);
#1470=AXIS2_PLACEMENT_3D('',#2301,#1845,#1846);
#1471=AXIS2_PLACEMENT_3D('',#2302,#1847,#1848);
#1472=AXIS2_PLACEMENT_3D('',#2303,#1849,#1850);
#1473=AXIS2_PLACEMENT_3D('',#2304,#1851,#1852);
#1474=AXIS2_PLACEMENT_3D('',#2305,#1853,#1854);
#1475=AXIS2_PLACEMENT_3D('',#2306,#1855,#1856);
#1476=AXIS2_PLACEMENT_3D('',#2307,#1857,#1858);
#1477=AXIS2_PLACEMENT_3D('',#2308,#1859,#1860);
#1478=AXIS2_PLACEMENT_3D('',#2309,#1861,#1862);
#1479=AXIS2_PLACEMENT_3D('',#2310,#1863,#1864);
#1480=AXIS2_PLACEMENT_3D('',#2311,#1865,#1866);
#1481=AXIS2_PLACEMENT_3D('',#2312,#1867,#1868);
#1482=AXIS2_PLACEMENT_3D('',#2313,#1869,#1870);
#1483=AXIS2_PLACEMENT_3D('',#2314,#1871,#1872);
#1484=AXIS2_PLACEMENT_3D('',#2315,#1873,#1874);
#1485=AXIS2_PLACEMENT_3D('',#2316,#1875,#1876);
#1486=AXIS2_PLACEMENT_3D('',#2317,#1877,#1878);
#1487=AXIS2_PLACEMENT_3D('',#2318,#1879,#1880);
#1488=AXIS2_PLACEMENT_3D('',#2319,#1881,#1882);
#1489=AXIS2_PLACEMENT_3D('',#2320,#1883,#1884);
#1490=AXIS2_PLACEMENT_3D('',#2321,#1885,#1886);
#1491=AXIS2_PLACEMENT_3D('',#2322,#1887,#1888);
#1492=AXIS2_PLACEMENT_3D('',#2323,#1889,#1890);
#1493=AXIS2_PLACEMENT_3D('',#2324,#1891,#1892);
#1494=AXIS2_PLACEMENT_3D('',#2325,#1893,#1894);
#1495=AXIS2_PLACEMENT_3D('',#2326,#1895,#1896);
#1496=AXIS2_PLACEMENT_3D('',#2327,#1897,#1898);
#1497=AXIS2_PLACEMENT_3D('',#2328,#1899,#1900);
#1498=AXIS2_PLACEMENT_3D('',#2329,#1901,#1902);
#1499=AXIS2_PLACEMENT_3D('',#2330,#1903,#1904);
#1500=AXIS2_PLACEMENT_3D('',#2331,#1905,#1906);
#1501=AXIS2_PLACEMENT_3D('',#2332,#1907,#1908);
#1502=AXIS2_PLACEMENT_3D('',#2333,#1909,#1910);
#1503=AXIS2_PLACEMENT_3D('',#2334,#1911,#1912);
#1504=AXIS2_PLACEMENT_3D('',#2335,#1913,#1914);
#1505=AXIS2_PLACEMENT_3D('',#2336,#1915,#1916);
#1506=AXIS2_PLACEMENT_3D('',#2337,#1917,#1918);
#1507=AXIS2_PLACEMENT_3D('',#2338,#1919,#1920);
#1508=AXIS2_PLACEMENT_3D('',#2339,#1921,#1922);
#1509=AXIS2_PLACEMENT_3D('',#2340,#1923,#1924);
#1510=AXIS2_PLACEMENT_3D('',#2341,#1925,#1926);
#1511=AXIS2_PLACEMENT_3D('',#2342,#1927,#1928);
#1512=AXIS2_PLACEMENT_3D('',#2343,#1929,#1930);
#1513=AXIS2_PLACEMENT_3D('',#2344,#1931,#1932);
#1514=AXIS2_PLACEMENT_3D('',#2345,#1933,#1934);
#1515=AXIS2_PLACEMENT_3D('',#2346,#1935,#1936);
#1516=AXIS2_PLACEMENT_3D('',#2347,#1937,#1938);
#1517=AXIS2_PLACEMENT_3D('',#2348,#1939,#1940);
#1518=AXIS2_PLACEMENT_3D('',#2349,#1941,#1942);
#1519=AXIS2_PLACEMENT_3D('',#2350,#1943,#1944);
#1520=AXIS2_PLACEMENT_3D('',#2351,#1945,#1946);
#1521=AXIS2_PLACEMENT_3D('',#2352,#1947,#1948);
#1522=AXIS2_PLACEMENT_3D('',#2353,#1949,#1950);
#1523=AXIS2_PLACEMENT_3D('',#2354,#1951,#1952);
#1524=AXIS2_PLACEMENT_3D('',#2355,#1953,#1954);
#1525=AXIS2_PLACEMENT_3D('',#2356,#1955,#1956);
#1526=AXIS2_PLACEMENT_3D('',#2357,#1957,#1958);
#1527=AXIS2_PLACEMENT_3D('',#2358,#1959,#1960);
#1528=AXIS2_PLACEMENT_3D('',#2359,#1961,#1962);
#1529=AXIS2_PLACEMENT_3D('',#2360,#1963,#1964);
#1530=AXIS2_PLACEMENT_3D('',#2361,#1965,#1966);
#1531=AXIS2_PLACEMENT_3D('',#2362,#1967,#1968);
#1532=AXIS2_PLACEMENT_3D('',#2363,#1969,#1970);
#1533=AXIS2_PLACEMENT_3D('',#2364,#1971,#1972);
#1534=AXIS2_PLACEMENT_3D('',#2365,#1973,#1974);
#1535=AXIS2_PLACEMENT_3D('',#2366,#1975,#1976);
#1536=AXIS2_PLACEMENT_3D('',#2367,#1977,#1978);
#1537=AXIS2_PLACEMENT_3D('',#2368,#1979,#1980);
#1538=AXIS2_PLACEMENT_3D('',#2369,#1981,#1982);
#1539=AXIS2_PLACEMENT_3D('',#2370,#1983,#1984);
#1540=AXIS2_PLACEMENT_3D('',#2371,#1985,#1986);
#1541=DIRECTION('',(0.,0.,1.));
#1542=DIRECTION('',(1.,0.,0.));
#1543=DIRECTION('',(0.,0.,1.));
#1544=DIRECTION('',(1.,0.,0.));
#1545=DIRECTION('',(0.,-1.,0.));
#1546=DIRECTION('',(1.,0.,0.));
#1547=DIRECTION('',(8.67361737988404E-17,-1.,0.));
#1548=DIRECTION('',(1.,0.,0.));
#1549=DIRECTION('',(0.,-1.,0.));
#1550=DIRECTION('',(1.,0.,0.));
#1551=DIRECTION('',(-1.7347234759768E-16,-1.,0.));
#1552=DIRECTION('',(1.,0.,0.));
#1553=DIRECTION('',(1.,0.,0.));
#1554=DIRECTION('',(0.,-1.,0.));
#1555=DIRECTION('',(1.,0.,0.));
#1556=DIRECTION('',(0.,-1.,0.));
#1557=DIRECTION('',(1.,0.,0.));
#1558=DIRECTION('',(0.,-1.,0.));
#1559=DIRECTION('',(1.,0.,0.));
#1560=DIRECTION('',(0.,-1.,0.));
#1561=DIRECTION('',(0.,1.,0.));
#1562=DIRECTION('',(0.,0.,1.));
#1563=DIRECTION('',(0.,0.,-1.));
#1564=DIRECTION('',(1.,0.,0.));
#1565=DIRECTION('',(2.16840434497101E-16,0.,-1.));
#1566=DIRECTION('',(1.,0.,0.));
#1567=DIRECTION('',(0.,1.,0.));
#1568=DIRECTION('',(0.,0.,1.));
#1569=DIRECTION('',(0.,0.,-1.));
#1570=DIRECTION('',(1.,0.,0.));
#1571=DIRECTION('',(0.,0.,-1.));
#1572=DIRECTION('',(1.,0.,0.));
#1573=DIRECTION('',(0.,1.,0.));
#1574=DIRECTION('',(0.,0.,1.));
#1575=DIRECTION('',(0.,0.,-1.));
#1576=DIRECTION('',(1.,0.,0.));
#1577=DIRECTION('',(0.,0.,-1.));
#1578=DIRECTION('',(1.,0.,0.));
#1579=DIRECTION('',(1.,0.,0.));
#1580=DIRECTION('',(0.,0.,-1.));
#1581=DIRECTION('',(0.,0.,-1.));
#1582=DIRECTION('',(0.,-1.,0.));
#1583=DIRECTION('',(0.,0.,-1.));
#1584=DIRECTION('',(0.,-1.,0.));
#1585=DIRECTION('',(0.,0.,-1.));
#1586=DIRECTION('',(0.,-1.,0.));
#1587=DIRECTION('',(0.,0.,-1.));
#1588=DIRECTION('',(0.,-1.,0.));
#1589=DIRECTION('',(0.,1.,0.));
#1590=DIRECTION('',(0.,0.,1.));
#1591=DIRECTION('',(0.,0.,-1.));
#1592=DIRECTION('',(1.,0.,0.));
#1593=DIRECTION('',(0.,0.,-1.));
#1594=DIRECTION('',(1.,0.,0.));
#1595=DIRECTION('',(1.,0.,0.));
#1596=DIRECTION('',(0.,0.,-1.));
#1597=DIRECTION('',(0.,0.,-1.));
#1598=DIRECTION('',(0.,-1.,0.));
#1599=DIRECTION('',(0.,0.,-1.));
#1600=DIRECTION('',(0.,-1.,0.));
#1601=DIRECTION('',(0.,0.,-1.));
#1602=DIRECTION('',(0.,-1.,0.));
#1603=DIRECTION('',(0.,0.,-1.));
#1604=DIRECTION('',(0.,-1.,0.));
#1605=DIRECTION('',(0.,1.,0.));
#1606=DIRECTION('',(0.,0.,1.));
#1607=DIRECTION('',(0.,0.,-1.));
#1608=DIRECTION('',(1.,0.,0.));
#1609=DIRECTION('',(0.,0.,-1.));
#1610=DIRECTION('',(1.,0.,0.));
#1611=DIRECTION('',(0.,0.,1.));
#1612=DIRECTION('',(1.,0.,0.));
#1613=DIRECTION('',(1.,0.,0.));
#1614=DIRECTION('',(0.,-1.,0.));
#1615=DIRECTION('',(1.,0.,0.));
#1616=DIRECTION('',(0.,-1.,0.));
#1617=DIRECTION('',(1.,0.,0.));
#1618=DIRECTION('',(0.,-1.,0.));
#1619=DIRECTION('',(1.,0.,0.));
#1620=DIRECTION('',(0.,-1.,0.));
#1621=DIRECTION('',(0.,0.,-1.));
#1622=DIRECTION('',(-1.,0.,0.));
#1623=DIRECTION('',(0.,-1.,0.));
#1624=DIRECTION('',(1.,0.,0.));
#1625=DIRECTION('',(0.,-1.,0.));
#1626=DIRECTION('',(1.,0.,0.));
#1627=DIRECTION('',(-1.,0.,0.));
#1628=DIRECTION('',(0.,0.,1.));
#1629=DIRECTION('',(0.,0.,-1.));
#1630=DIRECTION('',(0.,-1.,0.));
#1631=DIRECTION('',(0.,0.,-1.));
#1632=DIRECTION('',(-1.,0.,-2.16840434497101E-16));
#1633=DIRECTION('',(-2.16840434497101E-16,0.,1.));
#1634=DIRECTION('',(0.,-1.,0.));
#1635=DIRECTION('',(2.16840434497101E-16,0.,-1.));
#1636=DIRECTION('',(0.,-1.,0.));
#1637=DIRECTION('',(2.16840434497101E-16,0.,-1.));
#1638=DIRECTION('',(0.,0.,-1.));
#1639=DIRECTION('',(-1.,0.,0.));
#1640=DIRECTION('',(1.,0.,0.));
#1641=DIRECTION('',(0.,-1.,0.));
#1642=DIRECTION('',(1.,0.,0.));
#1643=DIRECTION('',(0.,0.,-1.));
#1644=DIRECTION('',(-1.,0.,0.));
#1645=DIRECTION('',(0.,-1.,0.));
#1646=DIRECTION('',(1.,0.,0.));
#1647=DIRECTION('',(0.,-1.,0.));
#1648=DIRECTION('',(1.,0.,0.));
#1649=DIRECTION('',(-1.,0.,0.));
#1650=DIRECTION('',(0.,0.,1.));
#1651=DIRECTION('',(0.,0.,-1.));
#1652=DIRECTION('',(0.,-1.,0.));
#1653=DIRECTION('',(0.,0.,-1.));
#1654=DIRECTION('',(-1.,0.,0.));
#1655=DIRECTION('',(0.,0.,1.));
#1656=DIRECTION('',(0.,-1.,0.));
#1657=DIRECTION('',(0.,0.,-1.));
#1658=DIRECTION('',(0.,-1.,0.));
#1659=DIRECTION('',(0.,0.,-1.));
#1660=DIRECTION('',(0.,0.,-1.));
#1661=DIRECTION('',(-1.,0.,0.));
#1662=DIRECTION('',(1.,0.,0.));
#1663=DIRECTION('',(0.,-1.,0.));
#1664=DIRECTION('',(1.,0.,0.));
#1665=DIRECTION('',(0.,-1.,0.));
#1666=DIRECTION('',(1.,0.,0.));
#1667=DIRECTION('',(0.,0.,-1.));
#1668=DIRECTION('',(1.,0.,0.));
#1669=DIRECTION('',(0.,0.,-1.));
#1670=DIRECTION('',(1.,0.,0.));
#1671=DIRECTION('',(0.,1.,0.));
#1672=DIRECTION('',(0.,0.,1.));
#1673=DIRECTION('',(0.,0.,-1.));
#1674=DIRECTION('',(1.,0.,0.));
#1675=DIRECTION('',(0.,0.,-1.));
#1676=DIRECTION('',(1.,0.,0.));
#1677=DIRECTION('',(1.,8.67361737988404E-17,0.));
#1678=DIRECTION('',(-8.67361737988404E-17,1.,0.));
#1679=DIRECTION('',(8.67361737988404E-17,-1.,0.));
#1680=DIRECTION('',(0.,0.,-1.));
#1681=DIRECTION('',(8.67361737988404E-17,-1.,0.));
#1682=DIRECTION('',(0.,1.,0.));
#1683=DIRECTION('',(0.,0.,1.));
#1684=DIRECTION('',(1.,0.,0.));
#1685=DIRECTION('',(0.,0.,-1.));
#1686=DIRECTION('',(1.,0.,0.));
#1687=DIRECTION('',(1.,0.,0.));
#1688=DIRECTION('',(0.,0.,-1.));
#1689=DIRECTION('',(0.,-1.,0.));
#1690=DIRECTION('',(0.,-1.,0.));
#1691=DIRECTION('',(0.,0.,1.));
#1692=DIRECTION('',(1.,0.,0.));
#1693=DIRECTION('',(0.,0.,1.));
#1694=DIRECTION('',(1.,0.,0.));
#1695=DIRECTION('',(0.,1.,0.));
#1696=DIRECTION('',(0.,0.,1.));
#1697=DIRECTION('',(0.,0.,-1.));
#1698=DIRECTION('',(1.,0.,0.));
#1699=DIRECTION('',(0.,0.,-1.));
#1700=DIRECTION('',(1.,0.,0.));
#1701=DIRECTION('',(1.,-1.7347234759768E-16,0.));
#1702=DIRECTION('',(1.7347234759768E-16,1.,0.));
#1703=DIRECTION('',(-1.7347234759768E-16,-1.,0.));
#1704=DIRECTION('',(0.,0.,-1.));
#1705=DIRECTION('',(-1.7347234759768E-16,-1.,0.));
#1706=DIRECTION('',(0.,1.,0.));
#1707=DIRECTION('',(0.,0.,1.));
#1708=DIRECTION('',(1.,0.,0.));
#1709=DIRECTION('',(0.,0.,-1.));
#1710=DIRECTION('',(1.,0.,0.));
#1711=DIRECTION('',(1.,0.,0.));
#1712=DIRECTION('',(0.,0.,-1.));
#1713=DIRECTION('',(0.,-1.,0.));
#1714=DIRECTION('',(0.,-1.,0.));
#1715=DIRECTION('',(0.,0.,1.));
#1716=DIRECTION('',(1.,0.,0.));
#1717=DIRECTION('',(0.,0.,1.));
#1718=DIRECTION('',(1.,0.,0.));
#1719=DIRECTION('',(0.,0.,1.));
#1720=DIRECTION('',(1.,0.,0.));
#1721=DIRECTION('',(0.,0.,1.));
#1722=DIRECTION('',(1.,0.,0.));
#1723=DIRECTION('',(0.,0.,1.));
#1724=DIRECTION('',(1.,0.,0.));
#1725=DIRECTION('',(0.,0.,1.));
#1726=DIRECTION('',(1.,0.,0.));
#1727=DIRECTION('',(0.,0.,1.));
#1728=DIRECTION('',(1.,0.,0.));
#1729=DIRECTION('',(0.,0.,1.));
#1730=DIRECTION('',(1.,0.,0.));
#1731=DIRECTION('',(-1.,0.,0.));
#1732=DIRECTION('',(0.,0.,1.));
#1733=DIRECTION('',(-1.,0.,0.));
#1734=DIRECTION('',(0.,0.,1.));
#1735=DIRECTION('',(-1.,0.,0.));
#1736=DIRECTION('',(0.,0.,1.));
#1737=DIRECTION('',(0.,0.,1.));
#1738=DIRECTION('',(1.,0.,0.));
#1739=DIRECTION('',(0.,0.,1.));
#1740=DIRECTION('',(1.,0.,0.));
#1741=DIRECTION('',(0.,0.,1.));
#1742=DIRECTION('',(1.,0.,0.));
#1743=DIRECTION('',(0.,0.,-1.));
#1744=DIRECTION('',(-1.,0.,0.));
#1745=DIRECTION('',(0.,0.,-1.));
#1746=DIRECTION('',(-1.,0.,0.));
#1747=DIRECTION('',(0.,0.,-1.));
#1748=DIRECTION('',(-1.,0.,0.));
#1749=DIRECTION('',(1.,0.,0.));
#1750=DIRECTION('',(0.,0.,-1.));
#1751=DIRECTION('',(1.,0.,0.));
#1752=DIRECTION('',(0.,0.,-1.));
#1753=DIRECTION('',(1.,0.,0.));
#1754=DIRECTION('',(0.,0.,-1.));
#1755=DIRECTION('',(0.,0.,1.));
#1756=DIRECTION('',(1.,0.,0.));
#1757=DIRECTION('',(2.39516675776213E-15,-1.,0.));
#1758=DIRECTION('',(1.,2.39516675776213E-15,0.));
#1759=DIRECTION('',(0.,1.,0.));
#1760=DIRECTION('',(0.,0.,1.));
#1761=DIRECTION('',(0.,-1.,0.));
#1762=DIRECTION('',(0.,0.,-1.));
#1763=DIRECTION('',(1.,0.,0.));
#1764=DIRECTION('',(0.,0.,-1.));
#1765=DIRECTION('',(1.,0.,0.));
#1766=DIRECTION('',(0.,0.,-1.));
#1767=DIRECTION('',(0.,-1.19758337888107E-15,-1.));
#1768=DIRECTION('',(0.,1.,-1.19758337888107E-15));
#1769=DIRECTION('',(0.,0.,1.));
#1770=DIRECTION('',(1.,0.,0.));
#1771=DIRECTION('',(-2.39516675776213E-15,0.,1.));
#1772=DIRECTION('',(1.,0.,2.39516675776213E-15));
#1773=DIRECTION('',(1.,0.,0.));
#1774=DIRECTION('',(0.,0.,-1.));
#1775=DIRECTION('',(1.,0.,0.));
#1776=DIRECTION('',(0.,0.,-1.));
#1777=DIRECTION('',(0.707106781186548,0.,0.707106781186548));
#1778=DIRECTION('',(-0.707106781186548,0.,0.707106781186548));
#1779=DIRECTION('',(0.,0.,1.));
#1780=DIRECTION('',(1.,0.,0.));
#1781=DIRECTION('',(1.19758337888107E-15,0.,-1.));
#1782=DIRECTION('',(-1.,0.,-1.19758337888107E-15));
#1783=DIRECTION('',(1.,0.,0.));
#1784=DIRECTION('',(0.,0.,-1.));
#1785=DIRECTION('',(-1.,0.,0.));
#1786=DIRECTION('',(0.,0.,1.));
#1787=DIRECTION('',(0.,-1.,0.));
#1788=DIRECTION('',(0.,0.,-1.));
#1789=DIRECTION('',(0.,-1.,0.));
#1790=DIRECTION('',(0.,0.,-1.));
#1791=DIRECTION('',(0.,-1.,1.19758337888107E-15));
#1792=DIRECTION('',(0.,-1.19758337888107E-15,-1.));
#1793=DIRECTION('',(0.,-1.,0.));
#1794=DIRECTION('',(0.,0.,-1.));
#1795=DIRECTION('',(0.,1.,0.));
#1796=DIRECTION('',(0.,0.,1.));
#1797=DIRECTION('',(0.,0.707106781186548,0.707106781186548));
#1798=DIRECTION('',(0.,0.707106781186548,-0.707106781186548));
#1799=DIRECTION('',(0.,1.,0.));
#1800=DIRECTION('',(0.,0.,1.));
#1801=DIRECTION('',(-0.707106781186548,0.707106781186548,0.));
#1802=DIRECTION('',(0.707106781186548,0.707106781186548,0.));
#1803=DIRECTION('',(0.,0.,-1.));
#1804=DIRECTION('',(-1.,0.,0.));
#1805=DIRECTION('',(0.,-0.707106781186548,0.707106781186548));
#1806=DIRECTION('',(0.,-0.707106781186548,-0.707106781186548));
#1807=DIRECTION('',(-1.,0.,0.));
#1808=DIRECTION('',(0.,0.,1.));
#1809=DIRECTION('',(-0.707106781186548,-0.707106781186548,0.));
#1810=DIRECTION('',(0.707106781186548,-0.707106781186548,0.));
#1811=DIRECTION('',(0.,0.,1.));
#1812=DIRECTION('',(1.,0.,0.));
#1813=DIRECTION('',(1.19758337888107E-15,-1.,-1.19758337888107E-15));
#1814=DIRECTION('',(0.,1.19758337888107E-15,-1.));
#1815=DIRECTION('',(0.,-1.,0.));
#1816=DIRECTION('',(0.,0.,-1.));
#1817=DIRECTION('',(0.,-1.,0.));
#1818=DIRECTION('',(0.,0.,-1.));
#1819=DIRECTION('',(0.,-1.,0.));
#1820=DIRECTION('',(0.,0.,-1.));
#1821=DIRECTION('',(0.,-1.,0.));
#1822=DIRECTION('',(0.,0.,-1.));
#1823=DIRECTION('',(0.,0.,1.));
#1824=DIRECTION('',(1.,0.,0.));
#1825=DIRECTION('',(0.,-1.,2.39516675776214E-15));
#1826=DIRECTION('',(0.,-2.39516675776214E-15,-1.));
#1827=DIRECTION('',(0.,-1.,0.));
#1828=DIRECTION('',(0.,0.,-1.));
#1829=DIRECTION('',(0.,-1.,0.));
#1830=DIRECTION('',(0.,0.,-1.));
#1831=DIRECTION('',(0.,0.,1.));
#1832=DIRECTION('',(1.,0.,0.));
#1833=DIRECTION('',(0.,0.,-1.));
#1834=DIRECTION('',(-1.,0.,0.));
#1835=DIRECTION('',(0.,0.,1.));
#1836=DIRECTION('',(1.,0.,0.));
#1837=DIRECTION('',(1.,0.,0.));
#1838=DIRECTION('',(0.,0.,-1.));
#1839=DIRECTION('',(1.,0.,0.));
#1840=DIRECTION('',(0.,0.,-1.));
#1841=DIRECTION('',(0.,0.,-1.));
#1842=DIRECTION('',(-1.,0.,0.));
#1843=DIRECTION('',(0.,-1.19758337888107E-15,-1.));
#1844=DIRECTION('',(0.,1.,-1.19758337888107E-15));
#1845=DIRECTION('',(1.,0.,0.));
#1846=DIRECTION('',(0.,0.,-1.));
#1847=DIRECTION('',(1.,0.,0.));
#1848=DIRECTION('',(0.,0.,-1.));
#1849=DIRECTION('',(-1.,-1.19758337888107E-15,0.));
#1850=DIRECTION('',(1.19758337888107E-15,-1.,0.));
#1851=DIRECTION('',(0.,-1.,0.));
#1852=DIRECTION('',(0.,0.,-1.));
#1853=DIRECTION('',(0.,-1.,0.));
#1854=DIRECTION('',(0.,0.,-1.));
#1855=DIRECTION('',(1.,0.,0.));
#1856=DIRECTION('',(0.,0.,-1.));
#1857=DIRECTION('',(1.,0.,0.));
#1858=DIRECTION('',(0.,0.,-1.));
#1859=DIRECTION('',(-1.,0.,0.));
#1860=DIRECTION('',(0.,0.,1.));
#1861=DIRECTION('',(-0.707106781186548,0.,0.707106781186548));
#1862=DIRECTION('',(0.707106781186548,0.,0.707106781186548));
#1863=DIRECTION('',(0.,0.,-1.));
#1864=DIRECTION('',(-1.,0.,0.));
#1865=DIRECTION('',(0.707106781186548,0.,-0.707106781186548));
#1866=DIRECTION('',(-0.707106781186548,0.,-0.707106781186548));
#1867=DIRECTION('',(0.,0.,-1.));
#1868=DIRECTION('',(-1.,0.,0.));
#1869=DIRECTION('',(0.,0.,-1.));
#1870=DIRECTION('',(-1.,0.,0.));
#1871=DIRECTION('',(-1.,0.,0.));
#1872=DIRECTION('',(0.,0.,1.));
#1873=DIRECTION('',(-1.,0.,0.));
#1874=DIRECTION('',(0.,0.,1.));
#1875=DIRECTION('',(0.,0.,1.));
#1876=DIRECTION('',(1.,0.,0.));
#1877=DIRECTION('',(0.,0.,1.));
#1878=DIRECTION('',(1.,0.,0.));
#1879=DIRECTION('',(1.,0.,0.));
#1880=DIRECTION('',(0.,0.,-1.));
#1881=DIRECTION('',(-1.,0.,-1.19758337888107E-15));
#1882=DIRECTION('',(-1.19758337888107E-15,0.,1.));
#1883=DIRECTION('',(0.,0.,-1.));
#1884=DIRECTION('',(-1.,0.,0.));
#1885=DIRECTION('',(0.,0.,1.));
#1886=DIRECTION('',(1.,0.,0.));
#1887=DIRECTION('',(0.,-1.,0.));
#1888=DIRECTION('',(0.,0.,-1.));
#1889=DIRECTION('',(0.,-1.,0.));
#1890=DIRECTION('',(0.,0.,-1.));
#1891=DIRECTION('',(1.19758337888107E-15,-1.,0.));
#1892=DIRECTION('',(1.,1.19758337888107E-15,0.));
#1893=DIRECTION('',(0.,-1.,0.));
#1894=DIRECTION('',(0.,0.,-1.));
#1895=DIRECTION('',(0.,0.,1.));
#1896=DIRECTION('',(1.,0.,0.));
#1897=DIRECTION('',(-1.19758337888107E-15,-1.,-1.19758337888107E-15));
#1898=DIRECTION('',(1.,-1.19758337888107E-15,0.));
#1899=DIRECTION('',(0.,-1.,0.));
#1900=DIRECTION('',(0.,0.,-1.));
#1901=DIRECTION('',(0.707106781186548,-0.707106781186548,0.));
#1902=DIRECTION('',(-0.707106781186548,-0.707106781186548,0.));
#1903=DIRECTION('',(0.,-1.,0.));
#1904=DIRECTION('',(0.,0.,-1.));
#1905=DIRECTION('',(0.,-0.707106781186548,-0.707106781186548));
#1906=DIRECTION('',(0.,-0.707106781186548,0.707106781186548));
#1907=DIRECTION('',(0.,1.,0.));
#1908=DIRECTION('',(0.,0.,1.));
#1909=DIRECTION('',(0.,-1.,0.));
#1910=DIRECTION('',(0.,0.,-1.));
#1911=DIRECTION('',(1.,0.,0.));
#1912=DIRECTION('',(0.,0.,-1.));
#1913=DIRECTION('',(0.707106781186548,0.707106781186548,0.));
#1914=DIRECTION('',(-0.707106781186548,0.707106781186548,0.));
#1915=DIRECTION('',(0.,0.,1.));
#1916=DIRECTION('',(1.,0.,0.));
#1917=DIRECTION('',(0.,0.707106781186548,-0.707106781186548));
#1918=DIRECTION('',(0.,0.707106781186548,0.707106781186548));
#1919=DIRECTION('',(1.19758337888107E-15,0.,1.));
#1920=DIRECTION('',(1.,0.,-1.19758337888107E-15));
#1921=DIRECTION('',(0.,0.,1.));
#1922=DIRECTION('',(1.,0.,0.));
#1923=DIRECTION('',(-1.,0.,0.));
#1924=DIRECTION('',(0.,0.,1.));
#1925=DIRECTION('',(-1.,0.,0.));
#1926=DIRECTION('',(0.,0.,1.));
#1927=DIRECTION('',(1.,0.,0.));
#1928=DIRECTION('',(0.,0.,-1.));
#1929=DIRECTION('',(0.,1.,0.));
#1930=DIRECTION('',(0.,0.,1.));
#1931=DIRECTION('',(0.,-1.,0.));
#1932=DIRECTION('',(0.,0.,-1.));
#1933=DIRECTION('',(0.,1.,0.));
#1934=DIRECTION('',(0.,0.,1.));
#1935=DIRECTION('',(0.,-1.,0.));
#1936=DIRECTION('',(0.,0.,-1.));
#1937=DIRECTION('',(0.,0.,-1.));
#1938=DIRECTION('',(-1.,0.,0.));
#1939=DIRECTION('',(0.,0.,-1.));
#1940=DIRECTION('',(-1.,0.,0.));
#1941=DIRECTION('',(0.,0.,1.));
#1942=DIRECTION('',(1.,0.,0.));
#1943=DIRECTION('',(0.,0.,1.));
#1944=DIRECTION('',(1.,0.,0.));
#1945=DIRECTION('',(-1.,0.,0.));
#1946=DIRECTION('',(0.,0.,1.));
#1947=DIRECTION('',(-1.,-1.19758337888107E-15,0.));
#1948=DIRECTION('',(1.19758337888107E-15,-1.,0.));
#1949=DIRECTION('',(2.16840434497101E-16,0.,-1.));
#1950=DIRECTION('',(-1.,0.,-2.16840434497101E-16));
#1951=DIRECTION('',(-0.707106781186548,0.,-0.707106781186548));
#1952=DIRECTION('',(0.707106781186548,0.,-0.707106781186548));
#1953=DIRECTION('',(-1.,0.,0.));
#1954=DIRECTION('',(0.,0.,1.));
#1955=DIRECTION('',(8.67361737988404E-17,-1.,0.));
#1956=DIRECTION('',(1.,8.67361737988404E-17,0.));
#1957=DIRECTION('',(0.707106781186548,-0.707106781186548,0.));
#1958=DIRECTION('',(0.707106781186548,0.707106781186548,0.));
#1959=DIRECTION('',(-0.707106781186548,-0.707106781186548,0.));
#1960=DIRECTION('',(-0.707106781186548,0.707106781186548,0.));
#1961=DIRECTION('',(-1.,0.,0.));
#1962=DIRECTION('',(0.,0.,1.));
#1963=DIRECTION('',(-0.707106781186548,0.707106781186548,0.));
#1964=DIRECTION('',(-0.707106781186548,-0.707106781186548,0.));
#1965=DIRECTION('',(1.,0.,0.));
#1966=DIRECTION('',(0.,0.,-1.));
#1967=DIRECTION('',(0.707106781186548,0.707106781186548,0.));
#1968=DIRECTION('',(0.707106781186548,-0.707106781186548,0.));
#1969=DIRECTION('',(0.,1.,0.));
#1970=DIRECTION('',(0.,0.,1.));
#1971=DIRECTION('',(-1.7347234759768E-16,-1.,0.));
#1972=DIRECTION('',(1.,-1.7347234759768E-16,0.));
#1973=DIRECTION('',(0.707106781186548,-0.707106781186548,0.));
#1974=DIRECTION('',(0.707106781186548,0.707106781186548,0.));
#1975=DIRECTION('',(-0.707106781186548,-0.707106781186548,0.));
#1976=DIRECTION('',(-0.707106781186548,0.707106781186548,0.));
#1977=DIRECTION('',(-1.,0.,0.));
#1978=DIRECTION('',(0.,0.,1.));
#1979=DIRECTION('',(-0.707106781186548,0.707106781186548,0.));
#1980=DIRECTION('',(-0.707106781186548,-0.707106781186548,0.));
#1981=DIRECTION('',(1.,0.,0.));
#1982=DIRECTION('',(0.,0.,-1.));
#1983=DIRECTION('',(0.707106781186548,0.707106781186548,0.));
#1984=DIRECTION('',(0.707106781186548,-0.707106781186548,0.));
#1985=DIRECTION('',(0.,1.,0.));
#1986=DIRECTION('',(0.,0.,1.));
#1987=CARTESIAN_POINT('',(0.,0.,0.));
#1988=CARTESIAN_POINT('',(0.01,-0.0115,0.02));
#1989=CARTESIAN_POINT('',(0.01822426,-0.0155,0.02));
#1990=CARTESIAN_POINT('',(0.01822426,-0.00977574,0.02));
#1991=CARTESIAN_POINT('',(0.01822426,-0.01622426,0.02));
#1992=CARTESIAN_POINT('',(0.01,-0.01622426,0.02));
#1993=CARTESIAN_POINT('',(0.00177574,-0.01622426,0.02));
#1994=CARTESIAN_POINT('',(0.00177574,-0.0115,0.02));
#1995=CARTESIAN_POINT('',(0.00177574,-0.00977574,0.02));
#1996=CARTESIAN_POINT('',(0.0175,-0.00977574,0.02));
#1997=CARTESIAN_POINT('',(0.01822426,-0.0075,0.02));
#1998=CARTESIAN_POINT('',(0.01822426,-0.00177574,0.02));
#1999=CARTESIAN_POINT('',(0.01822426,-0.00822426,0.02));
#2000=CARTESIAN_POINT('',(0.01,-0.00822426,0.02));
#2001=CARTESIAN_POINT('',(0.00177574,-0.00822426,0.02));
#2002=CARTESIAN_POINT('',(0.00177574,-0.0115,0.02));
#2003=CARTESIAN_POINT('',(0.00177574,-0.00177574,0.02));
#2004=CARTESIAN_POINT('',(0.0175,-0.00177574,0.02));
#2005=CARTESIAN_POINT('',(0.01,-0.00072426,0.02));
#2006=CARTESIAN_POINT('',(0.01927574,-0.00072426,0.02));
#2007=CARTESIAN_POINT('',(0.00072426,-0.00072426,0.02));
#2008=CARTESIAN_POINT('',(0.00072426,-0.023,0.02));
#2009=CARTESIAN_POINT('',(0.00072426,-0.02227574,0.02));
#2010=CARTESIAN_POINT('',(0.004,-0.02227574,0.02));
#2011=CARTESIAN_POINT('',(0.00327574,-0.02227574,0.02));
#2012=CARTESIAN_POINT('',(0.00327574,-0.019,0.02));
#2013=CARTESIAN_POINT('',(0.00327574,-0.01827574,0.02));
#2014=CARTESIAN_POINT('',(0.01,-0.01827574,0.02));
#2015=CARTESIAN_POINT('',(0.01672426,-0.01827574,0.02));
#2016=CARTESIAN_POINT('',(0.01672426,-0.0115,0.02));
#2017=CARTESIAN_POINT('',(0.01672426,-0.02227574,0.02));
#2018=CARTESIAN_POINT('',(0.02,-0.02227574,0.02));
#2019=CARTESIAN_POINT('',(0.01927574,-0.02227574,0.02));
#2020=CARTESIAN_POINT('',(0.01927574,-0.0115,0.02));
#2021=CARTESIAN_POINT('',(0.01,-0.023,0.02));
#2022=CARTESIAN_POINT('',(0.00072426,-0.023,0.02));
#2023=CARTESIAN_POINT('',(0.00072426,-0.023,0.01927574));
#2024=CARTESIAN_POINT('',(0.00072426,-0.023,0.01672426));
#2025=CARTESIAN_POINT('',(0.004,-0.023,0.01672426));
#2026=CARTESIAN_POINT('',(0.00327574,-0.023,0.01672426));
#2027=CARTESIAN_POINT('',(0.00327574,-0.023,0.02));
#2028=CARTESIAN_POINT('',(0.00327574,-0.023,0.01927574));
#2029=CARTESIAN_POINT('',(1.7347234759768E-18,-0.023,0.01927574));
#2030=CARTESIAN_POINT('',(0.01,-0.023,0.02));
#2031=CARTESIAN_POINT('',(0.00327574,-0.023,0.02));
#2032=CARTESIAN_POINT('',(0.00327574,-0.023,0.00072426));
#2033=CARTESIAN_POINT('',(0.00327574,-0.023,0.00327574));
#2034=CARTESIAN_POINT('',(0.01,-0.023,0.00327574));
#2035=CARTESIAN_POINT('',(0.00072426,-0.023,0.00327574));
#2036=CARTESIAN_POINT('',(0.00072426,-0.023,0.02));
#2037=CARTESIAN_POINT('',(0.00072426,-0.023,0.00072426));
#2038=CARTESIAN_POINT('',(0.01,-0.023,0.00072426));
#2039=CARTESIAN_POINT('',(0.01,-0.023,0.02));
#2040=CARTESIAN_POINT('',(0.01672426,-0.023,0.016));
#2041=CARTESIAN_POINT('',(0.01672426,-0.023,0.01927574));
#2042=CARTESIAN_POINT('',(0.01672426,-0.023,0.01672426));
#2043=CARTESIAN_POINT('',(0.02,-0.023,0.01672426));
#2044=CARTESIAN_POINT('',(0.01927574,-0.023,0.01672426));
#2045=CARTESIAN_POINT('',(0.01927574,-0.023,0.02));
#2046=CARTESIAN_POINT('',(0.01927574,-0.023,0.01927574));
#2047=CARTESIAN_POINT('',(0.016,-0.023,0.01927574));
#2048=CARTESIAN_POINT('',(0.02,-0.0115,0.02));
#2049=CARTESIAN_POINT('',(0.02,-0.00072426,0.02));
#2050=CARTESIAN_POINT('',(0.02,-0.00072426,0.00072426));
#2051=CARTESIAN_POINT('',(0.02,-0.00072426,0.01927574));
#2052=CARTESIAN_POINT('',(0.02,-0.0115,0.01927574));
#2053=CARTESIAN_POINT('',(0.02,-0.02227574,0.01927574));
#2054=CARTESIAN_POINT('',(0.02,-0.02227574,0.016));
#2055=CARTESIAN_POINT('',(0.02,-0.02227574,0.01672426));
#2056=CARTESIAN_POINT('',(0.02,-0.0115,0.01672426));
#2057=CARTESIAN_POINT('',(0.02,-0.01827574,0.01672426));
#2058=CARTESIAN_POINT('',(0.02,-0.01827574,0.02));
#2059=CARTESIAN_POINT('',(0.02,-0.01827574,0.00327574));
#2060=CARTESIAN_POINT('',(0.02,-0.023,0.00327574));
#2061=CARTESIAN_POINT('',(0.02,-0.02227574,0.00327574));
#2062=CARTESIAN_POINT('',(0.02,-0.02227574,0.));
#2063=CARTESIAN_POINT('',(0.02,-0.02227574,0.00072426));
#2064=CARTESIAN_POINT('',(0.02,-0.00072426,0.00072426));
#2065=CARTESIAN_POINT('',(0.01,0.,0.02));
#2066=CARTESIAN_POINT('',(0.00072426,0.,0.02));
#2067=CARTESIAN_POINT('',(0.00072426,0.,0.00072426));
#2068=CARTESIAN_POINT('',(0.00072426,0.,0.01927574));
#2069=CARTESIAN_POINT('',(0.01,0.,0.01927574));
#2070=CARTESIAN_POINT('',(0.01927574,0.,0.01927574));
#2071=CARTESIAN_POINT('',(0.01927574,0.,0.02));
#2072=CARTESIAN_POINT('',(0.01927574,0.,0.00072426));
#2073=CARTESIAN_POINT('',(0.,0.,0.00072426));
#2074=CARTESIAN_POINT('',(0.,-0.0115,0.02));
#2075=CARTESIAN_POINT('',(0.,-0.00072426,0.));
#2076=CARTESIAN_POINT('',(0.,-0.00072426,0.01927574));
#2077=CARTESIAN_POINT('',(0.,-0.00072426,0.00072426));
#2078=CARTESIAN_POINT('',(0.,-0.0115,0.00072426));
#2079=CARTESIAN_POINT('',(0.,-0.02227574,0.00072426));
#2080=CARTESIAN_POINT('',(0.,-0.02227574,0.02));
#2081=CARTESIAN_POINT('',(0.,-0.02227574,0.00327574));
#2082=CARTESIAN_POINT('',(0.,-0.0115,0.00327574));
#2083=CARTESIAN_POINT('',(0.,-0.01827574,0.00327574));
#2084=CARTESIAN_POINT('',(0.,-0.01827574,0.016));
#2085=CARTESIAN_POINT('',(0.,-0.01827574,0.01672426));
#2086=CARTESIAN_POINT('',(0.,-0.023,0.01672426));
#2087=CARTESIAN_POINT('',(0.,-0.02227574,0.01672426));
#2088=CARTESIAN_POINT('',(0.,-0.02227574,0.02));
#2089=CARTESIAN_POINT('',(0.,-0.02227574,0.01927574));
#2090=CARTESIAN_POINT('',(0.,-0.00072426,0.01927574));
#2091=CARTESIAN_POINT('',(0.01,-0.023,0.02));
#2092=CARTESIAN_POINT('',(0.01927574,-0.023,0.004));
#2093=CARTESIAN_POINT('',(0.01927574,-0.023,0.00072426));
#2094=CARTESIAN_POINT('',(0.01927574,-0.023,0.00327574));
#2095=CARTESIAN_POINT('',(0.01,-0.023,0.00327574));
#2096=CARTESIAN_POINT('',(0.01672426,-0.023,0.00327574));
#2097=CARTESIAN_POINT('',(0.01672426,-0.023,0.));
#2098=CARTESIAN_POINT('',(0.01672426,-0.023,0.00072426));
#2099=CARTESIAN_POINT('',(0.01,-0.023,0.00072426));
#2100=CARTESIAN_POINT('',(0.01,-0.0115,0.));
#2101=CARTESIAN_POINT('',(0.01,-0.02227574,0.));
#2102=CARTESIAN_POINT('',(0.00327574,-0.02227574,0.));
#2103=CARTESIAN_POINT('',(0.00072426,-0.02227574,0.));
#2104=CARTESIAN_POINT('',(0.00072426,-0.0115,0.));
#2105=CARTESIAN_POINT('',(0.00072426,-0.00072426,0.));
#2106=CARTESIAN_POINT('',(0.02,-0.00072426,0.));
#2107=CARTESIAN_POINT('',(0.01927574,-0.00072426,0.));
#2108=CARTESIAN_POINT('',(0.01927574,-0.023,0.));
#2109=CARTESIAN_POINT('',(0.01927574,-0.02227574,0.));
#2110=CARTESIAN_POINT('',(0.01,-0.02227574,0.));
#2111=CARTESIAN_POINT('',(0.01672426,-0.02227574,0.));
#2112=CARTESIAN_POINT('',(0.01672426,-0.019,0.));
#2113=CARTESIAN_POINT('',(0.01672426,-0.01827574,0.));
#2114=CARTESIAN_POINT('',(0.004,-0.01827574,0.));
#2115=CARTESIAN_POINT('',(0.00327574,-0.01827574,0.));
#2116=CARTESIAN_POINT('',(0.00327574,-0.0115,0.));
#2117=CARTESIAN_POINT('',(0.018,-0.019,0.016));
#2118=CARTESIAN_POINT('',(0.01927574,-0.019,0.016));
#2119=CARTESIAN_POINT('',(0.01927574,-0.019,0.016));
#2120=CARTESIAN_POINT('',(0.01927574,-0.02227574,0.016));
#2121=CARTESIAN_POINT('',(0.016,-0.02227574,0.016));
#2122=CARTESIAN_POINT('',(0.016,-0.02227574,0.016));
#2123=CARTESIAN_POINT('',(0.016,-0.019,0.016));
#2124=CARTESIAN_POINT('',(0.016,-0.019,0.016));
#2125=CARTESIAN_POINT('',(0.018,-0.019,0.016));
#2126=CARTESIAN_POINT('',(0.016,-0.019,0.018));
#2127=CARTESIAN_POINT('',(0.016,-0.02227574,0.02));
#2128=CARTESIAN_POINT('',(0.016,-0.02227574,0.01927574));
#2129=CARTESIAN_POINT('',(0.016,-0.019,0.01927574));
#2130=CARTESIAN_POINT('',(0.016,-0.019,0.01927574));
#2131=CARTESIAN_POINT('',(0.016,-0.019,0.018));
#2132=CARTESIAN_POINT('',(0.004,-0.019,0.018));
#2133=CARTESIAN_POINT('',(0.004,-0.023,0.01927574));
#2134=CARTESIAN_POINT('',(0.004,-0.019,0.01927574));
#2135=CARTESIAN_POINT('',(0.004,-0.02227574,0.01927574));
#2136=CARTESIAN_POINT('',(0.004,-0.02227574,0.018));
#2137=CARTESIAN_POINT('',(0.004,-0.02227574,0.016));
#2138=CARTESIAN_POINT('',(0.004,-0.019,0.016));
#2139=CARTESIAN_POINT('',(0.004,-0.019,0.016));
#2140=CARTESIAN_POINT('',(0.004,-0.019,0.018));
#2141=CARTESIAN_POINT('',(0.002,-0.019,0.016));
#2142=CARTESIAN_POINT('',(1.7347234759768E-18,-0.02227574,0.016));
#2143=CARTESIAN_POINT('',(0.00072426,-0.02227574,0.016));
#2144=CARTESIAN_POINT('',(0.00072426,-0.019,0.016));
#2145=CARTESIAN_POINT('',(0.00072426,-0.019,0.016));
#2146=CARTESIAN_POINT('',(0.002,-0.019,0.016));
#2147=CARTESIAN_POINT('',(0.002,-0.019,0.004));
#2148=CARTESIAN_POINT('',(0.00072426,-0.019,0.004));
#2149=CARTESIAN_POINT('',(0.00072426,-0.019,0.004));
#2150=CARTESIAN_POINT('',(0.00072426,-0.02227574,0.004));
#2151=CARTESIAN_POINT('',(0.002,-0.02227574,0.004));
#2152=CARTESIAN_POINT('',(0.004,-0.02227574,0.004));
#2153=CARTESIAN_POINT('',(0.004,-0.019,0.004));
#2154=CARTESIAN_POINT('',(0.004,-0.019,0.004));
#2155=CARTESIAN_POINT('',(0.002,-0.019,0.004));
#2156=CARTESIAN_POINT('',(0.004,-0.019,0.002));
#2157=CARTESIAN_POINT('',(0.004,-0.02227574,0.002));
#2158=CARTESIAN_POINT('',(0.004,-0.02227574,0.00072426));
#2159=CARTESIAN_POINT('',(0.004,-0.019,0.00072426));
#2160=CARTESIAN_POINT('',(0.004,-0.019,0.00072426));
#2161=CARTESIAN_POINT('',(0.004,-0.019,0.002));
#2162=CARTESIAN_POINT('',(0.016,-0.019,0.002));
#2163=CARTESIAN_POINT('',(0.016,-0.023,0.00072426));
#2164=CARTESIAN_POINT('',(0.016,-0.019,0.00072426));
#2165=CARTESIAN_POINT('',(0.016,-0.02227574,0.00072426));
#2166=CARTESIAN_POINT('',(0.016,-0.02227574,0.004));
#2167=CARTESIAN_POINT('',(0.016,-0.02227574,0.004));
#2168=CARTESIAN_POINT('',(0.016,-0.019,0.004));
#2169=CARTESIAN_POINT('',(0.016,-0.019,0.004));
#2170=CARTESIAN_POINT('',(0.016,-0.019,0.002));
#2171=CARTESIAN_POINT('',(0.018,-0.019,0.004));
#2172=CARTESIAN_POINT('',(0.018,-0.02227574,0.004));
#2173=CARTESIAN_POINT('',(0.01927574,-0.02227574,0.004));
#2174=CARTESIAN_POINT('',(0.01927574,-0.019,0.004));
#2175=CARTESIAN_POINT('',(0.01927574,-0.019,0.004));
#2176=CARTESIAN_POINT('',(0.018,-0.019,0.004));
#2177=CARTESIAN_POINT('',(0.01,-0.019,0.01));
#2178=CARTESIAN_POINT('',(0.00072426,-0.019,0.004));
#2179=CARTESIAN_POINT('',(0.016,-0.019,0.00072426));
#2180=CARTESIAN_POINT('',(0.01927574,-0.019,0.01));
#2181=CARTESIAN_POINT('',(0.01,-0.019,0.01927574));
#2182=CARTESIAN_POINT('',(0.01,-0.0105,0.021));
#2183=CARTESIAN_POINT('',(0.0175,-0.0105,0.021));
#2184=CARTESIAN_POINT('',(0.0175,-0.0105,0.021));
#2185=CARTESIAN_POINT('',(0.0175,-0.0105,0.02072426));
#2186=CARTESIAN_POINT('',(0.0025,-0.0105,0.02072426));
#2187=CARTESIAN_POINT('',(0.0025,-0.0105,0.02072426));
#2188=CARTESIAN_POINT('',(0.0025,-0.0105,0.021));
#2189=CARTESIAN_POINT('',(0.0025,-0.0105,0.021));
#2190=CARTESIAN_POINT('',(0.01,-0.0105,0.021));
#2191=CARTESIAN_POINT('',(0.0025,-0.013,0.021));
#2192=CARTESIAN_POINT('',(0.0025,-0.013,0.02072426));
#2193=CARTESIAN_POINT('',(0.0025,-0.0155,0.02072426));
#2194=CARTESIAN_POINT('',(0.0025,-0.0155,0.021));
#2195=CARTESIAN_POINT('',(0.0025,-0.0155,0.021));
#2196=CARTESIAN_POINT('',(0.0025,-0.013,0.021));
#2197=CARTESIAN_POINT('',(0.01,-0.0155,0.021));
#2198=CARTESIAN_POINT('',(0.01,-0.0155,0.02072426));
#2199=CARTESIAN_POINT('',(0.0175,-0.0155,0.02072426));
#2200=CARTESIAN_POINT('',(0.0175,-0.0155,0.021));
#2201=CARTESIAN_POINT('',(0.0175,-0.0155,0.021));
#2202=CARTESIAN_POINT('',(0.01,-0.0155,0.021));
#2203=CARTESIAN_POINT('',(0.0175,-0.013,0.021));
#2204=CARTESIAN_POINT('',(0.0175,-0.0105,0.02072426));
#2205=CARTESIAN_POINT('',(0.0175,-0.013,0.021));
#2206=CARTESIAN_POINT('',(0.01,-0.0115,0.021));
#2207=CARTESIAN_POINT('',(0.01,-0.013,0.021));
#2208=CARTESIAN_POINT('',(0.011,-0.013,0.021));
#2209=CARTESIAN_POINT('',(0.01,-0.0025,0.021));
#2210=CARTESIAN_POINT('',(0.0175,-0.0025,0.021));
#2211=CARTESIAN_POINT('',(0.0175,-0.0025,0.021));
#2212=CARTESIAN_POINT('',(0.0175,-0.0025,0.02072426));
#2213=CARTESIAN_POINT('',(0.0025,-0.0025,0.02072426));
#2214=CARTESIAN_POINT('',(0.0025,-0.0025,0.02072426));
#2215=CARTESIAN_POINT('',(0.0025,-0.0025,0.021));
#2216=CARTESIAN_POINT('',(0.0025,-0.0025,0.021));
#2217=CARTESIAN_POINT('',(0.01,-0.0025,0.021));
#2218=CARTESIAN_POINT('',(0.0025,-0.005,0.021));
#2219=CARTESIAN_POINT('',(0.0025,-0.005,0.02072426));
#2220=CARTESIAN_POINT('',(0.0025,-0.0075,0.02072426));
#2221=CARTESIAN_POINT('',(0.0025,-0.0075,0.021));
#2222=CARTESIAN_POINT('',(0.0025,-0.0075,0.021));
#2223=CARTESIAN_POINT('',(0.0025,-0.005,0.021));
#2224=CARTESIAN_POINT('',(0.01,-0.0075,0.021));
#2225=CARTESIAN_POINT('',(0.01,-0.0075,0.02072426));
#2226=CARTESIAN_POINT('',(0.0175,-0.0075,0.02072426));
#2227=CARTESIAN_POINT('',(0.0175,-0.0075,0.021));
#2228=CARTESIAN_POINT('',(0.0175,-0.0075,0.021));
#2229=CARTESIAN_POINT('',(0.01,-0.0075,0.021));
#2230=CARTESIAN_POINT('',(0.0175,-0.005,0.021));
#2231=CARTESIAN_POINT('',(0.0175,-0.0025,0.02072426));
#2232=CARTESIAN_POINT('',(0.0175,-0.005,0.021));
#2233=CARTESIAN_POINT('',(0.01,-0.0115,0.021));
#2234=CARTESIAN_POINT('',(0.01,-0.005,0.021));
#2235=CARTESIAN_POINT('',(0.011,-0.005,0.021));
#2236=CARTESIAN_POINT('',(0.01,-0.005,0.0207));
#2237=CARTESIAN_POINT('',(0.01,-0.005,0.0207));
#2238=CARTESIAN_POINT('',(0.011,-0.005,0.0207));
#2239=CARTESIAN_POINT('',(0.01,-0.00975,0.0207));
#2240=CARTESIAN_POINT('',(0.01,-0.013,0.0207));
#2241=CARTESIAN_POINT('',(0.01,-0.013,0.0207));
#2242=CARTESIAN_POINT('',(0.011,-0.013,0.0207));
#2243=CARTESIAN_POINT('',(0.01,-0.00975,0.0207));
#2244=CARTESIAN_POINT('',(0.01,-0.00072426,0.00072426));
#2245=CARTESIAN_POINT('',(0.00072426,-0.00072426,0.00072426));
#2246=CARTESIAN_POINT('',(0.01927574,-0.00072426,0.00072426));
#2247=CARTESIAN_POINT('',(0.00072426,-0.00072426,0.02));
#2248=CARTESIAN_POINT('',(0.00072426,-0.00072426,0.00072426));
#2249=CARTESIAN_POINT('',(0.00072426,-0.00072426,0.01927574));
#2250=CARTESIAN_POINT('',(0.01927574,-0.00072426,0.02));
#2251=CARTESIAN_POINT('',(0.01927574,-0.00072426,0.01927574));
#2252=CARTESIAN_POINT('',(0.01927574,-0.00072426,0.00072426));
#2253=CARTESIAN_POINT('',(0.01,-0.00072426,0.01927574));
#2254=CARTESIAN_POINT('',(0.00072426,-0.00072426,0.01927574));
#2255=CARTESIAN_POINT('',(0.01927574,-0.00072426,0.01927574));
#2256=CARTESIAN_POINT('',(0.01927574,-0.00072426,0.00072426));
#2257=CARTESIAN_POINT('',(0.01927574,-0.00072426,0.00072426));
#2258=CARTESIAN_POINT('',(0.01927574,-0.0115,0.00072426));
#2259=CARTESIAN_POINT('',(0.01927574,-0.02227574,0.00072426));
#2260=CARTESIAN_POINT('',(0.01927574,-0.02227574,0.00072426));
#2261=CARTESIAN_POINT('',(0.01927574,-0.02227574,0.00072426));
#2262=CARTESIAN_POINT('',(0.01927574,-0.02227574,0.00072426));
#2263=CARTESIAN_POINT('',(0.01927574,-0.02227574,0.02));
#2264=CARTESIAN_POINT('',(0.01927574,-0.02227574,0.00327574));
#2265=CARTESIAN_POINT('',(0.018,-0.02227574,0.00327574));
#2266=CARTESIAN_POINT('',(0.01927574,-0.02227574,0.00327574));
#2267=CARTESIAN_POINT('',(0.01672426,-0.02227574,0.00327574));
#2268=CARTESIAN_POINT('',(0.01672426,-0.02227574,0.02));
#2269=CARTESIAN_POINT('',(0.01672426,-0.02227574,0.00072426));
#2270=CARTESIAN_POINT('',(0.01,-0.02227574,0.00072426));
#2271=CARTESIAN_POINT('',(0.01672426,-0.02227574,0.00072426));
#2272=CARTESIAN_POINT('',(0.01927574,-0.02227574,0.00327574));
#2273=CARTESIAN_POINT('',(0.01927574,-0.02227574,0.00327574));
#2274=CARTESIAN_POINT('',(0.01672426,-0.02227574,0.00072426));
#2275=CARTESIAN_POINT('',(0.01672426,-0.02227574,0.00072426));
#2276=CARTESIAN_POINT('',(0.01927574,-0.0115,0.00327574));
#2277=CARTESIAN_POINT('',(0.01927574,-0.01827574,0.00327574));
#2278=CARTESIAN_POINT('',(0.01672426,-0.019,0.00072426));
#2279=CARTESIAN_POINT('',(0.01672426,-0.01827574,0.00072426));
#2280=CARTESIAN_POINT('',(0.01927574,-0.01827574,0.02));
#2281=CARTESIAN_POINT('',(0.01927574,-0.01827574,0.01672426));
#2282=CARTESIAN_POINT('',(0.01,-0.01827574,0.00072426));
#2283=CARTESIAN_POINT('',(0.00327574,-0.01827574,0.00072426));
#2284=CARTESIAN_POINT('',(0.01927574,-0.00072426,0.01927574));
#2285=CARTESIAN_POINT('',(0.01927574,-0.00072426,0.01927574));
#2286=CARTESIAN_POINT('',(0.01927574,-0.019,0.01672426));
#2287=CARTESIAN_POINT('',(0.01927574,-0.02227574,0.01672426));
#2288=CARTESIAN_POINT('',(0.00327574,-0.0115,0.00072426));
#2289=CARTESIAN_POINT('',(0.00327574,-0.02227574,0.00072426));
#2290=CARTESIAN_POINT('',(0.00072426,-0.00072426,0.00072426));
#2291=CARTESIAN_POINT('',(0.00072426,-0.00072426,0.00072426));
#2292=CARTESIAN_POINT('',(0.01927574,-0.0115,0.01927574));
#2293=CARTESIAN_POINT('',(0.01927574,-0.02227574,0.01927574));
#2294=CARTESIAN_POINT('',(0.01927574,-0.02227574,0.02));
#2295=CARTESIAN_POINT('',(0.01927574,-0.02227574,0.01672426));
#2296=CARTESIAN_POINT('',(0.01927574,-0.02227574,0.01927574));
#2297=CARTESIAN_POINT('',(0.01927574,-0.02227574,0.01672426));
#2298=CARTESIAN_POINT('',(0.01927574,-0.02227574,0.01672426));
#2299=CARTESIAN_POINT('',(0.00327574,-0.02227574,0.00072426));
#2300=CARTESIAN_POINT('',(0.00327574,-0.02227574,0.00072426));
#2301=CARTESIAN_POINT('',(0.00327574,-0.02227574,0.00072426));
#2302=CARTESIAN_POINT('',(0.01,-0.02227574,0.00072426));
#2303=CARTESIAN_POINT('',(0.00072426,-0.02227574,0.00072426));
#2304=CARTESIAN_POINT('',(0.00072426,-0.0115,0.00072426));
#2305=CARTESIAN_POINT('',(0.00072426,-0.02227574,0.00072426));
#2306=CARTESIAN_POINT('',(0.01927574,-0.02227574,0.01927574));
#2307=CARTESIAN_POINT('',(0.01927574,-0.02227574,0.01927574));
#2308=CARTESIAN_POINT('',(0.01,-0.02227574,0.01672426));
#2309=CARTESIAN_POINT('',(0.01672426,-0.02227574,0.01672426));
#2310=CARTESIAN_POINT('',(0.00327574,-0.02227574,0.002));
#2311=CARTESIAN_POINT('',(0.00327574,-0.02227574,0.00327574));
#2312=CARTESIAN_POINT('',(0.00072426,-0.02227574,0.00072426));
#2313=CARTESIAN_POINT('',(0.00072426,-0.02227574,0.00072426));
#2314=CARTESIAN_POINT('',(0.01,-0.02227574,0.01927574));
#2315=CARTESIAN_POINT('',(0.01672426,-0.02227574,0.01927574));
#2316=CARTESIAN_POINT('',(0.01672426,-0.02227574,0.02));
#2317=CARTESIAN_POINT('',(0.01672426,-0.02227574,0.01927574));
#2318=CARTESIAN_POINT('',(0.002,-0.02227574,0.00327574));
#2319=CARTESIAN_POINT('',(0.00072426,-0.02227574,0.00327574));
#2320=CARTESIAN_POINT('',(0.00072426,-0.02227574,0.02));
#2321=CARTESIAN_POINT('',(0.00072426,-0.02227574,0.00327574));
#2322=CARTESIAN_POINT('',(0.01672426,-0.02227574,0.01927574));
#2323=CARTESIAN_POINT('',(0.01672426,-0.02227574,0.01927574));
#2324=CARTESIAN_POINT('',(0.00072426,-0.02227574,0.00327574));
#2325=CARTESIAN_POINT('',(0.00072426,-0.02227574,0.00327574));
#2326=CARTESIAN_POINT('',(0.00072426,-0.00072426,0.01927574));
#2327=CARTESIAN_POINT('',(0.00072426,-0.00072426,0.01927574));
#2328=CARTESIAN_POINT('',(0.01672426,-0.0115,0.01927574));
#2329=CARTESIAN_POINT('',(0.01672426,-0.01827574,0.01927574));
#2330=CARTESIAN_POINT('',(0.00072426,-0.019,0.00327574));
#2331=CARTESIAN_POINT('',(0.00072426,-0.01827574,0.00327574));
#2332=CARTESIAN_POINT('',(0.00072426,-0.0115,0.01927574));
#2333=CARTESIAN_POINT('',(0.00072426,-0.02227574,0.01927574));
#2334=CARTESIAN_POINT('',(0.01,-0.01827574,0.01927574));
#2335=CARTESIAN_POINT('',(0.00327574,-0.01827574,0.01927574));
#2336=CARTESIAN_POINT('',(0.00072426,-0.01827574,0.01));
#2337=CARTESIAN_POINT('',(0.00072426,-0.01827574,0.01672426));
#2338=CARTESIAN_POINT('',(0.00072426,-0.02227574,0.01927574));
#2339=CARTESIAN_POINT('',(0.00072426,-0.02227574,0.01927574));
#2340=CARTESIAN_POINT('',(0.00072426,-0.02227574,0.01927574));
#2341=CARTESIAN_POINT('',(0.01,-0.02227574,0.01927574));
#2342=CARTESIAN_POINT('',(0.00327574,-0.02227574,0.01927574));
#2343=CARTESIAN_POINT('',(0.00327574,-0.019,0.01927574));
#2344=CARTESIAN_POINT('',(0.00327574,-0.02227574,0.01927574));
#2345=CARTESIAN_POINT('',(0.00072426,-0.0115,0.01672426));
#2346=CARTESIAN_POINT('',(0.00072426,-0.02227574,0.01672426));
#2347=CARTESIAN_POINT('',(0.00072426,-0.02227574,0.02));
#2348=CARTESIAN_POINT('',(0.00072426,-0.02227574,0.01672426));
#2349=CARTESIAN_POINT('',(0.00327574,-0.02227574,0.01927574));
#2350=CARTESIAN_POINT('',(0.00327574,-0.02227574,0.01927574));
#2351=CARTESIAN_POINT('',(0.00072426,-0.02227574,0.01672426));
#2352=CARTESIAN_POINT('',(0.00072426,-0.02227574,0.01672426));
#2353=CARTESIAN_POINT('',(0.00327574,-0.02227574,0.018));
#2354=CARTESIAN_POINT('',(0.00327574,-0.02227574,0.01672426));
#2355=CARTESIAN_POINT('',(0.01,-0.02227574,0.01672426));
#2356=CARTESIAN_POINT('',(0.00177574,-0.013,0.02072426));
#2357=CARTESIAN_POINT('',(0.00177574,-0.01622426,0.02072426));
#2358=CARTESIAN_POINT('',(0.00177574,-0.00977574,0.02072426));
#2359=CARTESIAN_POINT('',(0.01,-0.00977574,0.02072426));
#2360=CARTESIAN_POINT('',(0.01822426,-0.00977574,0.02072426));
#2361=CARTESIAN_POINT('',(0.01,-0.01622426,0.02072426));
#2362=CARTESIAN_POINT('',(0.01822426,-0.01622426,0.02072426));
#2363=CARTESIAN_POINT('',(0.01822426,-0.0115,0.02072426));
#2364=CARTESIAN_POINT('',(0.00177574,-0.005,0.02072426));
#2365=CARTESIAN_POINT('',(0.00177574,-0.00822426,0.02072426));
#2366=CARTESIAN_POINT('',(0.00177574,-0.00177574,0.02072426));
#2367=CARTESIAN_POINT('',(0.01,-0.00177574,0.02072426));
#2368=CARTESIAN_POINT('',(0.01822426,-0.00177574,0.02072426));
#2369=CARTESIAN_POINT('',(0.01,-0.00822426,0.02072426));
#2370=CARTESIAN_POINT('',(0.01822426,-0.00822426,0.02072426));
#2371=CARTESIAN_POINT('',(0.01822426,-0.0115,0.02072426));
#2372=MECHANICAL_DESIGN_GEOMETRIC_PRESENTATION_REPRESENTATION('',(#1365),
#2373);
#2373=(
GEOMETRIC_REPRESENTATION_CONTEXT(3)
GLOBAL_UNCERTAINTY_ASSIGNED_CONTEXT((#2374))
GLOBAL_UNIT_ASSIGNED_CONTEXT((#2377,#2376,#2375))
REPRESENTATION_CONTEXT('Nightstand','TOP_LEVEL_ASSEMBLY_PART')
);
#2374=UNCERTAINTY_MEASURE_WITH_UNIT(LENGTH_MEASURE(1.E-8),#2377,
'DISTANCE_ACCURACY_VALUE','Maximum Tolerance applied to model');
#2375=(
NAMED_UNIT(*)
SI_UNIT($,.STERADIAN.)
SOLID_ANGLE_UNIT()
);
#2376=(
NAMED_UNIT(*)
PLANE_ANGLE_UNIT()
SI_UNIT($,.RADIAN.)
);
#2377=(
LENGTH_UNIT()
NAMED_UNIT(*)
SI_UNIT($,.METRE.)
);
#2378=PRODUCT_DEFINITION_SHAPE('','',#2379);
#2379=PRODUCT_DEFINITION('','',#2381,#2380);
#2380=PRODUCT_DEFINITION_CONTEXT('',#2387,'design');
#2381=PRODUCT_DEFINITION_FORMATION_WITH_SPECIFIED_SOURCE('','',#2383,
 .NOT_KNOWN.);
#2382=PRODUCT_RELATED_PRODUCT_CATEGORY('','',(#2383));
#2383=PRODUCT('Nightstand','Nightstand','Nightstand',(#2385));
#2384=PRODUCT_CATEGORY('','');
#2385=PRODUCT_CONTEXT('',#2387,'mechanical');
#2386=APPLICATION_PROTOCOL_DEFINITION('international standard',
'ap242_managed_model_based_3d_engineering',2020,#2387);
#2387=APPLICATION_CONTEXT('managed model based 3d engineering');
ENDSEC;
END-ISO-10303-21;
