ISO-10303-21;
HEADER;
/* Generated by software containing ST-Developer
 * from STEP Tools, Inc. (www.steptools.com) 
 */
/* OPTION: using custom renumber hook */

FILE_DESCRIPTION(
/* description */ ('STEP AP242 Edition 2',
'CAx-IF Rec.Pracs.---Representation and Presentation of Product Manufa
cturing Information (PMI)---4.0---2014-10-13',
'CAx-IF Rec.Pracs.---3D Tessellated Geometry---0.4---2014-09-14','2;1',
'CAx-IF Rec.Pracs.---User Defined Attributes---1.5---2016-08-15'),
/* implementation_level */ '2;1');

FILE_NAME(
/* name */ 'Assembly 1 - Lamp',
/* time_stamp */ '2026-09-04T01:58:22Z',
/* author */ (''),
/* organization */ (''),
/* preprocessor_version */ 'ST-DEVELOPER v20',
/* originating_system */ 'ONSHAPE BY PTC INC, 1.220',
/* authorisation */ '  ');

FILE_SCHEMA (('AP242_MANAGED_MODEL_BASED_3D_ENGINEERING_MIM_LF { 1 0 10303 442 3 1 4 }'));
ENDSEC;

DATA;
#10=SHAPE_REPRESENTATION_RELATIONSHIP('','',#91,#11);
#11=ADVANCED_BREP_SHAPE_REPRESENTATION('',(#89),#155);
#12=CONICAL_SURFACE('',#101,0.0065,0.174532925199433);
#13=DEGENERATE_TOROIDAL_SURFACE('',#98,0.00186152236891497,0.00313847763108502,
 .T.);
#14=DEGENERATE_TOROIDAL_SURFACE('',#99,0.00186152236891497,0.00313847763108502,
 .T.);
#15=PLANE('',#96);
#16=PLANE('',#104);
#17=PLANE('',#105);
#18=ORIENTED_EDGE('',*,*,#30,.T.);
#19=ORIENTED_EDGE('',*,*,#31,.T.);
#20=ORIENTED_EDGE('',*,*,#32,.T.);
#21=ORIENTED_EDGE('',*,*,#32,.F.);
#22=ORIENTED_EDGE('',*,*,#30,.F.);
#23=ORIENTED_EDGE('',*,*,#31,.F.);
#24=ORIENTED_EDGE('',*,*,#33,.F.);
#25=ORIENTED_EDGE('',*,*,#34,.F.);
#26=ORIENTED_EDGE('',*,*,#35,.T.);
#27=ORIENTED_EDGE('',*,*,#34,.T.);
#28=ORIENTED_EDGE('',*,*,#33,.T.);
#29=ORIENTED_EDGE('',*,*,#35,.F.);
#30=EDGE_CURVE('',#36,#36,#42,.T.);
#31=EDGE_CURVE('',#37,#37,#43,.F.);
#32=EDGE_CURVE('',#38,#38,#44,.F.);
#33=EDGE_CURVE('',#39,#39,#45,.T.);
#34=EDGE_CURVE('',#40,#40,#46,.T.);
#35=EDGE_CURVE('',#41,#41,#47,.T.);
#36=VERTEX_POINT('',#137);
#37=VERTEX_POINT('',#139);
#38=VERTEX_POINT('',#142);
#39=VERTEX_POINT('',#146);
#40=VERTEX_POINT('',#149);
#41=VERTEX_POINT('',#151);
#42=CIRCLE('',#94,0.005);
#43=CIRCLE('',#95,0.005);
#44=CIRCLE('',#97,0.00186152236891497);
#45=CIRCLE('',#100,0.00186152236891497);
#46=CIRCLE('',#102,0.0065);
#47=CIRCLE('',#103,0.00836906599550973);
#48=EDGE_LOOP('',(#18));
#49=EDGE_LOOP('',(#19));
#50=EDGE_LOOP('',(#20));
#51=EDGE_LOOP('',(#21));
#52=EDGE_LOOP('',(#22));
#53=EDGE_LOOP('',(#23));
#54=EDGE_LOOP('',(#24));
#55=EDGE_LOOP('',(#25));
#56=EDGE_LOOP('',(#26));
#57=EDGE_LOOP('',(#27));
#58=EDGE_LOOP('',(#28));
#59=EDGE_LOOP('',(#29));
#60=FACE_BOUND('',#48,.T.);
#61=FACE_BOUND('',#49,.T.);
#62=FACE_BOUND('',#50,.T.);
#63=FACE_BOUND('',#51,.T.);
#64=FACE_BOUND('',#52,.T.);
#65=FACE_BOUND('',#53,.T.);
#66=FACE_BOUND('',#54,.T.);
#67=FACE_BOUND('',#55,.T.);
#68=FACE_BOUND('',#56,.T.);
#69=FACE_BOUND('',#57,.T.);
#70=FACE_BOUND('',#58,.T.);
#71=FACE_BOUND('',#59,.T.);
#72=CYLINDRICAL_SURFACE('',#93,0.005);
#73=ADVANCED_FACE('',(#60,#61),#72,.T.);
#74=ADVANCED_FACE('',(#62),#15,.F.);
#75=ADVANCED_FACE('',(#63,#64),#13,.T.);
#76=ADVANCED_FACE('',(#65,#66),#14,.T.);
#77=ADVANCED_FACE('',(#67,#68),#12,.T.);
#78=ADVANCED_FACE('',(#69),#16,.T.);
#79=ADVANCED_FACE('',(#70,#71),#17,.F.);
#80=CLOSED_SHELL('',(#73,#74,#75,#76,#77,#78,#79));
#81=STYLED_ITEM('',(#82),#89);
#82=PRESENTATION_STYLE_ASSIGNMENT((#83));
#83=SURFACE_STYLE_USAGE(.BOTH.,#84);
#84=SURFACE_SIDE_STYLE('',(#85));
#85=SURFACE_STYLE_FILL_AREA(#86);
#86=FILL_AREA_STYLE('',(#87));
#87=FILL_AREA_STYLE_COLOUR('',#88);
#88=COLOUR_RGB('',0.901960784313726,0.901960784313726,0.901960784313726);
#89=MANIFOLD_SOLID_BREP('Lamp',#80);
#90=SHAPE_DEFINITION_REPRESENTATION(#160,#91);
#91=SHAPE_REPRESENTATION('Lamp',(#92),#155);
#92=AXIS2_PLACEMENT_3D('',#134,#106,#107);
#93=AXIS2_PLACEMENT_3D('',#135,#108,#109);
#94=AXIS2_PLACEMENT_3D('',#136,#110,#111);
#95=AXIS2_PLACEMENT_3D('',#138,#112,#113);
#96=AXIS2_PLACEMENT_3D('',#140,#114,#115);
#97=AXIS2_PLACEMENT_3D('',#141,#116,#117);
#98=AXIS2_PLACEMENT_3D('',#143,#118,#119);
#99=AXIS2_PLACEMENT_3D('',#144,#120,#121);
#100=AXIS2_PLACEMENT_3D('',#145,#122,#123);
#101=AXIS2_PLACEMENT_3D('',#147,#124,#125);
#102=AXIS2_PLACEMENT_3D('',#148,#126,#127);
#103=AXIS2_PLACEMENT_3D('',#150,#128,#129);
#104=AXIS2_PLACEMENT_3D('',#152,#130,#131);
#105=AXIS2_PLACEMENT_3D('',#153,#132,#133);
#106=DIRECTION('',(0.,0.,1.));
#107=DIRECTION('',(1.,0.,0.));
#108=DIRECTION('',(0.,0.,-1.));
#109=DIRECTION('',(-1.,0.,0.));
#110=DIRECTION('',(0.,0.,1.));
#111=DIRECTION('',(1.,0.,0.));
#112=DIRECTION('',(0.,0.,1.));
#113=DIRECTION('',(1.,0.,0.));
#114=DIRECTION('',(0.,0.,1.));
#115=DIRECTION('',(1.,0.,0.));
#116=DIRECTION('',(0.,0.,1.));
#117=DIRECTION('',(1.,0.,0.));
#118=DIRECTION('',(0.,0.,1.));
#119=DIRECTION('',(1.,0.,0.));
#120=DIRECTION('',(0.,0.,1.));
#121=DIRECTION('',(1.,0.,0.));
#122=DIRECTION('',(0.,0.,1.));
#123=DIRECTION('',(1.,0.,0.));
#124=DIRECTION('',(0.,0.,-1.));
#125=DIRECTION('',(1.,0.,0.));
#126=DIRECTION('',(0.,0.,1.));
#127=DIRECTION('',(1.,0.,0.));
#128=DIRECTION('',(0.,0.,1.));
#129=DIRECTION('',(1.,0.,0.));
#130=DIRECTION('',(0.,0.,1.));
#131=DIRECTION('',(1.,0.,0.));
#132=DIRECTION('',(0.,0.,1.));
#133=DIRECTION('',(1.,0.,0.));
#134=CARTESIAN_POINT('',(0.,0.,0.));
#135=CARTESIAN_POINT('',(0.,3.06161699786838E-19,0.013));
#136=CARTESIAN_POINT('',(0.,3.06161699786838E-19,0.00313847763108502));
#137=CARTESIAN_POINT('',(0.005,3.06161699786838E-19,0.00313847763108502));
#138=CARTESIAN_POINT('',(0.,3.06161699786838E-19,0.00986152236891498));
#139=CARTESIAN_POINT('',(0.005,3.06161699786838E-19,0.00986152236891498));
#140=CARTESIAN_POINT('',(0.,0.,0.));
#141=CARTESIAN_POINT('',(0.,3.06161699786838E-19,0.));
#142=CARTESIAN_POINT('',(0.00186152236891497,3.06161699786838E-19,0.));
#143=CARTESIAN_POINT('',(0.,3.06161699786838E-19,0.00313847763108502));
#144=CARTESIAN_POINT('',(0.,3.06161699786838E-19,0.00986152236891498));
#145=CARTESIAN_POINT('',(0.,3.06161699786838E-19,0.013));
#146=CARTESIAN_POINT('',(0.00186152236891497,3.06161699786838E-19,0.013));
#147=CARTESIAN_POINT('',(0.,2.6732666689345E-19,0.0236));
#148=CARTESIAN_POINT('',(0.,2.6732666689345E-19,0.0236));
#149=CARTESIAN_POINT('',(0.0065,2.6732666689345E-19,0.0236));
#150=CARTESIAN_POINT('',(0.,2.6732666689345E-19,0.013));
#151=CARTESIAN_POINT('',(0.00836906599550973,2.6732666689345E-19,0.013));
#152=CARTESIAN_POINT('',(0.,0.,0.0236));
#153=CARTESIAN_POINT('',(0.,0.,0.013));
#154=MECHANICAL_DESIGN_GEOMETRIC_PRESENTATION_REPRESENTATION('',(#81),#155);
#155=(
GEOMETRIC_REPRESENTATION_CONTEXT(3)
GLOBAL_UNCERTAINTY_ASSIGNED_CONTEXT((#156))
GLOBAL_UNIT_ASSIGNED_CONTEXT((#159,#158,#157))
REPRESENTATION_CONTEXT('Lamp','TOP_LEVEL_ASSEMBLY_PART')
);
#156=UNCERTAINTY_MEASURE_WITH_UNIT(LENGTH_MEASURE(1.E-8),#159,
'DISTANCE_ACCURACY_VALUE','Maximum Tolerance applied to model');
#157=(
NAMED_UNIT(*)
SI_UNIT($,.STERADIAN.)
SOLID_ANGLE_UNIT()
);
#158=(
NAMED_UNIT(*)
PLANE_ANGLE_UNIT()
SI_UNIT($,.RADIAN.)
);
#159=(
LENGTH_UNIT()
NAMED_UNIT(*)
SI_UNIT($,.METRE.)
);
#160=PRODUCT_DEFINITION_SHAPE('','',#161);
#161=PRODUCT_DEFINITION('','',#163,#162);
#162=PRODUCT_DEFINITION_CONTEXT('',#169,'design');
#163=PRODUCT_DEFINITION_FORMATION_WITH_SPECIFIED_SOURCE('','',#165,
 .NOT_KNOWN.);
#164=PRODUCT_RELATED_PRODUCT_CATEGORY('','',(#165));
#165=PRODUCT('Lamp','Lamp','Lamp',(#167));
#166=PRODUCT_CATEGORY('','');
#167=PRODUCT_CONTEXT('',#169,'mechanical');
#168=APPLICATION_PROTOCOL_DEFINITION('international standard',
'ap242_managed_model_based_3d_engineering',2020,#169);
#169=APPLICATION_CONTEXT('managed model based 3d engineering');
ENDSEC;
END-ISO-10303-21;
