ISO-10303-21;
HEADER;
/* Generated by software containing ST-Developer
 * from STEP Tools, Inc. (www.steptools.com) 
 */
/* OPTION: using custom renumber hook */

FILE_DESCRIPTION(
/* description */ ('STEP AP242 Edition 2',
'CAx-IF Rec.Pracs.---Representation and Presentation of Product Manufa
cturing Information (PMI)---4.0---2014-10-13',
'CAx-IF Rec.Pracs.---3D Tessellated Geometry---0.4---2014-09-14','2;1',
'CAx-IF Rec.Pracs.---User Defined Attributes---1.5---2016-08-15'),
/* implementation_level */ '2;1');

FILE_NAME(
/* name */ 'Assembly 1 - Mattress',
/* time_stamp */ '2026-09-04T01:58:22Z',
/* author */ (''),
/* organization */ (''),
/* preprocessor_version */ 'ST-DEVELOPER v20',
/* originating_system */ 'ONSHAPE BY PTC INC, 1.220',
/* authorisation */ '  ');

FILE_SCHEMA (('AP242_MANAGED_MODEL_BASED_3D_ENGINEERING_MIM_LF { 1 0 10303 442 3 1 4 }'));
ENDSEC;

DATA;
#10=SHAPE_REPRESENTATION_RELATIONSHIP('','',#252,#11);
#11=ADVANCED_BREP_SHAPE_REPRESENTATION('',(#250),#406);
#12=ELLIPSE('',#261,0.00477989898732234,0.00337989898732234);
#13=ELLIPSE('',#262,0.00477989898732233,0.00337989898732234);
#14=ELLIPSE('',#264,0.00477989898732233,0.00337989898732234);
#15=ELLIPSE('',#266,0.00477989898732233,0.00337989898732234);
#16=CYLINDRICAL_SURFACE('',#260,0.00337989898732234);
#17=CYLINDRICAL_SURFACE('',#263,0.00337989898732234);
#18=CYLINDRICAL_SURFACE('',#265,0.00337989898732234);
#19=CYLINDRICAL_SURFACE('',#267,0.00337989898732234);
#20=ORIENTED_EDGE('',*,*,#82,.T.);
#21=ORIENTED_EDGE('',*,*,#83,.T.);
#22=ORIENTED_EDGE('',*,*,#84,.T.);
#23=ORIENTED_EDGE('',*,*,#85,.T.);
#24=ORIENTED_EDGE('',*,*,#86,.F.);
#25=ORIENTED_EDGE('',*,*,#87,.T.);
#26=ORIENTED_EDGE('',*,*,#88,.T.);
#27=ORIENTED_EDGE('',*,*,#89,.F.);
#28=ORIENTED_EDGE('',*,*,#90,.F.);
#29=ORIENTED_EDGE('',*,*,#91,.T.);
#30=ORIENTED_EDGE('',*,*,#86,.T.);
#31=ORIENTED_EDGE('',*,*,#92,.T.);
#32=ORIENTED_EDGE('',*,*,#93,.F.);
#33=ORIENTED_EDGE('',*,*,#94,.T.);
#34=ORIENTED_EDGE('',*,*,#90,.T.);
#35=ORIENTED_EDGE('',*,*,#95,.T.);
#36=ORIENTED_EDGE('',*,*,#88,.F.);
#37=ORIENTED_EDGE('',*,*,#96,.T.);
#38=ORIENTED_EDGE('',*,*,#93,.T.);
#39=ORIENTED_EDGE('',*,*,#97,.F.);
#40=ORIENTED_EDGE('',*,*,#89,.T.);
#41=ORIENTED_EDGE('',*,*,#97,.T.);
#42=ORIENTED_EDGE('',*,*,#95,.F.);
#43=ORIENTED_EDGE('',*,*,#92,.F.);
#44=ORIENTED_EDGE('',*,*,#98,.F.);
#45=ORIENTED_EDGE('',*,*,#87,.F.);
#46=ORIENTED_EDGE('',*,*,#99,.F.);
#47=ORIENTED_EDGE('',*,*,#85,.F.);
#48=ORIENTED_EDGE('',*,*,#99,.T.);
#49=ORIENTED_EDGE('',*,*,#91,.F.);
#50=ORIENTED_EDGE('',*,*,#100,.F.);
#51=ORIENTED_EDGE('',*,*,#101,.F.);
#52=ORIENTED_EDGE('',*,*,#82,.F.);
#53=ORIENTED_EDGE('',*,*,#98,.T.);
#54=ORIENTED_EDGE('',*,*,#84,.F.);
#55=ORIENTED_EDGE('',*,*,#102,.F.);
#56=ORIENTED_EDGE('',*,*,#103,.F.);
#57=ORIENTED_EDGE('',*,*,#96,.F.);
#58=ORIENTED_EDGE('',*,*,#100,.T.);
#59=ORIENTED_EDGE('',*,*,#94,.F.);
#60=ORIENTED_EDGE('',*,*,#103,.T.);
#61=ORIENTED_EDGE('',*,*,#104,.F.);
#62=ORIENTED_EDGE('',*,*,#83,.F.);
#63=ORIENTED_EDGE('',*,*,#105,.F.);
#64=ORIENTED_EDGE('',*,*,#106,.T.);
#65=ORIENTED_EDGE('',*,*,#107,.T.);
#66=ORIENTED_EDGE('',*,*,#101,.T.);
#67=ORIENTED_EDGE('',*,*,#108,.F.);
#68=ORIENTED_EDGE('',*,*,#109,.F.);
#69=ORIENTED_EDGE('',*,*,#105,.T.);
#70=ORIENTED_EDGE('',*,*,#104,.T.);
#71=ORIENTED_EDGE('',*,*,#110,.F.);
#72=ORIENTED_EDGE('',*,*,#111,.F.);
#73=ORIENTED_EDGE('',*,*,#108,.T.);
#74=ORIENTED_EDGE('',*,*,#102,.T.);
#75=ORIENTED_EDGE('',*,*,#107,.F.);
#76=ORIENTED_EDGE('',*,*,#112,.F.);
#77=ORIENTED_EDGE('',*,*,#110,.T.);
#78=ORIENTED_EDGE('',*,*,#106,.F.);
#79=ORIENTED_EDGE('',*,*,#109,.T.);
#80=ORIENTED_EDGE('',*,*,#111,.T.);
#81=ORIENTED_EDGE('',*,*,#112,.T.);
#82=EDGE_CURVE('',#113,#114,#131,.T.);
#83=EDGE_CURVE('',#114,#115,#132,.T.);
#84=EDGE_CURVE('',#115,#116,#133,.F.);
#85=EDGE_CURVE('',#116,#113,#134,.F.);
#86=EDGE_CURVE('',#117,#118,#135,.T.);
#87=EDGE_CURVE('',#117,#119,#136,.T.);
#88=EDGE_CURVE('',#119,#120,#137,.T.);
#89=EDGE_CURVE('',#118,#120,#138,.T.);
#90=EDGE_CURVE('',#121,#122,#139,.T.);
#91=EDGE_CURVE('',#121,#117,#140,.F.);
#92=EDGE_CURVE('',#118,#122,#141,.T.);
#93=EDGE_CURVE('',#123,#124,#142,.T.);
#94=EDGE_CURVE('',#123,#121,#143,.F.);
#95=EDGE_CURVE('',#122,#124,#144,.T.);
#96=EDGE_CURVE('',#119,#123,#145,.T.);
#97=EDGE_CURVE('',#120,#124,#146,.T.);
#98=EDGE_CURVE('',#119,#116,#12,.T.);
#99=EDGE_CURVE('',#113,#117,#13,.F.);
#100=EDGE_CURVE('',#125,#121,#14,.F.);
#101=EDGE_CURVE('',#114,#125,#147,.T.);
#102=EDGE_CURVE('',#126,#115,#148,.F.);
#103=EDGE_CURVE('',#123,#126,#15,.T.);
#104=EDGE_CURVE('',#125,#126,#149,.T.);
#105=EDGE_CURVE('',#127,#114,#150,.T.);
#106=EDGE_CURVE('',#127,#128,#151,.T.);
#107=EDGE_CURVE('',#128,#115,#152,.T.);
#108=EDGE_CURVE('',#129,#125,#153,.T.);
#109=EDGE_CURVE('',#127,#129,#154,.T.);
#110=EDGE_CURVE('',#130,#126,#155,.T.);
#111=EDGE_CURVE('',#129,#130,#156,.T.);
#112=EDGE_CURVE('',#130,#128,#157,.F.);
#113=VERTEX_POINT('',#343);
#114=VERTEX_POINT('',#344);
#115=VERTEX_POINT('',#346);
#116=VERTEX_POINT('',#348);
#117=VERTEX_POINT('',#352);
#118=VERTEX_POINT('',#353);
#119=VERTEX_POINT('',#355);
#120=VERTEX_POINT('',#357);
#121=VERTEX_POINT('',#361);
#122=VERTEX_POINT('',#362);
#123=VERTEX_POINT('',#367);
#124=VERTEX_POINT('',#368);
#125=VERTEX_POINT('',#380);
#126=VERTEX_POINT('',#384);
#127=VERTEX_POINT('',#390);
#128=VERTEX_POINT('',#392);
#129=VERTEX_POINT('',#396);
#130=VERTEX_POINT('',#400);
#131=LINE('',#342,#158);
#132=LINE('',#345,#159);
#133=LINE('',#347,#160);
#134=LINE('',#349,#161);
#135=LINE('',#351,#162);
#136=LINE('',#354,#163);
#137=LINE('',#356,#164);
#138=LINE('',#358,#165);
#139=LINE('',#360,#166);
#140=LINE('',#363,#167);
#141=LINE('',#364,#168);
#142=LINE('',#366,#169);
#143=LINE('',#369,#170);
#144=LINE('',#370,#171);
#145=LINE('',#372,#172);
#146=LINE('',#373,#173);
#147=LINE('',#381,#174);
#148=LINE('',#383,#175);
#149=LINE('',#387,#176);
#150=LINE('',#389,#177);
#151=LINE('',#391,#178);
#152=LINE('',#393,#179);
#153=LINE('',#395,#180);
#154=LINE('',#397,#181);
#155=LINE('',#399,#182);
#156=LINE('',#401,#183);
#157=LINE('',#403,#184);
#158=VECTOR('',#277,1.);
#159=VECTOR('',#278,1.);
#160=VECTOR('',#279,1.);
#161=VECTOR('',#280,1.);
#162=VECTOR('',#283,1.);
#163=VECTOR('',#284,1.);
#164=VECTOR('',#285,1.);
#165=VECTOR('',#286,1.);
#166=VECTOR('',#289,1.);
#167=VECTOR('',#290,1.);
#168=VECTOR('',#291,1.);
#169=VECTOR('',#294,1.);
#170=VECTOR('',#295,1.);
#171=VECTOR('',#296,1.);
#172=VECTOR('',#299,1.);
#173=VECTOR('',#300,1.);
#174=VECTOR('',#313,1.);
#175=VECTOR('',#316,1.);
#176=VECTOR('',#321,1.);
#177=VECTOR('',#324,1.);
#178=VECTOR('',#325,1.);
#179=VECTOR('',#326,1.);
#180=VECTOR('',#329,1.);
#181=VECTOR('',#330,1.);
#182=VECTOR('',#333,1.);
#183=VECTOR('',#334,1.);
#184=VECTOR('',#337,1.);
#185=EDGE_LOOP('',(#20,#21,#22,#23));
#186=EDGE_LOOP('',(#24,#25,#26,#27));
#187=EDGE_LOOP('',(#28,#29,#30,#31));
#188=EDGE_LOOP('',(#32,#33,#34,#35));
#189=EDGE_LOOP('',(#36,#37,#38,#39));
#190=EDGE_LOOP('',(#40,#41,#42,#43));
#191=EDGE_LOOP('',(#44,#45,#46,#47));
#192=EDGE_LOOP('',(#48,#49,#50,#51,#52));
#193=EDGE_LOOP('',(#53,#54,#55,#56,#57));
#194=EDGE_LOOP('',(#58,#59,#60,#61));
#195=EDGE_LOOP('',(#62,#63,#64,#65));
#196=EDGE_LOOP('',(#66,#67,#68,#69));
#197=EDGE_LOOP('',(#70,#71,#72,#73));
#198=EDGE_LOOP('',(#74,#75,#76,#77));
#199=EDGE_LOOP('',(#78,#79,#80,#81));
#200=FACE_BOUND('',#185,.T.);
#201=FACE_BOUND('',#186,.T.);
#202=FACE_BOUND('',#187,.T.);
#203=FACE_BOUND('',#188,.T.);
#204=FACE_BOUND('',#189,.T.);
#205=FACE_BOUND('',#190,.T.);
#206=FACE_BOUND('',#191,.T.);
#207=FACE_BOUND('',#192,.T.);
#208=FACE_BOUND('',#193,.T.);
#209=FACE_BOUND('',#194,.T.);
#210=FACE_BOUND('',#195,.T.);
#211=FACE_BOUND('',#196,.T.);
#212=FACE_BOUND('',#197,.T.);
#213=FACE_BOUND('',#198,.T.);
#214=FACE_BOUND('',#199,.T.);
#215=PLANE('',#254);
#216=PLANE('',#255);
#217=PLANE('',#256);
#218=PLANE('',#257);
#219=PLANE('',#258);
#220=PLANE('',#259);
#221=PLANE('',#268);
#222=PLANE('',#269);
#223=PLANE('',#270);
#224=PLANE('',#271);
#225=PLANE('',#272);
#226=ADVANCED_FACE('',(#200),#215,.T.);
#227=ADVANCED_FACE('',(#201),#216,.T.);
#228=ADVANCED_FACE('',(#202),#217,.F.);
#229=ADVANCED_FACE('',(#203),#218,.F.);
#230=ADVANCED_FACE('',(#204),#219,.T.);
#231=ADVANCED_FACE('',(#205),#220,.F.);
#232=ADVANCED_FACE('',(#206),#16,.T.);
#233=ADVANCED_FACE('',(#207),#17,.T.);
#234=ADVANCED_FACE('',(#208),#18,.T.);
#235=ADVANCED_FACE('',(#209),#19,.T.);
#236=ADVANCED_FACE('',(#210),#221,.T.);
#237=ADVANCED_FACE('',(#211),#222,.F.);
#238=ADVANCED_FACE('',(#212),#223,.F.);
#239=ADVANCED_FACE('',(#213),#224,.F.);
#240=ADVANCED_FACE('',(#214),#225,.T.);
#241=CLOSED_SHELL('',(#226,#227,#228,#229,#230,#231,#232,#233,#234,#235,
#236,#237,#238,#239,#240));
#242=STYLED_ITEM('',(#243),#250);
#243=PRESENTATION_STYLE_ASSIGNMENT((#244));
#244=SURFACE_STYLE_USAGE(.BOTH.,#245);
#245=SURFACE_SIDE_STYLE('',(#246));
#246=SURFACE_STYLE_FILL_AREA(#247);
#247=FILL_AREA_STYLE('',(#248));
#248=FILL_AREA_STYLE_COLOUR('',#249);
#249=COLOUR_RGB('',0.631372549019608,0.792156862745098,0.556862745098039);
#250=MANIFOLD_SOLID_BREP('Mattress',#241);
#251=SHAPE_DEFINITION_REPRESENTATION(#411,#252);
#252=SHAPE_REPRESENTATION('Mattress',(#253),#406);
#253=AXIS2_PLACEMENT_3D('',#340,#273,#274);
#254=AXIS2_PLACEMENT_3D('',#341,#275,#276);
#255=AXIS2_PLACEMENT_3D('',#350,#281,#282);
#256=AXIS2_PLACEMENT_3D('',#359,#287,#288);
#257=AXIS2_PLACEMENT_3D('',#365,#292,#293);
#258=AXIS2_PLACEMENT_3D('',#371,#297,#298);
#259=AXIS2_PLACEMENT_3D('',#374,#301,#302);
#260=AXIS2_PLACEMENT_3D('',#375,#303,#304);
#261=AXIS2_PLACEMENT_3D('',#376,#305,#306);
#262=AXIS2_PLACEMENT_3D('',#377,#307,#308);
#263=AXIS2_PLACEMENT_3D('',#378,#309,#310);
#264=AXIS2_PLACEMENT_3D('',#379,#311,#312);
#265=AXIS2_PLACEMENT_3D('',#382,#314,#315);
#266=AXIS2_PLACEMENT_3D('',#385,#317,#318);
#267=AXIS2_PLACEMENT_3D('',#386,#319,#320);
#268=AXIS2_PLACEMENT_3D('',#388,#322,#323);
#269=AXIS2_PLACEMENT_3D('',#394,#327,#328);
#270=AXIS2_PLACEMENT_3D('',#398,#331,#332);
#271=AXIS2_PLACEMENT_3D('',#402,#335,#336);
#272=AXIS2_PLACEMENT_3D('',#404,#338,#339);
#273=DIRECTION('',(0.,0.,1.));
#274=DIRECTION('',(1.,0.,0.));
#275=DIRECTION('',(0.,0.,1.));
#276=DIRECTION('',(1.,0.,0.));
#277=DIRECTION('',(1.,0.,0.));
#278=DIRECTION('',(0.,1.,0.));
#279=DIRECTION('',(1.,0.,0.));
#280=DIRECTION('',(-1.92747052886312E-16,1.,0.));
#281=DIRECTION('',(-1.,-1.92747052886312E-16,0.));
#282=DIRECTION('',(1.92747052886312E-16,-1.,0.));
#283=DIRECTION('',(0.,0.,-1.));
#284=DIRECTION('',(-1.92747052886312E-16,1.,0.));
#285=DIRECTION('',(0.,0.,-1.));
#286=DIRECTION('',(-1.92747052886312E-16,1.,0.));
#287=DIRECTION('',(0.,1.,0.));
#288=DIRECTION('',(0.,0.,1.));
#289=DIRECTION('',(0.,0.,-1.));
#290=DIRECTION('',(1.,0.,0.));
#291=DIRECTION('',(1.,0.,0.));
#292=DIRECTION('',(-1.,0.,0.));
#293=DIRECTION('',(0.,0.,1.));
#294=DIRECTION('',(0.,0.,-1.));
#295=DIRECTION('',(0.,1.,0.));
#296=DIRECTION('',(0.,1.,0.));
#297=DIRECTION('',(0.,1.,0.));
#298=DIRECTION('',(0.,0.,1.));
#299=DIRECTION('',(1.,0.,0.));
#300=DIRECTION('',(1.,0.,0.));
#301=DIRECTION('',(0.,0.,1.));
#302=DIRECTION('',(1.,0.,0.));
#303=DIRECTION('',(-1.92747052886312E-16,1.,0.));
#304=DIRECTION('',(-1.,-1.92747052886312E-16,0.));
#305=DIRECTION('',(0.707106781186548,0.707106781186548,0.));
#306=DIRECTION('',(0.707106781186548,-0.707106781186548,0.));
#307=DIRECTION('',(-0.707106781186548,0.707106781186548,0.));
#308=DIRECTION('',(-0.707106781186548,-0.707106781186548,0.));
#309=DIRECTION('',(-1.,0.,0.));
#310=DIRECTION('',(0.,0.,1.));
#311=DIRECTION('',(-0.707106781186548,-0.707106781186548,0.));
#312=DIRECTION('',(-0.707106781186548,0.707106781186548,0.));
#313=DIRECTION('',(1.,0.,0.));
#314=DIRECTION('',(1.,0.,0.));
#315=DIRECTION('',(0.,0.,-1.));
#316=DIRECTION('',(1.,0.,0.));
#317=DIRECTION('',(0.707106781186548,-0.707106781186548,0.));
#318=DIRECTION('',(0.707106781186548,0.707106781186548,0.));
#319=DIRECTION('',(0.,-1.,0.));
#320=DIRECTION('',(0.,0.,-1.));
#321=DIRECTION('',(0.,1.,0.));
#322=DIRECTION('',(-1.,0.,0.));
#323=DIRECTION('',(0.,0.,1.));
#324=DIRECTION('',(0.,0.,-1.));
#325=DIRECTION('',(0.,1.,0.));
#326=DIRECTION('',(0.,0.,-1.));
#327=DIRECTION('',(0.,1.,0.));
#328=DIRECTION('',(0.,0.,1.));
#329=DIRECTION('',(0.,0.,-1.));
#330=DIRECTION('',(1.,0.,0.));
#331=DIRECTION('',(-1.,0.,0.));
#332=DIRECTION('',(0.,0.,1.));
#333=DIRECTION('',(0.,0.,-1.));
#334=DIRECTION('',(0.,1.,0.));
#335=DIRECTION('',(0.,-1.,0.));
#336=DIRECTION('',(0.,0.,-1.));
#337=DIRECTION('',(1.,0.,0.));
#338=DIRECTION('',(0.,0.,1.));
#339=DIRECTION('',(1.,0.,0.));
#340=CARTESIAN_POINT('',(0.,0.,0.));
#341=CARTESIAN_POINT('',(0.035,-0.02,0.0205));
#342=CARTESIAN_POINT('',(0.064,-0.0346201010126777,0.0205));
#343=CARTESIAN_POINT('',(0.00937989898732234,-0.0346201010126777,0.0205));
#344=CARTESIAN_POINT('',(0.0232793927580663,-0.0346201010126777,0.0205));
#345=CARTESIAN_POINT('',(0.0232793927580663,-0.02,0.0205));
#346=CARTESIAN_POINT('',(0.0232793927580663,-0.00537989898732233,0.0205));
#347=CARTESIAN_POINT('',(0.035,-0.00537989898732233,0.0205));
#348=CARTESIAN_POINT('',(0.00937989898732233,-0.00537989898732233,0.0205));
#349=CARTESIAN_POINT('',(0.00937989898732233,-0.02,0.0205));
#350=CARTESIAN_POINT('',(0.006,-0.02,0.0205));
#351=CARTESIAN_POINT('',(0.006,-0.038,0.0205));
#352=CARTESIAN_POINT('',(0.006,-0.038,0.0171201010126776));
#353=CARTESIAN_POINT('',(0.006,-0.038,0.0146));
#354=CARTESIAN_POINT('',(0.006,-0.02,0.0171201010126776));
#355=CARTESIAN_POINT('',(0.006,-0.002,0.0171201010126776));
#356=CARTESIAN_POINT('',(0.006,-0.002,0.0205));
#357=CARTESIAN_POINT('',(0.006,-0.002,0.0146));
#358=CARTESIAN_POINT('',(0.006,-0.02,0.0146));
#359=CARTESIAN_POINT('',(0.035,-0.038,0.0205));
#360=CARTESIAN_POINT('',(0.064,-0.038,0.0205));
#361=CARTESIAN_POINT('',(0.064,-0.038,0.0171201010126776));
#362=CARTESIAN_POINT('',(0.064,-0.038,0.0146));
#363=CARTESIAN_POINT('',(0.006,-0.038,0.0171201010126776));
#364=CARTESIAN_POINT('',(0.035,-0.038,0.0146));
#365=CARTESIAN_POINT('',(0.064,-0.02,0.0205));
#366=CARTESIAN_POINT('',(0.064,-0.002,0.0205));
#367=CARTESIAN_POINT('',(0.064,-0.002,0.0171201010126776));
#368=CARTESIAN_POINT('',(0.064,-0.002,0.0146));
#369=CARTESIAN_POINT('',(0.064,-0.038,0.0171201010126776));
#370=CARTESIAN_POINT('',(0.064,-0.02,0.0146));
#371=CARTESIAN_POINT('',(0.035,-0.002,0.0205));
#372=CARTESIAN_POINT('',(0.035,-0.002,0.0171201010126776));
#373=CARTESIAN_POINT('',(0.035,-0.002,0.0146));
#374=CARTESIAN_POINT('',(0.035,-0.02,0.0146));
#375=CARTESIAN_POINT('',(0.00937989898732233,-0.02,0.0171201010126776));
#376=CARTESIAN_POINT('',(0.00937989898732233,-0.00537989898732233,0.0171201010126776));
#377=CARTESIAN_POINT('',(0.00937989898732234,-0.0346201010126777,0.0171201010126776));
#378=CARTESIAN_POINT('',(0.035,-0.0346201010126777,0.0171201010126776));
#379=CARTESIAN_POINT('',(0.0606201010126777,-0.0346201010126777,0.0171201010126776));
#380=CARTESIAN_POINT('',(0.0606201010126777,-0.0346201010126777,0.0205));
#381=CARTESIAN_POINT('',(0.064,-0.0346201010126777,0.0205));
#382=CARTESIAN_POINT('',(0.035,-0.00537989898732233,0.0171201010126776));
#383=CARTESIAN_POINT('',(0.035,-0.00537989898732233,0.0205));
#384=CARTESIAN_POINT('',(0.0606201010126777,-0.00537989898732233,0.0205));
#385=CARTESIAN_POINT('',(0.0606201010126777,-0.00537989898732233,0.0171201010126776));
#386=CARTESIAN_POINT('',(0.0606201010126777,-0.02,0.0171201010126776));
#387=CARTESIAN_POINT('',(0.0606201010126777,-0.002,0.0205));
#388=CARTESIAN_POINT('',(0.0232793927580663,-0.02,0.0215));
#389=CARTESIAN_POINT('',(0.0232793927580663,-0.0346201010126777,0.0215));
#390=CARTESIAN_POINT('',(0.0232793927580663,-0.0346201010126777,0.0215));
#391=CARTESIAN_POINT('',(0.0232793927580663,-0.02,0.0215));
#392=CARTESIAN_POINT('',(0.0232793927580663,-0.00537989898732233,0.0215));
#393=CARTESIAN_POINT('',(0.0232793927580663,-0.00537989898732233,0.0215));
#394=CARTESIAN_POINT('',(0.064,-0.0346201010126777,0.0215));
#395=CARTESIAN_POINT('',(0.0606201010126777,-0.0346201010126777,0.0215));
#396=CARTESIAN_POINT('',(0.0606201010126777,-0.0346201010126777,0.0215));
#397=CARTESIAN_POINT('',(0.064,-0.0346201010126777,0.0215));
#398=CARTESIAN_POINT('',(0.0606201010126777,-0.002,0.0215));
#399=CARTESIAN_POINT('',(0.0606201010126777,-0.00537989898732233,0.0215));
#400=CARTESIAN_POINT('',(0.0606201010126777,-0.00537989898732233,0.0215));
#401=CARTESIAN_POINT('',(0.0606201010126777,-0.002,0.0215));
#402=CARTESIAN_POINT('',(0.035,-0.00537989898732233,0.0215));
#403=CARTESIAN_POINT('',(0.035,-0.00537989898732233,0.0215));
#404=CARTESIAN_POINT('',(0.035,-0.02,0.0215));
#405=MECHANICAL_DESIGN_GEOMETRIC_PRESENTATION_REPRESENTATION('',(#242),
#406);
#406=(
GEOMETRIC_REPRESENTATION_CONTEXT(3)
GLOBAL_UNCERTAINTY_ASSIGNED_CONTEXT((#407))
GLOBAL_UNIT_ASSIGNED_CONTEXT((#410,#409,#408))
REPRESENTATION_CONTEXT('Mattress','TOP_LEVEL_ASSEMBLY_PART')
);
#407=UNCERTAINTY_MEASURE_WITH_UNIT(LENGTH_MEASURE(1.E-8),#410,
'DISTANCE_ACCURACY_VALUE','Maximum Tolerance applied to model');
#408=(
NAMED_UNIT(*)
SI_UNIT($,.STERADIAN.)
SOLID_ANGLE_UNIT()
);
#409=(
NAMED_UNIT(*)
PLANE_ANGLE_UNIT()
SI_UNIT($,.RADIAN.)
);
#410=(
LENGTH_UNIT()
NAMED_UNIT(*)
SI_UNIT($,.METRE.)
);
#411=PRODUCT_DEFINITION_SHAPE('','',#412);
#412=PRODUCT_DEFINITION('','',#414,#413);
#413=PRODUCT_DEFINITION_CONTEXT('',#420,'design');
#414=PRODUCT_DEFINITION_FORMATION_WITH_SPECIFIED_SOURCE('','',#416,
 .NOT_KNOWN.);
#415=PRODUCT_RELATED_PRODUCT_CATEGORY('','',(#416));
#416=PRODUCT('Mattress','Mattress','Mattress',(#418));
#417=PRODUCT_CATEGORY('','');
#418=PRODUCT_CONTEXT('',#420,'mechanical');
#419=APPLICATION_PROTOCOL_DEFINITION('international standard',
'ap242_managed_model_based_3d_engineering',2020,#420);
#420=APPLICATION_CONTEXT('managed model based 3d engineering');
ENDSEC;
END-ISO-10303-21;
