ISO-10303-21;
HEADER;
/* Generated by software containing ST-Developer
 * from STEP Tools, Inc. (www.steptools.com) 
 */
/* OPTION: using custom renumber hook */

FILE_DESCRIPTION(
/* description */ ('STEP AP242 Edition 2',
'CAx-IF Rec.Pracs.---Representation and Presentation of Product Manufa
cturing Information (PMI)---4.0---2014-10-13',
'CAx-IF Rec.Pracs.---3D Tessellated Geometry---0.4---2014-09-14','2;1',
'CAx-IF Rec.Pracs.---User Defined Attributes---1.5---2016-08-15'),
/* implementation_level */ '2;1');

FILE_NAME(
/* name */ 'Assembly 1 - Plant2',
/* time_stamp */ '2026-09-04T01:58:22Z',
/* author */ (''),
/* organization */ (''),
/* preprocessor_version */ 'ST-DEVELOPER v20',
/* originating_system */ 'ONSHAPE BY PTC INC, 1.220',
/* authorisation */ '  ');

FILE_SCHEMA (('AP242_MANAGED_MODEL_BASED_3D_ENGINEERING_MIM_LF { 1 0 10303 442 3 1 4 }'));
ENDSEC;

DATA;
#10=SHAPE_REPRESENTATION_RELATIONSHIP('','',#91,#11);
#11=ADVANCED_BREP_SHAPE_REPRESENTATION('',(#89),#322);
#12=B_SPLINE_SURFACE_WITH_KNOTS('',3,3,((#138,#139,#140,#141,#142,#143,
#144,#145,#146,#147,#148,#149,#150,#151,#152,#153,#154,#155,#156),(#157,
#158,#159,#160,#161,#162,#163,#164,#165,#166,#167,#168,#169,#170,#171,#172,
#173,#174,#175),(#176,#177,#178,#179,#180,#181,#182,#183,#184,#185,#186,
#187,#188,#189,#190,#191,#192,#193,#194),(#195,#196,#197,#198,#199,#200,
#201,#202,#203,#204,#205,#206,#207,#208,#209,#210,#211,#212,#213),(#214,
#215,#216,#217,#218,#219,#220,#221,#222,#223,#224,#225,#226,#227,#228,#229,
#230,#231,#232),(#233,#234,#235,#236,#237,#238,#239,#240,#241,#242,#243,
#244,#245,#246,#247,#248,#249,#250,#251),(#252,#253,#254,#255,#256,#257,
#258,#259,#260,#261,#262,#263,#264,#265,#266,#267,#268,#269,#270),(#271,
#272,#273,#274,#275,#276,#277,#278,#279,#280,#281,#282,#283,#284,#285,#286,
#287,#288,#289),(#290,#291,#292,#293,#294,#295,#296,#297,#298,#299,#300,
#301,#302,#303,#304,#305,#306,#307,#308)),.UNSPECIFIED.,.F.,.T.,.F.,(4,
1,1,1,1,1,4),(1,1,1,1,1,1,1,1,1,1,1,1,1,1,1,1,1,1,1,1,1,1,1),(0.000496394187645716,
0.249454087858794,0.373932934694368,0.498411781529942,0.622890628365517,
0.747369475201091,0.996327168872239),(-1.17809724509617,-0.785398163397448,
-0.392699081698725,0.,0.392699081698724,0.785398163397448,1.17809724509617,
1.5707963267949,1.96349540849362,2.35619449019234,2.74889357189107,3.14159265358979,
3.53429173528852,3.92699081698724,4.31968989868597,4.71238898038469,5.10508806208341,
5.49778714378214,5.89048622548086,6.28318530717959,6.67588438887831,7.06858347057703,
7.46128255227576),.UNSPECIFIED.);
#13=PLANE('',#96);
#14=PLANE('',#98);
#15=PLANE('',#104);
#16=ORIENTED_EDGE('',*,*,#28,.T.);
#17=ORIENTED_EDGE('',*,*,#29,.T.);
#18=ORIENTED_EDGE('',*,*,#29,.F.);
#19=ORIENTED_EDGE('',*,*,#28,.F.);
#20=ORIENTED_EDGE('',*,*,#30,.F.);
#21=ORIENTED_EDGE('',*,*,#31,.F.);
#22=ORIENTED_EDGE('',*,*,#32,.T.);
#23=ORIENTED_EDGE('',*,*,#30,.T.);
#24=ORIENTED_EDGE('',*,*,#32,.F.);
#25=ORIENTED_EDGE('',*,*,#33,.F.);
#26=ORIENTED_EDGE('',*,*,#31,.T.);
#27=ORIENTED_EDGE('',*,*,#33,.T.);
#28=EDGE_CURVE('',#34,#34,#40,.F.);
#29=EDGE_CURVE('',#35,#35,#41,.T.);
#30=EDGE_CURVE('',#36,#36,#42,.T.);
#31=EDGE_CURVE('',#37,#37,#43,.T.);
#32=EDGE_CURVE('',#38,#38,#44,.T.);
#33=EDGE_CURVE('',#39,#39,#45,.T.);
#34=VERTEX_POINT('',#134);
#35=VERTEX_POINT('',#136);
#36=VERTEX_POINT('',#310);
#37=VERTEX_POINT('',#313);
#38=VERTEX_POINT('',#315);
#39=VERTEX_POINT('',#319);
#40=CIRCLE('',#94,0.008);
#41=CIRCLE('',#95,0.008);
#42=CIRCLE('',#97,0.008);
#43=CIRCLE('',#99,0.00375);
#44=CIRCLE('',#100,0.008);
#45=CIRCLE('',#103,0.00375);
#46=EDGE_LOOP('',(#16));
#47=EDGE_LOOP('',(#17));
#48=EDGE_LOOP('',(#18));
#49=EDGE_LOOP('',(#19));
#50=EDGE_LOOP('',(#20));
#51=EDGE_LOOP('',(#21));
#52=EDGE_LOOP('',(#22));
#53=EDGE_LOOP('',(#23));
#54=EDGE_LOOP('',(#24));
#55=EDGE_LOOP('',(#25));
#56=EDGE_LOOP('',(#26));
#57=EDGE_LOOP('',(#27));
#58=FACE_BOUND('',#46,.T.);
#59=FACE_BOUND('',#47,.T.);
#60=FACE_BOUND('',#48,.T.);
#61=FACE_BOUND('',#49,.T.);
#62=FACE_BOUND('',#50,.T.);
#63=FACE_BOUND('',#51,.T.);
#64=FACE_BOUND('',#52,.T.);
#65=FACE_BOUND('',#53,.T.);
#66=FACE_BOUND('',#54,.T.);
#67=FACE_BOUND('',#55,.T.);
#68=FACE_BOUND('',#56,.T.);
#69=FACE_BOUND('',#57,.T.);
#70=CYLINDRICAL_SURFACE('',#93,0.008);
#71=CYLINDRICAL_SURFACE('',#101,0.008);
#72=CYLINDRICAL_SURFACE('',#102,0.00375);
#73=ADVANCED_FACE('',(#58,#59),#70,.T.);
#74=ADVANCED_FACE('',(#60),#13,.F.);
#75=ADVANCED_FACE('',(#61,#62),#12,.T.);
#76=ADVANCED_FACE('',(#63,#64),#14,.T.);
#77=ADVANCED_FACE('',(#65,#66),#71,.T.);
#78=ADVANCED_FACE('',(#67,#68),#72,.F.);
#79=ADVANCED_FACE('',(#69),#15,.T.);
#80=CLOSED_SHELL('',(#73,#74,#75,#76,#77,#78,#79));
#81=STYLED_ITEM('',(#82),#89);
#82=PRESENTATION_STYLE_ASSIGNMENT((#83));
#83=SURFACE_STYLE_USAGE(.BOTH.,#84);
#84=SURFACE_SIDE_STYLE('',(#85));
#85=SURFACE_STYLE_FILL_AREA(#86);
#86=FILL_AREA_STYLE('',(#87));
#87=FILL_AREA_STYLE_COLOUR('',#88);
#88=COLOUR_RGB('',0.925490196078431,0.882352941176471,0.749019607843137);
#89=MANIFOLD_SOLID_BREP('Plant2',#80);
#90=SHAPE_DEFINITION_REPRESENTATION(#327,#91);
#91=SHAPE_REPRESENTATION('Plant2',(#92),#322);
#92=AXIS2_PLACEMENT_3D('',#131,#105,#106);
#93=AXIS2_PLACEMENT_3D('',#132,#107,#108);
#94=AXIS2_PLACEMENT_3D('',#133,#109,#110);
#95=AXIS2_PLACEMENT_3D('',#135,#111,#112);
#96=AXIS2_PLACEMENT_3D('',#137,#113,#114);
#97=AXIS2_PLACEMENT_3D('',#309,#115,#116);
#98=AXIS2_PLACEMENT_3D('',#311,#117,#118);
#99=AXIS2_PLACEMENT_3D('',#312,#119,#120);
#100=AXIS2_PLACEMENT_3D('',#314,#121,#122);
#101=AXIS2_PLACEMENT_3D('',#316,#123,#124);
#102=AXIS2_PLACEMENT_3D('',#317,#125,#126);
#103=AXIS2_PLACEMENT_3D('',#318,#127,#128);
#104=AXIS2_PLACEMENT_3D('',#320,#129,#130);
#105=DIRECTION('',(0.,0.,1.));
#106=DIRECTION('',(1.,0.,0.));
#107=DIRECTION('',(0.,0.,-1.));
#108=DIRECTION('',(-1.,0.,0.));
#109=DIRECTION('',(0.,0.,1.));
#110=DIRECTION('',(1.,0.,0.));
#111=DIRECTION('',(0.,0.,1.));
#112=DIRECTION('',(1.,0.,0.));
#113=DIRECTION('',(0.,0.,1.));
#114=DIRECTION('',(1.,0.,0.));
#115=DIRECTION('',(0.,0.,1.));
#116=DIRECTION('',(1.,0.,0.));
#117=DIRECTION('',(0.,0.,1.));
#118=DIRECTION('',(1.,0.,0.));
#119=DIRECTION('',(0.,0.,1.));
#120=DIRECTION('',(1.,0.,0.));
#121=DIRECTION('',(0.,0.,1.));
#122=DIRECTION('',(1.,0.,0.));
#123=DIRECTION('',(0.,0.,-1.));
#124=DIRECTION('',(-1.,0.,0.));
#125=DIRECTION('',(0.,0.,1.));
#126=DIRECTION('',(1.,0.,0.));
#127=DIRECTION('',(0.,0.,1.));
#128=DIRECTION('',(1.,0.,0.));
#129=DIRECTION('',(0.,0.,1.));
#130=DIRECTION('',(1.,0.,0.));
#131=CARTESIAN_POINT('',(0.,0.,0.));
#132=CARTESIAN_POINT('',(-0.0237738434225321,0.0225994493812323,0.018));
#133=CARTESIAN_POINT('',(-0.0237738434225321,0.0225994493812323,8.79194311328678E-5));
#134=CARTESIAN_POINT('',(-0.0157738434225321,0.0225994493812323,8.79194311328678E-5));
#135=CARTESIAN_POINT('',(-0.0237738434225321,0.0225994493812323,0.));
#136=CARTESIAN_POINT('',(-0.0157738434225321,0.0225994493812323,0.));
#137=CARTESIAN_POINT('',(-0.0237738434225321,0.0225994493812323,0.));
#138=CARTESIAN_POINT('',(-0.0161906046662253,0.0194577575402735,0.0179793403556076));
#139=CARTESIAN_POINT('',(-0.0155655709283024,0.0225988844276202,0.0179793403556076));
#140=CARTESIAN_POINT('',(-0.0161901722694505,0.025740097324033,0.0179793403556076));
#141=CARTESIAN_POINT('',(-0.0179693187975051,0.0284031750411989,0.0179793403556076));
#142=CARTESIAN_POINT('',(-0.0206321515815733,0.0301826881375391,0.0179793403556076));
#143=CARTESIAN_POINT('',(-0.02377327846892,0.030807721875462,0.0179793403556076));
#144=CARTESIAN_POINT('',(-0.0269144913653328,0.0301831205343138,0.0179793403556076));
#145=CARTESIAN_POINT('',(-0.0295775690824988,0.0284039740062592,0.0179793403556076));
#146=CARTESIAN_POINT('',(-0.0313570821788389,0.0257411412221911,0.0179793403556076));
#147=CARTESIAN_POINT('',(-0.0319821159167618,0.0226000143348443,0.0179793403556076));
#148=CARTESIAN_POINT('',(-0.0313575145756137,0.0194588014384315,0.0179793403556076));
#149=CARTESIAN_POINT('',(-0.0295783680475591,0.0167957237212656,0.0179793403556076));
#150=CARTESIAN_POINT('',(-0.0269155352634909,0.0150162106249255,0.0179793403556076));
#151=CARTESIAN_POINT('',(-0.0237744083761442,0.0143911768870026,0.0179793403556076));
#152=CARTESIAN_POINT('',(-0.0206331954797313,0.0150157782281507,0.0179793403556076));
#153=CARTESIAN_POINT('',(-0.0179701177625654,0.0167949247562053,0.0179793403556076));
#154=CARTESIAN_POINT('',(-0.0161906046662253,0.0194577575402735,0.0179793403556076));
#155=CARTESIAN_POINT('',(-0.0155655709283024,0.0225988844276202,0.0179793403556076));
#156=CARTESIAN_POINT('',(-0.0161901722694505,0.025740097324033,0.0179793403556076));
#157=CARTESIAN_POINT('',(-0.01502909977488,0.0189766464615156,0.0145575922408503));
#158=CARTESIAN_POINT('',(-0.0143083670933088,0.0225988844276202,0.0145575922408503));
#159=CARTESIAN_POINT('',(-0.0150286673781053,0.026221208402791,0.0145575922408503));
#160=CARTESIAN_POINT('',(-0.0170803414404474,0.0292921523982566,0.0145575922408503));
#161=CARTESIAN_POINT('',(-0.0201510405028154,0.0313441930288843,0.0145575922408503));
#162=CARTESIAN_POINT('',(-0.02377327846892,0.0320649257104555,0.0145575922408503));
#163=CARTESIAN_POINT('',(-0.0273956024440908,0.0313446254256591,0.0145575922408503));
#164=CARTESIAN_POINT('',(-0.0304665464395565,0.0292929513633169,0.0145575922408503));
#165=CARTESIAN_POINT('',(-0.0325185870701842,0.0262222523009489,0.0145575922408503));
#166=CARTESIAN_POINT('',(-0.0332393197517553,0.0226000143348443,0.0145575922408503));
#167=CARTESIAN_POINT('',(-0.0325190194669589,0.0189776903596736,0.0145575922408503));
#168=CARTESIAN_POINT('',(-0.0304673454046167,0.0159067463642079,0.0145575922408503));
#169=CARTESIAN_POINT('',(-0.0273966463422487,0.0138547057335802,0.0145575922408503));
#170=CARTESIAN_POINT('',(-0.0237744083761441,0.013133973052009,0.0145575922408503));
#171=CARTESIAN_POINT('',(-0.0201520844009734,0.0138542733368054,0.0145575922408503));
#172=CARTESIAN_POINT('',(-0.0170811404055077,0.0159059473991476,0.0145575922408503));
#173=CARTESIAN_POINT('',(-0.01502909977488,0.0189766464615156,0.0145575922408503));
#174=CARTESIAN_POINT('',(-0.0143083670933088,0.0225988844276202,0.0145575922408503));
#175=CARTESIAN_POINT('',(-0.0150286673781053,0.026221208402791,0.0145575922408503));
#176=CARTESIAN_POINT('',(-0.014086038866332,0.0185860178430511,0.0117689189611421));
#177=CARTESIAN_POINT('',(-0.0132876053214958,0.0225988844276202,0.0117689189611421));
#178=CARTESIAN_POINT('',(-0.0140856064695572,0.0266118370212554,0.0117689189611421));
#179=CARTESIAN_POINT('',(-0.0163585538696224,0.0300139399690816,0.0117689189611421));
#180=CARTESIAN_POINT('',(-0.0197604118843509,0.0322872539374323,0.0117689189611421));
#181=CARTESIAN_POINT('',(-0.02377327846892,0.0330856874822686,0.0117689189611421));
#182=CARTESIAN_POINT('',(-0.0277862310625552,0.0322876863342071,0.0117689189611421));
#183=CARTESIAN_POINT('',(-0.0311883340103815,0.030014738934142,0.0117689189611421));
#184=CARTESIAN_POINT('',(-0.0334616479787321,0.0266128809194134,0.0117689189611421));
#185=CARTESIAN_POINT('',(-0.0342600815235684,0.0226000143348443,0.0117689189611421));
#186=CARTESIAN_POINT('',(-0.0334620803755069,0.0185870617412091,0.0117689189611421));
#187=CARTESIAN_POINT('',(-0.0311891329754418,0.0151849587933829,0.0117689189611421));
#188=CARTESIAN_POINT('',(-0.0277872749607133,0.0129116448250322,0.0117689189611421));
#189=CARTESIAN_POINT('',(-0.0237744083761442,0.0121132112801959,0.0117689189611421));
#190=CARTESIAN_POINT('',(-0.0197614557825089,0.0129112124282574,0.0117689189611421));
#191=CARTESIAN_POINT('',(-0.0163593528346827,0.0151841598283226,0.0117689189611421));
#192=CARTESIAN_POINT('',(-0.014086038866332,0.0185860178430511,0.0117689189611421));
#193=CARTESIAN_POINT('',(-0.0132876053214958,0.0225988844276202,0.0117689189611421));
#194=CARTESIAN_POINT('',(-0.0140856064695572,0.0266118370212554,0.0117689189611421));
#195=CARTESIAN_POINT('',(-0.0135818338323368,0.0183771692797535,0.00996287543809437));
#196=CARTESIAN_POINT('',(-0.0127418577253512,0.0225988844276202,0.00996287543809436));
#197=CARTESIAN_POINT('',(-0.013581401435562,0.026820685584553,0.00996287543809437));
#198=CARTESIAN_POINT('',(-0.0159726520435723,0.0303998417951317,0.00996287543809436));
#199=CARTESIAN_POINT('',(-0.0195515633210533,0.0327914589714276,0.00996287543809437));
#200=CARTESIAN_POINT('',(-0.02377327846892,0.0336314350784132,0.00996287543809437));
#201=CARTESIAN_POINT('',(-0.0279950796258529,0.0327918913682024,0.00996287543809437));
#202=CARTESIAN_POINT('',(-0.0315742358364316,0.0304006407601921,0.00996287543809437));
#203=CARTESIAN_POINT('',(-0.0339658530127274,0.026821729482711,0.00996287543809437));
#204=CARTESIAN_POINT('',(-0.034805829119713,0.0226000143348443,0.00996287543809436));
#205=CARTESIAN_POINT('',(-0.0339662854095022,0.0183782131779115,0.00996287543809437));
#206=CARTESIAN_POINT('',(-0.0315750348014919,0.0147990569673328,0.00996287543809437));
#207=CARTESIAN_POINT('',(-0.0279961235240109,0.012407439791037,0.00996287543809437));
#208=CARTESIAN_POINT('',(-0.0237744083761442,0.0115674636840514,0.00996287543809437));
#209=CARTESIAN_POINT('',(-0.0195526072192113,0.0124070073942622,0.00996287543809437));
#210=CARTESIAN_POINT('',(-0.0159734510086326,0.0147982580022725,0.00996287543809437));
#211=CARTESIAN_POINT('',(-0.0135818338323368,0.0183771692797535,0.00996287543809437));
#212=CARTESIAN_POINT('',(-0.0127418577253512,0.0225988844276202,0.00996287543809436));
#213=CARTESIAN_POINT('',(-0.013581401435562,0.026820685584553,0.00996287543809437));
#214=CARTESIAN_POINT('',(-0.0133752137580084,0.0182915844427082,0.0088776916685776));
#215=CARTESIAN_POINT('',(-0.0125182137684743,0.0225988844276202,0.00887769166857759));
#216=CARTESIAN_POINT('',(-0.0133747813612336,0.0269062704215984,0.00887769166857759));
#217=CARTESIAN_POINT('',(-0.0158145118850933,0.0305579819536108,0.00887769166857759));
#218=CARTESIAN_POINT('',(-0.019465978484008,0.032998079045756,0.00887769166857759));
#219=CARTESIAN_POINT('',(-0.02377327846892,0.03385507903529,0.00887769166857759));
#220=CARTESIAN_POINT('',(-0.0280806644628982,0.0329985114425307,0.0088776916685776));
#221=CARTESIAN_POINT('',(-0.0317323759949106,0.0305587809186711,0.00887769166857759));
#222=CARTESIAN_POINT('',(-0.0341724730870558,0.0269073143197564,0.00887769166857759));
#223=CARTESIAN_POINT('',(-0.0350294730765899,0.0226000143348443,0.00887769166857759));
#224=CARTESIAN_POINT('',(-0.0341729054838306,0.0182926283408661,0.00887769166857759));
#225=CARTESIAN_POINT('',(-0.0317331749599709,0.0146409168088537,0.0088776916685776));
#226=CARTESIAN_POINT('',(-0.0280817083610562,0.0122008197167086,0.00887769166857759));
#227=CARTESIAN_POINT('',(-0.0237744083761442,0.0113438197271745,0.0088776916685776));
#228=CARTESIAN_POINT('',(-0.019467022382166,0.0122003873199338,0.0088776916685776));
#229=CARTESIAN_POINT('',(-0.0158153108501536,0.0146401178437935,0.00887769166857759));
#230=CARTESIAN_POINT('',(-0.0133752137580084,0.0182915844427082,0.0088776916685776));
#231=CARTESIAN_POINT('',(-0.0125182137684743,0.0225988844276202,0.00887769166857759));
#232=CARTESIAN_POINT('',(-0.0133747813612336,0.0269062704215984,0.00887769166857759));
#233=CARTESIAN_POINT('',(-0.0131060073463419,0.0181800754959181,0.00734159270570129));
#234=CARTESIAN_POINT('',(-0.0122268268482178,0.0225988844276202,0.00734159270570128));
#235=CARTESIAN_POINT('',(-0.0131055749495672,0.0270177793683884,0.00734159270570128));
#236=CARTESIAN_POINT('',(-0.0156084702178309,0.0307640236208732,0.00734159270570128));
#237=CARTESIAN_POINT('',(-0.0193544695372179,0.0332672854574224,0.00734159270570129));
#238=CARTESIAN_POINT('',(-0.02377327846892,0.0341464659555465,0.00734159270570128));
#239=CARTESIAN_POINT('',(-0.0281921734096882,0.0332677178541972,0.00734159270570129));
#240=CARTESIAN_POINT('',(-0.031938417662173,0.0307648225859335,0.00734159270570128));
#241=CARTESIAN_POINT('',(-0.0344416794987222,0.0270188232665464,0.00734159270570129));
#242=CARTESIAN_POINT('',(-0.0353208599968463,0.0226000143348443,0.00734159270570129));
#243=CARTESIAN_POINT('',(-0.034442111895497,0.0181811193940761,0.00734159270570129));
#244=CARTESIAN_POINT('',(-0.0319392166272333,0.0144348751415913,0.00734159270570128));
#245=CARTESIAN_POINT('',(-0.0281932173078463,0.0119316133050421,0.00734159270570129));
#246=CARTESIAN_POINT('',(-0.0237744083761442,0.011052432806918,0.00734159270570128));
#247=CARTESIAN_POINT('',(-0.0193555134353759,0.0119311809082673,0.00734159270570129));
#248=CARTESIAN_POINT('',(-0.0156092691828912,0.0144340761765311,0.00734159270570128));
#249=CARTESIAN_POINT('',(-0.0131060073463419,0.0181800754959181,0.00734159270570129));
#250=CARTESIAN_POINT('',(-0.0122268268482178,0.0225988844276202,0.00734159270570128));
#251=CARTESIAN_POINT('',(-0.0131055749495672,0.0270177793683884,0.00734159270570128));
#252=CARTESIAN_POINT('',(-0.0131792543823219,0.0182104154116246,0.00468707124518749));
#253=CARTESIAN_POINT('',(-0.012306108868657,0.0225988844276202,0.00468707124518749));
#254=CARTESIAN_POINT('',(-0.0131788219855471,0.0269874394526819,0.00468707124518749));
#255=CARTESIAN_POINT('',(-0.0156645310721096,0.0307079627665944,0.00468707124518749));
#256=CARTESIAN_POINT('',(-0.0193848094529244,0.0331940384214425,0.00468707124518749));
#257=CARTESIAN_POINT('',(-0.02377327846892,0.0340671839351073,0.00468707124518749));
#258=CARTESIAN_POINT('',(-0.0281618334939818,0.0331944708182173,0.00468707124518749));
#259=CARTESIAN_POINT('',(-0.0318823568078942,0.0307087617316547,0.00468707124518749));
#260=CARTESIAN_POINT('',(-0.0343684324627423,0.0269884833508399,0.00468707124518749));
#261=CARTESIAN_POINT('',(-0.0352415779764071,0.0226000143348443,0.00468707124518749));
#262=CARTESIAN_POINT('',(-0.0343688648595171,0.0182114593097826,0.00468707124518749));
#263=CARTESIAN_POINT('',(-0.0318831557729546,0.0144909359958701,0.00468707124518749));
#264=CARTESIAN_POINT('',(-0.0281628773921398,0.0120048603410221,0.00468707124518749));
#265=CARTESIAN_POINT('',(-0.0237744083761442,0.0111317148273572,0.00468707124518749));
#266=CARTESIAN_POINT('',(-0.0193858533510825,0.0120044279442473,0.00468707124518749));
#267=CARTESIAN_POINT('',(-0.0156653300371699,0.0144901370308098,0.00468707124518749));
#268=CARTESIAN_POINT('',(-0.0131792543823219,0.0182104154116246,0.00468707124518749));
#269=CARTESIAN_POINT('',(-0.012306108868657,0.0225988844276202,0.00468707124518749));
#270=CARTESIAN_POINT('',(-0.0131788219855471,0.0269874394526819,0.00468707124518749));
#271=CARTESIAN_POINT('',(-0.0143549560713507,0.0186974069965254,0.00207101923020845));
#272=CARTESIAN_POINT('',(-0.0135786792067325,0.0225988844276202,0.00207101923020845));
#273=CARTESIAN_POINT('',(-0.0143545236745759,0.0265004478677812,0.00207101923020845));
#274=CARTESIAN_POINT('',(-0.0165643741876996,0.0298081196510045,0.00207101923020845));
#275=CARTESIAN_POINT('',(-0.0198718010378251,0.0320183367324136,0.00207101923020845));
#276=CARTESIAN_POINT('',(-0.02377327846892,0.0327946135970319,0.00207101923020845));
#277=CARTESIAN_POINT('',(-0.027674841909081,0.0320187691291884,0.00207101923020845));
#278=CARTESIAN_POINT('',(-0.0309825136923043,0.0298089186160648,0.00207101923020845));
#279=CARTESIAN_POINT('',(-0.0331927307737135,0.0265014917659392,0.00207101923020845));
#280=CARTESIAN_POINT('',(-0.0339690076383317,0.0226000143348443,0.00207101923020845));
#281=CARTESIAN_POINT('',(-0.0331931631704883,0.0186984508946833,0.00207101923020845));
#282=CARTESIAN_POINT('',(-0.0309833126573646,0.0153907791114601,0.00207101923020845));
#283=CARTESIAN_POINT('',(-0.027675885807239,0.0131805620300509,0.00207101923020845));
#284=CARTESIAN_POINT('',(-0.0237744083761442,0.0124042851654326,0.00207101923020845));
#285=CARTESIAN_POINT('',(-0.0198728449359832,0.0131801296332761,0.00207101923020845));
#286=CARTESIAN_POINT('',(-0.0165651731527599,0.0153899801463998,0.00207101923020845));
#287=CARTESIAN_POINT('',(-0.0143549560713507,0.0186974069965254,0.00207101923020845));
#288=CARTESIAN_POINT('',(-0.0135786792067325,0.0225988844276202,0.00207101923020845));
#289=CARTESIAN_POINT('',(-0.0143545236745759,0.0265004478677812,0.00207101923020845));
#290=CARTESIAN_POINT('',(-0.0161906046662253,0.0194577575402735,8.79194311328695E-5));
#291=CARTESIAN_POINT('',(-0.0155655709283024,0.0225988844276202,8.79194311328694E-5));
#292=CARTESIAN_POINT('',(-0.0161901722694505,0.025740097324033,8.79194311328693E-5));
#293=CARTESIAN_POINT('',(-0.0179693187975051,0.0284031750411989,8.79194311328691E-5));
#294=CARTESIAN_POINT('',(-0.0206321515815733,0.030182688137539,8.7919431132869E-5));
#295=CARTESIAN_POINT('',(-0.02377327846892,0.0308077218754619,8.79194311328689E-5));
#296=CARTESIAN_POINT('',(-0.0269144913653328,0.0301831205343138,8.79194311328687E-5));
#297=CARTESIAN_POINT('',(-0.0295775690824988,0.0284039740062592,8.79194311328687E-5));
#298=CARTESIAN_POINT('',(-0.0313570821788389,0.025741141222191,8.79194311328687E-5));
#299=CARTESIAN_POINT('',(-0.0319821159167618,0.0226000143348443,8.79194311328688E-5));
#300=CARTESIAN_POINT('',(-0.0313575145756136,0.0194588014384315,8.79194311328689E-5));
#301=CARTESIAN_POINT('',(-0.0295783680475591,0.0167957237212656,8.79194311328691E-5));
#302=CARTESIAN_POINT('',(-0.0269155352634909,0.0150162106249255,8.79194311328692E-5));
#303=CARTESIAN_POINT('',(-0.0237744083761442,0.0143911768870026,8.79194311328694E-5));
#304=CARTESIAN_POINT('',(-0.0206331954797313,0.0150157782281507,8.79194311328695E-5));
#305=CARTESIAN_POINT('',(-0.0179701177625654,0.0167949247562053,8.79194311328695E-5));
#306=CARTESIAN_POINT('',(-0.0161906046662253,0.0194577575402735,8.79194311328695E-5));
#307=CARTESIAN_POINT('',(-0.0155655709283024,0.0225988844276202,8.79194311328694E-5));
#308=CARTESIAN_POINT('',(-0.0161901722694505,0.025740097324033,8.79194311328693E-5));
#309=CARTESIAN_POINT('',(-0.0237738434225321,0.0225994493812323,0.0179793403556076));
#310=CARTESIAN_POINT('',(-0.0157738434225321,0.0225994493812323,0.0179793403556076));
#311=CARTESIAN_POINT('',(-0.0237738434225321,0.0225994493812323,0.018));
#312=CARTESIAN_POINT('',(-0.0237738434225321,0.0225994493812323,0.018));
#313=CARTESIAN_POINT('',(-0.0200238434225321,0.0225994493812323,0.018));
#314=CARTESIAN_POINT('',(-0.0237738434225321,0.0225994493812323,0.018));
#315=CARTESIAN_POINT('',(-0.0157738434225321,0.0225994493812323,0.018));
#316=CARTESIAN_POINT('',(-0.0237738434225321,0.0225994493812323,0.018));
#317=CARTESIAN_POINT('',(-0.0237738434225321,0.0225994493812323,0.017));
#318=CARTESIAN_POINT('',(-0.0237738434225321,0.0225994493812323,0.017));
#319=CARTESIAN_POINT('',(-0.0200238434225321,0.0225994493812323,0.017));
#320=CARTESIAN_POINT('',(-0.0237738434225321,0.0225994493812323,0.017));
#321=MECHANICAL_DESIGN_GEOMETRIC_PRESENTATION_REPRESENTATION('',(#81),#322);
#322=(
GEOMETRIC_REPRESENTATION_CONTEXT(3)
GLOBAL_UNCERTAINTY_ASSIGNED_CONTEXT((#323))
GLOBAL_UNIT_ASSIGNED_CONTEXT((#326,#325,#324))
REPRESENTATION_CONTEXT('Plant2','TOP_LEVEL_ASSEMBLY_PART')
);
#323=UNCERTAINTY_MEASURE_WITH_UNIT(LENGTH_MEASURE(2.E-5),#326,
'DISTANCE_ACCURACY_VALUE','Maximum Tolerance applied to model');
#324=(
NAMED_UNIT(*)
SI_UNIT($,.STERADIAN.)
SOLID_ANGLE_UNIT()
);
#325=(
NAMED_UNIT(*)
PLANE_ANGLE_UNIT()
SI_UNIT($,.RADIAN.)
);
#326=(
LENGTH_UNIT()
NAMED_UNIT(*)
SI_UNIT($,.METRE.)
);
#327=PRODUCT_DEFINITION_SHAPE('','',#328);
#328=PRODUCT_DEFINITION('','',#330,#329);
#329=PRODUCT_DEFINITION_CONTEXT('',#336,'design');
#330=PRODUCT_DEFINITION_FORMATION_WITH_SPECIFIED_SOURCE('','',#332,
 .NOT_KNOWN.);
#331=PRODUCT_RELATED_PRODUCT_CATEGORY('','',(#332));
#332=PRODUCT('Plant2','Plant2','Plant2',(#334));
#333=PRODUCT_CATEGORY('','');
#334=PRODUCT_CONTEXT('',#336,'mechanical');
#335=APPLICATION_PROTOCOL_DEFINITION('international standard',
'ap242_managed_model_based_3d_engineering',2020,#336);
#336=APPLICATION_CONTEXT('managed model based 3d engineering');
ENDSEC;
END-ISO-10303-21;
