ISO-10303-21;
HEADER;
/* Generated by software containing ST-Developer
 * from STEP Tools, Inc. (www.steptools.com) 
 */
/* OPTION: using custom renumber hook */

FILE_DESCRIPTION(
/* description */ ('STEP AP242 Edition 2',
'CAx-IF Rec.Pracs.---Representation and Presentation of Product Manufa
cturing Information (PMI)---4.0---2014-10-13',
'CAx-IF Rec.Pracs.---3D Tessellated Geometry---0.4---2014-09-14','2;1',
'CAx-IF Rec.Pracs.---User Defined Attributes---1.5---2016-08-15'),
/* implementation_level */ '2;1');

FILE_NAME(
/* name */ 'Assembly 1 - Desk',
/* time_stamp */ '2026-09-04T01:58:22Z',
/* author */ (''),
/* organization */ (''),
/* preprocessor_version */ 'ST-DEVELOPER v20',
/* originating_system */ 'ONSHAPE BY PTC INC, 1.220',
/* authorisation */ '  ');

FILE_SCHEMA (('AP242_MANAGED_MODEL_BASED_3D_ENGINEERING_MIM_LF { 1 0 10303 442 3 1 4 }'));
ENDSEC;

DATA;
#10=SHAPE_REPRESENTATION_RELATIONSHIP('','',#1039,#11);
#11=ADVANCED_BREP_SHAPE_REPRESENTATION('',(#1037),#1809);
#12=ELLIPSE('',#1082,0.00102425831468434,0.00072426);
#13=ELLIPSE('',#1090,0.00102425831468434,0.00072426);
#14=ELLIPSE('',#1094,0.00102425831468434,0.00072426);
#15=ELLIPSE('',#1096,0.00102425831468434,0.00072426);
#16=ELLIPSE('',#1102,0.00102425831468434,0.00072426);
#17=ELLIPSE('',#1115,0.00102425831468434,0.00072426);
#18=ELLIPSE('',#1132,0.00102425831468434,0.00072426);
#19=ELLIPSE('',#1140,0.00102425831468434,0.00072426);
#20=ELLIPSE('',#1146,0.00102425831468434,0.00072426);
#21=ELLIPSE('',#1150,0.00102425831468434,0.00072426);
#22=ELLIPSE('',#1159,0.00102425831468434,0.00072426);
#23=ELLIPSE('',#1167,0.00102425831468434,0.00072426);
#24=SPHERICAL_SURFACE('',#1071,0.00072426);
#25=SPHERICAL_SURFACE('',#1078,0.00072426);
#26=SPHERICAL_SURFACE('',#1083,0.00072426);
#27=SPHERICAL_SURFACE('',#1091,0.00072426);
#28=SPHERICAL_SURFACE('',#1099,0.00072426);
#29=SPHERICAL_SURFACE('',#1103,0.00072426);
#30=SPHERICAL_SURFACE('',#1110,0.00072426);
#31=SPHERICAL_SURFACE('',#1116,0.00072426);
#32=SPHERICAL_SURFACE('',#1123,0.00072426);
#33=SPHERICAL_SURFACE('',#1129,0.00072426);
#34=SPHERICAL_SURFACE('',#1133,0.00072426);
#35=SPHERICAL_SURFACE('',#1141,0.00072426);
#36=SPHERICAL_SURFACE('',#1143,0.00072426);
#37=SPHERICAL_SURFACE('',#1156,0.00072426);
#38=SPHERICAL_SURFACE('',#1160,0.00072426);
#39=SPHERICAL_SURFACE('',#1168,0.00072426);
#40=CIRCLE('',#1060,0.00072426);
#41=CIRCLE('',#1061,0.00072426);
#42=CIRCLE('',#1063,0.00072426);
#43=CIRCLE('',#1064,0.00072426);
#44=CIRCLE('',#1066,0.00072426);
#45=CIRCLE('',#1067,0.00072426);
#46=CIRCLE('',#1069,0.00072426);
#47=CIRCLE('',#1070,0.00072426);
#48=CIRCLE('',#1072,0.00072426);
#49=CIRCLE('',#1074,0.00072426);
#50=CIRCLE('',#1076,0.00072426);
#51=CIRCLE('',#1077,0.00072426);
#52=CIRCLE('',#1079,0.00072426);
#53=CIRCLE('',#1081,0.00072426);
#54=CIRCLE('',#1084,0.00072426);
#55=CIRCLE('',#1086,0.00072426);
#56=CIRCLE('',#1088,0.00072426);
#57=CIRCLE('',#1092,0.00072426);
#58=CIRCLE('',#1098,0.00072426);
#59=CIRCLE('',#1100,0.00072426);
#60=CIRCLE('',#1104,0.00072426);
#61=CIRCLE('',#1105,0.00072426);
#62=CIRCLE('',#1107,0.00072426);
#63=CIRCLE('',#1109,0.00072426);
#64=CIRCLE('',#1111,0.00072426);
#65=CIRCLE('',#1113,0.00072426);
#66=CIRCLE('',#1117,0.00072426);
#67=CIRCLE('',#1119,0.00072426);
#68=CIRCLE('',#1121,0.00072426);
#69=CIRCLE('',#1122,0.00072426);
#70=CIRCLE('',#1124,0.00072426);
#71=CIRCLE('',#1126,0.00072426);
#72=CIRCLE('',#1128,0.00072426);
#73=CIRCLE('',#1130,0.00072426);
#74=CIRCLE('',#1134,0.00072426);
#75=CIRCLE('',#1136,0.00072426);
#76=CIRCLE('',#1138,0.00072426);
#77=CIRCLE('',#1142,0.00072426);
#78=CIRCLE('',#1144,0.00072426);
#79=CIRCLE('',#1148,0.00072426);
#80=CIRCLE('',#1152,0.00072426);
#81=CIRCLE('',#1154,0.00072426);
#82=CIRCLE('',#1155,0.00072426);
#83=CIRCLE('',#1157,0.00072426);
#84=CIRCLE('',#1161,0.00072426);
#85=CIRCLE('',#1163,0.00072426);
#86=CIRCLE('',#1165,0.00072426);
#87=CIRCLE('',#1169,0.00072426);
#88=CYLINDRICAL_SURFACE('',#1059,0.00072426);
#89=CYLINDRICAL_SURFACE('',#1062,0.00072426);
#90=CYLINDRICAL_SURFACE('',#1065,0.00072426);
#91=CYLINDRICAL_SURFACE('',#1068,0.00072426);
#92=CYLINDRICAL_SURFACE('',#1073,0.00072426);
#93=CYLINDRICAL_SURFACE('',#1075,0.00072426);
#94=CYLINDRICAL_SURFACE('',#1080,0.00072426);
#95=CYLINDRICAL_SURFACE('',#1085,0.00072426);
#96=CYLINDRICAL_SURFACE('',#1087,0.00072426);
#97=CYLINDRICAL_SURFACE('',#1089,0.00072426);
#98=CYLINDRICAL_SURFACE('',#1093,0.00072426);
#99=CYLINDRICAL_SURFACE('',#1095,0.00072426);
#100=CYLINDRICAL_SURFACE('',#1097,0.00072426);
#101=CYLINDRICAL_SURFACE('',#1101,0.00072426);
#102=CYLINDRICAL_SURFACE('',#1106,0.00072426);
#103=CYLINDRICAL_SURFACE('',#1108,0.00072426);
#104=CYLINDRICAL_SURFACE('',#1112,0.00072426);
#105=CYLINDRICAL_SURFACE('',#1114,0.00072426);
#106=CYLINDRICAL_SURFACE('',#1118,0.00072426);
#107=CYLINDRICAL_SURFACE('',#1120,0.00072426);
#108=CYLINDRICAL_SURFACE('',#1125,0.00072426);
#109=CYLINDRICAL_SURFACE('',#1127,0.00072426);
#110=CYLINDRICAL_SURFACE('',#1131,0.00072426);
#111=CYLINDRICAL_SURFACE('',#1135,0.00072426);
#112=CYLINDRICAL_SURFACE('',#1137,0.00072426);
#113=CYLINDRICAL_SURFACE('',#1139,0.00072426);
#114=CYLINDRICAL_SURFACE('',#1145,0.00072426);
#115=CYLINDRICAL_SURFACE('',#1147,0.00072426);
#116=CYLINDRICAL_SURFACE('',#1149,0.00072426);
#117=CYLINDRICAL_SURFACE('',#1151,0.00072426);
#118=CYLINDRICAL_SURFACE('',#1153,0.00072426);
#119=CYLINDRICAL_SURFACE('',#1158,0.00072426);
#120=CYLINDRICAL_SURFACE('',#1162,0.00072426);
#121=CYLINDRICAL_SURFACE('',#1164,0.00072426);
#122=CYLINDRICAL_SURFACE('',#1166,0.00072426);
#123=CYLINDRICAL_SURFACE('',#1170,0.00072426);
#124=ORIENTED_EDGE('',*,*,#412,.T.);
#125=ORIENTED_EDGE('',*,*,#413,.T.);
#126=ORIENTED_EDGE('',*,*,#414,.T.);
#127=ORIENTED_EDGE('',*,*,#415,.T.);
#128=ORIENTED_EDGE('',*,*,#416,.T.);
#129=ORIENTED_EDGE('',*,*,#417,.T.);
#130=ORIENTED_EDGE('',*,*,#418,.T.);
#131=ORIENTED_EDGE('',*,*,#419,.T.);
#132=ORIENTED_EDGE('',*,*,#420,.T.);
#133=ORIENTED_EDGE('',*,*,#421,.T.);
#134=ORIENTED_EDGE('',*,*,#422,.T.);
#135=ORIENTED_EDGE('',*,*,#423,.T.);
#136=ORIENTED_EDGE('',*,*,#424,.T.);
#137=ORIENTED_EDGE('',*,*,#425,.T.);
#138=ORIENTED_EDGE('',*,*,#426,.T.);
#139=ORIENTED_EDGE('',*,*,#427,.T.);
#140=ORIENTED_EDGE('',*,*,#428,.T.);
#141=ORIENTED_EDGE('',*,*,#429,.T.);
#142=ORIENTED_EDGE('',*,*,#430,.T.);
#143=ORIENTED_EDGE('',*,*,#431,.T.);
#144=ORIENTED_EDGE('',*,*,#432,.T.);
#145=ORIENTED_EDGE('',*,*,#433,.T.);
#146=ORIENTED_EDGE('',*,*,#434,.T.);
#147=ORIENTED_EDGE('',*,*,#435,.T.);
#148=ORIENTED_EDGE('',*,*,#436,.T.);
#149=ORIENTED_EDGE('',*,*,#437,.T.);
#150=ORIENTED_EDGE('',*,*,#438,.T.);
#151=ORIENTED_EDGE('',*,*,#439,.T.);
#152=ORIENTED_EDGE('',*,*,#440,.T.);
#153=ORIENTED_EDGE('',*,*,#441,.T.);
#154=ORIENTED_EDGE('',*,*,#442,.T.);
#155=ORIENTED_EDGE('',*,*,#443,.T.);
#156=ORIENTED_EDGE('',*,*,#444,.T.);
#157=ORIENTED_EDGE('',*,*,#445,.T.);
#158=ORIENTED_EDGE('',*,*,#446,.T.);
#159=ORIENTED_EDGE('',*,*,#447,.T.);
#160=ORIENTED_EDGE('',*,*,#448,.T.);
#161=ORIENTED_EDGE('',*,*,#449,.T.);
#162=ORIENTED_EDGE('',*,*,#450,.T.);
#163=ORIENTED_EDGE('',*,*,#451,.T.);
#164=ORIENTED_EDGE('',*,*,#452,.T.);
#165=ORIENTED_EDGE('',*,*,#453,.T.);
#166=ORIENTED_EDGE('',*,*,#454,.T.);
#167=ORIENTED_EDGE('',*,*,#455,.T.);
#168=ORIENTED_EDGE('',*,*,#456,.T.);
#169=ORIENTED_EDGE('',*,*,#457,.T.);
#170=ORIENTED_EDGE('',*,*,#458,.T.);
#171=ORIENTED_EDGE('',*,*,#459,.T.);
#172=ORIENTED_EDGE('',*,*,#460,.T.);
#173=ORIENTED_EDGE('',*,*,#461,.T.);
#174=ORIENTED_EDGE('',*,*,#462,.T.);
#175=ORIENTED_EDGE('',*,*,#463,.T.);
#176=ORIENTED_EDGE('',*,*,#464,.T.);
#177=ORIENTED_EDGE('',*,*,#465,.T.);
#178=ORIENTED_EDGE('',*,*,#466,.F.);
#179=ORIENTED_EDGE('',*,*,#467,.T.);
#180=ORIENTED_EDGE('',*,*,#466,.T.);
#181=ORIENTED_EDGE('',*,*,#468,.T.);
#182=ORIENTED_EDGE('',*,*,#469,.T.);
#183=ORIENTED_EDGE('',*,*,#470,.T.);
#184=ORIENTED_EDGE('',*,*,#471,.T.);
#185=ORIENTED_EDGE('',*,*,#472,.T.);
#186=ORIENTED_EDGE('',*,*,#473,.F.);
#187=ORIENTED_EDGE('',*,*,#474,.F.);
#188=ORIENTED_EDGE('',*,*,#473,.T.);
#189=ORIENTED_EDGE('',*,*,#475,.T.);
#190=ORIENTED_EDGE('',*,*,#476,.T.);
#191=ORIENTED_EDGE('',*,*,#477,.T.);
#192=ORIENTED_EDGE('',*,*,#478,.T.);
#193=ORIENTED_EDGE('',*,*,#479,.T.);
#194=ORIENTED_EDGE('',*,*,#480,.F.);
#195=ORIENTED_EDGE('',*,*,#481,.F.);
#196=ORIENTED_EDGE('',*,*,#480,.T.);
#197=ORIENTED_EDGE('',*,*,#482,.T.);
#198=ORIENTED_EDGE('',*,*,#483,.T.);
#199=ORIENTED_EDGE('',*,*,#484,.F.);
#200=ORIENTED_EDGE('',*,*,#485,.T.);
#201=ORIENTED_EDGE('',*,*,#486,.T.);
#202=ORIENTED_EDGE('',*,*,#487,.F.);
#203=ORIENTED_EDGE('',*,*,#488,.T.);
#204=ORIENTED_EDGE('',*,*,#487,.T.);
#205=ORIENTED_EDGE('',*,*,#489,.T.);
#206=ORIENTED_EDGE('',*,*,#490,.T.);
#207=ORIENTED_EDGE('',*,*,#491,.F.);
#208=ORIENTED_EDGE('',*,*,#484,.T.);
#209=ORIENTED_EDGE('',*,*,#492,.T.);
#210=ORIENTED_EDGE('',*,*,#488,.F.);
#211=ORIENTED_EDGE('',*,*,#491,.T.);
#212=ORIENTED_EDGE('',*,*,#493,.T.);
#213=ORIENTED_EDGE('',*,*,#467,.F.);
#214=ORIENTED_EDGE('',*,*,#470,.F.);
#215=ORIENTED_EDGE('',*,*,#494,.T.);
#216=ORIENTED_EDGE('',*,*,#474,.T.);
#217=ORIENTED_EDGE('',*,*,#477,.F.);
#218=ORIENTED_EDGE('',*,*,#495,.T.);
#219=ORIENTED_EDGE('',*,*,#481,.T.);
#220=ORIENTED_EDGE('',*,*,#456,.F.);
#221=ORIENTED_EDGE('',*,*,#496,.T.);
#222=ORIENTED_EDGE('',*,*,#440,.F.);
#223=ORIENTED_EDGE('',*,*,#497,.T.);
#224=ORIENTED_EDGE('',*,*,#426,.F.);
#225=ORIENTED_EDGE('',*,*,#498,.T.);
#226=ORIENTED_EDGE('',*,*,#459,.F.);
#227=ORIENTED_EDGE('',*,*,#499,.T.);
#228=ORIENTED_EDGE('',*,*,#450,.F.);
#229=ORIENTED_EDGE('',*,*,#500,.T.);
#230=ORIENTED_EDGE('',*,*,#457,.F.);
#231=ORIENTED_EDGE('',*,*,#501,.T.);
#232=ORIENTED_EDGE('',*,*,#434,.F.);
#233=ORIENTED_EDGE('',*,*,#502,.T.);
#234=ORIENTED_EDGE('',*,*,#458,.F.);
#235=ORIENTED_EDGE('',*,*,#503,.T.);
#236=ORIENTED_EDGE('',*,*,#503,.F.);
#237=ORIENTED_EDGE('',*,*,#500,.F.);
#238=ORIENTED_EDGE('',*,*,#504,.F.);
#239=ORIENTED_EDGE('',*,*,#504,.T.);
#240=ORIENTED_EDGE('',*,*,#449,.F.);
#241=ORIENTED_EDGE('',*,*,#505,.F.);
#242=ORIENTED_EDGE('',*,*,#435,.F.);
#243=ORIENTED_EDGE('',*,*,#506,.F.);
#244=ORIENTED_EDGE('',*,*,#436,.F.);
#245=ORIENTED_EDGE('',*,*,#507,.F.);
#246=ORIENTED_EDGE('',*,*,#414,.F.);
#247=ORIENTED_EDGE('',*,*,#507,.T.);
#248=ORIENTED_EDGE('',*,*,#505,.T.);
#249=ORIENTED_EDGE('',*,*,#508,.F.);
#250=ORIENTED_EDGE('',*,*,#509,.F.);
#251=ORIENTED_EDGE('',*,*,#413,.F.);
#252=ORIENTED_EDGE('',*,*,#510,.F.);
#253=ORIENTED_EDGE('',*,*,#472,.F.);
#254=ORIENTED_EDGE('',*,*,#506,.T.);
#255=ORIENTED_EDGE('',*,*,#509,.T.);
#256=ORIENTED_EDGE('',*,*,#511,.F.);
#257=ORIENTED_EDGE('',*,*,#508,.T.);
#258=ORIENTED_EDGE('',*,*,#448,.F.);
#259=ORIENTED_EDGE('',*,*,#512,.F.);
#260=ORIENTED_EDGE('',*,*,#415,.F.);
#261=ORIENTED_EDGE('',*,*,#510,.T.);
#262=ORIENTED_EDGE('',*,*,#412,.F.);
#263=ORIENTED_EDGE('',*,*,#513,.F.);
#264=ORIENTED_EDGE('',*,*,#475,.F.);
#265=ORIENTED_EDGE('',*,*,#511,.T.);
#266=ORIENTED_EDGE('',*,*,#471,.F.);
#267=ORIENTED_EDGE('',*,*,#514,.F.);
#268=ORIENTED_EDGE('',*,*,#437,.F.);
#269=ORIENTED_EDGE('',*,*,#513,.T.);
#270=ORIENTED_EDGE('',*,*,#512,.T.);
#271=ORIENTED_EDGE('',*,*,#515,.F.);
#272=ORIENTED_EDGE('',*,*,#514,.T.);
#273=ORIENTED_EDGE('',*,*,#494,.F.);
#274=ORIENTED_EDGE('',*,*,#516,.F.);
#275=ORIENTED_EDGE('',*,*,#438,.F.);
#276=ORIENTED_EDGE('',*,*,#515,.T.);
#277=ORIENTED_EDGE('',*,*,#455,.F.);
#278=ORIENTED_EDGE('',*,*,#517,.F.);
#279=ORIENTED_EDGE('',*,*,#476,.F.);
#280=ORIENTED_EDGE('',*,*,#516,.T.);
#281=ORIENTED_EDGE('',*,*,#469,.F.);
#282=ORIENTED_EDGE('',*,*,#518,.F.);
#283=ORIENTED_EDGE('',*,*,#439,.F.);
#284=ORIENTED_EDGE('',*,*,#499,.F.);
#285=ORIENTED_EDGE('',*,*,#502,.F.);
#286=ORIENTED_EDGE('',*,*,#519,.F.);
#287=ORIENTED_EDGE('',*,*,#517,.T.);
#288=ORIENTED_EDGE('',*,*,#454,.F.);
#289=ORIENTED_EDGE('',*,*,#520,.F.);
#290=ORIENTED_EDGE('',*,*,#495,.F.);
#291=ORIENTED_EDGE('',*,*,#521,.F.);
#292=ORIENTED_EDGE('',*,*,#522,.F.);
#293=ORIENTED_EDGE('',*,*,#518,.T.);
#294=ORIENTED_EDGE('',*,*,#522,.T.);
#295=ORIENTED_EDGE('',*,*,#420,.F.);
#296=ORIENTED_EDGE('',*,*,#523,.F.);
#297=ORIENTED_EDGE('',*,*,#432,.F.);
#298=ORIENTED_EDGE('',*,*,#519,.T.);
#299=ORIENTED_EDGE('',*,*,#433,.F.);
#300=ORIENTED_EDGE('',*,*,#524,.F.);
#301=ORIENTED_EDGE('',*,*,#427,.F.);
#302=ORIENTED_EDGE('',*,*,#501,.F.);
#303=ORIENTED_EDGE('',*,*,#497,.F.);
#304=ORIENTED_EDGE('',*,*,#525,.F.);
#305=ORIENTED_EDGE('',*,*,#520,.T.);
#306=ORIENTED_EDGE('',*,*,#453,.F.);
#307=ORIENTED_EDGE('',*,*,#526,.F.);
#308=ORIENTED_EDGE('',*,*,#478,.F.);
#309=ORIENTED_EDGE('',*,*,#521,.T.);
#310=ORIENTED_EDGE('',*,*,#468,.F.);
#311=ORIENTED_EDGE('',*,*,#527,.F.);
#312=ORIENTED_EDGE('',*,*,#421,.F.);
#313=ORIENTED_EDGE('',*,*,#524,.T.);
#314=ORIENTED_EDGE('',*,*,#523,.T.);
#315=ORIENTED_EDGE('',*,*,#528,.F.);
#316=ORIENTED_EDGE('',*,*,#525,.T.);
#317=ORIENTED_EDGE('',*,*,#447,.F.);
#318=ORIENTED_EDGE('',*,*,#529,.F.);
#319=ORIENTED_EDGE('',*,*,#451,.F.);
#320=ORIENTED_EDGE('',*,*,#530,.F.);
#321=ORIENTED_EDGE('',*,*,#452,.F.);
#322=ORIENTED_EDGE('',*,*,#531,.F.);
#323=ORIENTED_EDGE('',*,*,#419,.F.);
#324=ORIENTED_EDGE('',*,*,#526,.T.);
#325=ORIENTED_EDGE('',*,*,#530,.T.);
#326=ORIENTED_EDGE('',*,*,#532,.F.);
#327=ORIENTED_EDGE('',*,*,#527,.T.);
#328=ORIENTED_EDGE('',*,*,#465,.F.);
#329=ORIENTED_EDGE('',*,*,#533,.F.);
#330=ORIENTED_EDGE('',*,*,#422,.F.);
#331=ORIENTED_EDGE('',*,*,#528,.T.);
#332=ORIENTED_EDGE('',*,*,#423,.F.);
#333=ORIENTED_EDGE('',*,*,#534,.F.);
#334=ORIENTED_EDGE('',*,*,#428,.F.);
#335=ORIENTED_EDGE('',*,*,#531,.T.);
#336=ORIENTED_EDGE('',*,*,#529,.T.);
#337=ORIENTED_EDGE('',*,*,#535,.F.);
#338=ORIENTED_EDGE('',*,*,#532,.T.);
#339=ORIENTED_EDGE('',*,*,#418,.F.);
#340=ORIENTED_EDGE('',*,*,#536,.F.);
#341=ORIENTED_EDGE('',*,*,#479,.F.);
#342=ORIENTED_EDGE('',*,*,#534,.T.);
#343=ORIENTED_EDGE('',*,*,#533,.T.);
#344=ORIENTED_EDGE('',*,*,#537,.F.);
#345=ORIENTED_EDGE('',*,*,#535,.T.);
#346=ORIENTED_EDGE('',*,*,#446,.F.);
#347=ORIENTED_EDGE('',*,*,#538,.F.);
#348=ORIENTED_EDGE('',*,*,#416,.F.);
#349=ORIENTED_EDGE('',*,*,#536,.T.);
#350=ORIENTED_EDGE('',*,*,#417,.F.);
#351=ORIENTED_EDGE('',*,*,#539,.F.);
#352=ORIENTED_EDGE('',*,*,#482,.F.);
#353=ORIENTED_EDGE('',*,*,#537,.T.);
#354=ORIENTED_EDGE('',*,*,#464,.F.);
#355=ORIENTED_EDGE('',*,*,#540,.F.);
#356=ORIENTED_EDGE('',*,*,#429,.F.);
#357=ORIENTED_EDGE('',*,*,#496,.F.);
#358=ORIENTED_EDGE('',*,*,#498,.F.);
#359=ORIENTED_EDGE('',*,*,#541,.F.);
#360=ORIENTED_EDGE('',*,*,#539,.T.);
#361=ORIENTED_EDGE('',*,*,#538,.T.);
#362=ORIENTED_EDGE('',*,*,#542,.F.);
#363=ORIENTED_EDGE('',*,*,#540,.T.);
#364=ORIENTED_EDGE('',*,*,#493,.F.);
#365=ORIENTED_EDGE('',*,*,#543,.F.);
#366=ORIENTED_EDGE('',*,*,#430,.F.);
#367=ORIENTED_EDGE('',*,*,#541,.T.);
#368=ORIENTED_EDGE('',*,*,#425,.F.);
#369=ORIENTED_EDGE('',*,*,#544,.F.);
#370=ORIENTED_EDGE('',*,*,#441,.F.);
#371=ORIENTED_EDGE('',*,*,#542,.T.);
#372=ORIENTED_EDGE('',*,*,#445,.F.);
#373=ORIENTED_EDGE('',*,*,#545,.F.);
#374=ORIENTED_EDGE('',*,*,#483,.F.);
#375=ORIENTED_EDGE('',*,*,#543,.T.);
#376=ORIENTED_EDGE('',*,*,#490,.F.);
#377=ORIENTED_EDGE('',*,*,#546,.F.);
#378=ORIENTED_EDGE('',*,*,#431,.F.);
#379=ORIENTED_EDGE('',*,*,#547,.F.);
#380=ORIENTED_EDGE('',*,*,#424,.F.);
#381=ORIENTED_EDGE('',*,*,#548,.F.);
#382=ORIENTED_EDGE('',*,*,#463,.F.);
#383=ORIENTED_EDGE('',*,*,#544,.T.);
#384=ORIENTED_EDGE('',*,*,#547,.T.);
#385=ORIENTED_EDGE('',*,*,#549,.F.);
#386=ORIENTED_EDGE('',*,*,#545,.T.);
#387=ORIENTED_EDGE('',*,*,#444,.F.);
#388=ORIENTED_EDGE('',*,*,#550,.F.);
#389=ORIENTED_EDGE('',*,*,#492,.F.);
#390=ORIENTED_EDGE('',*,*,#548,.T.);
#391=ORIENTED_EDGE('',*,*,#546,.T.);
#392=ORIENTED_EDGE('',*,*,#551,.F.);
#393=ORIENTED_EDGE('',*,*,#549,.T.);
#394=ORIENTED_EDGE('',*,*,#462,.F.);
#395=ORIENTED_EDGE('',*,*,#552,.F.);
#396=ORIENTED_EDGE('',*,*,#442,.F.);
#397=ORIENTED_EDGE('',*,*,#550,.T.);
#398=ORIENTED_EDGE('',*,*,#443,.F.);
#399=ORIENTED_EDGE('',*,*,#553,.F.);
#400=ORIENTED_EDGE('',*,*,#485,.F.);
#401=ORIENTED_EDGE('',*,*,#551,.T.);
#402=ORIENTED_EDGE('',*,*,#489,.F.);
#403=ORIENTED_EDGE('',*,*,#554,.F.);
#404=ORIENTED_EDGE('',*,*,#460,.F.);
#405=ORIENTED_EDGE('',*,*,#553,.T.);
#406=ORIENTED_EDGE('',*,*,#552,.T.);
#407=ORIENTED_EDGE('',*,*,#555,.F.);
#408=ORIENTED_EDGE('',*,*,#554,.T.);
#409=ORIENTED_EDGE('',*,*,#486,.F.);
#410=ORIENTED_EDGE('',*,*,#555,.T.);
#411=ORIENTED_EDGE('',*,*,#461,.F.);
#412=EDGE_CURVE('',#556,#557,#632,.T.);
#413=EDGE_CURVE('',#557,#558,#633,.F.);
#414=EDGE_CURVE('',#558,#559,#634,.T.);
#415=EDGE_CURVE('',#559,#556,#635,.F.);
#416=EDGE_CURVE('',#560,#561,#636,.F.);
#417=EDGE_CURVE('',#561,#562,#637,.F.);
#418=EDGE_CURVE('',#562,#563,#638,.F.);
#419=EDGE_CURVE('',#563,#560,#639,.F.);
#420=EDGE_CURVE('',#564,#565,#640,.T.);
#421=EDGE_CURVE('',#565,#566,#641,.T.);
#422=EDGE_CURVE('',#566,#567,#642,.T.);
#423=EDGE_CURVE('',#567,#564,#643,.T.);
#424=EDGE_CURVE('',#568,#569,#644,.F.);
#425=EDGE_CURVE('',#569,#570,#645,.F.);
#426=EDGE_CURVE('',#570,#571,#646,.T.);
#427=EDGE_CURVE('',#571,#572,#647,.T.);
#428=EDGE_CURVE('',#572,#573,#648,.F.);
#429=EDGE_CURVE('',#573,#574,#649,.F.);
#430=EDGE_CURVE('',#574,#575,#650,.F.);
#431=EDGE_CURVE('',#575,#568,#651,.T.);
#432=EDGE_CURVE('',#576,#577,#652,.F.);
#433=EDGE_CURVE('',#577,#578,#653,.F.);
#434=EDGE_CURVE('',#578,#579,#654,.T.);
#435=EDGE_CURVE('',#579,#580,#655,.T.);
#436=EDGE_CURVE('',#580,#581,#656,.F.);
#437=EDGE_CURVE('',#581,#582,#657,.F.);
#438=EDGE_CURVE('',#582,#583,#658,.F.);
#439=EDGE_CURVE('',#583,#576,#659,.T.);
#440=EDGE_CURVE('',#584,#585,#660,.F.);
#441=EDGE_CURVE('',#585,#586,#661,.T.);
#442=EDGE_CURVE('',#586,#587,#662,.T.);
#443=EDGE_CURVE('',#587,#588,#663,.F.);
#444=EDGE_CURVE('',#588,#589,#664,.T.);
#445=EDGE_CURVE('',#589,#590,#665,.T.);
#446=EDGE_CURVE('',#590,#591,#666,.T.);
#447=EDGE_CURVE('',#591,#584,#667,.F.);
#448=EDGE_CURVE('',#592,#593,#668,.T.);
#449=EDGE_CURVE('',#593,#594,#669,.F.);
#450=EDGE_CURVE('',#594,#595,#670,.F.);
#451=EDGE_CURVE('',#595,#596,#671,.T.);
#452=EDGE_CURVE('',#596,#597,#672,.T.);
#453=EDGE_CURVE('',#597,#598,#673,.F.);
#454=EDGE_CURVE('',#598,#599,#674,.T.);
#455=EDGE_CURVE('',#599,#592,#675,.T.);
#456=EDGE_CURVE('',#600,#601,#676,.T.);
#457=EDGE_CURVE('',#601,#602,#677,.T.);
#458=EDGE_CURVE('',#602,#603,#678,.F.);
#459=EDGE_CURVE('',#603,#600,#679,.F.);
#460=EDGE_CURVE('',#604,#605,#680,.F.);
#461=EDGE_CURVE('',#605,#606,#681,.T.);
#462=EDGE_CURVE('',#606,#607,#682,.F.);
#463=EDGE_CURVE('',#607,#604,#683,.T.);
#464=EDGE_CURVE('',#608,#609,#684,.T.);
#465=EDGE_CURVE('',#609,#610,#685,.F.);
#466=EDGE_CURVE('',#611,#610,#686,.T.);
#467=EDGE_CURVE('',#611,#608,#687,.T.);
#468=EDGE_CURVE('',#610,#612,#688,.F.);
#469=EDGE_CURVE('',#612,#613,#689,.F.);
#470=EDGE_CURVE('',#613,#611,#690,.T.);
#471=EDGE_CURVE('',#614,#615,#691,.T.);
#472=EDGE_CURVE('',#615,#616,#692,.T.);
#473=EDGE_CURVE('',#617,#616,#693,.T.);
#474=EDGE_CURVE('',#614,#617,#694,.T.);
#475=EDGE_CURVE('',#616,#618,#695,.F.);
#476=EDGE_CURVE('',#618,#619,#696,.F.);
#477=EDGE_CURVE('',#619,#617,#697,.T.);
#478=EDGE_CURVE('',#620,#621,#698,.T.);
#479=EDGE_CURVE('',#621,#622,#699,.T.);
#480=EDGE_CURVE('',#623,#622,#700,.T.);
#481=EDGE_CURVE('',#620,#623,#701,.T.);
#482=EDGE_CURVE('',#622,#624,#702,.T.);
#483=EDGE_CURVE('',#624,#625,#703,.F.);
#484=EDGE_CURVE('',#623,#625,#704,.T.);
#485=EDGE_CURVE('',#626,#627,#705,.T.);
#486=EDGE_CURVE('',#627,#628,#706,.F.);
#487=EDGE_CURVE('',#629,#628,#707,.T.);
#488=EDGE_CURVE('',#629,#626,#708,.T.);
#489=EDGE_CURVE('',#628,#630,#709,.T.);
#490=EDGE_CURVE('',#630,#631,#710,.F.);
#491=EDGE_CURVE('',#629,#631,#711,.T.);
#492=EDGE_CURVE('',#625,#626,#712,.F.);
#493=EDGE_CURVE('',#631,#608,#713,.T.);
#494=EDGE_CURVE('',#613,#614,#714,.T.);
#495=EDGE_CURVE('',#619,#620,#715,.F.);
#496=EDGE_CURVE('',#600,#585,#40,.F.);
#497=EDGE_CURVE('',#584,#601,#41,.T.);
#498=EDGE_CURVE('',#570,#600,#42,.T.);
#499=EDGE_CURVE('',#603,#571,#43,.F.);
#500=EDGE_CURVE('',#594,#602,#44,.T.);
#501=EDGE_CURVE('',#601,#595,#45,.F.);
#502=EDGE_CURVE('',#578,#603,#46,.T.);
#503=EDGE_CURVE('',#602,#579,#47,.F.);
#504=EDGE_CURVE('',#579,#594,#48,.T.);
#505=EDGE_CURVE('',#580,#593,#49,.T.);
#506=EDGE_CURVE('',#581,#558,#50,.T.);
#507=EDGE_CURVE('',#559,#580,#51,.T.);
#508=EDGE_CURVE('',#559,#593,#52,.F.);
#509=EDGE_CURVE('',#558,#615,#53,.T.);
#510=EDGE_CURVE('',#616,#557,#12,.T.);
#511=EDGE_CURVE('',#581,#615,#54,.F.);
#512=EDGE_CURVE('',#556,#592,#55,.T.);
#513=EDGE_CURVE('',#618,#556,#56,.T.);
#514=EDGE_CURVE('',#582,#614,#13,.T.);
#515=EDGE_CURVE('',#618,#592,#57,.F.);
#516=EDGE_CURVE('',#583,#613,#14,.T.);
#517=EDGE_CURVE('',#619,#599,#15,.T.);
#518=EDGE_CURVE('',#576,#612,#58,.T.);
#519=EDGE_CURVE('',#571,#578,#59,.T.);
#520=EDGE_CURVE('',#620,#598,#16,.T.);
#521=EDGE_CURVE('',#565,#612,#60,.F.);
#522=EDGE_CURVE('',#576,#565,#61,.F.);
#523=EDGE_CURVE('',#577,#564,#62,.T.);
#524=EDGE_CURVE('',#572,#577,#63,.T.);
#525=EDGE_CURVE('',#595,#584,#64,.T.);
#526=EDGE_CURVE('',#621,#597,#65,.T.);
#527=EDGE_CURVE('',#566,#610,#17,.F.);
#528=EDGE_CURVE('',#572,#564,#66,.F.);
#529=EDGE_CURVE('',#596,#591,#67,.T.);
#530=EDGE_CURVE('',#597,#563,#68,.T.);
#531=EDGE_CURVE('',#560,#596,#69,.T.);
#532=EDGE_CURVE('',#621,#563,#70,.F.);
#533=EDGE_CURVE('',#567,#609,#71,.T.);
#534=EDGE_CURVE('',#573,#567,#72,.T.);
#535=EDGE_CURVE('',#560,#591,#73,.F.);
#536=EDGE_CURVE('',#622,#562,#18,.T.);
#537=EDGE_CURVE('',#573,#609,#74,.F.);
#538=EDGE_CURVE('',#561,#590,#75,.T.);
#539=EDGE_CURVE('',#624,#561,#76,.T.);
#540=EDGE_CURVE('',#574,#608,#19,.F.);
#541=EDGE_CURVE('',#585,#570,#77,.T.);
#542=EDGE_CURVE('',#624,#590,#78,.F.);
#543=EDGE_CURVE('',#575,#631,#20,.F.);
#544=EDGE_CURVE('',#586,#569,#79,.T.);
#545=EDGE_CURVE('',#625,#589,#21,.F.);
#546=EDGE_CURVE('',#568,#630,#80,.T.);
#547=EDGE_CURVE('',#569,#607,#81,.T.);
#548=EDGE_CURVE('',#604,#568,#82,.T.);
#549=EDGE_CURVE('',#586,#607,#83,.F.);
#550=EDGE_CURVE('',#626,#588,#22,.F.);
#551=EDGE_CURVE('',#604,#630,#84,.F.);
#552=EDGE_CURVE('',#587,#606,#85,.T.);
#553=EDGE_CURVE('',#627,#587,#86,.T.);
#554=EDGE_CURVE('',#605,#628,#23,.F.);
#555=EDGE_CURVE('',#627,#606,#87,.F.);
#556=VERTEX_POINT('',#1520);
#557=VERTEX_POINT('',#1521);
#558=VERTEX_POINT('',#1523);
#559=VERTEX_POINT('',#1525);
#560=VERTEX_POINT('',#1529);
#561=VERTEX_POINT('',#1530);
#562=VERTEX_POINT('',#1532);
#563=VERTEX_POINT('',#1534);
#564=VERTEX_POINT('',#1538);
#565=VERTEX_POINT('',#1539);
#566=VERTEX_POINT('',#1541);
#567=VERTEX_POINT('',#1543);
#568=VERTEX_POINT('',#1547);
#569=VERTEX_POINT('',#1548);
#570=VERTEX_POINT('',#1550);
#571=VERTEX_POINT('',#1552);
#572=VERTEX_POINT('',#1554);
#573=VERTEX_POINT('',#1556);
#574=VERTEX_POINT('',#1558);
#575=VERTEX_POINT('',#1560);
#576=VERTEX_POINT('',#1564);
#577=VERTEX_POINT('',#1565);
#578=VERTEX_POINT('',#1567);
#579=VERTEX_POINT('',#1569);
#580=VERTEX_POINT('',#1571);
#581=VERTEX_POINT('',#1573);
#582=VERTEX_POINT('',#1575);
#583=VERTEX_POINT('',#1577);
#584=VERTEX_POINT('',#1581);
#585=VERTEX_POINT('',#1582);
#586=VERTEX_POINT('',#1584);
#587=VERTEX_POINT('',#1586);
#588=VERTEX_POINT('',#1588);
#589=VERTEX_POINT('',#1590);
#590=VERTEX_POINT('',#1592);
#591=VERTEX_POINT('',#1594);
#592=VERTEX_POINT('',#1598);
#593=VERTEX_POINT('',#1599);
#594=VERTEX_POINT('',#1601);
#595=VERTEX_POINT('',#1603);
#596=VERTEX_POINT('',#1605);
#597=VERTEX_POINT('',#1607);
#598=VERTEX_POINT('',#1609);
#599=VERTEX_POINT('',#1611);
#600=VERTEX_POINT('',#1615);
#601=VERTEX_POINT('',#1616);
#602=VERTEX_POINT('',#1618);
#603=VERTEX_POINT('',#1620);
#604=VERTEX_POINT('',#1624);
#605=VERTEX_POINT('',#1625);
#606=VERTEX_POINT('',#1627);
#607=VERTEX_POINT('',#1629);
#608=VERTEX_POINT('',#1633);
#609=VERTEX_POINT('',#1634);
#610=VERTEX_POINT('',#1636);
#611=VERTEX_POINT('',#1638);
#612=VERTEX_POINT('',#1642);
#613=VERTEX_POINT('',#1644);
#614=VERTEX_POINT('',#1648);
#615=VERTEX_POINT('',#1649);
#616=VERTEX_POINT('',#1651);
#617=VERTEX_POINT('',#1653);
#618=VERTEX_POINT('',#1657);
#619=VERTEX_POINT('',#1659);
#620=VERTEX_POINT('',#1663);
#621=VERTEX_POINT('',#1664);
#622=VERTEX_POINT('',#1666);
#623=VERTEX_POINT('',#1668);
#624=VERTEX_POINT('',#1672);
#625=VERTEX_POINT('',#1674);
#626=VERTEX_POINT('',#1678);
#627=VERTEX_POINT('',#1679);
#628=VERTEX_POINT('',#1681);
#629=VERTEX_POINT('',#1683);
#630=VERTEX_POINT('',#1687);
#631=VERTEX_POINT('',#1689);
#632=LINE('',#1519,#716);
#633=LINE('',#1522,#717);
#634=LINE('',#1524,#718);
#635=LINE('',#1526,#719);
#636=LINE('',#1528,#720);
#637=LINE('',#1531,#721);
#638=LINE('',#1533,#722);
#639=LINE('',#1535,#723);
#640=LINE('',#1537,#724);
#641=LINE('',#1540,#725);
#642=LINE('',#1542,#726);
#643=LINE('',#1544,#727);
#644=LINE('',#1546,#728);
#645=LINE('',#1549,#729);
#646=LINE('',#1551,#730);
#647=LINE('',#1553,#731);
#648=LINE('',#1555,#732);
#649=LINE('',#1557,#733);
#650=LINE('',#1559,#734);
#651=LINE('',#1561,#735);
#652=LINE('',#1563,#736);
#653=LINE('',#1566,#737);
#654=LINE('',#1568,#738);
#655=LINE('',#1570,#739);
#656=LINE('',#1572,#740);
#657=LINE('',#1574,#741);
#658=LINE('',#1576,#742);
#659=LINE('',#1578,#743);
#660=LINE('',#1580,#744);
#661=LINE('',#1583,#745);
#662=LINE('',#1585,#746);
#663=LINE('',#1587,#747);
#664=LINE('',#1589,#748);
#665=LINE('',#1591,#749);
#666=LINE('',#1593,#750);
#667=LINE('',#1595,#751);
#668=LINE('',#1597,#752);
#669=LINE('',#1600,#753);
#670=LINE('',#1602,#754);
#671=LINE('',#1604,#755);
#672=LINE('',#1606,#756);
#673=LINE('',#1608,#757);
#674=LINE('',#1610,#758);
#675=LINE('',#1612,#759);
#676=LINE('',#1614,#760);
#677=LINE('',#1617,#761);
#678=LINE('',#1619,#762);
#679=LINE('',#1621,#763);
#680=LINE('',#1623,#764);
#681=LINE('',#1626,#765);
#682=LINE('',#1628,#766);
#683=LINE('',#1630,#767);
#684=LINE('',#1632,#768);
#685=LINE('',#1635,#769);
#686=LINE('',#1637,#770);
#687=LINE('',#1639,#771);
#688=LINE('',#1641,#772);
#689=LINE('',#1643,#773);
#690=LINE('',#1645,#774);
#691=LINE('',#1647,#775);
#692=LINE('',#1650,#776);
#693=LINE('',#1652,#777);
#694=LINE('',#1654,#778);
#695=LINE('',#1656,#779);
#696=LINE('',#1658,#780);
#697=LINE('',#1660,#781);
#698=LINE('',#1662,#782);
#699=LINE('',#1665,#783);
#700=LINE('',#1667,#784);
#701=LINE('',#1669,#785);
#702=LINE('',#1671,#786);
#703=LINE('',#1673,#787);
#704=LINE('',#1675,#788);
#705=LINE('',#1677,#789);
#706=LINE('',#1680,#790);
#707=LINE('',#1682,#791);
#708=LINE('',#1684,#792);
#709=LINE('',#1686,#793);
#710=LINE('',#1688,#794);
#711=LINE('',#1690,#795);
#712=LINE('',#1692,#796);
#713=LINE('',#1693,#797);
#714=LINE('',#1694,#798);
#715=LINE('',#1695,#799);
#716=VECTOR('',#1175,1.);
#717=VECTOR('',#1176,1.);
#718=VECTOR('',#1177,1.);
#719=VECTOR('',#1178,1.);
#720=VECTOR('',#1181,1.);
#721=VECTOR('',#1182,1.);
#722=VECTOR('',#1183,1.);
#723=VECTOR('',#1184,1.);
#724=VECTOR('',#1187,1.);
#725=VECTOR('',#1188,1.);
#726=VECTOR('',#1189,1.);
#727=VECTOR('',#1190,1.);
#728=VECTOR('',#1193,1.);
#729=VECTOR('',#1194,1.);
#730=VECTOR('',#1195,1.);
#731=VECTOR('',#1196,1.);
#732=VECTOR('',#1197,1.);
#733=VECTOR('',#1198,1.);
#734=VECTOR('',#1199,1.);
#735=VECTOR('',#1200,1.);
#736=VECTOR('',#1203,1.);
#737=VECTOR('',#1204,1.);
#738=VECTOR('',#1205,1.);
#739=VECTOR('',#1206,1.);
#740=VECTOR('',#1207,1.);
#741=VECTOR('',#1208,1.);
#742=VECTOR('',#1209,1.);
#743=VECTOR('',#1210,1.);
#744=VECTOR('',#1213,1.);
#745=VECTOR('',#1214,1.);
#746=VECTOR('',#1215,1.);
#747=VECTOR('',#1216,1.);
#748=VECTOR('',#1217,1.);
#749=VECTOR('',#1218,1.);
#750=VECTOR('',#1219,1.);
#751=VECTOR('',#1220,1.);
#752=VECTOR('',#1223,1.);
#753=VECTOR('',#1224,1.);
#754=VECTOR('',#1225,1.);
#755=VECTOR('',#1226,1.);
#756=VECTOR('',#1227,1.);
#757=VECTOR('',#1228,1.);
#758=VECTOR('',#1229,1.);
#759=VECTOR('',#1230,1.);
#760=VECTOR('',#1233,1.);
#761=VECTOR('',#1234,1.);
#762=VECTOR('',#1235,1.);
#763=VECTOR('',#1236,1.);
#764=VECTOR('',#1239,1.);
#765=VECTOR('',#1240,1.);
#766=VECTOR('',#1241,1.);
#767=VECTOR('',#1242,1.);
#768=VECTOR('',#1245,1.);
#769=VECTOR('',#1246,1.);
#770=VECTOR('',#1247,1.);
#771=VECTOR('',#1248,1.);
#772=VECTOR('',#1251,1.);
#773=VECTOR('',#1252,1.);
#774=VECTOR('',#1253,1.);
#775=VECTOR('',#1256,1.);
#776=VECTOR('',#1257,1.);
#777=VECTOR('',#1258,1.);
#778=VECTOR('',#1259,1.);
#779=VECTOR('',#1262,1.);
#780=VECTOR('',#1263,1.);
#781=VECTOR('',#1264,1.);
#782=VECTOR('',#1267,1.);
#783=VECTOR('',#1268,1.);
#784=VECTOR('',#1269,1.);
#785=VECTOR('',#1270,1.);
#786=VECTOR('',#1273,1.);
#787=VECTOR('',#1274,1.);
#788=VECTOR('',#1275,1.);
#789=VECTOR('',#1278,1.);
#790=VECTOR('',#1279,1.);
#791=VECTOR('',#1280,1.);
#792=VECTOR('',#1281,1.);
#793=VECTOR('',#1284,1.);
#794=VECTOR('',#1285,1.);
#795=VECTOR('',#1286,1.);
#796=VECTOR('',#1289,1.);
#797=VECTOR('',#1290,1.);
#798=VECTOR('',#1291,1.);
#799=VECTOR('',#1292,1.);
#800=EDGE_LOOP('',(#124,#125,#126,#127));
#801=EDGE_LOOP('',(#128,#129,#130,#131));
#802=EDGE_LOOP('',(#132,#133,#134,#135));
#803=EDGE_LOOP('',(#136,#137,#138,#139,#140,#141,#142,#143));
#804=EDGE_LOOP('',(#144,#145,#146,#147,#148,#149,#150,#151));
#805=EDGE_LOOP('',(#152,#153,#154,#155,#156,#157,#158,#159));
#806=EDGE_LOOP('',(#160,#161,#162,#163,#164,#165,#166,#167));
#807=EDGE_LOOP('',(#168,#169,#170,#171));
#808=EDGE_LOOP('',(#172,#173,#174,#175));
#809=EDGE_LOOP('',(#176,#177,#178,#179));
#810=EDGE_LOOP('',(#180,#181,#182,#183));
#811=EDGE_LOOP('',(#184,#185,#186,#187));
#812=EDGE_LOOP('',(#188,#189,#190,#191));
#813=EDGE_LOOP('',(#192,#193,#194,#195));
#814=EDGE_LOOP('',(#196,#197,#198,#199));
#815=EDGE_LOOP('',(#200,#201,#202,#203));
#816=EDGE_LOOP('',(#204,#205,#206,#207));
#817=EDGE_LOOP('',(#208,#209,#210,#211,#212,#213,#214,#215,#216,#217,#218,
#219));
#818=EDGE_LOOP('',(#220,#221,#222,#223));
#819=EDGE_LOOP('',(#224,#225,#226,#227));
#820=EDGE_LOOP('',(#228,#229,#230,#231));
#821=EDGE_LOOP('',(#232,#233,#234,#235));
#822=EDGE_LOOP('',(#236,#237,#238));
#823=EDGE_LOOP('',(#239,#240,#241,#242));
#824=EDGE_LOOP('',(#243,#244,#245,#246));
#825=EDGE_LOOP('',(#247,#248,#249));
#826=EDGE_LOOP('',(#250,#251,#252,#253));
#827=EDGE_LOOP('',(#254,#255,#256));
#828=EDGE_LOOP('',(#257,#258,#259,#260));
#829=EDGE_LOOP('',(#261,#262,#263,#264));
#830=EDGE_LOOP('',(#265,#266,#267,#268));
#831=EDGE_LOOP('',(#269,#270,#271));
#832=EDGE_LOOP('',(#272,#273,#274,#275));
#833=EDGE_LOOP('',(#276,#277,#278,#279));
#834=EDGE_LOOP('',(#280,#281,#282,#283));
#835=EDGE_LOOP('',(#284,#285,#286));
#836=EDGE_LOOP('',(#287,#288,#289,#290));
#837=EDGE_LOOP('',(#291,#292,#293));
#838=EDGE_LOOP('',(#294,#295,#296,#297));
#839=EDGE_LOOP('',(#298,#299,#300,#301));
#840=EDGE_LOOP('',(#302,#303,#304));
#841=EDGE_LOOP('',(#305,#306,#307,#308));
#842=EDGE_LOOP('',(#309,#310,#311,#312));
#843=EDGE_LOOP('',(#313,#314,#315));
#844=EDGE_LOOP('',(#316,#317,#318,#319));
#845=EDGE_LOOP('',(#320,#321,#322,#323));
#846=EDGE_LOOP('',(#324,#325,#326));
#847=EDGE_LOOP('',(#327,#328,#329,#330));
#848=EDGE_LOOP('',(#331,#332,#333,#334));
#849=EDGE_LOOP('',(#335,#336,#337));
#850=EDGE_LOOP('',(#338,#339,#340,#341));
#851=EDGE_LOOP('',(#342,#343,#344));
#852=EDGE_LOOP('',(#345,#346,#347,#348));
#853=EDGE_LOOP('',(#349,#350,#351,#352));
#854=EDGE_LOOP('',(#353,#354,#355,#356));
#855=EDGE_LOOP('',(#357,#358,#359));
#856=EDGE_LOOP('',(#360,#361,#362));
#857=EDGE_LOOP('',(#363,#364,#365,#366));
#858=EDGE_LOOP('',(#367,#368,#369,#370));
#859=EDGE_LOOP('',(#371,#372,#373,#374));
#860=EDGE_LOOP('',(#375,#376,#377,#378));
#861=EDGE_LOOP('',(#379,#380,#381,#382));
#862=EDGE_LOOP('',(#383,#384,#385));
#863=EDGE_LOOP('',(#386,#387,#388,#389));
#864=EDGE_LOOP('',(#390,#391,#392));
#865=EDGE_LOOP('',(#393,#394,#395,#396));
#866=EDGE_LOOP('',(#397,#398,#399,#400));
#867=EDGE_LOOP('',(#401,#402,#403,#404));
#868=EDGE_LOOP('',(#405,#406,#407));
#869=EDGE_LOOP('',(#408,#409,#410,#411));
#870=FACE_BOUND('',#800,.T.);
#871=FACE_BOUND('',#801,.T.);
#872=FACE_BOUND('',#802,.T.);
#873=FACE_BOUND('',#803,.T.);
#874=FACE_BOUND('',#804,.T.);
#875=FACE_BOUND('',#805,.T.);
#876=FACE_BOUND('',#806,.T.);
#877=FACE_BOUND('',#807,.T.);
#878=FACE_BOUND('',#808,.T.);
#879=FACE_BOUND('',#809,.T.);
#880=FACE_BOUND('',#810,.T.);
#881=FACE_BOUND('',#811,.T.);
#882=FACE_BOUND('',#812,.T.);
#883=FACE_BOUND('',#813,.T.);
#884=FACE_BOUND('',#814,.T.);
#885=FACE_BOUND('',#815,.T.);
#886=FACE_BOUND('',#816,.T.);
#887=FACE_BOUND('',#817,.T.);
#888=FACE_BOUND('',#818,.T.);
#889=FACE_BOUND('',#819,.T.);
#890=FACE_BOUND('',#820,.T.);
#891=FACE_BOUND('',#821,.T.);
#892=FACE_BOUND('',#822,.T.);
#893=FACE_BOUND('',#823,.T.);
#894=FACE_BOUND('',#824,.T.);
#895=FACE_BOUND('',#825,.T.);
#896=FACE_BOUND('',#826,.T.);
#897=FACE_BOUND('',#827,.T.);
#898=FACE_BOUND('',#828,.T.);
#899=FACE_BOUND('',#829,.T.);
#900=FACE_BOUND('',#830,.T.);
#901=FACE_BOUND('',#831,.T.);
#902=FACE_BOUND('',#832,.T.);
#903=FACE_BOUND('',#833,.T.);
#904=FACE_BOUND('',#834,.T.);
#905=FACE_BOUND('',#835,.T.);
#906=FACE_BOUND('',#836,.T.);
#907=FACE_BOUND('',#837,.T.);
#908=FACE_BOUND('',#838,.T.);
#909=FACE_BOUND('',#839,.T.);
#910=FACE_BOUND('',#840,.T.);
#911=FACE_BOUND('',#841,.T.);
#912=FACE_BOUND('',#842,.T.);
#913=FACE_BOUND('',#843,.T.);
#914=FACE_BOUND('',#844,.T.);
#915=FACE_BOUND('',#845,.T.);
#916=FACE_BOUND('',#846,.T.);
#917=FACE_BOUND('',#847,.T.);
#918=FACE_BOUND('',#848,.T.);
#919=FACE_BOUND('',#849,.T.);
#920=FACE_BOUND('',#850,.T.);
#921=FACE_BOUND('',#851,.T.);
#922=FACE_BOUND('',#852,.T.);
#923=FACE_BOUND('',#853,.T.);
#924=FACE_BOUND('',#854,.T.);
#925=FACE_BOUND('',#855,.T.);
#926=FACE_BOUND('',#856,.T.);
#927=FACE_BOUND('',#857,.T.);
#928=FACE_BOUND('',#858,.T.);
#929=FACE_BOUND('',#859,.T.);
#930=FACE_BOUND('',#860,.T.);
#931=FACE_BOUND('',#861,.T.);
#932=FACE_BOUND('',#862,.T.);
#933=FACE_BOUND('',#863,.T.);
#934=FACE_BOUND('',#864,.T.);
#935=FACE_BOUND('',#865,.T.);
#936=FACE_BOUND('',#866,.T.);
#937=FACE_BOUND('',#867,.T.);
#938=FACE_BOUND('',#868,.T.);
#939=FACE_BOUND('',#869,.T.);
#940=PLANE('',#1041);
#941=PLANE('',#1042);
#942=PLANE('',#1043);
#943=PLANE('',#1044);
#944=PLANE('',#1045);
#945=PLANE('',#1046);
#946=PLANE('',#1047);
#947=PLANE('',#1048);
#948=PLANE('',#1049);
#949=PLANE('',#1050);
#950=PLANE('',#1051);
#951=PLANE('',#1052);
#952=PLANE('',#1053);
#953=PLANE('',#1054);
#954=PLANE('',#1055);
#955=PLANE('',#1056);
#956=PLANE('',#1057);
#957=PLANE('',#1058);
#958=ADVANCED_FACE('',(#870),#940,.F.);
#959=ADVANCED_FACE('',(#871),#941,.F.);
#960=ADVANCED_FACE('',(#872),#942,.F.);
#961=ADVANCED_FACE('',(#873),#943,.T.);
#962=ADVANCED_FACE('',(#874),#944,.T.);
#963=ADVANCED_FACE('',(#875),#945,.F.);
#964=ADVANCED_FACE('',(#876),#946,.F.);
#965=ADVANCED_FACE('',(#877),#947,.T.);
#966=ADVANCED_FACE('',(#878),#948,.F.);
#967=ADVANCED_FACE('',(#879),#949,.T.);
#968=ADVANCED_FACE('',(#880),#950,.T.);
#969=ADVANCED_FACE('',(#881),#951,.F.);
#970=ADVANCED_FACE('',(#882),#952,.T.);
#971=ADVANCED_FACE('',(#883),#953,.F.);
#972=ADVANCED_FACE('',(#884),#954,.F.);
#973=ADVANCED_FACE('',(#885),#955,.T.);
#974=ADVANCED_FACE('',(#886),#956,.F.);
#975=ADVANCED_FACE('',(#887),#957,.T.);
#976=ADVANCED_FACE('',(#888),#88,.T.);
#977=ADVANCED_FACE('',(#889),#89,.T.);
#978=ADVANCED_FACE('',(#890),#90,.T.);
#979=ADVANCED_FACE('',(#891),#91,.T.);
#980=ADVANCED_FACE('',(#892),#24,.T.);
#981=ADVANCED_FACE('',(#893),#92,.T.);
#982=ADVANCED_FACE('',(#894),#93,.T.);
#983=ADVANCED_FACE('',(#895),#25,.T.);
#984=ADVANCED_FACE('',(#896),#94,.T.);
#985=ADVANCED_FACE('',(#897),#26,.T.);
#986=ADVANCED_FACE('',(#898),#95,.T.);
#987=ADVANCED_FACE('',(#899),#96,.T.);
#988=ADVANCED_FACE('',(#900),#97,.T.);
#989=ADVANCED_FACE('',(#901),#27,.T.);
#990=ADVANCED_FACE('',(#902),#98,.T.);
#991=ADVANCED_FACE('',(#903),#99,.T.);
#992=ADVANCED_FACE('',(#904),#100,.T.);
#993=ADVANCED_FACE('',(#905),#28,.T.);
#994=ADVANCED_FACE('',(#906),#101,.T.);
#995=ADVANCED_FACE('',(#907),#29,.T.);
#996=ADVANCED_FACE('',(#908),#102,.T.);
#997=ADVANCED_FACE('',(#909),#103,.T.);
#998=ADVANCED_FACE('',(#910),#30,.T.);
#999=ADVANCED_FACE('',(#911),#104,.T.);
#1000=ADVANCED_FACE('',(#912),#105,.T.);
#1001=ADVANCED_FACE('',(#913),#31,.T.);
#1002=ADVANCED_FACE('',(#914),#106,.T.);
#1003=ADVANCED_FACE('',(#915),#107,.T.);
#1004=ADVANCED_FACE('',(#916),#32,.T.);
#1005=ADVANCED_FACE('',(#917),#108,.T.);
#1006=ADVANCED_FACE('',(#918),#109,.T.);
#1007=ADVANCED_FACE('',(#919),#33,.T.);
#1008=ADVANCED_FACE('',(#920),#110,.T.);
#1009=ADVANCED_FACE('',(#921),#34,.T.);
#1010=ADVANCED_FACE('',(#922),#111,.T.);
#1011=ADVANCED_FACE('',(#923),#112,.T.);
#1012=ADVANCED_FACE('',(#924),#113,.T.);
#1013=ADVANCED_FACE('',(#925),#35,.T.);
#1014=ADVANCED_FACE('',(#926),#36,.T.);
#1015=ADVANCED_FACE('',(#927),#114,.T.);
#1016=ADVANCED_FACE('',(#928),#115,.T.);
#1017=ADVANCED_FACE('',(#929),#116,.T.);
#1018=ADVANCED_FACE('',(#930),#117,.T.);
#1019=ADVANCED_FACE('',(#931),#118,.T.);
#1020=ADVANCED_FACE('',(#932),#37,.T.);
#1021=ADVANCED_FACE('',(#933),#119,.T.);
#1022=ADVANCED_FACE('',(#934),#38,.T.);
#1023=ADVANCED_FACE('',(#935),#120,.T.);
#1024=ADVANCED_FACE('',(#936),#121,.T.);
#1025=ADVANCED_FACE('',(#937),#122,.T.);
#1026=ADVANCED_FACE('',(#938),#39,.T.);
#1027=ADVANCED_FACE('',(#939),#123,.T.);
#1028=CLOSED_SHELL('',(#958,#959,#960,#961,#962,#963,#964,#965,#966,#967,
#968,#969,#970,#971,#972,#973,#974,#975,#976,#977,#978,#979,#980,#981,#982,
#983,#984,#985,#986,#987,#988,#989,#990,#991,#992,#993,#994,#995,#996,#997,
#998,#999,#1000,#1001,#1002,#1003,#1004,#1005,#1006,#1007,#1008,#1009,#1010,
#1011,#1012,#1013,#1014,#1015,#1016,#1017,#1018,#1019,#1020,#1021,#1022,
#1023,#1024,#1025,#1026,#1027));
#1029=STYLED_ITEM('',(#1030),#1037);
#1030=PRESENTATION_STYLE_ASSIGNMENT((#1031));
#1031=SURFACE_STYLE_USAGE(.BOTH.,#1032);
#1032=SURFACE_SIDE_STYLE('',(#1033));
#1033=SURFACE_STYLE_FILL_AREA(#1034);
#1034=FILL_AREA_STYLE('',(#1035));
#1035=FILL_AREA_STYLE_COLOUR('',#1036);
#1036=COLOUR_RGB('',0.8,0.635294117647059,0.47843137254902);
#1037=MANIFOLD_SOLID_BREP('Desk',#1028);
#1038=SHAPE_DEFINITION_REPRESENTATION(#1814,#1039);
#1039=SHAPE_REPRESENTATION('Desk',(#1040),#1809);
#1040=AXIS2_PLACEMENT_3D('',#1517,#1171,#1172);
#1041=AXIS2_PLACEMENT_3D('',#1518,#1173,#1174);
#1042=AXIS2_PLACEMENT_3D('',#1527,#1179,#1180);
#1043=AXIS2_PLACEMENT_3D('',#1536,#1185,#1186);
#1044=AXIS2_PLACEMENT_3D('',#1545,#1191,#1192);
#1045=AXIS2_PLACEMENT_3D('',#1562,#1201,#1202);
#1046=AXIS2_PLACEMENT_3D('',#1579,#1211,#1212);
#1047=AXIS2_PLACEMENT_3D('',#1596,#1221,#1222);
#1048=AXIS2_PLACEMENT_3D('',#1613,#1231,#1232);
#1049=AXIS2_PLACEMENT_3D('',#1622,#1237,#1238);
#1050=AXIS2_PLACEMENT_3D('',#1631,#1243,#1244);
#1051=AXIS2_PLACEMENT_3D('',#1640,#1249,#1250);
#1052=AXIS2_PLACEMENT_3D('',#1646,#1254,#1255);
#1053=AXIS2_PLACEMENT_3D('',#1655,#1260,#1261);
#1054=AXIS2_PLACEMENT_3D('',#1661,#1265,#1266);
#1055=AXIS2_PLACEMENT_3D('',#1670,#1271,#1272);
#1056=AXIS2_PLACEMENT_3D('',#1676,#1276,#1277);
#1057=AXIS2_PLACEMENT_3D('',#1685,#1282,#1283);
#1058=AXIS2_PLACEMENT_3D('',#1691,#1287,#1288);
#1059=AXIS2_PLACEMENT_3D('',#1696,#1293,#1294);
#1060=AXIS2_PLACEMENT_3D('',#1697,#1295,#1296);
#1061=AXIS2_PLACEMENT_3D('',#1698,#1297,#1298);
#1062=AXIS2_PLACEMENT_3D('',#1699,#1299,#1300);
#1063=AXIS2_PLACEMENT_3D('',#1700,#1301,#1302);
#1064=AXIS2_PLACEMENT_3D('',#1701,#1303,#1304);
#1065=AXIS2_PLACEMENT_3D('',#1702,#1305,#1306);
#1066=AXIS2_PLACEMENT_3D('',#1703,#1307,#1308);
#1067=AXIS2_PLACEMENT_3D('',#1704,#1309,#1310);
#1068=AXIS2_PLACEMENT_3D('',#1705,#1311,#1312);
#1069=AXIS2_PLACEMENT_3D('',#1706,#1313,#1314);
#1070=AXIS2_PLACEMENT_3D('',#1707,#1315,#1316);
#1071=AXIS2_PLACEMENT_3D('',#1708,#1317,#1318);
#1072=AXIS2_PLACEMENT_3D('',#1709,#1319,#1320);
#1073=AXIS2_PLACEMENT_3D('',#1710,#1321,#1322);
#1074=AXIS2_PLACEMENT_3D('',#1711,#1323,#1324);
#1075=AXIS2_PLACEMENT_3D('',#1712,#1325,#1326);
#1076=AXIS2_PLACEMENT_3D('',#1713,#1327,#1328);
#1077=AXIS2_PLACEMENT_3D('',#1714,#1329,#1330);
#1078=AXIS2_PLACEMENT_3D('',#1715,#1331,#1332);
#1079=AXIS2_PLACEMENT_3D('',#1716,#1333,#1334);
#1080=AXIS2_PLACEMENT_3D('',#1717,#1335,#1336);
#1081=AXIS2_PLACEMENT_3D('',#1718,#1337,#1338);
#1082=AXIS2_PLACEMENT_3D('',#1719,#1339,#1340);
#1083=AXIS2_PLACEMENT_3D('',#1720,#1341,#1342);
#1084=AXIS2_PLACEMENT_3D('',#1721,#1343,#1344);
#1085=AXIS2_PLACEMENT_3D('',#1722,#1345,#1346);
#1086=AXIS2_PLACEMENT_3D('',#1723,#1347,#1348);
#1087=AXIS2_PLACEMENT_3D('',#1724,#1349,#1350);
#1088=AXIS2_PLACEMENT_3D('',#1725,#1351,#1352);
#1089=AXIS2_PLACEMENT_3D('',#1726,#1353,#1354);
#1090=AXIS2_PLACEMENT_3D('',#1727,#1355,#1356);
#1091=AXIS2_PLACEMENT_3D('',#1728,#1357,#1358);
#1092=AXIS2_PLACEMENT_3D('',#1729,#1359,#1360);
#1093=AXIS2_PLACEMENT_3D('',#1730,#1361,#1362);
#1094=AXIS2_PLACEMENT_3D('',#1731,#1363,#1364);
#1095=AXIS2_PLACEMENT_3D('',#1732,#1365,#1366);
#1096=AXIS2_PLACEMENT_3D('',#1733,#1367,#1368);
#1097=AXIS2_PLACEMENT_3D('',#1734,#1369,#1370);
#1098=AXIS2_PLACEMENT_3D('',#1735,#1371,#1372);
#1099=AXIS2_PLACEMENT_3D('',#1736,#1373,#1374);
#1100=AXIS2_PLACEMENT_3D('',#1737,#1375,#1376);
#1101=AXIS2_PLACEMENT_3D('',#1738,#1377,#1378);
#1102=AXIS2_PLACEMENT_3D('',#1739,#1379,#1380);
#1103=AXIS2_PLACEMENT_3D('',#1740,#1381,#1382);
#1104=AXIS2_PLACEMENT_3D('',#1741,#1383,#1384);
#1105=AXIS2_PLACEMENT_3D('',#1742,#1385,#1386);
#1106=AXIS2_PLACEMENT_3D('',#1743,#1387,#1388);
#1107=AXIS2_PLACEMENT_3D('',#1744,#1389,#1390);
#1108=AXIS2_PLACEMENT_3D('',#1745,#1391,#1392);
#1109=AXIS2_PLACEMENT_3D('',#1746,#1393,#1394);
#1110=AXIS2_PLACEMENT_3D('',#1747,#1395,#1396);
#1111=AXIS2_PLACEMENT_3D('',#1748,#1397,#1398);
#1112=AXIS2_PLACEMENT_3D('',#1749,#1399,#1400);
#1113=AXIS2_PLACEMENT_3D('',#1750,#1401,#1402);
#1114=AXIS2_PLACEMENT_3D('',#1751,#1403,#1404);
#1115=AXIS2_PLACEMENT_3D('',#1752,#1405,#1406);
#1116=AXIS2_PLACEMENT_3D('',#1753,#1407,#1408);
#1117=AXIS2_PLACEMENT_3D('',#1754,#1409,#1410);
#1118=AXIS2_PLACEMENT_3D('',#1755,#1411,#1412);
#1119=AXIS2_PLACEMENT_3D('',#1756,#1413,#1414);
#1120=AXIS2_PLACEMENT_3D('',#1757,#1415,#1416);
#1121=AXIS2_PLACEMENT_3D('',#1758,#1417,#1418);
#1122=AXIS2_PLACEMENT_3D('',#1759,#1419,#1420);
#1123=AXIS2_PLACEMENT_3D('',#1760,#1421,#1422);
#1124=AXIS2_PLACEMENT_3D('',#1761,#1423,#1424);
#1125=AXIS2_PLACEMENT_3D('',#1762,#1425,#1426);
#1126=AXIS2_PLACEMENT_3D('',#1763,#1427,#1428);
#1127=AXIS2_PLACEMENT_3D('',#1764,#1429,#1430);
#1128=AXIS2_PLACEMENT_3D('',#1765,#1431,#1432);
#1129=AXIS2_PLACEMENT_3D('',#1766,#1433,#1434);
#1130=AXIS2_PLACEMENT_3D('',#1767,#1435,#1436);
#1131=AXIS2_PLACEMENT_3D('',#1768,#1437,#1438);
#1132=AXIS2_PLACEMENT_3D('',#1769,#1439,#1440);
#1133=AXIS2_PLACEMENT_3D('',#1770,#1441,#1442);
#1134=AXIS2_PLACEMENT_3D('',#1771,#1443,#1444);
#1135=AXIS2_PLACEMENT_3D('',#1772,#1445,#1446);
#1136=AXIS2_PLACEMENT_3D('',#1773,#1447,#1448);
#1137=AXIS2_PLACEMENT_3D('',#1774,#1449,#1450);
#1138=AXIS2_PLACEMENT_3D('',#1775,#1451,#1452);
#1139=AXIS2_PLACEMENT_3D('',#1776,#1453,#1454);
#1140=AXIS2_PLACEMENT_3D('',#1777,#1455,#1456);
#1141=AXIS2_PLACEMENT_3D('',#1778,#1457,#1458);
#1142=AXIS2_PLACEMENT_3D('',#1779,#1459,#1460);
#1143=AXIS2_PLACEMENT_3D('',#1780,#1461,#1462);
#1144=AXIS2_PLACEMENT_3D('',#1781,#1463,#1464);
#1145=AXIS2_PLACEMENT_3D('',#1782,#1465,#1466);
#1146=AXIS2_PLACEMENT_3D('',#1783,#1467,#1468);
#1147=AXIS2_PLACEMENT_3D('',#1784,#1469,#1470);
#1148=AXIS2_PLACEMENT_3D('',#1785,#1471,#1472);
#1149=AXIS2_PLACEMENT_3D('',#1786,#1473,#1474);
#1150=AXIS2_PLACEMENT_3D('',#1787,#1475,#1476);
#1151=AXIS2_PLACEMENT_3D('',#1788,#1477,#1478);
#1152=AXIS2_PLACEMENT_3D('',#1789,#1479,#1480);
#1153=AXIS2_PLACEMENT_3D('',#1790,#1481,#1482);
#1154=AXIS2_PLACEMENT_3D('',#1791,#1483,#1484);
#1155=AXIS2_PLACEMENT_3D('',#1792,#1485,#1486);
#1156=AXIS2_PLACEMENT_3D('',#1793,#1487,#1488);
#1157=AXIS2_PLACEMENT_3D('',#1794,#1489,#1490);
#1158=AXIS2_PLACEMENT_3D('',#1795,#1491,#1492);
#1159=AXIS2_PLACEMENT_3D('',#1796,#1493,#1494);
#1160=AXIS2_PLACEMENT_3D('',#1797,#1495,#1496);
#1161=AXIS2_PLACEMENT_3D('',#1798,#1497,#1498);
#1162=AXIS2_PLACEMENT_3D('',#1799,#1499,#1500);
#1163=AXIS2_PLACEMENT_3D('',#1800,#1501,#1502);
#1164=AXIS2_PLACEMENT_3D('',#1801,#1503,#1504);
#1165=AXIS2_PLACEMENT_3D('',#1802,#1505,#1506);
#1166=AXIS2_PLACEMENT_3D('',#1803,#1507,#1508);
#1167=AXIS2_PLACEMENT_3D('',#1804,#1509,#1510);
#1168=AXIS2_PLACEMENT_3D('',#1805,#1511,#1512);
#1169=AXIS2_PLACEMENT_3D('',#1806,#1513,#1514);
#1170=AXIS2_PLACEMENT_3D('',#1807,#1515,#1516);
#1171=DIRECTION('',(0.,0.,1.));
#1172=DIRECTION('',(1.,0.,0.));
#1173=DIRECTION('',(0.,0.,1.));
#1174=DIRECTION('',(1.,0.,0.));
#1175=DIRECTION('',(0.,1.,0.));
#1176=DIRECTION('',(-1.,0.,0.));
#1177=DIRECTION('',(0.,-1.,0.));
#1178=DIRECTION('',(1.,0.,0.));
#1179=DIRECTION('',(0.,0.,1.));
#1180=DIRECTION('',(1.,0.,0.));
#1181=DIRECTION('',(0.,-1.,0.));
#1182=DIRECTION('',(-1.,0.,0.));
#1183=DIRECTION('',(0.,1.,0.));
#1184=DIRECTION('',(1.,0.,0.));
#1185=DIRECTION('',(0.,0.,1.));
#1186=DIRECTION('',(1.,0.,0.));
#1187=DIRECTION('',(0.,-1.,0.));
#1188=DIRECTION('',(-1.,2.16840434497101E-16,0.));
#1189=DIRECTION('',(0.,1.,0.));
#1190=DIRECTION('',(1.,0.,0.));
#1191=DIRECTION('',(0.,1.,0.));
#1192=DIRECTION('',(0.,0.,1.));
#1193=DIRECTION('',(1.,0.,0.));
#1194=DIRECTION('',(0.,0.,-1.));
#1195=DIRECTION('',(1.,0.,0.));
#1196=DIRECTION('',(0.,0.,-1.));
#1197=DIRECTION('',(1.,0.,0.));
#1198=DIRECTION('',(0.,0.,-1.));
#1199=DIRECTION('',(1.,0.,0.));
#1200=DIRECTION('',(0.,0.,-1.));
#1201=DIRECTION('',(1.,0.,0.));
#1202=DIRECTION('',(0.,0.,-1.));
#1203=DIRECTION('',(0.,-1.,0.));
#1204=DIRECTION('',(0.,0.,-1.));
#1205=DIRECTION('',(0.,-1.,0.));
#1206=DIRECTION('',(0.,0.,-1.));
#1207=DIRECTION('',(0.,-1.,0.));
#1208=DIRECTION('',(0.,0.,-1.));
#1209=DIRECTION('',(0.,-1.,0.));
#1210=DIRECTION('',(0.,0.,-1.));
#1211=DIRECTION('',(1.,0.,0.));
#1212=DIRECTION('',(0.,0.,-1.));
#1213=DIRECTION('',(0.,-1.,0.));
#1214=DIRECTION('',(0.,0.,-1.));
#1215=DIRECTION('',(0.,-1.,0.));
#1216=DIRECTION('',(0.,0.,-1.));
#1217=DIRECTION('',(0.,-1.,0.));
#1218=DIRECTION('',(0.,0.,-1.));
#1219=DIRECTION('',(0.,-1.,0.));
#1220=DIRECTION('',(0.,0.,-1.));
#1221=DIRECTION('',(0.,1.,0.));
#1222=DIRECTION('',(0.,0.,1.));
#1223=DIRECTION('',(1.,0.,0.));
#1224=DIRECTION('',(0.,0.,-1.));
#1225=DIRECTION('',(1.,0.,0.));
#1226=DIRECTION('',(0.,0.,-1.));
#1227=DIRECTION('',(1.,0.,0.));
#1228=DIRECTION('',(0.,0.,-1.));
#1229=DIRECTION('',(1.,0.,0.));
#1230=DIRECTION('',(0.,0.,-1.));
#1231=DIRECTION('',(0.,0.,1.));
#1232=DIRECTION('',(1.,0.,0.));
#1233=DIRECTION('',(0.,-1.,0.));
#1234=DIRECTION('',(1.,0.,0.));
#1235=DIRECTION('',(0.,-1.,0.));
#1236=DIRECTION('',(1.,0.,0.));
#1237=DIRECTION('',(0.,0.,1.));
#1238=DIRECTION('',(1.,0.,0.));
#1239=DIRECTION('',(0.,1.,0.));
#1240=DIRECTION('',(-1.,2.16840434497101E-16,0.));
#1241=DIRECTION('',(0.,-1.,0.));
#1242=DIRECTION('',(1.,0.,0.));
#1243=DIRECTION('',(-1.,0.,0.));
#1244=DIRECTION('',(0.,0.,1.));
#1245=DIRECTION('',(0.,0.,-1.));
#1246=DIRECTION('',(0.,1.,0.));
#1247=DIRECTION('',(0.,0.,-1.));
#1248=DIRECTION('',(0.,1.,0.));
#1249=DIRECTION('',(-2.16840434497101E-16,-1.,0.));
#1250=DIRECTION('',(1.,-2.16840434497101E-16,0.));
#1251=DIRECTION('',(-1.,2.16840434497101E-16,0.));
#1252=DIRECTION('',(0.,0.,-1.));
#1253=DIRECTION('',(-1.,2.16840434497101E-16,0.));
#1254=DIRECTION('',(0.,-1.,0.));
#1255=DIRECTION('',(0.,0.,-1.));
#1256=DIRECTION('',(0.,0.,-1.));
#1257=DIRECTION('',(-1.,0.,0.));
#1258=DIRECTION('',(0.,0.,-1.));
#1259=DIRECTION('',(-1.,0.,0.));
#1260=DIRECTION('',(-1.,0.,0.));
#1261=DIRECTION('',(0.,0.,1.));
#1262=DIRECTION('',(0.,1.,0.));
#1263=DIRECTION('',(0.,0.,-1.));
#1264=DIRECTION('',(0.,1.,0.));
#1265=DIRECTION('',(-1.,0.,0.));
#1266=DIRECTION('',(0.,0.,1.));
#1267=DIRECTION('',(0.,0.,-1.));
#1268=DIRECTION('',(0.,1.,0.));
#1269=DIRECTION('',(0.,0.,-1.));
#1270=DIRECTION('',(0.,1.,0.));
#1271=DIRECTION('',(0.,-1.,0.));
#1272=DIRECTION('',(0.,0.,-1.));
#1273=DIRECTION('',(-1.,0.,0.));
#1274=DIRECTION('',(0.,0.,-1.));
#1275=DIRECTION('',(-1.,0.,0.));
#1276=DIRECTION('',(-2.16840434497101E-16,-1.,0.));
#1277=DIRECTION('',(1.,-2.16840434497101E-16,0.));
#1278=DIRECTION('',(0.,0.,-1.));
#1279=DIRECTION('',(-1.,2.16840434497101E-16,0.));
#1280=DIRECTION('',(0.,0.,-1.));
#1281=DIRECTION('',(-1.,2.16840434497101E-16,0.));
#1282=DIRECTION('',(-1.,0.,0.));
#1283=DIRECTION('',(0.,0.,1.));
#1284=DIRECTION('',(0.,1.,0.));
#1285=DIRECTION('',(0.,0.,-1.));
#1286=DIRECTION('',(0.,1.,0.));
#1287=DIRECTION('',(0.,0.,-1.));
#1288=DIRECTION('',(1.,0.,0.));
#1289=DIRECTION('',(0.,-1.,0.));
#1290=DIRECTION('',(1.,0.,0.));
#1291=DIRECTION('',(0.,-1.,0.));
#1292=DIRECTION('',(1.,0.,0.));
#1293=DIRECTION('',(0.,1.,0.));
#1294=DIRECTION('',(0.,0.,1.));
#1295=DIRECTION('',(0.,1.,0.));
#1296=DIRECTION('',(0.,0.,1.));
#1297=DIRECTION('',(0.,1.,0.));
#1298=DIRECTION('',(0.,0.,1.));
#1299=DIRECTION('',(1.,0.,0.));
#1300=DIRECTION('',(0.,0.,-1.));
#1301=DIRECTION('',(1.,0.,0.));
#1302=DIRECTION('',(0.,0.,-1.));
#1303=DIRECTION('',(1.,0.,0.));
#1304=DIRECTION('',(0.,0.,-1.));
#1305=DIRECTION('',(-1.,0.,0.));
#1306=DIRECTION('',(0.,0.,1.));
#1307=DIRECTION('',(-1.,0.,0.));
#1308=DIRECTION('',(0.,0.,1.));
#1309=DIRECTION('',(-1.,0.,0.));
#1310=DIRECTION('',(0.,0.,1.));
#1311=DIRECTION('',(0.,-1.,0.));
#1312=DIRECTION('',(0.,0.,-1.));
#1313=DIRECTION('',(0.,-1.,0.));
#1314=DIRECTION('',(0.,0.,-1.));
#1315=DIRECTION('',(0.,-1.,0.));
#1316=DIRECTION('',(0.,0.,-1.));
#1317=DIRECTION('',(0.,0.,1.));
#1318=DIRECTION('',(1.,0.,0.));
#1319=DIRECTION('',(0.,0.,-1.));
#1320=DIRECTION('',(-1.,0.,0.));
#1321=DIRECTION('',(0.,0.,1.));
#1322=DIRECTION('',(1.,0.,0.));
#1323=DIRECTION('',(0.,-1.19758337888107E-15,-1.));
#1324=DIRECTION('',(0.,1.,-1.19758337888107E-15));
#1325=DIRECTION('',(0.,1.,0.));
#1326=DIRECTION('',(0.,0.,1.));
#1327=DIRECTION('',(0.,1.,0.));
#1328=DIRECTION('',(0.,0.,1.));
#1329=DIRECTION('',(0.,-1.,0.));
#1330=DIRECTION('',(0.,0.,-1.));
#1331=DIRECTION('',(1.,0.,0.));
#1332=DIRECTION('',(0.,0.,-1.));
#1333=DIRECTION('',(1.,0.,0.));
#1334=DIRECTION('',(0.,0.,-1.));
#1335=DIRECTION('',(-1.,0.,0.));
#1336=DIRECTION('',(0.,0.,1.));
#1337=DIRECTION('',(1.,0.,0.));
#1338=DIRECTION('',(0.,0.,-1.));
#1339=DIRECTION('',(-0.707106781186548,-0.707106781186548,0.));
#1340=DIRECTION('',(0.707106781186548,-0.707106781186548,0.));
#1341=DIRECTION('',(0.,0.,-1.));
#1342=DIRECTION('',(-1.,0.,0.));
#1343=DIRECTION('',(-1.19758337888107E-15,0.,-1.));
#1344=DIRECTION('',(-1.,0.,1.19758337888107E-15));
#1345=DIRECTION('',(1.,0.,0.));
#1346=DIRECTION('',(0.,0.,-1.));
#1347=DIRECTION('',(-1.,0.,0.));
#1348=DIRECTION('',(0.,0.,1.));
#1349=DIRECTION('',(0.,-1.,0.));
#1350=DIRECTION('',(0.,0.,-1.));
#1351=DIRECTION('',(0.,-1.,0.));
#1352=DIRECTION('',(0.,0.,-1.));
#1353=DIRECTION('',(0.,0.,1.));
#1354=DIRECTION('',(1.,0.,0.));
#1355=DIRECTION('',(0.,0.707106781186548,0.707106781186548));
#1356=DIRECTION('',(0.,-0.707106781186548,0.707106781186548));
#1357=DIRECTION('',(0.,0.,-1.));
#1358=DIRECTION('',(-1.,0.,0.));
#1359=DIRECTION('',(1.19758337888107E-15,0.,-1.));
#1360=DIRECTION('',(-1.,0.,-1.19758337888107E-15));
#1361=DIRECTION('',(0.,-1.,0.));
#1362=DIRECTION('',(0.,0.,-1.));
#1363=DIRECTION('',(0.,0.707106781186548,-0.707106781186548));
#1364=DIRECTION('',(0.,-0.707106781186548,-0.707106781186548));
#1365=DIRECTION('',(0.,0.,1.));
#1366=DIRECTION('',(1.,0.,0.));
#1367=DIRECTION('',(-0.707106781186548,0.,0.707106781186548));
#1368=DIRECTION('',(0.707106781186548,0.,0.707106781186548));
#1369=DIRECTION('',(0.,0.,-1.));
#1370=DIRECTION('',(-1.,0.,0.));
#1371=DIRECTION('',(0.,0.,-1.));
#1372=DIRECTION('',(-1.,0.,0.));
#1373=DIRECTION('',(0.,0.,1.));
#1374=DIRECTION('',(1.,0.,0.));
#1375=DIRECTION('',(0.,0.,-1.));
#1376=DIRECTION('',(-1.,0.,0.));
#1377=DIRECTION('',(-1.,0.,0.));
#1378=DIRECTION('',(0.,0.,1.));
#1379=DIRECTION('',(-0.707106781186548,0.,-0.707106781186548));
#1380=DIRECTION('',(0.707106781186548,0.,-0.707106781186548));
#1381=DIRECTION('',(1.,-5.98791689440537E-16,0.));
#1382=DIRECTION('',(5.98791689440537E-16,1.,0.));
#1383=DIRECTION('',(1.,0.,0.));
#1384=DIRECTION('',(0.,0.,-1.));
#1385=DIRECTION('',(0.,-1.,0.));
#1386=DIRECTION('',(0.,0.,-1.));
#1387=DIRECTION('',(0.,1.,0.));
#1388=DIRECTION('',(0.,0.,1.));
#1389=DIRECTION('',(0.,1.,-1.19758337888107E-15));
#1390=DIRECTION('',(0.,1.19758337888107E-15,1.));
#1391=DIRECTION('',(0.,0.,-1.));
#1392=DIRECTION('',(-1.,0.,0.));
#1393=DIRECTION('',(0.,0.,-1.));
#1394=DIRECTION('',(-1.,0.,0.));
#1395=DIRECTION('',(0.,0.,1.));
#1396=DIRECTION('',(1.,0.,0.));
#1397=DIRECTION('',(0.,0.,-1.));
#1398=DIRECTION('',(-1.,0.,0.));
#1399=DIRECTION('',(0.,0.,-1.));
#1400=DIRECTION('',(-1.,0.,0.));
#1401=DIRECTION('',(0.,0.,-1.));
#1402=DIRECTION('',(-1.,0.,0.));
#1403=DIRECTION('',(1.,-2.16840434497101E-16,0.));
#1404=DIRECTION('',(2.16840434497101E-16,1.,0.));
#1405=DIRECTION('',(0.707106781186548,-0.707106781186548,0.));
#1406=DIRECTION('',(-0.707106781186548,-0.707106781186548,0.));
#1407=DIRECTION('',(1.,0.,0.));
#1408=DIRECTION('',(0.,0.,-1.));
#1409=DIRECTION('',(1.,0.,0.));
#1410=DIRECTION('',(0.,0.,-1.));
#1411=DIRECTION('',(0.,0.,-1.));
#1412=DIRECTION('',(-1.,0.,0.));
#1413=DIRECTION('',(0.,0.,-1.));
#1414=DIRECTION('',(-1.,0.,0.));
#1415=DIRECTION('',(1.,0.,0.));
#1416=DIRECTION('',(0.,0.,-1.));
#1417=DIRECTION('',(1.,0.,0.));
#1418=DIRECTION('',(0.,0.,-1.));
#1419=DIRECTION('',(-1.,-1.19758337888107E-15,0.));
#1420=DIRECTION('',(1.19758337888107E-15,-1.,0.));
#1421=DIRECTION('',(0.,-1.,1.19758337888107E-15));
#1422=DIRECTION('',(0.,-1.19758337888107E-15,-1.));
#1423=DIRECTION('',(0.,-1.,0.));
#1424=DIRECTION('',(0.,0.,-1.));
#1425=DIRECTION('',(0.,-1.,0.));
#1426=DIRECTION('',(0.,0.,-1.));
#1427=DIRECTION('',(1.19758337888107E-15,1.,0.));
#1428=DIRECTION('',(-1.,1.19758337888107E-15,0.));
#1429=DIRECTION('',(-1.,0.,0.));
#1430=DIRECTION('',(0.,0.,1.));
#1431=DIRECTION('',(-1.,0.,0.));
#1432=DIRECTION('',(0.,0.,1.));
#1433=DIRECTION('',(1.19758337888107E-15,-1.,1.19758337888107E-15));
#1434=DIRECTION('',(0.,-1.19758337888107E-15,-1.));
#1435=DIRECTION('',(0.,-1.,0.));
#1436=DIRECTION('',(0.,0.,-1.));
#1437=DIRECTION('',(0.,1.,0.));
#1438=DIRECTION('',(0.,0.,1.));
#1439=DIRECTION('',(-0.707106781186548,0.707106781186548,0.));
#1440=DIRECTION('',(0.707106781186548,0.707106781186548,0.));
#1441=DIRECTION('',(0.,-1.19758337888107E-15,-1.));
#1442=DIRECTION('',(0.,1.,-1.19758337888107E-15));
#1443=DIRECTION('',(0.,0.,-1.));
#1444=DIRECTION('',(-1.,0.,0.));
#1445=DIRECTION('',(0.,-1.,0.));
#1446=DIRECTION('',(0.,0.,-1.));
#1447=DIRECTION('',(0.,1.,0.));
#1448=DIRECTION('',(0.,0.,1.));
#1449=DIRECTION('',(-1.,0.,0.));
#1450=DIRECTION('',(0.,0.,1.));
#1451=DIRECTION('',(-1.,0.,0.));
#1452=DIRECTION('',(0.,0.,1.));
#1453=DIRECTION('',(0.,0.,-1.));
#1454=DIRECTION('',(-1.,0.,0.));
#1455=DIRECTION('',(0.707106781186548,0.,-0.707106781186548));
#1456=DIRECTION('',(-0.707106781186548,0.,-0.707106781186548));
#1457=DIRECTION('',(0.,0.,1.));
#1458=DIRECTION('',(1.,0.,0.));
#1459=DIRECTION('',(0.,0.,-1.));
#1460=DIRECTION('',(-1.,0.,0.));
#1461=DIRECTION('',(0.,0.,-1.));
#1462=DIRECTION('',(-1.,0.,0.));
#1463=DIRECTION('',(0.,0.,-1.));
#1464=DIRECTION('',(-1.,0.,0.));
#1465=DIRECTION('',(1.,0.,0.));
#1466=DIRECTION('',(0.,0.,-1.));
#1467=DIRECTION('',(0.707106781186548,0.,0.707106781186548));
#1468=DIRECTION('',(-0.707106781186548,0.,0.707106781186548));
#1469=DIRECTION('',(0.,0.,1.));
#1470=DIRECTION('',(1.,0.,0.));
#1471=DIRECTION('',(0.,-1.19758337888107E-15,-1.));
#1472=DIRECTION('',(0.,1.,-1.19758337888107E-15));
#1473=DIRECTION('',(0.,0.,-1.));
#1474=DIRECTION('',(-1.,0.,0.));
#1475=DIRECTION('',(0.,-0.707106781186548,-0.707106781186548));
#1476=DIRECTION('',(0.,0.707106781186548,-0.707106781186548));
#1477=DIRECTION('',(0.,0.,1.));
#1478=DIRECTION('',(1.,0.,0.));
#1479=DIRECTION('',(1.19758337888107E-15,0.,-1.));
#1480=DIRECTION('',(-1.,0.,-1.19758337888107E-15));
#1481=DIRECTION('',(-1.,0.,0.));
#1482=DIRECTION('',(0.,0.,1.));
#1483=DIRECTION('',(-1.,0.,0.));
#1484=DIRECTION('',(0.,0.,1.));
#1485=DIRECTION('',(1.,1.19758337888107E-15,0.));
#1486=DIRECTION('',(-1.19758337888107E-15,1.,0.));
#1487=DIRECTION('',(0.,1.,0.));
#1488=DIRECTION('',(0.,0.,1.));
#1489=DIRECTION('',(2.39516675776214E-15,1.,0.));
#1490=DIRECTION('',(-1.,2.39516675776214E-15,0.));
#1491=DIRECTION('',(0.,1.,0.));
#1492=DIRECTION('',(0.,0.,1.));
#1493=DIRECTION('',(0.,-0.707106781186548,0.707106781186548));
#1494=DIRECTION('',(0.,0.707106781186548,0.707106781186548));
#1495=DIRECTION('',(-1.19758337888107E-15,1.,0.));
#1496=DIRECTION('',(-1.,-1.19758337888107E-15,0.));
#1497=DIRECTION('',(0.,1.,-1.19758337888107E-15));
#1498=DIRECTION('',(0.,1.19758337888107E-15,1.));
#1499=DIRECTION('',(0.,-1.,0.));
#1500=DIRECTION('',(0.,0.,-1.));
#1501=DIRECTION('',(0.,-1.,1.19758337888107E-15));
#1502=DIRECTION('',(0.,-1.19758337888107E-15,-1.));
#1503=DIRECTION('',(0.,0.,1.));
#1504=DIRECTION('',(1.,0.,0.));
#1505=DIRECTION('',(-1.19758337888107E-15,1.79275743671525E-31,-1.));
#1506=DIRECTION('',(-1.,0.,1.19758337888107E-15));
#1507=DIRECTION('',(0.,1.,0.));
#1508=DIRECTION('',(0.,0.,1.));
#1509=DIRECTION('',(0.707106781186548,0.707106781186548,0.));
#1510=DIRECTION('',(-0.707106781186548,0.707106781186548,0.));
#1511=DIRECTION('',(-1.,0.,1.19758337888107E-15));
#1512=DIRECTION('',(1.19758337888107E-15,0.,1.));
#1513=DIRECTION('',(-1.,1.49697922360134E-16,0.));
#1514=DIRECTION('',(-1.49697922360134E-16,-1.,0.));
#1515=DIRECTION('',(1.,-2.16840434497101E-16,0.));
#1516=DIRECTION('',(2.16840434497101E-16,1.,0.));
#1517=CARTESIAN_POINT('',(0.,0.,0.));
#1518=CARTESIAN_POINT('',(0.025,-0.015,0.));
#1519=CARTESIAN_POINT('',(0.04672426,-0.026,0.));
#1520=CARTESIAN_POINT('',(0.04672426,-0.02927574,0.));
#1521=CARTESIAN_POINT('',(0.04672426,-0.02672426,0.));
#1522=CARTESIAN_POINT('',(0.025,-0.02672426,0.));
#1523=CARTESIAN_POINT('',(0.04927574,-0.02672426,0.));
#1524=CARTESIAN_POINT('',(0.04927574,-0.03,0.));
#1525=CARTESIAN_POINT('',(0.04927574,-0.02927574,0.));
#1526=CARTESIAN_POINT('',(0.025,-0.02927574,0.));
#1527=CARTESIAN_POINT('',(0.025,-0.015,0.));
#1528=CARTESIAN_POINT('',(0.00072426,-0.015,0.));
#1529=CARTESIAN_POINT('',(0.00072426,-0.02927574,0.));
#1530=CARTESIAN_POINT('',(0.00072426,-0.02672426,0.));
#1531=CARTESIAN_POINT('',(0.025,-0.02672426,0.));
#1532=CARTESIAN_POINT('',(0.00327574,-0.02672426,0.));
#1533=CARTESIAN_POINT('',(0.00327574,-0.015,0.));
#1534=CARTESIAN_POINT('',(0.00327574,-0.02927574,0.));
#1535=CARTESIAN_POINT('',(0.025,-0.02927574,0.));
#1536=CARTESIAN_POINT('',(0.025,-0.015,0.));
#1537=CARTESIAN_POINT('',(0.04927574,-0.004,0.));
#1538=CARTESIAN_POINT('',(0.04927574,-0.00072426,0.));
#1539=CARTESIAN_POINT('',(0.04927574,-0.00327574,0.));
#1540=CARTESIAN_POINT('',(0.046,-0.00327574,0.));
#1541=CARTESIAN_POINT('',(0.04672426,-0.00327574,0.));
#1542=CARTESIAN_POINT('',(0.04672426,0.,0.));
#1543=CARTESIAN_POINT('',(0.04672426,-0.00072426,0.));
#1544=CARTESIAN_POINT('',(0.05,-0.00072426,0.));
#1545=CARTESIAN_POINT('',(0.025,0.,0.026));
#1546=CARTESIAN_POINT('',(0.,0.,0.00072426));
#1547=CARTESIAN_POINT('',(0.00327574,0.,0.00072426));
#1548=CARTESIAN_POINT('',(0.00072426,0.,0.00072426));
#1549=CARTESIAN_POINT('',(0.00072426,0.,0.02527574));
#1550=CARTESIAN_POINT('',(0.00072426,0.,0.02527574));
#1551=CARTESIAN_POINT('',(0.025,0.,0.02527574));
#1552=CARTESIAN_POINT('',(0.04927574,0.,0.02527574));
#1553=CARTESIAN_POINT('',(0.04927574,0.,0.026));
#1554=CARTESIAN_POINT('',(0.04927574,0.,0.00072426));
#1555=CARTESIAN_POINT('',(0.046,0.,0.00072426));
#1556=CARTESIAN_POINT('',(0.04672426,0.,0.00072426));
#1557=CARTESIAN_POINT('',(0.04672426,0.,0.026));
#1558=CARTESIAN_POINT('',(0.04672426,0.,0.02282426));
#1559=CARTESIAN_POINT('',(0.025,0.,0.02282426));
#1560=CARTESIAN_POINT('',(0.00327574,0.,0.02282426));
#1561=CARTESIAN_POINT('',(0.00327574,0.,0.));
#1562=CARTESIAN_POINT('',(0.05,-0.015,0.026));
#1563=CARTESIAN_POINT('',(0.05,0.,0.00072426));
#1564=CARTESIAN_POINT('',(0.05,-0.00327574,0.00072426));
#1565=CARTESIAN_POINT('',(0.05,-0.00072426,0.00072426));
#1566=CARTESIAN_POINT('',(0.05,-0.00072426,0.026));
#1567=CARTESIAN_POINT('',(0.05,-0.00072426,0.02527574));
#1568=CARTESIAN_POINT('',(0.05,-0.015,0.02527574));
#1569=CARTESIAN_POINT('',(0.05,-0.02927574,0.02527574));
#1570=CARTESIAN_POINT('',(0.05,-0.02927574,0.));
#1571=CARTESIAN_POINT('',(0.05,-0.02927574,0.00072426));
#1572=CARTESIAN_POINT('',(0.05,-0.026,0.00072426));
#1573=CARTESIAN_POINT('',(0.05,-0.02672426,0.00072426));
#1574=CARTESIAN_POINT('',(0.05,-0.02672426,0.0221));
#1575=CARTESIAN_POINT('',(0.05,-0.02672426,0.02282426));
#1576=CARTESIAN_POINT('',(0.05,-0.015,0.02282426));
#1577=CARTESIAN_POINT('',(0.05,-0.00327574,0.02282426));
#1578=CARTESIAN_POINT('',(0.05,-0.00327574,0.026));
#1579=CARTESIAN_POINT('',(0.,-0.015,0.026));
#1580=CARTESIAN_POINT('',(0.,0.,0.02527574));
#1581=CARTESIAN_POINT('',(0.,-0.02927574,0.02527574));
#1582=CARTESIAN_POINT('',(0.,-0.00072426,0.02527574));
#1583=CARTESIAN_POINT('',(0.,-0.00072426,0.));
#1584=CARTESIAN_POINT('',(0.,-0.00072426,0.00072426));
#1585=CARTESIAN_POINT('',(0.,-0.015,0.00072426));
#1586=CARTESIAN_POINT('',(0.,-0.00327574,0.00072426));
#1587=CARTESIAN_POINT('',(0.,-0.00327574,0.0221));
#1588=CARTESIAN_POINT('',(0.,-0.00327574,0.02282426));
#1589=CARTESIAN_POINT('',(0.,-0.026,0.02282426));
#1590=CARTESIAN_POINT('',(0.,-0.02672426,0.02282426));
#1591=CARTESIAN_POINT('',(0.,-0.02672426,0.026));
#1592=CARTESIAN_POINT('',(0.,-0.02672426,0.00072426));
#1593=CARTESIAN_POINT('',(0.,-0.015,0.00072426));
#1594=CARTESIAN_POINT('',(0.,-0.02927574,0.00072426));
#1595=CARTESIAN_POINT('',(0.,-0.02927574,0.026));
#1596=CARTESIAN_POINT('',(0.025,-0.03,0.026));
#1597=CARTESIAN_POINT('',(0.025,-0.03,0.00072426));
#1598=CARTESIAN_POINT('',(0.04672426,-0.03,0.00072426));
#1599=CARTESIAN_POINT('',(0.04927574,-0.03,0.00072426));
#1600=CARTESIAN_POINT('',(0.04927574,-0.03,0.02527574));
#1601=CARTESIAN_POINT('',(0.04927574,-0.03,0.02527574));
#1602=CARTESIAN_POINT('',(3.46944695195361E-18,-0.03,0.02527574));
#1603=CARTESIAN_POINT('',(0.00072426,-0.03,0.02527574));
#1604=CARTESIAN_POINT('',(0.00072426,-0.03,0.026));
#1605=CARTESIAN_POINT('',(0.00072426,-0.03,0.00072426));
#1606=CARTESIAN_POINT('',(0.025,-0.03,0.00072426));
#1607=CARTESIAN_POINT('',(0.00327574,-0.03,0.00072426));
#1608=CARTESIAN_POINT('',(0.00327574,-0.03,0.026));
#1609=CARTESIAN_POINT('',(0.00327574,-0.03,0.02282426));
#1610=CARTESIAN_POINT('',(0.046,-0.03,0.02282426));
#1611=CARTESIAN_POINT('',(0.04672426,-0.03,0.02282426));
#1612=CARTESIAN_POINT('',(0.04672426,-0.03,0.));
#1613=CARTESIAN_POINT('',(0.025,-0.015,0.026));
#1614=CARTESIAN_POINT('',(0.00072426,-0.03,0.026));
#1615=CARTESIAN_POINT('',(0.00072426,-0.00072426,0.026));
#1616=CARTESIAN_POINT('',(0.00072426,-0.02927574,0.026));
#1617=CARTESIAN_POINT('',(0.05,-0.02927574,0.026));
#1618=CARTESIAN_POINT('',(0.04927574,-0.02927574,0.026));
#1619=CARTESIAN_POINT('',(0.04927574,-0.015,0.026));
#1620=CARTESIAN_POINT('',(0.04927574,-0.00072426,0.026));
#1621=CARTESIAN_POINT('',(0.025,-0.00072426,0.026));
#1622=CARTESIAN_POINT('',(0.025,-0.015,0.));
#1623=CARTESIAN_POINT('',(0.00327574,-0.015,0.));
#1624=CARTESIAN_POINT('',(0.00327574,-0.00072426,0.));
#1625=CARTESIAN_POINT('',(0.00327574,-0.00327574,0.));
#1626=CARTESIAN_POINT('',(0.,-0.00327574,0.));
#1627=CARTESIAN_POINT('',(0.00072426,-0.00327574,0.));
#1628=CARTESIAN_POINT('',(0.00072426,-0.015,0.));
#1629=CARTESIAN_POINT('',(0.00072426,-0.00072426,0.));
#1630=CARTESIAN_POINT('',(0.004,-0.00072426,0.));
#1631=CARTESIAN_POINT('',(0.046,-0.002,0.0221));
#1632=CARTESIAN_POINT('',(0.046,-0.00072426,0.0221));
#1633=CARTESIAN_POINT('',(0.046,-0.00072426,0.0221));
#1634=CARTESIAN_POINT('',(0.046,-0.00072426,0.00072426));
#1635=CARTESIAN_POINT('',(0.046,-0.004,0.00072426));
#1636=CARTESIAN_POINT('',(0.046,-0.004,0.00072426));
#1637=CARTESIAN_POINT('',(0.046,-0.004,0.0221));
#1638=CARTESIAN_POINT('',(0.046,-0.004,0.0221));
#1639=CARTESIAN_POINT('',(0.046,-0.002,0.0221));
#1640=CARTESIAN_POINT('',(0.048,-0.004,0.0221));
#1641=CARTESIAN_POINT('',(0.05,-0.004,0.00072426));
#1642=CARTESIAN_POINT('',(0.04927574,-0.004,0.00072426));
#1643=CARTESIAN_POINT('',(0.04927574,-0.004,0.0221));
#1644=CARTESIAN_POINT('',(0.04927574,-0.004,0.0221));
#1645=CARTESIAN_POINT('',(0.048,-0.004,0.0221));
#1646=CARTESIAN_POINT('',(0.048,-0.026,0.0221));
#1647=CARTESIAN_POINT('',(0.04927574,-0.026,0.));
#1648=CARTESIAN_POINT('',(0.04927574,-0.026,0.0221));
#1649=CARTESIAN_POINT('',(0.04927574,-0.026,0.00072426));
#1650=CARTESIAN_POINT('',(0.048,-0.026,0.00072426));
#1651=CARTESIAN_POINT('',(0.046,-0.026,0.00072426));
#1652=CARTESIAN_POINT('',(0.046,-0.026,0.0221));
#1653=CARTESIAN_POINT('',(0.046,-0.026,0.0221));
#1654=CARTESIAN_POINT('',(0.048,-0.026,0.0221));
#1655=CARTESIAN_POINT('',(0.046,-0.028,0.0221));
#1656=CARTESIAN_POINT('',(0.046,-0.03,0.00072426));
#1657=CARTESIAN_POINT('',(0.046,-0.02927574,0.00072426));
#1658=CARTESIAN_POINT('',(0.046,-0.02927574,0.0221));
#1659=CARTESIAN_POINT('',(0.046,-0.02927574,0.0221));
#1660=CARTESIAN_POINT('',(0.046,-0.028,0.0221));
#1661=CARTESIAN_POINT('',(0.004,-0.028,0.0221));
#1662=CARTESIAN_POINT('',(0.004,-0.02927574,0.0221));
#1663=CARTESIAN_POINT('',(0.004,-0.02927574,0.0221));
#1664=CARTESIAN_POINT('',(0.004,-0.02927574,0.00072426));
#1665=CARTESIAN_POINT('',(0.004,-0.028,0.00072426));
#1666=CARTESIAN_POINT('',(0.004,-0.026,0.00072426));
#1667=CARTESIAN_POINT('',(0.004,-0.026,0.0221));
#1668=CARTESIAN_POINT('',(0.004,-0.026,0.0221));
#1669=CARTESIAN_POINT('',(0.004,-0.028,0.0221));
#1670=CARTESIAN_POINT('',(0.002,-0.026,0.0221));
#1671=CARTESIAN_POINT('',(0.002,-0.026,0.00072426));
#1672=CARTESIAN_POINT('',(0.00072426,-0.026,0.00072426));
#1673=CARTESIAN_POINT('',(0.00072426,-0.026,0.0221));
#1674=CARTESIAN_POINT('',(0.00072426,-0.026,0.0221));
#1675=CARTESIAN_POINT('',(0.002,-0.026,0.0221));
#1676=CARTESIAN_POINT('',(0.002,-0.004,0.0221));
#1677=CARTESIAN_POINT('',(0.00072426,-0.004,0.));
#1678=CARTESIAN_POINT('',(0.00072426,-0.004,0.0221));
#1679=CARTESIAN_POINT('',(0.00072426,-0.004,0.00072426));
#1680=CARTESIAN_POINT('',(0.004,-0.004,0.00072426));
#1681=CARTESIAN_POINT('',(0.004,-0.004,0.00072426));
#1682=CARTESIAN_POINT('',(0.004,-0.004,0.0221));
#1683=CARTESIAN_POINT('',(0.004,-0.004,0.0221));
#1684=CARTESIAN_POINT('',(0.002,-0.004,0.0221));
#1685=CARTESIAN_POINT('',(0.004,-0.002,0.0221));
#1686=CARTESIAN_POINT('',(0.004,-0.002,0.00072426));
#1687=CARTESIAN_POINT('',(0.004,-0.00072426,0.00072426));
#1688=CARTESIAN_POINT('',(0.004,-0.00072426,0.0221));
#1689=CARTESIAN_POINT('',(0.004,-0.00072426,0.0221));
#1690=CARTESIAN_POINT('',(0.004,-0.002,0.0221));
#1691=CARTESIAN_POINT('',(0.025,-0.015,0.0221));
#1692=CARTESIAN_POINT('',(0.00072426,-0.004,0.0221));
#1693=CARTESIAN_POINT('',(0.025,-0.00072426,0.0221));
#1694=CARTESIAN_POINT('',(0.04927574,-0.015,0.0221));
#1695=CARTESIAN_POINT('',(0.004,-0.02927574,0.0221));
#1696=CARTESIAN_POINT('',(0.00072426,-0.015,0.02527574));
#1697=CARTESIAN_POINT('',(0.00072426,-0.00072426,0.02527574));
#1698=CARTESIAN_POINT('',(0.00072426,-0.02927574,0.02527574));
#1699=CARTESIAN_POINT('',(0.025,-0.00072426,0.02527574));
#1700=CARTESIAN_POINT('',(0.00072426,-0.00072426,0.02527574));
#1701=CARTESIAN_POINT('',(0.04927574,-0.00072426,0.02527574));
#1702=CARTESIAN_POINT('',(0.025,-0.02927574,0.02527574));
#1703=CARTESIAN_POINT('',(0.04927574,-0.02927574,0.02527574));
#1704=CARTESIAN_POINT('',(0.00072426,-0.02927574,0.02527574));
#1705=CARTESIAN_POINT('',(0.04927574,-0.015,0.02527574));
#1706=CARTESIAN_POINT('',(0.04927574,-0.00072426,0.02527574));
#1707=CARTESIAN_POINT('',(0.04927574,-0.02927574,0.02527574));
#1708=CARTESIAN_POINT('',(0.04927574,-0.02927574,0.02527574));
#1709=CARTESIAN_POINT('',(0.04927574,-0.02927574,0.02527574));
#1710=CARTESIAN_POINT('',(0.04927574,-0.02927574,0.026));
#1711=CARTESIAN_POINT('',(0.04927574,-0.02927574,0.00072426));
#1712=CARTESIAN_POINT('',(0.04927574,-0.015,0.00072426));
#1713=CARTESIAN_POINT('',(0.04927574,-0.02672426,0.00072426));
#1714=CARTESIAN_POINT('',(0.04927574,-0.02927574,0.00072426));
#1715=CARTESIAN_POINT('',(0.04927574,-0.02927574,0.00072426));
#1716=CARTESIAN_POINT('',(0.04927574,-0.02927574,0.00072426));
#1717=CARTESIAN_POINT('',(0.048,-0.02672426,0.00072426));
#1718=CARTESIAN_POINT('',(0.04927574,-0.02672426,0.00072426));
#1719=CARTESIAN_POINT('',(0.04672426,-0.02672426,0.00072426));
#1720=CARTESIAN_POINT('',(0.04927574,-0.02672426,0.00072426));
#1721=CARTESIAN_POINT('',(0.04927574,-0.02672426,0.00072426));
#1722=CARTESIAN_POINT('',(0.025,-0.02927574,0.00072426));
#1723=CARTESIAN_POINT('',(0.04672426,-0.02927574,0.00072426));
#1724=CARTESIAN_POINT('',(0.04672426,-0.015,0.00072426));
#1725=CARTESIAN_POINT('',(0.04672426,-0.02927574,0.00072426));
#1726=CARTESIAN_POINT('',(0.04927574,-0.02672426,0.0221));
#1727=CARTESIAN_POINT('',(0.04927574,-0.02672426,0.02282426));
#1728=CARTESIAN_POINT('',(0.04672426,-0.02927574,0.00072426));
#1729=CARTESIAN_POINT('',(0.04672426,-0.02927574,0.00072426));
#1730=CARTESIAN_POINT('',(0.04927574,-0.015,0.02282426));
#1731=CARTESIAN_POINT('',(0.04927574,-0.00327574,0.02282426));
#1732=CARTESIAN_POINT('',(0.04672426,-0.02927574,0.026));
#1733=CARTESIAN_POINT('',(0.04672426,-0.02927574,0.02282426));
#1734=CARTESIAN_POINT('',(0.04927574,-0.00327574,0.026));
#1735=CARTESIAN_POINT('',(0.04927574,-0.00327574,0.00072426));
#1736=CARTESIAN_POINT('',(0.04927574,-0.00072426,0.02527574));
#1737=CARTESIAN_POINT('',(0.04927574,-0.00072426,0.02527574));
#1738=CARTESIAN_POINT('',(0.025,-0.02927574,0.02282426));
#1739=CARTESIAN_POINT('',(0.00327574,-0.02927574,0.02282426));
#1740=CARTESIAN_POINT('',(0.04927574,-0.00327574,0.00072426));
#1741=CARTESIAN_POINT('',(0.04927574,-0.00327574,0.00072426));
#1742=CARTESIAN_POINT('',(0.04927574,-0.00327574,0.00072426));
#1743=CARTESIAN_POINT('',(0.04927574,-0.015,0.00072426));
#1744=CARTESIAN_POINT('',(0.04927574,-0.00072426,0.00072426));
#1745=CARTESIAN_POINT('',(0.04927574,-0.00072426,0.026));
#1746=CARTESIAN_POINT('',(0.04927574,-0.00072426,0.00072426));
#1747=CARTESIAN_POINT('',(0.00072426,-0.02927574,0.02527574));
#1748=CARTESIAN_POINT('',(0.00072426,-0.02927574,0.02527574));
#1749=CARTESIAN_POINT('',(0.00327574,-0.02927574,0.0221));
#1750=CARTESIAN_POINT('',(0.00327574,-0.02927574,0.00072426));
#1751=CARTESIAN_POINT('',(0.025,-0.00327574,0.00072426));
#1752=CARTESIAN_POINT('',(0.04672426,-0.00327574,0.00072426));
#1753=CARTESIAN_POINT('',(0.04927574,-0.00072426,0.00072426));
#1754=CARTESIAN_POINT('',(0.04927574,-0.00072426,0.00072426));
#1755=CARTESIAN_POINT('',(0.00072426,-0.02927574,0.026));
#1756=CARTESIAN_POINT('',(0.00072426,-0.02927574,0.00072426));
#1757=CARTESIAN_POINT('',(0.025,-0.02927574,0.00072426));
#1758=CARTESIAN_POINT('',(0.00327574,-0.02927574,0.00072426));
#1759=CARTESIAN_POINT('',(0.00072426,-0.02927574,0.00072426));
#1760=CARTESIAN_POINT('',(0.00327574,-0.02927574,0.00072426));
#1761=CARTESIAN_POINT('',(0.00327574,-0.02927574,0.00072426));
#1762=CARTESIAN_POINT('',(0.04672426,-0.015,0.00072426));
#1763=CARTESIAN_POINT('',(0.04672426,-0.00072426,0.00072426));
#1764=CARTESIAN_POINT('',(0.025,-0.00072426,0.00072426));
#1765=CARTESIAN_POINT('',(0.04672426,-0.00072426,0.00072426));
#1766=CARTESIAN_POINT('',(0.00072426,-0.02927574,0.00072426));
#1767=CARTESIAN_POINT('',(0.00072426,-0.02927574,0.00072426));
#1768=CARTESIAN_POINT('',(0.00327574,-0.028,0.00072426));
#1769=CARTESIAN_POINT('',(0.00327574,-0.02672426,0.00072426));
#1770=CARTESIAN_POINT('',(0.04672426,-0.00072426,0.00072426));
#1771=CARTESIAN_POINT('',(0.04672426,-0.00072426,0.00072426));
#1772=CARTESIAN_POINT('',(0.00072426,-0.015,0.00072426));
#1773=CARTESIAN_POINT('',(0.00072426,-0.02672426,0.00072426));
#1774=CARTESIAN_POINT('',(0.002,-0.02672426,0.00072426));
#1775=CARTESIAN_POINT('',(0.00072426,-0.02672426,0.00072426));
#1776=CARTESIAN_POINT('',(0.04672426,-0.00072426,0.0221));
#1777=CARTESIAN_POINT('',(0.04672426,-0.00072426,0.02282426));
#1778=CARTESIAN_POINT('',(0.00072426,-0.00072426,0.02527574));
#1779=CARTESIAN_POINT('',(0.00072426,-0.00072426,0.02527574));
#1780=CARTESIAN_POINT('',(0.00072426,-0.02672426,0.00072426));
#1781=CARTESIAN_POINT('',(0.00072426,-0.02672426,0.00072426));
#1782=CARTESIAN_POINT('',(0.025,-0.00072426,0.02282426));
#1783=CARTESIAN_POINT('',(0.00327574,-0.00072426,0.02282426));
#1784=CARTESIAN_POINT('',(0.00072426,-0.00072426,0.026));
#1785=CARTESIAN_POINT('',(0.00072426,-0.00072426,0.00072426));
#1786=CARTESIAN_POINT('',(0.00072426,-0.02672426,0.026));
#1787=CARTESIAN_POINT('',(0.00072426,-0.02672426,0.02282426));
#1788=CARTESIAN_POINT('',(0.00327574,-0.00072426,0.026));
#1789=CARTESIAN_POINT('',(0.00327574,-0.00072426,0.00072426));
#1790=CARTESIAN_POINT('',(0.025,-0.00072426,0.00072426));
#1791=CARTESIAN_POINT('',(0.00072426,-0.00072426,0.00072426));
#1792=CARTESIAN_POINT('',(0.00327574,-0.00072426,0.00072426));
#1793=CARTESIAN_POINT('',(0.00072426,-0.00072426,0.00072426));
#1794=CARTESIAN_POINT('',(0.00072426,-0.00072426,0.00072426));
#1795=CARTESIAN_POINT('',(0.00072426,-0.015,0.02282426));
#1796=CARTESIAN_POINT('',(0.00072426,-0.00327574,0.02282426));
#1797=CARTESIAN_POINT('',(0.00327574,-0.00072426,0.00072426));
#1798=CARTESIAN_POINT('',(0.00327574,-0.00072426,0.00072426));
#1799=CARTESIAN_POINT('',(0.00072426,-0.015,0.00072426));
#1800=CARTESIAN_POINT('',(0.00072426,-0.00327574,0.00072426));
#1801=CARTESIAN_POINT('',(0.00072426,-0.00327574,0.0221));
#1802=CARTESIAN_POINT('',(0.00072426,-0.00327574,0.00072426));
#1803=CARTESIAN_POINT('',(0.00327574,-0.002,0.00072426));
#1804=CARTESIAN_POINT('',(0.00327574,-0.00327574,0.00072426));
#1805=CARTESIAN_POINT('',(0.00072426,-0.00327574,0.00072426));
#1806=CARTESIAN_POINT('',(0.00072426,-0.00327574,0.00072426));
#1807=CARTESIAN_POINT('',(0.025,-0.00327574,0.00072426));
#1808=MECHANICAL_DESIGN_GEOMETRIC_PRESENTATION_REPRESENTATION('',(#1029),
#1809);
#1809=(
GEOMETRIC_REPRESENTATION_CONTEXT(3)
GLOBAL_UNCERTAINTY_ASSIGNED_CONTEXT((#1810))
GLOBAL_UNIT_ASSIGNED_CONTEXT((#1813,#1812,#1811))
REPRESENTATION_CONTEXT('Desk','TOP_LEVEL_ASSEMBLY_PART')
);
#1810=UNCERTAINTY_MEASURE_WITH_UNIT(LENGTH_MEASURE(1.E-8),#1813,
'DISTANCE_ACCURACY_VALUE','Maximum Tolerance applied to model');
#1811=(
NAMED_UNIT(*)
SI_UNIT($,.STERADIAN.)
SOLID_ANGLE_UNIT()
);
#1812=(
NAMED_UNIT(*)
PLANE_ANGLE_UNIT()
SI_UNIT($,.RADIAN.)
);
#1813=(
LENGTH_UNIT()
NAMED_UNIT(*)
SI_UNIT($,.METRE.)
);
#1814=PRODUCT_DEFINITION_SHAPE('','',#1815);
#1815=PRODUCT_DEFINITION('','',#1817,#1816);
#1816=PRODUCT_DEFINITION_CONTEXT('',#1823,'design');
#1817=PRODUCT_DEFINITION_FORMATION_WITH_SPECIFIED_SOURCE('','',#1819,
 .NOT_KNOWN.);
#1818=PRODUCT_RELATED_PRODUCT_CATEGORY('','',(#1819));
#1819=PRODUCT('Desk','Desk','Desk',(#1821));
#1820=PRODUCT_CATEGORY('','');
#1821=PRODUCT_CONTEXT('',#1823,'mechanical');
#1822=APPLICATION_PROTOCOL_DEFINITION('international standard',
'ap242_managed_model_based_3d_engineering',2020,#1823);
#1823=APPLICATION_CONTEXT('managed model based 3d engineering');
ENDSEC;
END-ISO-10303-21;
