ISO-10303-21;
HEADER;
/* Generated by software containing ST-Developer
 * from STEP Tools, Inc. (www.steptools.com) 
 */
/* OPTION: using custom renumber hook */

FILE_DESCRIPTION(
/* description */ ('STEP AP242 Edition 2',
'CAx-IF Rec.Pracs.---Representation and Presentation of Product Manufa
cturing Information (PMI)---4.0---2014-10-13',
'CAx-IF Rec.Pracs.---3D Tessellated Geometry---0.4---2014-09-14','2;1',
'CAx-IF Rec.Pracs.---User Defined Attributes---1.5---2016-08-15'),
/* implementation_level */ '2;1');

FILE_NAME(
/* name */ 'Assembly 1 - Side Wall',
/* time_stamp */ '2026-09-04T01:58:22Z',
/* author */ (''),
/* organization */ (''),
/* preprocessor_version */ 'ST-DEVELOPER v20',
/* originating_system */ 'ONSHAPE BY PTC INC, 1.220',
/* authorisation */ '  ');

FILE_SCHEMA (('AP242_MANAGED_MODEL_BASED_3D_ENGINEERING_MIM_LF { 1 0 10303 442 3 1 4 }'));
ENDSEC;

DATA;
#10=SHAPE_REPRESENTATION_RELATIONSHIP('','',#685,#11);
#11=ADVANCED_BREP_SHAPE_REPRESENTATION('',(#683),#1073);
#12=CYLINDRICAL_SURFACE('',#698,0.02);
#13=CYLINDRICAL_SURFACE('',#703,0.016);
#14=CIRCLE('',#688,0.016);
#15=CIRCLE('',#690,0.016);
#16=CIRCLE('',#691,0.016);
#17=CIRCLE('',#697,0.02);
#18=CIRCLE('',#699,0.02);
#19=CIRCLE('',#704,0.016);
#20=ORIENTED_EDGE('',*,*,#208,.F.);
#21=ORIENTED_EDGE('',*,*,#209,.T.);
#22=ORIENTED_EDGE('',*,*,#210,.T.);
#23=ORIENTED_EDGE('',*,*,#211,.F.);
#24=ORIENTED_EDGE('',*,*,#212,.F.);
#25=ORIENTED_EDGE('',*,*,#213,.T.);
#26=ORIENTED_EDGE('',*,*,#214,.T.);
#27=ORIENTED_EDGE('',*,*,#215,.F.);
#28=ORIENTED_EDGE('',*,*,#216,.T.);
#29=ORIENTED_EDGE('',*,*,#217,.T.);
#30=ORIENTED_EDGE('',*,*,#218,.T.);
#31=ORIENTED_EDGE('',*,*,#219,.F.);
#32=ORIENTED_EDGE('',*,*,#220,.F.);
#33=ORIENTED_EDGE('',*,*,#221,.T.);
#34=ORIENTED_EDGE('',*,*,#222,.T.);
#35=ORIENTED_EDGE('',*,*,#223,.F.);
#36=ORIENTED_EDGE('',*,*,#224,.F.);
#37=ORIENTED_EDGE('',*,*,#225,.T.);
#38=ORIENTED_EDGE('',*,*,#226,.T.);
#39=ORIENTED_EDGE('',*,*,#227,.F.);
#40=ORIENTED_EDGE('',*,*,#228,.T.);
#41=ORIENTED_EDGE('',*,*,#229,.T.);
#42=ORIENTED_EDGE('',*,*,#230,.T.);
#43=ORIENTED_EDGE('',*,*,#231,.F.);
#44=ORIENTED_EDGE('',*,*,#232,.F.);
#45=ORIENTED_EDGE('',*,*,#233,.T.);
#46=ORIENTED_EDGE('',*,*,#234,.F.);
#47=ORIENTED_EDGE('',*,*,#235,.F.);
#48=ORIENTED_EDGE('',*,*,#236,.T.);
#49=ORIENTED_EDGE('',*,*,#237,.T.);
#50=ORIENTED_EDGE('',*,*,#238,.T.);
#51=ORIENTED_EDGE('',*,*,#239,.T.);
#52=ORIENTED_EDGE('',*,*,#240,.T.);
#53=ORIENTED_EDGE('',*,*,#241,.F.);
#54=ORIENTED_EDGE('',*,*,#242,.F.);
#55=ORIENTED_EDGE('',*,*,#243,.F.);
#56=ORIENTED_EDGE('',*,*,#244,.T.);
#57=ORIENTED_EDGE('',*,*,#245,.T.);
#58=ORIENTED_EDGE('',*,*,#246,.F.);
#59=ORIENTED_EDGE('',*,*,#247,.T.);
#60=ORIENTED_EDGE('',*,*,#248,.T.);
#61=ORIENTED_EDGE('',*,*,#249,.T.);
#62=ORIENTED_EDGE('',*,*,#250,.F.);
#63=ORIENTED_EDGE('',*,*,#251,.T.);
#64=ORIENTED_EDGE('',*,*,#252,.F.);
#65=ORIENTED_EDGE('',*,*,#253,.F.);
#66=ORIENTED_EDGE('',*,*,#239,.F.);
#67=ORIENTED_EDGE('',*,*,#254,.F.);
#68=ORIENTED_EDGE('',*,*,#255,.T.);
#69=ORIENTED_EDGE('',*,*,#256,.T.);
#70=ORIENTED_EDGE('',*,*,#242,.T.);
#71=ORIENTED_EDGE('',*,*,#257,.F.);
#72=ORIENTED_EDGE('',*,*,#258,.F.);
#73=ORIENTED_EDGE('',*,*,#254,.T.);
#74=ORIENTED_EDGE('',*,*,#241,.T.);
#75=ORIENTED_EDGE('',*,*,#259,.F.);
#76=ORIENTED_EDGE('',*,*,#260,.F.);
#77=ORIENTED_EDGE('',*,*,#257,.T.);
#78=ORIENTED_EDGE('',*,*,#240,.F.);
#79=ORIENTED_EDGE('',*,*,#256,.F.);
#80=ORIENTED_EDGE('',*,*,#261,.T.);
#81=ORIENTED_EDGE('',*,*,#259,.T.);
#82=ORIENTED_EDGE('',*,*,#262,.F.);
#83=ORIENTED_EDGE('',*,*,#263,.T.);
#84=ORIENTED_EDGE('',*,*,#264,.F.);
#85=ORIENTED_EDGE('',*,*,#265,.F.);
#86=ORIENTED_EDGE('',*,*,#255,.F.);
#87=ORIENTED_EDGE('',*,*,#258,.T.);
#88=ORIENTED_EDGE('',*,*,#260,.T.);
#89=ORIENTED_EDGE('',*,*,#261,.F.);
#90=ORIENTED_EDGE('',*,*,#262,.T.);
#91=ORIENTED_EDGE('',*,*,#266,.F.);
#92=ORIENTED_EDGE('',*,*,#267,.F.);
#93=ORIENTED_EDGE('',*,*,#268,.T.);
#94=ORIENTED_EDGE('',*,*,#265,.T.);
#95=ORIENTED_EDGE('',*,*,#269,.F.);
#96=ORIENTED_EDGE('',*,*,#270,.F.);
#97=ORIENTED_EDGE('',*,*,#266,.T.);
#98=ORIENTED_EDGE('',*,*,#264,.T.);
#99=ORIENTED_EDGE('',*,*,#271,.F.);
#100=ORIENTED_EDGE('',*,*,#272,.F.);
#101=ORIENTED_EDGE('',*,*,#269,.T.);
#102=ORIENTED_EDGE('',*,*,#209,.F.);
#103=ORIENTED_EDGE('',*,*,#273,.F.);
#104=ORIENTED_EDGE('',*,*,#274,.T.);
#105=ORIENTED_EDGE('',*,*,#275,.T.);
#106=ORIENTED_EDGE('',*,*,#236,.F.);
#107=ORIENTED_EDGE('',*,*,#276,.T.);
#108=ORIENTED_EDGE('',*,*,#213,.F.);
#109=ORIENTED_EDGE('',*,*,#277,.F.);
#110=ORIENTED_EDGE('',*,*,#247,.F.);
#111=ORIENTED_EDGE('',*,*,#278,.T.);
#112=ORIENTED_EDGE('',*,*,#226,.F.);
#113=ORIENTED_EDGE('',*,*,#279,.F.);
#114=ORIENTED_EDGE('',*,*,#245,.F.);
#115=ORIENTED_EDGE('',*,*,#280,.T.);
#116=ORIENTED_EDGE('',*,*,#281,.F.);
#117=ORIENTED_EDGE('',*,*,#282,.T.);
#118=ORIENTED_EDGE('',*,*,#273,.T.);
#119=ORIENTED_EDGE('',*,*,#283,.F.);
#120=ORIENTED_EDGE('',*,*,#229,.F.);
#121=ORIENTED_EDGE('',*,*,#284,.T.);
#122=ORIENTED_EDGE('',*,*,#223,.T.);
#123=ORIENTED_EDGE('',*,*,#285,.F.);
#124=ORIENTED_EDGE('',*,*,#252,.T.);
#125=ORIENTED_EDGE('',*,*,#286,.T.);
#126=ORIENTED_EDGE('',*,*,#219,.T.);
#127=ORIENTED_EDGE('',*,*,#287,.F.);
#128=ORIENTED_EDGE('',*,*,#234,.T.);
#129=ORIENTED_EDGE('',*,*,#288,.F.);
#130=ORIENTED_EDGE('',*,*,#289,.F.);
#131=ORIENTED_EDGE('',*,*,#281,.T.);
#132=ORIENTED_EDGE('',*,*,#216,.F.);
#133=ORIENTED_EDGE('',*,*,#290,.F.);
#134=ORIENTED_EDGE('',*,*,#237,.F.);
#135=ORIENTED_EDGE('',*,*,#275,.F.);
#136=ORIENTED_EDGE('',*,*,#291,.T.);
#137=ORIENTED_EDGE('',*,*,#288,.T.);
#138=ORIENTED_EDGE('',*,*,#233,.F.);
#139=ORIENTED_EDGE('',*,*,#292,.T.);
#140=ORIENTED_EDGE('',*,*,#263,.F.);
#141=ORIENTED_EDGE('',*,*,#268,.F.);
#142=ORIENTED_EDGE('',*,*,#293,.T.);
#143=ORIENTED_EDGE('',*,*,#271,.T.);
#144=ORIENTED_EDGE('',*,*,#274,.F.);
#145=ORIENTED_EDGE('',*,*,#282,.F.);
#146=ORIENTED_EDGE('',*,*,#289,.T.);
#147=ORIENTED_EDGE('',*,*,#291,.F.);
#148=ORIENTED_EDGE('',*,*,#267,.T.);
#149=ORIENTED_EDGE('',*,*,#270,.T.);
#150=ORIENTED_EDGE('',*,*,#272,.T.);
#151=ORIENTED_EDGE('',*,*,#293,.F.);
#152=ORIENTED_EDGE('',*,*,#235,.T.);
#153=ORIENTED_EDGE('',*,*,#294,.T.);
#154=ORIENTED_EDGE('',*,*,#214,.F.);
#155=ORIENTED_EDGE('',*,*,#276,.F.);
#156=ORIENTED_EDGE('',*,*,#290,.T.);
#157=ORIENTED_EDGE('',*,*,#215,.T.);
#158=ORIENTED_EDGE('',*,*,#294,.F.);
#159=ORIENTED_EDGE('',*,*,#238,.F.);
#160=ORIENTED_EDGE('',*,*,#243,.T.);
#161=ORIENTED_EDGE('',*,*,#279,.T.);
#162=ORIENTED_EDGE('',*,*,#225,.F.);
#163=ORIENTED_EDGE('',*,*,#295,.F.);
#164=ORIENTED_EDGE('',*,*,#295,.T.);
#165=ORIENTED_EDGE('',*,*,#224,.T.);
#166=ORIENTED_EDGE('',*,*,#280,.F.);
#167=ORIENTED_EDGE('',*,*,#244,.F.);
#168=ORIENTED_EDGE('',*,*,#231,.T.);
#169=ORIENTED_EDGE('',*,*,#287,.T.);
#170=ORIENTED_EDGE('',*,*,#218,.F.);
#171=ORIENTED_EDGE('',*,*,#296,.F.);
#172=ORIENTED_EDGE('',*,*,#232,.T.);
#173=ORIENTED_EDGE('',*,*,#296,.T.);
#174=ORIENTED_EDGE('',*,*,#217,.F.);
#175=ORIENTED_EDGE('',*,*,#292,.F.);
#176=ORIENTED_EDGE('',*,*,#277,.T.);
#177=ORIENTED_EDGE('',*,*,#212,.T.);
#178=ORIENTED_EDGE('',*,*,#297,.F.);
#179=ORIENTED_EDGE('',*,*,#248,.F.);
#180=ORIENTED_EDGE('',*,*,#297,.T.);
#181=ORIENTED_EDGE('',*,*,#211,.T.);
#182=ORIENTED_EDGE('',*,*,#298,.F.);
#183=ORIENTED_EDGE('',*,*,#249,.F.);
#184=ORIENTED_EDGE('',*,*,#246,.T.);
#185=ORIENTED_EDGE('',*,*,#298,.T.);
#186=ORIENTED_EDGE('',*,*,#210,.F.);
#187=ORIENTED_EDGE('',*,*,#278,.F.);
#188=ORIENTED_EDGE('',*,*,#250,.T.);
#189=ORIENTED_EDGE('',*,*,#299,.T.);
#190=ORIENTED_EDGE('',*,*,#221,.F.);
#191=ORIENTED_EDGE('',*,*,#300,.F.);
#192=ORIENTED_EDGE('',*,*,#300,.T.);
#193=ORIENTED_EDGE('',*,*,#220,.T.);
#194=ORIENTED_EDGE('',*,*,#286,.F.);
#195=ORIENTED_EDGE('',*,*,#251,.F.);
#196=ORIENTED_EDGE('',*,*,#253,.T.);
#197=ORIENTED_EDGE('',*,*,#285,.T.);
#198=ORIENTED_EDGE('',*,*,#222,.F.);
#199=ORIENTED_EDGE('',*,*,#299,.F.);
#200=ORIENTED_EDGE('',*,*,#283,.T.);
#201=ORIENTED_EDGE('',*,*,#208,.T.);
#202=ORIENTED_EDGE('',*,*,#301,.F.);
#203=ORIENTED_EDGE('',*,*,#230,.F.);
#204=ORIENTED_EDGE('',*,*,#301,.T.);
#205=ORIENTED_EDGE('',*,*,#227,.T.);
#206=ORIENTED_EDGE('',*,*,#284,.F.);
#207=ORIENTED_EDGE('',*,*,#228,.F.);
#208=EDGE_CURVE('',#302,#303,#364,.T.);
#209=EDGE_CURVE('',#302,#304,#365,.T.);
#210=EDGE_CURVE('',#304,#305,#366,.T.);
#211=EDGE_CURVE('',#306,#305,#367,.T.);
#212=EDGE_CURVE('',#307,#306,#368,.T.);
#213=EDGE_CURVE('',#307,#308,#369,.T.);
#214=EDGE_CURVE('',#308,#309,#370,.T.);
#215=EDGE_CURVE('',#310,#309,#371,.T.);
#216=EDGE_CURVE('',#310,#311,#372,.T.);
#217=EDGE_CURVE('',#311,#312,#373,.T.);
#218=EDGE_CURVE('',#312,#313,#374,.T.);
#219=EDGE_CURVE('',#314,#313,#375,.T.);
#220=EDGE_CURVE('',#315,#314,#376,.T.);
#221=EDGE_CURVE('',#315,#316,#377,.T.);
#222=EDGE_CURVE('',#316,#317,#378,.T.);
#223=EDGE_CURVE('',#318,#317,#379,.T.);
#224=EDGE_CURVE('',#319,#318,#380,.T.);
#225=EDGE_CURVE('',#319,#320,#381,.T.);
#226=EDGE_CURVE('',#320,#321,#14,.T.);
#227=EDGE_CURVE('',#303,#321,#382,.T.);
#228=EDGE_CURVE('',#322,#323,#383,.T.);
#229=EDGE_CURVE('',#323,#324,#15,.T.);
#230=EDGE_CURVE('',#324,#322,#384,.T.);
#231=EDGE_CURVE('',#325,#326,#385,.T.);
#232=EDGE_CURVE('',#327,#325,#386,.T.);
#233=EDGE_CURVE('',#327,#328,#387,.T.);
#234=EDGE_CURVE('',#326,#328,#388,.T.);
#235=EDGE_CURVE('',#329,#330,#389,.T.);
#236=EDGE_CURVE('',#329,#331,#390,.T.);
#237=EDGE_CURVE('',#331,#332,#391,.T.);
#238=EDGE_CURVE('',#332,#330,#392,.T.);
#239=EDGE_CURVE('',#333,#334,#393,.T.);
#240=EDGE_CURVE('',#334,#335,#394,.T.);
#241=EDGE_CURVE('',#336,#335,#395,.T.);
#242=EDGE_CURVE('',#333,#336,#396,.T.);
#243=EDGE_CURVE('',#337,#338,#397,.T.);
#244=EDGE_CURVE('',#337,#339,#398,.T.);
#245=EDGE_CURVE('',#339,#338,#16,.T.);
#246=EDGE_CURVE('',#340,#341,#399,.T.);
#247=EDGE_CURVE('',#340,#342,#400,.T.);
#248=EDGE_CURVE('',#342,#343,#401,.T.);
#249=EDGE_CURVE('',#343,#341,#402,.T.);
#250=EDGE_CURVE('',#344,#345,#403,.T.);
#251=EDGE_CURVE('',#344,#346,#404,.T.);
#252=EDGE_CURVE('',#347,#346,#405,.T.);
#253=EDGE_CURVE('',#345,#347,#406,.T.);
#254=EDGE_CURVE('',#348,#333,#407,.T.);
#255=EDGE_CURVE('',#348,#349,#408,.T.);
#256=EDGE_CURVE('',#349,#334,#409,.T.);
#257=EDGE_CURVE('',#350,#336,#410,.T.);
#258=EDGE_CURVE('',#348,#350,#411,.T.);
#259=EDGE_CURVE('',#351,#335,#412,.T.);
#260=EDGE_CURVE('',#350,#351,#413,.T.);
#261=EDGE_CURVE('',#349,#351,#414,.T.);
#262=EDGE_CURVE('',#352,#353,#17,.T.);
#263=EDGE_CURVE('',#352,#354,#415,.T.);
#264=EDGE_CURVE('',#355,#354,#416,.T.);
#265=EDGE_CURVE('',#353,#355,#417,.T.);
#266=EDGE_CURVE('',#356,#353,#418,.T.);
#267=EDGE_CURVE('',#357,#356,#18,.T.);
#268=EDGE_CURVE('',#357,#352,#419,.T.);
#269=EDGE_CURVE('',#358,#355,#420,.T.);
#270=EDGE_CURVE('',#356,#358,#421,.T.);
#271=EDGE_CURVE('',#359,#354,#422,.T.);
#272=EDGE_CURVE('',#358,#359,#423,.T.);
#273=EDGE_CURVE('',#360,#302,#424,.T.);
#274=EDGE_CURVE('',#360,#361,#425,.T.);
#275=EDGE_CURVE('',#361,#331,#426,.T.);
#276=EDGE_CURVE('',#329,#308,#427,.T.);
#277=EDGE_CURVE('',#342,#307,#428,.T.);
#278=EDGE_CURVE('',#340,#304,#429,.T.);
#279=EDGE_CURVE('',#338,#320,#430,.T.);
#280=EDGE_CURVE('',#339,#318,#431,.T.);
#281=EDGE_CURVE('',#362,#318,#432,.T.);
#282=EDGE_CURVE('',#362,#360,#19,.T.);
#283=EDGE_CURVE('',#324,#302,#433,.T.);
#284=EDGE_CURVE('',#323,#321,#434,.T.);
#285=EDGE_CURVE('',#347,#317,#435,.T.);
#286=EDGE_CURVE('',#346,#314,#436,.T.);
#287=EDGE_CURVE('',#326,#313,#437,.T.);
#288=EDGE_CURVE('',#363,#328,#438,.T.);
#289=EDGE_CURVE('',#362,#363,#439,.T.);
#290=EDGE_CURVE('',#332,#310,#440,.T.);
#291=EDGE_CURVE('',#361,#363,#441,.T.);
#292=EDGE_CURVE('',#327,#311,#442,.T.);
#293=EDGE_CURVE('',#357,#359,#443,.T.);
#294=EDGE_CURVE('',#330,#309,#444,.T.);
#295=EDGE_CURVE('',#337,#319,#445,.T.);
#296=EDGE_CURVE('',#325,#312,#446,.T.);
#297=EDGE_CURVE('',#343,#306,#447,.T.);
#298=EDGE_CURVE('',#341,#305,#448,.T.);
#299=EDGE_CURVE('',#345,#316,#449,.T.);
#300=EDGE_CURVE('',#344,#315,#450,.T.);
#301=EDGE_CURVE('',#322,#303,#451,.T.);
#302=VERTEX_POINT('',#888);
#303=VERTEX_POINT('',#889);
#304=VERTEX_POINT('',#891);
#305=VERTEX_POINT('',#893);
#306=VERTEX_POINT('',#895);
#307=VERTEX_POINT('',#897);
#308=VERTEX_POINT('',#899);
#309=VERTEX_POINT('',#901);
#310=VERTEX_POINT('',#903);
#311=VERTEX_POINT('',#905);
#312=VERTEX_POINT('',#907);
#313=VERTEX_POINT('',#909);
#314=VERTEX_POINT('',#911);
#315=VERTEX_POINT('',#913);
#316=VERTEX_POINT('',#915);
#317=VERTEX_POINT('',#917);
#318=VERTEX_POINT('',#919);
#319=VERTEX_POINT('',#921);
#320=VERTEX_POINT('',#923);
#321=VERTEX_POINT('',#925);
#322=VERTEX_POINT('',#929);
#323=VERTEX_POINT('',#930);
#324=VERTEX_POINT('',#932);
#325=VERTEX_POINT('',#935);
#326=VERTEX_POINT('',#936);
#327=VERTEX_POINT('',#938);
#328=VERTEX_POINT('',#940);
#329=VERTEX_POINT('',#943);
#330=VERTEX_POINT('',#944);
#331=VERTEX_POINT('',#946);
#332=VERTEX_POINT('',#948);
#333=VERTEX_POINT('',#951);
#334=VERTEX_POINT('',#952);
#335=VERTEX_POINT('',#954);
#336=VERTEX_POINT('',#956);
#337=VERTEX_POINT('',#959);
#338=VERTEX_POINT('',#960);
#339=VERTEX_POINT('',#962);
#340=VERTEX_POINT('',#965);
#341=VERTEX_POINT('',#966);
#342=VERTEX_POINT('',#968);
#343=VERTEX_POINT('',#970);
#344=VERTEX_POINT('',#973);
#345=VERTEX_POINT('',#974);
#346=VERTEX_POINT('',#976);
#347=VERTEX_POINT('',#978);
#348=VERTEX_POINT('',#982);
#349=VERTEX_POINT('',#984);
#350=VERTEX_POINT('',#988);
#351=VERTEX_POINT('',#992);
#352=VERTEX_POINT('',#998);
#353=VERTEX_POINT('',#999);
#354=VERTEX_POINT('',#1001);
#355=VERTEX_POINT('',#1003);
#356=VERTEX_POINT('',#1007);
#357=VERTEX_POINT('',#1009);
#358=VERTEX_POINT('',#1013);
#359=VERTEX_POINT('',#1017);
#360=VERTEX_POINT('',#1021);
#361=VERTEX_POINT('',#1023);
#362=VERTEX_POINT('',#1032);
#363=VERTEX_POINT('',#1041);
#364=LINE('',#887,#452);
#365=LINE('',#890,#453);
#366=LINE('',#892,#454);
#367=LINE('',#894,#455);
#368=LINE('',#896,#456);
#369=LINE('',#898,#457);
#370=LINE('',#900,#458);
#371=LINE('',#902,#459);
#372=LINE('',#904,#460);
#373=LINE('',#906,#461);
#374=LINE('',#908,#462);
#375=LINE('',#910,#463);
#376=LINE('',#912,#464);
#377=LINE('',#914,#465);
#378=LINE('',#916,#466);
#379=LINE('',#918,#467);
#380=LINE('',#920,#468);
#381=LINE('',#922,#469);
#382=LINE('',#926,#470);
#383=LINE('',#928,#471);
#384=LINE('',#933,#472);
#385=LINE('',#934,#473);
#386=LINE('',#937,#474);
#387=LINE('',#939,#475);
#388=LINE('',#941,#476);
#389=LINE('',#942,#477);
#390=LINE('',#945,#478);
#391=LINE('',#947,#479);
#392=LINE('',#949,#480);
#393=LINE('',#950,#481);
#394=LINE('',#953,#482);
#395=LINE('',#955,#483);
#396=LINE('',#957,#484);
#397=LINE('',#958,#485);
#398=LINE('',#961,#486);
#399=LINE('',#964,#487);
#400=LINE('',#967,#488);
#401=LINE('',#969,#489);
#402=LINE('',#971,#490);
#403=LINE('',#972,#491);
#404=LINE('',#975,#492);
#405=LINE('',#977,#493);
#406=LINE('',#979,#494);
#407=LINE('',#981,#495);
#408=LINE('',#983,#496);
#409=LINE('',#985,#497);
#410=LINE('',#987,#498);
#411=LINE('',#989,#499);
#412=LINE('',#991,#500);
#413=LINE('',#993,#501);
#414=LINE('',#995,#502);
#415=LINE('',#1000,#503);
#416=LINE('',#1002,#504);
#417=LINE('',#1004,#505);
#418=LINE('',#1006,#506);
#419=LINE('',#1010,#507);
#420=LINE('',#1012,#508);
#421=LINE('',#1014,#509);
#422=LINE('',#1016,#510);
#423=LINE('',#1018,#511);
#424=LINE('',#1020,#512);
#425=LINE('',#1022,#513);
#426=LINE('',#1024,#514);
#427=LINE('',#1025,#515);
#428=LINE('',#1026,#516);
#429=LINE('',#1027,#517);
#430=LINE('',#1029,#518);
#431=LINE('',#1030,#519);
#432=LINE('',#1031,#520);
#433=LINE('',#1034,#521);
#434=LINE('',#1035,#522);
#435=LINE('',#1037,#523);
#436=LINE('',#1038,#524);
#437=LINE('',#1039,#525);
#438=LINE('',#1040,#526);
#439=LINE('',#1042,#527);
#440=LINE('',#1044,#528);
#441=LINE('',#1045,#529);
#442=LINE('',#1046,#530);
#443=LINE('',#1048,#531);
#444=LINE('',#1051,#532);
#445=LINE('',#1054,#533);
#446=LINE('',#1057,#534);
#447=LINE('',#1060,#535);
#448=LINE('',#1062,#536);
#449=LINE('',#1065,#537);
#450=LINE('',#1066,#538);
#451=LINE('',#1070,#539);
#452=VECTOR('',#727,1.);
#453=VECTOR('',#728,1.);
#454=VECTOR('',#729,1.);
#455=VECTOR('',#730,1.);
#456=VECTOR('',#731,1.);
#457=VECTOR('',#732,1.);
#458=VECTOR('',#733,1.);
#459=VECTOR('',#734,1.);
#460=VECTOR('',#735,1.);
#461=VECTOR('',#736,1.);
#462=VECTOR('',#737,1.);
#463=VECTOR('',#738,1.);
#464=VECTOR('',#739,1.);
#465=VECTOR('',#740,1.);
#466=VECTOR('',#741,1.);
#467=VECTOR('',#742,1.);
#468=VECTOR('',#743,1.);
#469=VECTOR('',#744,1.);
#470=VECTOR('',#747,1.);
#471=VECTOR('',#750,1.);
#472=VECTOR('',#753,1.);
#473=VECTOR('',#754,1.);
#474=VECTOR('',#755,1.);
#475=VECTOR('',#756,1.);
#476=VECTOR('',#757,1.);
#477=VECTOR('',#758,1.);
#478=VECTOR('',#759,1.);
#479=VECTOR('',#760,1.);
#480=VECTOR('',#761,1.);
#481=VECTOR('',#762,1.);
#482=VECTOR('',#763,1.);
#483=VECTOR('',#764,1.);
#484=VECTOR('',#765,1.);
#485=VECTOR('',#766,1.);
#486=VECTOR('',#767,1.);
#487=VECTOR('',#770,1.);
#488=VECTOR('',#771,1.);
#489=VECTOR('',#772,1.);
#490=VECTOR('',#773,1.);
#491=VECTOR('',#774,1.);
#492=VECTOR('',#775,1.);
#493=VECTOR('',#776,1.);
#494=VECTOR('',#777,1.);
#495=VECTOR('',#780,1.);
#496=VECTOR('',#781,1.);
#497=VECTOR('',#782,1.);
#498=VECTOR('',#785,1.);
#499=VECTOR('',#786,1.);
#500=VECTOR('',#789,1.);
#501=VECTOR('',#790,1.);
#502=VECTOR('',#793,1.);
#503=VECTOR('',#798,1.);
#504=VECTOR('',#799,1.);
#505=VECTOR('',#800,1.);
#506=VECTOR('',#803,1.);
#507=VECTOR('',#806,1.);
#508=VECTOR('',#809,1.);
#509=VECTOR('',#810,1.);
#510=VECTOR('',#813,1.);
#511=VECTOR('',#814,1.);
#512=VECTOR('',#817,1.);
#513=VECTOR('',#818,1.);
#514=VECTOR('',#819,1.);
#515=VECTOR('',#820,1.);
#516=VECTOR('',#821,1.);
#517=VECTOR('',#822,1.);
#518=VECTOR('',#825,1.);
#519=VECTOR('',#826,1.);
#520=VECTOR('',#827,1.);
#521=VECTOR('',#830,1.);
#522=VECTOR('',#831,1.);
#523=VECTOR('',#834,1.);
#524=VECTOR('',#835,1.);
#525=VECTOR('',#836,1.);
#526=VECTOR('',#837,1.);
#527=VECTOR('',#838,1.);
#528=VECTOR('',#841,1.);
#529=VECTOR('',#842,1.);
#530=VECTOR('',#843,1.);
#531=VECTOR('',#846,1.);
#532=VECTOR('',#851,1.);
#533=VECTOR('',#856,1.);
#534=VECTOR('',#861,1.);
#535=VECTOR('',#866,1.);
#536=VECTOR('',#869,1.);
#537=VECTOR('',#874,1.);
#538=VECTOR('',#875,1.);
#539=VECTOR('',#882,1.);
#540=EDGE_LOOP('',(#20,#21,#22,#23,#24,#25,#26,#27,#28,#29,#30,#31,#32,
#33,#34,#35,#36,#37,#38,#39));
#541=EDGE_LOOP('',(#40,#41,#42));
#542=EDGE_LOOP('',(#43,#44,#45,#46));
#543=EDGE_LOOP('',(#47,#48,#49,#50));
#544=EDGE_LOOP('',(#51,#52,#53,#54));
#545=EDGE_LOOP('',(#55,#56,#57));
#546=EDGE_LOOP('',(#58,#59,#60,#61));
#547=EDGE_LOOP('',(#62,#63,#64,#65));
#548=EDGE_LOOP('',(#66,#67,#68,#69));
#549=EDGE_LOOP('',(#70,#71,#72,#73));
#550=EDGE_LOOP('',(#74,#75,#76,#77));
#551=EDGE_LOOP('',(#78,#79,#80,#81));
#552=EDGE_LOOP('',(#82,#83,#84,#85));
#553=EDGE_LOOP('',(#86,#87,#88,#89));
#554=EDGE_LOOP('',(#90,#91,#92,#93));
#555=EDGE_LOOP('',(#94,#95,#96,#97));
#556=EDGE_LOOP('',(#98,#99,#100,#101));
#557=EDGE_LOOP('',(#102,#103,#104,#105,#106,#107,#108,#109,#110,#111));
#558=EDGE_LOOP('',(#112,#113,#114,#115,#116,#117,#118,#119,#120,#121));
#559=EDGE_LOOP('',(#122,#123,#124,#125,#126,#127,#128,#129,#130,#131));
#560=EDGE_LOOP('',(#132,#133,#134,#135,#136,#137,#138,#139));
#561=EDGE_LOOP('',(#140,#141,#142,#143));
#562=EDGE_LOOP('',(#144,#145,#146,#147));
#563=EDGE_LOOP('',(#148,#149,#150,#151));
#564=EDGE_LOOP('',(#152,#153,#154,#155));
#565=EDGE_LOOP('',(#156,#157,#158,#159));
#566=EDGE_LOOP('',(#160,#161,#162,#163));
#567=EDGE_LOOP('',(#164,#165,#166,#167));
#568=EDGE_LOOP('',(#168,#169,#170,#171));
#569=EDGE_LOOP('',(#172,#173,#174,#175));
#570=EDGE_LOOP('',(#176,#177,#178,#179));
#571=EDGE_LOOP('',(#180,#181,#182,#183));
#572=EDGE_LOOP('',(#184,#185,#186,#187));
#573=EDGE_LOOP('',(#188,#189,#190,#191));
#574=EDGE_LOOP('',(#192,#193,#194,#195));
#575=EDGE_LOOP('',(#196,#197,#198,#199));
#576=EDGE_LOOP('',(#200,#201,#202,#203));
#577=EDGE_LOOP('',(#204,#205,#206,#207));
#578=FACE_BOUND('',#540,.T.);
#579=FACE_BOUND('',#541,.T.);
#580=FACE_BOUND('',#542,.T.);
#581=FACE_BOUND('',#543,.T.);
#582=FACE_BOUND('',#544,.T.);
#583=FACE_BOUND('',#545,.T.);
#584=FACE_BOUND('',#546,.T.);
#585=FACE_BOUND('',#547,.T.);
#586=FACE_BOUND('',#548,.T.);
#587=FACE_BOUND('',#549,.T.);
#588=FACE_BOUND('',#550,.T.);
#589=FACE_BOUND('',#551,.T.);
#590=FACE_BOUND('',#552,.T.);
#591=FACE_BOUND('',#553,.T.);
#592=FACE_BOUND('',#554,.T.);
#593=FACE_BOUND('',#555,.T.);
#594=FACE_BOUND('',#556,.T.);
#595=FACE_BOUND('',#557,.T.);
#596=FACE_BOUND('',#558,.T.);
#597=FACE_BOUND('',#559,.T.);
#598=FACE_BOUND('',#560,.T.);
#599=FACE_BOUND('',#561,.T.);
#600=FACE_BOUND('',#562,.T.);
#601=FACE_BOUND('',#563,.T.);
#602=FACE_BOUND('',#564,.T.);
#603=FACE_BOUND('',#565,.T.);
#604=FACE_BOUND('',#566,.T.);
#605=FACE_BOUND('',#567,.T.);
#606=FACE_BOUND('',#568,.T.);
#607=FACE_BOUND('',#569,.T.);
#608=FACE_BOUND('',#570,.T.);
#609=FACE_BOUND('',#571,.T.);
#610=FACE_BOUND('',#572,.T.);
#611=FACE_BOUND('',#573,.T.);
#612=FACE_BOUND('',#574,.T.);
#613=FACE_BOUND('',#575,.T.);
#614=FACE_BOUND('',#576,.T.);
#615=FACE_BOUND('',#577,.T.);
#616=PLANE('',#687);
#617=PLANE('',#689);
#618=PLANE('',#692);
#619=PLANE('',#693);
#620=PLANE('',#694);
#621=PLANE('',#695);
#622=PLANE('',#696);
#623=PLANE('',#700);
#624=PLANE('',#701);
#625=PLANE('',#702);
#626=PLANE('',#705);
#627=PLANE('',#706);
#628=PLANE('',#707);
#629=PLANE('',#708);
#630=PLANE('',#709);
#631=PLANE('',#710);
#632=PLANE('',#711);
#633=PLANE('',#712);
#634=PLANE('',#713);
#635=PLANE('',#714);
#636=PLANE('',#715);
#637=PLANE('',#716);
#638=PLANE('',#717);
#639=PLANE('',#718);
#640=PLANE('',#719);
#641=PLANE('',#720);
#642=PLANE('',#721);
#643=PLANE('',#722);
#644=ADVANCED_FACE('',(#578),#616,.T.);
#645=ADVANCED_FACE('',(#579,#580,#581,#582,#583,#584,#585),#617,.F.);
#646=ADVANCED_FACE('',(#586),#618,.T.);
#647=ADVANCED_FACE('',(#587),#619,.F.);
#648=ADVANCED_FACE('',(#588),#620,.F.);
#649=ADVANCED_FACE('',(#589),#621,.T.);
#650=ADVANCED_FACE('',(#590,#591),#622,.T.);
#651=ADVANCED_FACE('',(#592),#12,.T.);
#652=ADVANCED_FACE('',(#593),#623,.F.);
#653=ADVANCED_FACE('',(#594),#624,.F.);
#654=ADVANCED_FACE('',(#595),#625,.T.);
#655=ADVANCED_FACE('',(#596),#13,.F.);
#656=ADVANCED_FACE('',(#597),#626,.F.);
#657=ADVANCED_FACE('',(#598),#627,.T.);
#658=ADVANCED_FACE('',(#599),#628,.T.);
#659=ADVANCED_FACE('',(#600,#601),#629,.T.);
#660=ADVANCED_FACE('',(#602),#630,.T.);
#661=ADVANCED_FACE('',(#603),#631,.F.);
#662=ADVANCED_FACE('',(#604),#632,.T.);
#663=ADVANCED_FACE('',(#605),#633,.F.);
#664=ADVANCED_FACE('',(#606),#634,.T.);
#665=ADVANCED_FACE('',(#607),#635,.T.);
#666=ADVANCED_FACE('',(#608),#636,.F.);
#667=ADVANCED_FACE('',(#609),#637,.F.);
#668=ADVANCED_FACE('',(#610),#638,.T.);
#669=ADVANCED_FACE('',(#611),#639,.T.);
#670=ADVANCED_FACE('',(#612),#640,.F.);
#671=ADVANCED_FACE('',(#613),#641,.T.);
#672=ADVANCED_FACE('',(#614),#642,.F.);
#673=ADVANCED_FACE('',(#615),#643,.F.);
#674=CLOSED_SHELL('',(#644,#645,#646,#647,#648,#649,#650,#651,#652,#653,
#654,#655,#656,#657,#658,#659,#660,#661,#662,#663,#664,#665,#666,#667,#668,
#669,#670,#671,#672,#673));
#675=STYLED_ITEM('',(#676),#683);
#676=PRESENTATION_STYLE_ASSIGNMENT((#677));
#677=SURFACE_STYLE_USAGE(.BOTH.,#678);
#678=SURFACE_SIDE_STYLE('',(#679));
#679=SURFACE_STYLE_FILL_AREA(#680);
#680=FILL_AREA_STYLE('',(#681));
#681=FILL_AREA_STYLE_COLOUR('',#682);
#682=COLOUR_RGB('',0.796078431372549,0.905882352941176,0.745098039215686);
#683=MANIFOLD_SOLID_BREP('Side Wall',#674);
#684=SHAPE_DEFINITION_REPRESENTATION(#1078,#685);
#685=SHAPE_REPRESENTATION('Side Wall',(#686),#1073);
#686=AXIS2_PLACEMENT_3D('',#885,#723,#724);
#687=AXIS2_PLACEMENT_3D('',#886,#725,#726);
#688=AXIS2_PLACEMENT_3D('',#924,#745,#746);
#689=AXIS2_PLACEMENT_3D('',#927,#748,#749);
#690=AXIS2_PLACEMENT_3D('',#931,#751,#752);
#691=AXIS2_PLACEMENT_3D('',#963,#768,#769);
#692=AXIS2_PLACEMENT_3D('',#980,#778,#779);
#693=AXIS2_PLACEMENT_3D('',#986,#783,#784);
#694=AXIS2_PLACEMENT_3D('',#990,#787,#788);
#695=AXIS2_PLACEMENT_3D('',#994,#791,#792);
#696=AXIS2_PLACEMENT_3D('',#996,#794,#795);
#697=AXIS2_PLACEMENT_3D('',#997,#796,#797);
#698=AXIS2_PLACEMENT_3D('',#1005,#801,#802);
#699=AXIS2_PLACEMENT_3D('',#1008,#804,#805);
#700=AXIS2_PLACEMENT_3D('',#1011,#807,#808);
#701=AXIS2_PLACEMENT_3D('',#1015,#811,#812);
#702=AXIS2_PLACEMENT_3D('',#1019,#815,#816);
#703=AXIS2_PLACEMENT_3D('',#1028,#823,#824);
#704=AXIS2_PLACEMENT_3D('',#1033,#828,#829);
#705=AXIS2_PLACEMENT_3D('',#1036,#832,#833);
#706=AXIS2_PLACEMENT_3D('',#1043,#839,#840);
#707=AXIS2_PLACEMENT_3D('',#1047,#844,#845);
#708=AXIS2_PLACEMENT_3D('',#1049,#847,#848);
#709=AXIS2_PLACEMENT_3D('',#1050,#849,#850);
#710=AXIS2_PLACEMENT_3D('',#1052,#852,#853);
#711=AXIS2_PLACEMENT_3D('',#1053,#854,#855);
#712=AXIS2_PLACEMENT_3D('',#1055,#857,#858);
#713=AXIS2_PLACEMENT_3D('',#1056,#859,#860);
#714=AXIS2_PLACEMENT_3D('',#1058,#862,#863);
#715=AXIS2_PLACEMENT_3D('',#1059,#864,#865);
#716=AXIS2_PLACEMENT_3D('',#1061,#867,#868);
#717=AXIS2_PLACEMENT_3D('',#1063,#870,#871);
#718=AXIS2_PLACEMENT_3D('',#1064,#872,#873);
#719=AXIS2_PLACEMENT_3D('',#1067,#876,#877);
#720=AXIS2_PLACEMENT_3D('',#1068,#878,#879);
#721=AXIS2_PLACEMENT_3D('',#1069,#880,#881);
#722=AXIS2_PLACEMENT_3D('',#1071,#883,#884);
#723=DIRECTION('',(0.,0.,1.));
#724=DIRECTION('',(1.,0.,0.));
#725=DIRECTION('',(0.,0.,1.));
#726=DIRECTION('',(1.,0.,0.));
#727=DIRECTION('',(1.,0.,0.));
#728=DIRECTION('',(0.,-1.,0.));
#729=DIRECTION('',(1.,0.,0.));
#730=DIRECTION('',(0.,1.,0.));
#731=DIRECTION('',(1.,0.,0.));
#732=DIRECTION('',(0.,-1.,0.));
#733=DIRECTION('',(1.,0.,0.));
#734=DIRECTION('',(0.,1.,0.));
#735=DIRECTION('',(1.,0.,0.));
#736=DIRECTION('',(0.,1.,0.));
#737=DIRECTION('',(1.,0.,0.));
#738=DIRECTION('',(0.,-1.,0.));
#739=DIRECTION('',(1.,0.,0.));
#740=DIRECTION('',(0.,1.,0.));
#741=DIRECTION('',(1.,0.,0.));
#742=DIRECTION('',(0.,-1.,0.));
#743=DIRECTION('',(1.,0.,0.));
#744=DIRECTION('',(0.,1.,0.));
#745=DIRECTION('',(0.,0.,1.));
#746=DIRECTION('',(1.,0.,0.));
#747=DIRECTION('',(0.,1.,0.));
#748=DIRECTION('',(0.,0.,1.));
#749=DIRECTION('',(1.,0.,0.));
#750=DIRECTION('',(0.,1.,0.));
#751=DIRECTION('',(0.,0.,1.));
#752=DIRECTION('',(1.,0.,0.));
#753=DIRECTION('',(1.,0.,0.));
#754=DIRECTION('',(1.,0.,0.));
#755=DIRECTION('',(0.,1.,0.));
#756=DIRECTION('',(1.,0.,0.));
#757=DIRECTION('',(0.,-1.,0.));
#758=DIRECTION('',(1.,0.,0.));
#759=DIRECTION('',(0.,-1.,0.));
#760=DIRECTION('',(1.,0.,0.));
#761=DIRECTION('',(0.,1.,0.));
#762=DIRECTION('',(1.,0.,0.));
#763=DIRECTION('',(0.,-1.,0.));
#764=DIRECTION('',(1.,0.,0.));
#765=DIRECTION('',(0.,-1.,0.));
#766=DIRECTION('',(0.,1.,0.));
#767=DIRECTION('',(1.,0.,0.));
#768=DIRECTION('',(0.,0.,1.));
#769=DIRECTION('',(1.,0.,0.));
#770=DIRECTION('',(1.,0.,0.));
#771=DIRECTION('',(0.,-1.,0.));
#772=DIRECTION('',(1.,0.,0.));
#773=DIRECTION('',(0.,1.,0.));
#774=DIRECTION('',(0.,1.,0.));
#775=DIRECTION('',(1.,0.,0.));
#776=DIRECTION('',(0.,-1.,0.));
#777=DIRECTION('',(1.,0.,0.));
#778=DIRECTION('',(0.,1.,0.));
#779=DIRECTION('',(0.,0.,1.));
#780=DIRECTION('',(0.,0.,-1.));
#781=DIRECTION('',(1.,0.,0.));
#782=DIRECTION('',(0.,0.,-1.));
#783=DIRECTION('',(1.,0.,0.));
#784=DIRECTION('',(0.,0.,-1.));
#785=DIRECTION('',(0.,0.,-1.));
#786=DIRECTION('',(0.,-1.,0.));
#787=DIRECTION('',(0.,1.,0.));
#788=DIRECTION('',(0.,0.,1.));
#789=DIRECTION('',(0.,0.,-1.));
#790=DIRECTION('',(1.,0.,0.));
#791=DIRECTION('',(1.,0.,0.));
#792=DIRECTION('',(0.,0.,-1.));
#793=DIRECTION('',(0.,-1.,0.));
#794=DIRECTION('',(0.,0.,1.));
#795=DIRECTION('',(1.,0.,0.));
#796=DIRECTION('',(0.,0.,1.));
#797=DIRECTION('',(1.,0.,0.));
#798=DIRECTION('',(0.,-1.,0.));
#799=DIRECTION('',(1.,0.,0.));
#800=DIRECTION('',(0.,-1.,0.));
#801=DIRECTION('',(0.,0.,-1.));
#802=DIRECTION('',(-1.,0.,0.));
#803=DIRECTION('',(0.,0.,-1.));
#804=DIRECTION('',(0.,0.,1.));
#805=DIRECTION('',(1.,0.,0.));
#806=DIRECTION('',(0.,0.,-1.));
#807=DIRECTION('',(1.,0.,0.));
#808=DIRECTION('',(0.,0.,-1.));
#809=DIRECTION('',(0.,0.,-1.));
#810=DIRECTION('',(0.,-1.,0.));
#811=DIRECTION('',(0.,1.,0.));
#812=DIRECTION('',(0.,0.,1.));
#813=DIRECTION('',(0.,0.,-1.));
#814=DIRECTION('',(1.,0.,0.));
#815=DIRECTION('',(1.,0.,0.));
#816=DIRECTION('',(0.,0.,-1.));
#817=DIRECTION('',(0.,0.,-1.));
#818=DIRECTION('',(0.,-1.,0.));
#819=DIRECTION('',(0.,0.,-1.));
#820=DIRECTION('',(0.,0.,1.));
#821=DIRECTION('',(0.,0.,1.));
#822=DIRECTION('',(0.,0.,1.));
#823=DIRECTION('',(0.,0.,-1.));
#824=DIRECTION('',(-1.,0.,0.));
#825=DIRECTION('',(0.,0.,1.));
#826=DIRECTION('',(0.,0.,1.));
#827=DIRECTION('',(0.,0.,-1.));
#828=DIRECTION('',(0.,0.,1.));
#829=DIRECTION('',(1.,0.,0.));
#830=DIRECTION('',(0.,0.,1.));
#831=DIRECTION('',(0.,0.,1.));
#832=DIRECTION('',(1.,0.,0.));
#833=DIRECTION('',(0.,0.,-1.));
#834=DIRECTION('',(0.,0.,1.));
#835=DIRECTION('',(0.,0.,1.));
#836=DIRECTION('',(0.,0.,1.));
#837=DIRECTION('',(0.,0.,-1.));
#838=DIRECTION('',(0.,-1.,0.));
#839=DIRECTION('',(0.,1.,0.));
#840=DIRECTION('',(0.,0.,1.));
#841=DIRECTION('',(0.,0.,1.));
#842=DIRECTION('',(1.,0.,0.));
#843=DIRECTION('',(0.,0.,1.));
#844=DIRECTION('',(1.,0.,0.));
#845=DIRECTION('',(0.,0.,-1.));
#846=DIRECTION('',(0.,-1.,0.));
#847=DIRECTION('',(0.,0.,1.));
#848=DIRECTION('',(1.,0.,0.));
#849=DIRECTION('',(0.,-1.,0.));
#850=DIRECTION('',(0.,0.,-1.));
#851=DIRECTION('',(0.,0.,1.));
#852=DIRECTION('',(1.,0.,0.));
#853=DIRECTION('',(0.,0.,-1.));
#854=DIRECTION('',(1.,0.,0.));
#855=DIRECTION('',(0.,0.,-1.));
#856=DIRECTION('',(0.,0.,1.));
#857=DIRECTION('',(0.,-1.,0.));
#858=DIRECTION('',(0.,0.,-1.));
#859=DIRECTION('',(0.,-1.,0.));
#860=DIRECTION('',(0.,0.,-1.));
#861=DIRECTION('',(0.,0.,1.));
#862=DIRECTION('',(1.,0.,0.));
#863=DIRECTION('',(0.,0.,-1.));
#864=DIRECTION('',(0.,-1.,0.));
#865=DIRECTION('',(0.,0.,-1.));
#866=DIRECTION('',(0.,0.,1.));
#867=DIRECTION('',(1.,0.,0.));
#868=DIRECTION('',(0.,0.,-1.));
#869=DIRECTION('',(0.,0.,1.));
#870=DIRECTION('',(0.,-1.,0.));
#871=DIRECTION('',(0.,0.,-1.));
#872=DIRECTION('',(1.,0.,0.));
#873=DIRECTION('',(0.,0.,-1.));
#874=DIRECTION('',(0.,0.,1.));
#875=DIRECTION('',(0.,0.,1.));
#876=DIRECTION('',(0.,-1.,0.));
#877=DIRECTION('',(0.,0.,-1.));
#878=DIRECTION('',(0.,-1.,0.));
#879=DIRECTION('',(0.,0.,-1.));
#880=DIRECTION('',(0.,-1.,0.));
#881=DIRECTION('',(0.,0.,-1.));
#882=DIRECTION('',(0.,0.,1.));
#883=DIRECTION('',(1.,0.,0.));
#884=DIRECTION('',(0.,0.,-1.));
#885=CARTESIAN_POINT('',(0.,0.,0.));
#886=CARTESIAN_POINT('',(0.06875,-0.06875,0.0025));
#887=CARTESIAN_POINT('',(0.061,-0.0675,0.0025));
#888=CARTESIAN_POINT('',(0.054,-0.0675,0.0025));
#889=CARTESIAN_POINT('',(0.068,-0.0675,0.0025));
#890=CARTESIAN_POINT('',(0.054,-0.0965,0.0025));
#891=CARTESIAN_POINT('',(0.054,-0.0715,0.0025));
#892=CARTESIAN_POINT('',(0.061,-0.0715,0.0025));
#893=CARTESIAN_POINT('',(0.068,-0.0715,0.0025));
#894=CARTESIAN_POINT('',(0.068,-0.0785,0.0025));
#895=CARTESIAN_POINT('',(0.068,-0.0855,0.0025));
#896=CARTESIAN_POINT('',(0.061,-0.0855,0.0025));
#897=CARTESIAN_POINT('',(0.054,-0.0855,0.0025));
#898=CARTESIAN_POINT('',(0.054,-0.0965,0.0025));
#899=CARTESIAN_POINT('',(0.054,-0.0895,0.0025));
#900=CARTESIAN_POINT('',(0.061,-0.0895,0.0025));
#901=CARTESIAN_POINT('',(0.068,-0.0895,0.0025));
#902=CARTESIAN_POINT('',(0.068,-0.0965,0.0025));
#903=CARTESIAN_POINT('',(0.068,-0.1035,0.0025));
#904=CARTESIAN_POINT('',(0.07,-0.1035,0.0025));
#905=CARTESIAN_POINT('',(0.072,-0.1035,0.0025));
#906=CARTESIAN_POINT('',(0.072,-0.0965,0.0025));
#907=CARTESIAN_POINT('',(0.072,-0.0895,0.0025));
#908=CARTESIAN_POINT('',(0.079,-0.0895,0.0025));
#909=CARTESIAN_POINT('',(0.086,-0.0895,0.0025));
#910=CARTESIAN_POINT('',(0.086,-0.0695,0.0025));
#911=CARTESIAN_POINT('',(0.086,-0.0855,0.0025));
#912=CARTESIAN_POINT('',(0.079,-0.0855,0.0025));
#913=CARTESIAN_POINT('',(0.072,-0.0855,0.0025));
#914=CARTESIAN_POINT('',(0.072,-0.0785,0.0025));
#915=CARTESIAN_POINT('',(0.072,-0.0715,0.0025));
#916=CARTESIAN_POINT('',(0.079,-0.0715,0.0025));
#917=CARTESIAN_POINT('',(0.086,-0.0715,0.0025));
#918=CARTESIAN_POINT('',(0.086,-0.0695,0.0025));
#919=CARTESIAN_POINT('',(0.086,-0.0675,0.0025));
#920=CARTESIAN_POINT('',(0.079,-0.0675,0.0025));
#921=CARTESIAN_POINT('',(0.072,-0.0675,0.0025));
#922=CARTESIAN_POINT('',(0.072,-0.0595,0.0025));
#923=CARTESIAN_POINT('',(0.072,-0.0516254921336125,0.0025));
#924=CARTESIAN_POINT('',(0.07,-0.0675,0.0025));
#925=CARTESIAN_POINT('',(0.068,-0.0516254921336125,0.0025));
#926=CARTESIAN_POINT('',(0.068,-0.0595,0.0025));
#927=CARTESIAN_POINT('',(0.06875,-0.06875,0.));
#928=CARTESIAN_POINT('',(0.068,-0.06875,0.));
#929=CARTESIAN_POINT('',(0.068,-0.0675,-5.55111512312578E-17));
#930=CARTESIAN_POINT('',(0.068,-0.0516254921336125,0.));
#931=CARTESIAN_POINT('',(0.07,-0.0675,0.));
#932=CARTESIAN_POINT('',(0.054,-0.0675,-5.55111512312578E-17));
#933=CARTESIAN_POINT('',(0.06875,-0.0675,0.));
#934=CARTESIAN_POINT('',(0.06875,-0.0895,0.));
#935=CARTESIAN_POINT('',(0.072,-0.0895,-5.55111512312578E-17));
#936=CARTESIAN_POINT('',(0.086,-0.0895,0.));
#937=CARTESIAN_POINT('',(0.072,-0.06875,0.));
#938=CARTESIAN_POINT('',(0.072,-0.1035,-5.55111512312578E-17));
#939=CARTESIAN_POINT('',(0.06875,-0.1035,0.));
#940=CARTESIAN_POINT('',(0.086,-0.1035,-5.55111512312578E-17));
#941=CARTESIAN_POINT('',(0.086,-0.06875,0.));
#942=CARTESIAN_POINT('',(0.06875,-0.0895,0.));
#943=CARTESIAN_POINT('',(0.054,-0.0895,-5.55111512312578E-17));
#944=CARTESIAN_POINT('',(0.068,-0.0895,0.));
#945=CARTESIAN_POINT('',(0.054,-0.06875,0.));
#946=CARTESIAN_POINT('',(0.054,-0.1035,-5.55111512312578E-17));
#947=CARTESIAN_POINT('',(0.06875,-0.1035,0.));
#948=CARTESIAN_POINT('',(0.068,-0.1035,-5.55111512312578E-17));
#949=CARTESIAN_POINT('',(0.068,-0.06875,0.));
#950=CARTESIAN_POINT('',(0.06875,0.,0.));
#951=CARTESIAN_POINT('',(0.,0.,0.));
#952=CARTESIAN_POINT('',(0.1375,0.,0.));
#953=CARTESIAN_POINT('',(0.1375,-0.06875,0.));
#954=CARTESIAN_POINT('',(0.1375,-0.1375,0.));
#955=CARTESIAN_POINT('',(0.06875,-0.1375,0.));
#956=CARTESIAN_POINT('',(1.38777878078145E-17,-0.1375,0.));
#957=CARTESIAN_POINT('',(0.,-0.06875,0.));
#958=CARTESIAN_POINT('',(0.072,-0.06875,0.));
#959=CARTESIAN_POINT('',(0.072,-0.0675,-5.55111512312578E-17));
#960=CARTESIAN_POINT('',(0.072,-0.0516254921336125,0.));
#961=CARTESIAN_POINT('',(0.06875,-0.0675,0.));
#962=CARTESIAN_POINT('',(0.086,-0.0675,-5.55111512312578E-17));
#963=CARTESIAN_POINT('',(0.07,-0.0675,0.));
#964=CARTESIAN_POINT('',(0.06875,-0.0715,0.));
#965=CARTESIAN_POINT('',(0.054,-0.0715,0.));
#966=CARTESIAN_POINT('',(0.068,-0.0715,-5.55111512312578E-17));
#967=CARTESIAN_POINT('',(0.054,-0.06875,0.));
#968=CARTESIAN_POINT('',(0.054,-0.0855,-5.55111512312578E-17));
#969=CARTESIAN_POINT('',(0.06875,-0.0855,0.));
#970=CARTESIAN_POINT('',(0.068,-0.0855,-5.55111512312578E-17));
#971=CARTESIAN_POINT('',(0.068,-0.06875,0.));
#972=CARTESIAN_POINT('',(0.072,-0.06875,0.));
#973=CARTESIAN_POINT('',(0.072,-0.0855,-5.55111512312578E-17));
#974=CARTESIAN_POINT('',(0.072,-0.0715,0.));
#975=CARTESIAN_POINT('',(0.06875,-0.0855,0.));
#976=CARTESIAN_POINT('',(0.086,-0.0855,-5.55111512312578E-17));
#977=CARTESIAN_POINT('',(0.086,-0.06875,0.));
#978=CARTESIAN_POINT('',(0.086,-0.0715,-5.55111512312578E-17));
#979=CARTESIAN_POINT('',(0.06875,-0.0715,0.));
#980=CARTESIAN_POINT('',(0.06875,0.,0.0025));
#981=CARTESIAN_POINT('',(0.,0.,0.0025));
#982=CARTESIAN_POINT('',(0.,0.,0.0025));
#983=CARTESIAN_POINT('',(0.06875,0.,0.0025));
#984=CARTESIAN_POINT('',(0.1375,0.,0.0025));
#985=CARTESIAN_POINT('',(0.1375,0.,0.0025));
#986=CARTESIAN_POINT('',(0.,-0.06875,0.0025));
#987=CARTESIAN_POINT('',(1.38777878078145E-17,-0.1375,0.0025));
#988=CARTESIAN_POINT('',(1.38777878078145E-17,-0.1375,0.0025));
#989=CARTESIAN_POINT('',(0.,-0.06875,0.0025));
#990=CARTESIAN_POINT('',(0.06875,-0.1375,0.0025));
#991=CARTESIAN_POINT('',(0.1375,-0.1375,0.0025));
#992=CARTESIAN_POINT('',(0.1375,-0.1375,0.0025));
#993=CARTESIAN_POINT('',(0.06875,-0.1375,0.0025));
#994=CARTESIAN_POINT('',(0.1375,-0.06875,0.0025));
#995=CARTESIAN_POINT('',(0.1375,-0.06875,0.0025));
#996=CARTESIAN_POINT('',(0.06875,-0.06875,0.0025));
#997=CARTESIAN_POINT('',(0.07,-0.0675,0.0025));
#998=CARTESIAN_POINT('',(0.09,-0.0675,0.0025));
#999=CARTESIAN_POINT('',(0.05,-0.0675,0.0025));
#1000=CARTESIAN_POINT('',(0.09,-0.0875,0.0025));
#1001=CARTESIAN_POINT('',(0.09,-0.1075,0.0025));
#1002=CARTESIAN_POINT('',(0.07,-0.1075,0.0025));
#1003=CARTESIAN_POINT('',(0.05,-0.1075,0.0025));
#1004=CARTESIAN_POINT('',(0.05,-0.0875,0.0025));
#1005=CARTESIAN_POINT('',(0.07,-0.0675,0.0041));
#1006=CARTESIAN_POINT('',(0.05,-0.0675,0.0041));
#1007=CARTESIAN_POINT('',(0.05,-0.0675,0.0041));
#1008=CARTESIAN_POINT('',(0.07,-0.0675,0.0041));
#1009=CARTESIAN_POINT('',(0.09,-0.0675,0.0041));
#1010=CARTESIAN_POINT('',(0.09,-0.0675,0.0041));
#1011=CARTESIAN_POINT('',(0.05,-0.0875,0.0041));
#1012=CARTESIAN_POINT('',(0.05,-0.1075,0.0041));
#1013=CARTESIAN_POINT('',(0.05,-0.1075,0.0041));
#1014=CARTESIAN_POINT('',(0.05,-0.0875,0.0041));
#1015=CARTESIAN_POINT('',(0.07,-0.1075,0.0041));
#1016=CARTESIAN_POINT('',(0.09,-0.1075,0.0041));
#1017=CARTESIAN_POINT('',(0.09,-0.1075,0.0041));
#1018=CARTESIAN_POINT('',(0.07,-0.1075,0.0041));
#1019=CARTESIAN_POINT('',(0.054,-0.0965,0.0041));
#1020=CARTESIAN_POINT('',(0.054,-0.0675,0.0041));
#1021=CARTESIAN_POINT('',(0.054,-0.0675,0.0041));
#1022=CARTESIAN_POINT('',(0.054,-0.0965,0.0041));
#1023=CARTESIAN_POINT('',(0.054,-0.1035,0.0041));
#1024=CARTESIAN_POINT('',(0.054,-0.1035,0.0041));
#1025=CARTESIAN_POINT('',(0.054,-0.0895,-0.192007583532547));
#1026=CARTESIAN_POINT('',(0.054,-0.0855,-0.192007583532547));
#1027=CARTESIAN_POINT('',(0.054,-0.0715,-0.192007583532547));
#1028=CARTESIAN_POINT('',(0.07,-0.0675,0.0041));
#1029=CARTESIAN_POINT('',(0.072,-0.0516254921336125,-0.192007583532547));
#1030=CARTESIAN_POINT('',(0.086,-0.0675,-0.192007583532547));
#1031=CARTESIAN_POINT('',(0.086,-0.0675,0.0041));
#1032=CARTESIAN_POINT('',(0.086,-0.0675,0.0041));
#1033=CARTESIAN_POINT('',(0.07,-0.0675,0.0041));
#1034=CARTESIAN_POINT('',(0.054,-0.0675,-0.192007583532547));
#1035=CARTESIAN_POINT('',(0.068,-0.0516254921336125,-0.192007583532547));
#1036=CARTESIAN_POINT('',(0.086,-0.0695,0.0041));
#1037=CARTESIAN_POINT('',(0.086,-0.0715,-0.192007583532547));
#1038=CARTESIAN_POINT('',(0.086,-0.0855,-0.192007583532547));
#1039=CARTESIAN_POINT('',(0.086,-0.0895,-0.192007583532547));
#1040=CARTESIAN_POINT('',(0.086,-0.1035,0.0041));
#1041=CARTESIAN_POINT('',(0.086,-0.1035,0.0041));
#1042=CARTESIAN_POINT('',(0.086,-0.0695,0.0041));
#1043=CARTESIAN_POINT('',(0.07,-0.1035,0.0041));
#1044=CARTESIAN_POINT('',(0.068,-0.1035,-0.192007583532547));
#1045=CARTESIAN_POINT('',(0.07,-0.1035,0.0041));
#1046=CARTESIAN_POINT('',(0.072,-0.1035,-0.192007583532547));
#1047=CARTESIAN_POINT('',(0.09,-0.0875,0.0041));
#1048=CARTESIAN_POINT('',(0.09,-0.0875,0.0041));
#1049=CARTESIAN_POINT('',(0.06875,-0.06875,0.0041));
#1050=CARTESIAN_POINT('',(0.061,-0.0895,-0.192007583532547));
#1051=CARTESIAN_POINT('',(0.068,-0.0895,-0.192007583532547));
#1052=CARTESIAN_POINT('',(0.068,-0.0965,-0.192007583532547));
#1053=CARTESIAN_POINT('',(0.072,-0.0595,-0.192007583532547));
#1054=CARTESIAN_POINT('',(0.072,-0.0675,-0.192007583532547));
#1055=CARTESIAN_POINT('',(0.079,-0.0675,-0.192007583532547));
#1056=CARTESIAN_POINT('',(0.079,-0.0895,-0.192007583532547));
#1057=CARTESIAN_POINT('',(0.072,-0.0895,-0.192007583532547));
#1058=CARTESIAN_POINT('',(0.072,-0.0965,-0.192007583532547));
#1059=CARTESIAN_POINT('',(0.061,-0.0855,-0.192007583532547));
#1060=CARTESIAN_POINT('',(0.068,-0.0855,-0.192007583532547));
#1061=CARTESIAN_POINT('',(0.068,-0.0785,-0.192007583532547));
#1062=CARTESIAN_POINT('',(0.068,-0.0715,-0.192007583532547));
#1063=CARTESIAN_POINT('',(0.061,-0.0715,-0.192007583532547));
#1064=CARTESIAN_POINT('',(0.072,-0.0785,-0.192007583532547));
#1065=CARTESIAN_POINT('',(0.072,-0.0715,-0.192007583532547));
#1066=CARTESIAN_POINT('',(0.072,-0.0855,-0.192007583532547));
#1067=CARTESIAN_POINT('',(0.079,-0.0855,-0.192007583532547));
#1068=CARTESIAN_POINT('',(0.079,-0.0715,-0.192007583532547));
#1069=CARTESIAN_POINT('',(0.061,-0.0675,-0.192007583532547));
#1070=CARTESIAN_POINT('',(0.068,-0.0675,-0.192007583532547));
#1071=CARTESIAN_POINT('',(0.068,-0.0595,-0.192007583532547));
#1072=MECHANICAL_DESIGN_GEOMETRIC_PRESENTATION_REPRESENTATION('',(#675),
#1073);
#1073=(
GEOMETRIC_REPRESENTATION_CONTEXT(3)
GLOBAL_UNCERTAINTY_ASSIGNED_CONTEXT((#1074))
GLOBAL_UNIT_ASSIGNED_CONTEXT((#1077,#1076,#1075))
REPRESENTATION_CONTEXT('Side Wall','TOP_LEVEL_ASSEMBLY_PART')
);
#1074=UNCERTAINTY_MEASURE_WITH_UNIT(LENGTH_MEASURE(1.E-8),#1077,
'DISTANCE_ACCURACY_VALUE','Maximum Tolerance applied to model');
#1075=(
NAMED_UNIT(*)
SI_UNIT($,.STERADIAN.)
SOLID_ANGLE_UNIT()
);
#1076=(
NAMED_UNIT(*)
PLANE_ANGLE_UNIT()
SI_UNIT($,.RADIAN.)
);
#1077=(
LENGTH_UNIT()
NAMED_UNIT(*)
SI_UNIT($,.METRE.)
);
#1078=PRODUCT_DEFINITION_SHAPE('','',#1079);
#1079=PRODUCT_DEFINITION('','',#1081,#1080);
#1080=PRODUCT_DEFINITION_CONTEXT('',#1087,'design');
#1081=PRODUCT_DEFINITION_FORMATION_WITH_SPECIFIED_SOURCE('','',#1083,
 .NOT_KNOWN.);
#1082=PRODUCT_RELATED_PRODUCT_CATEGORY('','',(#1083));
#1083=PRODUCT('Side Wall','Side Wall','Side Wall',(#1085));
#1084=PRODUCT_CATEGORY('','');
#1085=PRODUCT_CONTEXT('',#1087,'mechanical');
#1086=APPLICATION_PROTOCOL_DEFINITION('international standard',
'ap242_managed_model_based_3d_engineering',2020,#1087);
#1087=APPLICATION_CONTEXT('managed model based 3d engineering');
ENDSEC;
END-ISO-10303-21;
