ISO-10303-21;
HEADER;
/* Generated by software containing ST-Developer
 * from STEP Tools, Inc. (www.steptools.com) 
 */
/* OPTION: using custom renumber hook */

FILE_DESCRIPTION(
/* description */ ('STEP AP242 Edition 2',
'CAx-IF Rec.Pracs.---Representation and Presentation of Product Manufa
cturing Information (PMI)---4.0---2014-10-13',
'CAx-IF Rec.Pracs.---3D Tessellated Geometry---0.4---2014-09-14','2;1',
'CAx-IF Rec.Pracs.---User Defined Attributes---1.5---2016-08-15'),
/* implementation_level */ '2;1');

FILE_NAME(
/* name */ 'Assembly 1 - Desk Lamp',
/* time_stamp */ '2026-09-04T01:58:22Z',
/* author */ (''),
/* organization */ (''),
/* preprocessor_version */ 'ST-DEVELOPER v20',
/* originating_system */ 'ONSHAPE BY PTC INC, 1.220',
/* authorisation */ '  ');

FILE_SCHEMA (('AP242_MANAGED_MODEL_BASED_3D_ENGINEERING_MIM_LF { 1 0 10303 442 3 1 4 }'));
ENDSEC;

DATA;
#10=SHAPE_REPRESENTATION_RELATIONSHIP('','',#385,#11);
#11=ADVANCED_BREP_SHAPE_REPRESENTATION('',(#383),#685);
#12=CONICAL_SURFACE('',#433,0.0025,0.26179938779915);
#13=B_SPLINE_CURVE_WITH_KNOTS('',3,(#648,#649,#650,#651,#652),
 .UNSPECIFIED.,.F.,.F.,(4,1,4),(0.,0.000770197552276812,0.00154039510455362),
 .UNSPECIFIED.);
#14=B_SPLINE_CURVE_WITH_KNOTS('',3,(#656,#657,#658,#659,#660),
 .UNSPECIFIED.,.F.,.F.,(4,1,4),(0.,0.000770208923390681,0.00154041784678136),
 .UNSPECIFIED.);
#15=B_SPLINE_CURVE_WITH_KNOTS('',3,(#664,#665,#666,#667,#668),
 .UNSPECIFIED.,.F.,.F.,(4,1,4),(0.,0.000772731777517469,0.00154546355503494),
 .UNSPECIFIED.);
#16=B_SPLINE_CURVE_WITH_KNOTS('',3,(#672,#673,#674,#675,#676),
 .UNSPECIFIED.,.F.,.F.,(4,1,4),(0.,0.000772652051475821,0.00154530410295164),
 .UNSPECIFIED.);
#17=TOROIDAL_SURFACE('',#421,0.0033303422373016,0.000965685424949238);
#18=TOROIDAL_SURFACE('',#424,0.0033303422373016,0.000965685424949238);
#19=TOROIDAL_SURFACE('',#427,0.00305246978354741,0.000965685424949238);
#20=TOROIDAL_SURFACE('',#430,0.00305246978354741,0.000965685424949238);
#21=CYLINDRICAL_SURFACE('',#401,0.0050698484809835);
#22=CYLINDRICAL_SURFACE('',#402,0.0050698484809835);
#23=CYLINDRICAL_SURFACE('',#403,0.0050698484809835);
#24=CYLINDRICAL_SURFACE('',#404,0.0050698484809835);
#25=CYLINDRICAL_SURFACE('',#406,0.00208678435859817);
#26=CYLINDRICAL_SURFACE('',#409,0.00429602766225083);
#27=CYLINDRICAL_SURFACE('',#419,0.000965685424949238);
#28=CYLINDRICAL_SURFACE('',#422,0.000965685424949238);
#29=CYLINDRICAL_SURFACE('',#425,0.000965685424949238);
#30=CYLINDRICAL_SURFACE('',#428,0.000965685424949238);
#31=CIRCLE('',#388,0.000965685424949238);
#32=CIRCLE('',#389,0.000965685424949238);
#33=CIRCLE('',#390,0.000965685424949238);
#34=CIRCLE('',#391,0.000965685424949238);
#35=CIRCLE('',#392,0.0050698484809835);
#36=CIRCLE('',#393,0.0050698484809835);
#37=CIRCLE('',#394,0.0050698484809835);
#38=CIRCLE('',#395,0.0050698484809835);
#39=CIRCLE('',#397,0.0050698484809835);
#40=CIRCLE('',#398,0.0050698484809835);
#41=CIRCLE('',#399,0.0050698484809835);
#42=CIRCLE('',#400,0.0050698484809835);
#43=CIRCLE('',#407,0.00208678435859817);
#44=CIRCLE('',#408,0.00208678435859817);
#45=CIRCLE('',#410,0.00429602766225083);
#46=CIRCLE('',#411,0.00429602766225083);
#47=CIRCLE('',#414,0.0033303422373016);
#48=CIRCLE('',#415,0.00305246978354741);
#49=CIRCLE('',#417,0.0033303422373016);
#50=CIRCLE('',#418,0.00305246978354741);
#51=CIRCLE('',#420,0.000965685424949238);
#52=CIRCLE('',#423,0.000965685424949238);
#53=CIRCLE('',#426,0.000965685424949238);
#54=CIRCLE('',#429,0.000965685424949238);
#55=CIRCLE('',#432,0.0025);
#56=CIRCLE('',#434,0.00383974596215562);
#57=ORIENTED_EDGE('',*,*,#161,.F.);
#58=ORIENTED_EDGE('',*,*,#162,.T.);
#59=ORIENTED_EDGE('',*,*,#163,.F.);
#60=ORIENTED_EDGE('',*,*,#164,.T.);
#61=ORIENTED_EDGE('',*,*,#165,.T.);
#62=ORIENTED_EDGE('',*,*,#166,.T.);
#63=ORIENTED_EDGE('',*,*,#167,.T.);
#64=ORIENTED_EDGE('',*,*,#168,.T.);
#65=ORIENTED_EDGE('',*,*,#169,.T.);
#66=ORIENTED_EDGE('',*,*,#170,.T.);
#67=ORIENTED_EDGE('',*,*,#171,.T.);
#68=ORIENTED_EDGE('',*,*,#172,.T.);
#69=ORIENTED_EDGE('',*,*,#173,.T.);
#70=ORIENTED_EDGE('',*,*,#174,.T.);
#71=ORIENTED_EDGE('',*,*,#175,.T.);
#72=ORIENTED_EDGE('',*,*,#176,.T.);
#73=ORIENTED_EDGE('',*,*,#177,.F.);
#74=ORIENTED_EDGE('',*,*,#176,.F.);
#75=ORIENTED_EDGE('',*,*,#178,.F.);
#76=ORIENTED_EDGE('',*,*,#172,.F.);
#77=ORIENTED_EDGE('',*,*,#178,.T.);
#78=ORIENTED_EDGE('',*,*,#175,.F.);
#79=ORIENTED_EDGE('',*,*,#179,.F.);
#80=ORIENTED_EDGE('',*,*,#169,.F.);
#81=ORIENTED_EDGE('',*,*,#177,.T.);
#82=ORIENTED_EDGE('',*,*,#171,.F.);
#83=ORIENTED_EDGE('',*,*,#180,.F.);
#84=ORIENTED_EDGE('',*,*,#173,.F.);
#85=ORIENTED_EDGE('',*,*,#170,.F.);
#86=ORIENTED_EDGE('',*,*,#179,.T.);
#87=ORIENTED_EDGE('',*,*,#174,.F.);
#88=ORIENTED_EDGE('',*,*,#180,.T.);
#89=ORIENTED_EDGE('',*,*,#181,.F.);
#90=ORIENTED_EDGE('',*,*,#182,.T.);
#91=ORIENTED_EDGE('',*,*,#167,.F.);
#92=ORIENTED_EDGE('',*,*,#183,.T.);
#93=ORIENTED_EDGE('',*,*,#184,.F.);
#94=ORIENTED_EDGE('',*,*,#185,.T.);
#95=ORIENTED_EDGE('',*,*,#181,.T.);
#96=ORIENTED_EDGE('',*,*,#186,.T.);
#97=ORIENTED_EDGE('',*,*,#187,.F.);
#98=ORIENTED_EDGE('',*,*,#188,.T.);
#99=ORIENTED_EDGE('',*,*,#189,.T.);
#100=ORIENTED_EDGE('',*,*,#190,.T.);
#101=ORIENTED_EDGE('',*,*,#163,.T.);
#102=ORIENTED_EDGE('',*,*,#191,.T.);
#103=ORIENTED_EDGE('',*,*,#187,.T.);
#104=ORIENTED_EDGE('',*,*,#192,.T.);
#105=ORIENTED_EDGE('',*,*,#193,.T.);
#106=ORIENTED_EDGE('',*,*,#194,.T.);
#107=ORIENTED_EDGE('',*,*,#195,.T.);
#108=ORIENTED_EDGE('',*,*,#161,.T.);
#109=ORIENTED_EDGE('',*,*,#196,.T.);
#110=ORIENTED_EDGE('',*,*,#197,.T.);
#111=ORIENTED_EDGE('',*,*,#198,.T.);
#112=ORIENTED_EDGE('',*,*,#199,.T.);
#113=ORIENTED_EDGE('',*,*,#200,.F.);
#114=ORIENTED_EDGE('',*,*,#201,.T.);
#115=ORIENTED_EDGE('',*,*,#202,.T.);
#116=ORIENTED_EDGE('',*,*,#165,.F.);
#117=ORIENTED_EDGE('',*,*,#162,.F.);
#118=ORIENTED_EDGE('',*,*,#195,.F.);
#119=ORIENTED_EDGE('',*,*,#203,.F.);
#120=ORIENTED_EDGE('',*,*,#191,.F.);
#121=ORIENTED_EDGE('',*,*,#204,.F.);
#122=ORIENTED_EDGE('',*,*,#188,.F.);
#123=ORIENTED_EDGE('',*,*,#203,.T.);
#124=ORIENTED_EDGE('',*,*,#194,.F.);
#125=ORIENTED_EDGE('',*,*,#164,.F.);
#126=ORIENTED_EDGE('',*,*,#192,.F.);
#127=ORIENTED_EDGE('',*,*,#205,.F.);
#128=ORIENTED_EDGE('',*,*,#198,.F.);
#129=ORIENTED_EDGE('',*,*,#206,.F.);
#130=ORIENTED_EDGE('',*,*,#199,.F.);
#131=ORIENTED_EDGE('',*,*,#205,.T.);
#132=ORIENTED_EDGE('',*,*,#190,.F.);
#133=ORIENTED_EDGE('',*,*,#168,.F.);
#134=ORIENTED_EDGE('',*,*,#182,.F.);
#135=ORIENTED_EDGE('',*,*,#207,.F.);
#136=ORIENTED_EDGE('',*,*,#196,.F.);
#137=ORIENTED_EDGE('',*,*,#208,.F.);
#138=ORIENTED_EDGE('',*,*,#197,.F.);
#139=ORIENTED_EDGE('',*,*,#207,.T.);
#140=ORIENTED_EDGE('',*,*,#185,.F.);
#141=ORIENTED_EDGE('',*,*,#166,.F.);
#142=ORIENTED_EDGE('',*,*,#202,.F.);
#143=ORIENTED_EDGE('',*,*,#209,.F.);
#144=ORIENTED_EDGE('',*,*,#183,.F.);
#145=ORIENTED_EDGE('',*,*,#210,.F.);
#146=ORIENTED_EDGE('',*,*,#186,.F.);
#147=ORIENTED_EDGE('',*,*,#209,.T.);
#148=ORIENTED_EDGE('',*,*,#201,.F.);
#149=ORIENTED_EDGE('',*,*,#211,.F.);
#150=ORIENTED_EDGE('',*,*,#193,.F.);
#151=ORIENTED_EDGE('',*,*,#208,.T.);
#152=ORIENTED_EDGE('',*,*,#184,.T.);
#153=ORIENTED_EDGE('',*,*,#210,.T.);
#154=ORIENTED_EDGE('',*,*,#200,.T.);
#155=ORIENTED_EDGE('',*,*,#206,.T.);
#156=ORIENTED_EDGE('',*,*,#189,.F.);
#157=ORIENTED_EDGE('',*,*,#204,.T.);
#158=ORIENTED_EDGE('',*,*,#212,.F.);
#159=ORIENTED_EDGE('',*,*,#211,.T.);
#160=ORIENTED_EDGE('',*,*,#212,.T.);
#161=EDGE_CURVE('',#213,#214,#247,.T.);
#162=EDGE_CURVE('',#213,#215,#31,.F.);
#163=EDGE_CURVE('',#216,#215,#248,.T.);
#164=EDGE_CURVE('',#216,#217,#32,.F.);
#165=EDGE_CURVE('',#217,#218,#249,.T.);
#166=EDGE_CURVE('',#218,#219,#33,.F.);
#167=EDGE_CURVE('',#219,#220,#250,.T.);
#168=EDGE_CURVE('',#220,#214,#34,.F.);
#169=EDGE_CURVE('',#221,#222,#35,.T.);
#170=EDGE_CURVE('',#222,#223,#36,.T.);
#171=EDGE_CURVE('',#223,#224,#37,.T.);
#172=EDGE_CURVE('',#224,#221,#38,.T.);
#173=EDGE_CURVE('',#225,#226,#39,.F.);
#174=EDGE_CURVE('',#226,#227,#40,.F.);
#175=EDGE_CURVE('',#227,#228,#41,.F.);
#176=EDGE_CURVE('',#228,#225,#42,.F.);
#177=EDGE_CURVE('',#225,#224,#251,.T.);
#178=EDGE_CURVE('',#221,#228,#252,.T.);
#179=EDGE_CURVE('',#222,#227,#253,.T.);
#180=EDGE_CURVE('',#226,#223,#254,.F.);
#181=EDGE_CURVE('',#229,#230,#255,.T.);
#182=EDGE_CURVE('',#229,#220,#256,.F.);
#183=EDGE_CURVE('',#219,#230,#257,.T.);
#184=EDGE_CURVE('',#231,#232,#258,.T.);
#185=EDGE_CURVE('',#231,#229,#43,.T.);
#186=EDGE_CURVE('',#230,#232,#44,.F.);
#187=EDGE_CURVE('',#233,#234,#259,.T.);
#188=EDGE_CURVE('',#233,#235,#45,.F.);
#189=EDGE_CURVE('',#235,#236,#260,.T.);
#190=EDGE_CURVE('',#236,#234,#46,.T.);
#191=EDGE_CURVE('',#215,#233,#261,.T.);
#192=EDGE_CURVE('',#234,#216,#262,.F.);
#193=EDGE_CURVE('',#237,#238,#263,.T.);
#194=EDGE_CURVE('',#238,#239,#47,.T.);
#195=EDGE_CURVE('',#239,#213,#264,.F.);
#196=EDGE_CURVE('',#214,#240,#265,.T.);
#197=EDGE_CURVE('',#240,#237,#48,.F.);
#198=EDGE_CURVE('',#217,#241,#266,.T.);
#199=EDGE_CURVE('',#241,#242,#49,.F.);
#200=EDGE_CURVE('',#243,#242,#267,.T.);
#201=EDGE_CURVE('',#243,#244,#50,.T.);
#202=EDGE_CURVE('',#244,#218,#268,.F.);
#203=EDGE_CURVE('',#233,#239,#51,.T.);
#204=EDGE_CURVE('',#235,#238,#13,.T.);
#205=EDGE_CURVE('',#241,#234,#52,.T.);
#206=EDGE_CURVE('',#242,#236,#14,.T.);
#207=EDGE_CURVE('',#240,#229,#53,.T.);
#208=EDGE_CURVE('',#237,#231,#15,.T.);
#209=EDGE_CURVE('',#230,#244,#54,.T.);
#210=EDGE_CURVE('',#232,#243,#16,.T.);
#211=EDGE_CURVE('',#245,#245,#55,.T.);
#212=EDGE_CURVE('',#246,#246,#56,.T.);
#213=VERTEX_POINT('',#561);
#214=VERTEX_POINT('',#562);
#215=VERTEX_POINT('',#564);
#216=VERTEX_POINT('',#566);
#217=VERTEX_POINT('',#568);
#218=VERTEX_POINT('',#570);
#219=VERTEX_POINT('',#572);
#220=VERTEX_POINT('',#574);
#221=VERTEX_POINT('',#577);
#222=VERTEX_POINT('',#578);
#223=VERTEX_POINT('',#580);
#224=VERTEX_POINT('',#582);
#225=VERTEX_POINT('',#586);
#226=VERTEX_POINT('',#587);
#227=VERTEX_POINT('',#589);
#228=VERTEX_POINT('',#591);
#229=VERTEX_POINT('',#603);
#230=VERTEX_POINT('',#604);
#231=VERTEX_POINT('',#609);
#232=VERTEX_POINT('',#610);
#233=VERTEX_POINT('',#615);
#234=VERTEX_POINT('',#616);
#235=VERTEX_POINT('',#618);
#236=VERTEX_POINT('',#620);
#237=VERTEX_POINT('',#627);
#238=VERTEX_POINT('',#628);
#239=VERTEX_POINT('',#630);
#240=VERTEX_POINT('',#633);
#241=VERTEX_POINT('',#637);
#242=VERTEX_POINT('',#639);
#243=VERTEX_POINT('',#641);
#244=VERTEX_POINT('',#643);
#245=VERTEX_POINT('',#679);
#246=VERTEX_POINT('',#682);
#247=LINE('',#560,#269);
#248=LINE('',#565,#270);
#249=LINE('',#569,#271);
#250=LINE('',#573,#272);
#251=LINE('',#594,#273);
#252=LINE('',#595,#274);
#253=LINE('',#597,#275);
#254=LINE('',#599,#276);
#255=LINE('',#602,#277);
#256=LINE('',#605,#278);
#257=LINE('',#606,#279);
#258=LINE('',#608,#280);
#259=LINE('',#614,#281);
#260=LINE('',#619,#282);
#261=LINE('',#623,#283);
#262=LINE('',#624,#284);
#263=LINE('',#626,#285);
#264=LINE('',#631,#286);
#265=LINE('',#632,#287);
#266=LINE('',#636,#288);
#267=LINE('',#640,#289);
#268=LINE('',#644,#290);
#269=VECTOR('',#440,1.);
#270=VECTOR('',#443,1.);
#271=VECTOR('',#446,1.);
#272=VECTOR('',#449,1.);
#273=VECTOR('',#472,1.);
#274=VECTOR('',#473,1.);
#275=VECTOR('',#476,1.);
#276=VECTOR('',#479,1.);
#277=VECTOR('',#484,1.);
#278=VECTOR('',#485,1.);
#279=VECTOR('',#486,1.);
#280=VECTOR('',#489,1.);
#281=VECTOR('',#496,1.);
#282=VECTOR('',#499,1.);
#283=VECTOR('',#504,1.);
#284=VECTOR('',#505,1.);
#285=VECTOR('',#508,1.);
#286=VECTOR('',#511,1.);
#287=VECTOR('',#512,1.);
#288=VECTOR('',#517,1.);
#289=VECTOR('',#520,1.);
#290=VECTOR('',#523,1.);
#291=EDGE_LOOP('',(#57,#58,#59,#60,#61,#62,#63,#64));
#292=EDGE_LOOP('',(#65,#66,#67,#68));
#293=EDGE_LOOP('',(#69,#70,#71,#72));
#294=EDGE_LOOP('',(#73,#74,#75,#76));
#295=EDGE_LOOP('',(#77,#78,#79,#80));
#296=EDGE_LOOP('',(#81,#82,#83,#84));
#297=EDGE_LOOP('',(#85,#86,#87,#88));
#298=EDGE_LOOP('',(#89,#90,#91,#92));
#299=EDGE_LOOP('',(#93,#94,#95,#96));
#300=EDGE_LOOP('',(#97,#98,#99,#100));
#301=EDGE_LOOP('',(#101,#102,#103,#104));
#302=EDGE_LOOP('',(#105,#106,#107,#108,#109,#110));
#303=EDGE_LOOP('',(#111,#112,#113,#114,#115,#116));
#304=EDGE_LOOP('',(#117,#118,#119,#120));
#305=EDGE_LOOP('',(#121,#122,#123,#124));
#306=EDGE_LOOP('',(#125,#126,#127,#128));
#307=EDGE_LOOP('',(#129,#130,#131,#132));
#308=EDGE_LOOP('',(#133,#134,#135,#136));
#309=EDGE_LOOP('',(#137,#138,#139,#140));
#310=EDGE_LOOP('',(#141,#142,#143,#144));
#311=EDGE_LOOP('',(#145,#146,#147,#148));
#312=EDGE_LOOP('',(#149));
#313=EDGE_LOOP('',(#150,#151,#152,#153,#154,#155,#156,#157));
#314=EDGE_LOOP('',(#158));
#315=EDGE_LOOP('',(#159));
#316=EDGE_LOOP('',(#160));
#317=FACE_BOUND('',#291,.T.);
#318=FACE_BOUND('',#292,.T.);
#319=FACE_BOUND('',#293,.T.);
#320=FACE_BOUND('',#294,.T.);
#321=FACE_BOUND('',#295,.T.);
#322=FACE_BOUND('',#296,.T.);
#323=FACE_BOUND('',#297,.T.);
#324=FACE_BOUND('',#298,.T.);
#325=FACE_BOUND('',#299,.T.);
#326=FACE_BOUND('',#300,.T.);
#327=FACE_BOUND('',#301,.T.);
#328=FACE_BOUND('',#302,.T.);
#329=FACE_BOUND('',#303,.T.);
#330=FACE_BOUND('',#304,.T.);
#331=FACE_BOUND('',#305,.T.);
#332=FACE_BOUND('',#306,.T.);
#333=FACE_BOUND('',#307,.T.);
#334=FACE_BOUND('',#308,.T.);
#335=FACE_BOUND('',#309,.T.);
#336=FACE_BOUND('',#310,.T.);
#337=FACE_BOUND('',#311,.T.);
#338=FACE_BOUND('',#312,.T.);
#339=FACE_BOUND('',#313,.T.);
#340=FACE_BOUND('',#314,.T.);
#341=FACE_BOUND('',#315,.T.);
#342=FACE_BOUND('',#316,.T.);
#343=PLANE('',#387);
#344=PLANE('',#396);
#345=PLANE('',#405);
#346=PLANE('',#412);
#347=PLANE('',#413);
#348=PLANE('',#416);
#349=PLANE('',#431);
#350=PLANE('',#435);
#351=ADVANCED_FACE('',(#317,#318),#343,.T.);
#352=ADVANCED_FACE('',(#319),#344,.F.);
#353=ADVANCED_FACE('',(#320),#21,.T.);
#354=ADVANCED_FACE('',(#321),#22,.T.);
#355=ADVANCED_FACE('',(#322),#23,.T.);
#356=ADVANCED_FACE('',(#323),#24,.T.);
#357=ADVANCED_FACE('',(#324),#345,.F.);
#358=ADVANCED_FACE('',(#325),#25,.F.);
#359=ADVANCED_FACE('',(#326),#26,.T.);
#360=ADVANCED_FACE('',(#327),#346,.T.);
#361=ADVANCED_FACE('',(#328),#347,.T.);
#362=ADVANCED_FACE('',(#329),#348,.F.);
#363=ADVANCED_FACE('',(#330),#27,.T.);
#364=ADVANCED_FACE('',(#331),#17,.T.);
#365=ADVANCED_FACE('',(#332),#28,.T.);
#366=ADVANCED_FACE('',(#333),#18,.T.);
#367=ADVANCED_FACE('',(#334),#29,.T.);
#368=ADVANCED_FACE('',(#335),#19,.T.);
#369=ADVANCED_FACE('',(#336),#30,.T.);
#370=ADVANCED_FACE('',(#337),#20,.T.);
#371=ADVANCED_FACE('',(#338,#339),#349,.F.);
#372=ADVANCED_FACE('',(#340,#341),#12,.T.);
#373=ADVANCED_FACE('',(#342),#350,.T.);
#374=CLOSED_SHELL('',(#351,#352,#353,#354,#355,#356,#357,#358,#359,#360,
#361,#362,#363,#364,#365,#366,#367,#368,#369,#370,#371,#372,#373));
#375=STYLED_ITEM('',(#376),#383);
#376=PRESENTATION_STYLE_ASSIGNMENT((#377));
#377=SURFACE_STYLE_USAGE(.BOTH.,#378);
#378=SURFACE_SIDE_STYLE('',(#379));
#379=SURFACE_STYLE_FILL_AREA(#380);
#380=FILL_AREA_STYLE('',(#381));
#381=FILL_AREA_STYLE_COLOUR('',#382);
#382=COLOUR_RGB('',0.654901960784314,0.823529411764706,0.576470588235294);
#383=MANIFOLD_SOLID_BREP('Desk Lamp',#374);
#384=SHAPE_DEFINITION_REPRESENTATION(#690,#385);
#385=SHAPE_REPRESENTATION('Desk Lamp',(#386),#685);
#386=AXIS2_PLACEMENT_3D('',#558,#436,#437);
#387=AXIS2_PLACEMENT_3D('',#559,#438,#439);
#388=AXIS2_PLACEMENT_3D('',#563,#441,#442);
#389=AXIS2_PLACEMENT_3D('',#567,#444,#445);
#390=AXIS2_PLACEMENT_3D('',#571,#447,#448);
#391=AXIS2_PLACEMENT_3D('',#575,#450,#451);
#392=AXIS2_PLACEMENT_3D('',#576,#452,#453);
#393=AXIS2_PLACEMENT_3D('',#579,#454,#455);
#394=AXIS2_PLACEMENT_3D('',#581,#456,#457);
#395=AXIS2_PLACEMENT_3D('',#583,#458,#459);
#396=AXIS2_PLACEMENT_3D('',#584,#460,#461);
#397=AXIS2_PLACEMENT_3D('',#585,#462,#463);
#398=AXIS2_PLACEMENT_3D('',#588,#464,#465);
#399=AXIS2_PLACEMENT_3D('',#590,#466,#467);
#400=AXIS2_PLACEMENT_3D('',#592,#468,#469);
#401=AXIS2_PLACEMENT_3D('',#593,#470,#471);
#402=AXIS2_PLACEMENT_3D('',#596,#474,#475);
#403=AXIS2_PLACEMENT_3D('',#598,#477,#478);
#404=AXIS2_PLACEMENT_3D('',#600,#480,#481);
#405=AXIS2_PLACEMENT_3D('',#601,#482,#483);
#406=AXIS2_PLACEMENT_3D('',#607,#487,#488);
#407=AXIS2_PLACEMENT_3D('',#611,#490,#491);
#408=AXIS2_PLACEMENT_3D('',#612,#492,#493);
#409=AXIS2_PLACEMENT_3D('',#613,#494,#495);
#410=AXIS2_PLACEMENT_3D('',#617,#497,#498);
#411=AXIS2_PLACEMENT_3D('',#621,#500,#501);
#412=AXIS2_PLACEMENT_3D('',#622,#502,#503);
#413=AXIS2_PLACEMENT_3D('',#625,#506,#507);
#414=AXIS2_PLACEMENT_3D('',#629,#509,#510);
#415=AXIS2_PLACEMENT_3D('',#634,#513,#514);
#416=AXIS2_PLACEMENT_3D('',#635,#515,#516);
#417=AXIS2_PLACEMENT_3D('',#638,#518,#519);
#418=AXIS2_PLACEMENT_3D('',#642,#521,#522);
#419=AXIS2_PLACEMENT_3D('',#645,#524,#525);
#420=AXIS2_PLACEMENT_3D('',#646,#526,#527);
#421=AXIS2_PLACEMENT_3D('',#647,#528,#529);
#422=AXIS2_PLACEMENT_3D('',#653,#530,#531);
#423=AXIS2_PLACEMENT_3D('',#654,#532,#533);
#424=AXIS2_PLACEMENT_3D('',#655,#534,#535);
#425=AXIS2_PLACEMENT_3D('',#661,#536,#537);
#426=AXIS2_PLACEMENT_3D('',#662,#538,#539);
#427=AXIS2_PLACEMENT_3D('',#663,#540,#541);
#428=AXIS2_PLACEMENT_3D('',#669,#542,#543);
#429=AXIS2_PLACEMENT_3D('',#670,#544,#545);
#430=AXIS2_PLACEMENT_3D('',#671,#546,#547);
#431=AXIS2_PLACEMENT_3D('',#677,#548,#549);
#432=AXIS2_PLACEMENT_3D('',#678,#550,#551);
#433=AXIS2_PLACEMENT_3D('',#680,#552,#553);
#434=AXIS2_PLACEMENT_3D('',#681,#554,#555);
#435=AXIS2_PLACEMENT_3D('',#683,#556,#557);
#436=DIRECTION('',(0.,0.,1.));
#437=DIRECTION('',(1.,0.,0.));
#438=DIRECTION('',(0.,0.,1.));
#439=DIRECTION('',(1.,0.,0.));
#440=DIRECTION('',(1.,0.,0.));
#441=DIRECTION('',(0.,0.,1.));
#442=DIRECTION('',(1.,0.,0.));
#443=DIRECTION('',(0.,-1.,0.));
#444=DIRECTION('',(0.,0.,1.));
#445=DIRECTION('',(1.,0.,0.));
#446=DIRECTION('',(1.,0.,0.));
#447=DIRECTION('',(0.,0.,1.));
#448=DIRECTION('',(1.,0.,0.));
#449=DIRECTION('',(0.,-1.,0.));
#450=DIRECTION('',(0.,0.,1.));
#451=DIRECTION('',(1.,0.,0.));
#452=DIRECTION('',(0.,0.,1.));
#453=DIRECTION('',(1.,0.,0.));
#454=DIRECTION('',(0.,0.,1.));
#455=DIRECTION('',(1.,0.,0.));
#456=DIRECTION('',(0.,0.,1.));
#457=DIRECTION('',(1.,0.,0.));
#458=DIRECTION('',(0.,0.,1.));
#459=DIRECTION('',(1.,0.,0.));
#460=DIRECTION('',(0.,0.,1.));
#461=DIRECTION('',(1.,0.,0.));
#462=DIRECTION('',(0.,0.,1.));
#463=DIRECTION('',(1.,0.,0.));
#464=DIRECTION('',(0.,0.,1.));
#465=DIRECTION('',(1.,0.,0.));
#466=DIRECTION('',(0.,0.,1.));
#467=DIRECTION('',(1.,0.,0.));
#468=DIRECTION('',(0.,0.,1.));
#469=DIRECTION('',(1.,0.,0.));
#470=DIRECTION('',(0.,0.,1.));
#471=DIRECTION('',(1.,0.,0.));
#472=DIRECTION('',(0.,0.,1.));
#473=DIRECTION('',(0.,0.,-1.));
#474=DIRECTION('',(0.,0.,-1.));
#475=DIRECTION('',(-1.,0.,0.));
#476=DIRECTION('',(0.,0.,-1.));
#477=DIRECTION('',(0.,0.,-1.));
#478=DIRECTION('',(-1.,0.,0.));
#479=DIRECTION('',(0.,0.,-1.));
#480=DIRECTION('',(0.,0.,1.));
#481=DIRECTION('',(1.,0.,0.));
#482=DIRECTION('',(-1.,0.,0.));
#483=DIRECTION('',(0.,0.,1.));
#484=DIRECTION('',(0.,1.,0.));
#485=DIRECTION('',(0.,0.,1.));
#486=DIRECTION('',(0.,0.,1.));
#487=DIRECTION('',(0.,1.,0.));
#488=DIRECTION('',(0.,0.,1.));
#489=DIRECTION('',(0.,1.,0.));
#490=DIRECTION('',(0.,-1.,0.));
#491=DIRECTION('',(0.,0.,-1.));
#492=DIRECTION('',(0.,-1.,0.));
#493=DIRECTION('',(0.,0.,-1.));
#494=DIRECTION('',(0.,1.,0.));
#495=DIRECTION('',(0.,0.,1.));
#496=DIRECTION('',(0.,1.,0.));
#497=DIRECTION('',(0.,-1.,0.));
#498=DIRECTION('',(0.,0.,-1.));
#499=DIRECTION('',(0.,1.,0.));
#500=DIRECTION('',(0.,-1.,0.));
#501=DIRECTION('',(0.,0.,-1.));
#502=DIRECTION('',(-1.,0.,0.));
#503=DIRECTION('',(0.,0.,1.));
#504=DIRECTION('',(0.,0.,1.));
#505=DIRECTION('',(0.,0.,1.));
#506=DIRECTION('',(0.,-1.,0.));
#507=DIRECTION('',(1.,0.,0.));
#508=DIRECTION('',(0.432980861350505,0.,0.901403113875349));
#509=DIRECTION('',(0.,-1.,0.));
#510=DIRECTION('',(0.,0.,-1.));
#511=DIRECTION('',(0.,0.,1.));
#512=DIRECTION('',(0.,0.,1.));
#513=DIRECTION('',(0.,-1.,0.));
#514=DIRECTION('',(0.,0.,-1.));
#515=DIRECTION('',(0.,-1.,0.));
#516=DIRECTION('',(1.,0.,0.));
#517=DIRECTION('',(0.,0.,1.));
#518=DIRECTION('',(0.,-1.,0.));
#519=DIRECTION('',(0.,0.,-1.));
#520=DIRECTION('',(0.432980861350505,0.,0.901403113875349));
#521=DIRECTION('',(0.,-1.,0.));
#522=DIRECTION('',(0.,0.,-1.));
#523=DIRECTION('',(0.,0.,1.));
#524=DIRECTION('',(0.,0.,1.));
#525=DIRECTION('',(1.,0.,0.));
#526=DIRECTION('',(0.,0.,1.));
#527=DIRECTION('',(1.,0.,0.));
#528=DIRECTION('',(0.,-1.,0.));
#529=DIRECTION('',(0.,0.,-1.));
#530=DIRECTION('',(0.,0.,-1.));
#531=DIRECTION('',(-1.,0.,0.));
#532=DIRECTION('',(0.,0.,1.));
#533=DIRECTION('',(1.,0.,0.));
#534=DIRECTION('',(0.,-1.,0.));
#535=DIRECTION('',(0.,0.,-1.));
#536=DIRECTION('',(0.,0.,-1.));
#537=DIRECTION('',(-1.,0.,0.));
#538=DIRECTION('',(0.,0.,1.));
#539=DIRECTION('',(1.,0.,0.));
#540=DIRECTION('',(0.,-1.,0.));
#541=DIRECTION('',(0.,0.,-1.));
#542=DIRECTION('',(0.,0.,1.));
#543=DIRECTION('',(1.,0.,0.));
#544=DIRECTION('',(0.,0.,1.));
#545=DIRECTION('',(1.,0.,0.));
#546=DIRECTION('',(0.,-1.,0.));
#547=DIRECTION('',(0.,0.,-1.));
#548=DIRECTION('',(0.901403113875349,0.,-0.432980861350505));
#549=DIRECTION('',(0.,1.,0.));
#550=DIRECTION('',(0.901403113875349,0.,-0.432980861350505));
#551=DIRECTION('',(-0.432980861350505,0.,-0.901403113875349));
#552=DIRECTION('',(0.901403113875349,0.,-0.432980861350505));
#553=DIRECTION('',(-0.432980861350505,0.,-0.901403113875349));
#554=DIRECTION('',(0.901403113875349,0.,-0.432980861350505));
#555=DIRECTION('',(-0.432980861350505,0.,-0.901403113875349));
#556=DIRECTION('',(0.901403113875349,0.,-0.432980861350505));
#557=DIRECTION('',(0.,1.,0.));
#558=CARTESIAN_POINT('',(0.,0.,0.));
#559=CARTESIAN_POINT('',(0.0201558690931584,-0.005,0.002));
#560=CARTESIAN_POINT('',(0.0201558690931584,-0.0065,0.002));
#561=CARTESIAN_POINT('',(0.0199885045006994,-0.0065,0.002));
#562=CARTESIAN_POINT('',(0.0205571336508009,-0.0065,0.002));
#563=CARTESIAN_POINT('',(0.0199885045006994,-0.00553431457505076,0.002));
#564=CARTESIAN_POINT('',(0.0190228190757501,-0.00553431457505076,0.002));
#565=CARTESIAN_POINT('',(0.0190228190757501,-0.005,0.002));
#566=CARTESIAN_POINT('',(0.0190228190757501,-0.00496568542494924,0.002));
#567=CARTESIAN_POINT('',(0.0199885045006994,-0.00496568542494924,0.002));
#568=CARTESIAN_POINT('',(0.0199885045006994,-0.004,0.002));
#569=CARTESIAN_POINT('',(0.0201558690931584,-0.004,0.002));
#570=CARTESIAN_POINT('',(0.0205571336508009,-0.004,0.002));
#571=CARTESIAN_POINT('',(0.0205571336508009,-0.00496568542494924,0.002));
#572=CARTESIAN_POINT('',(0.0215228190757501,-0.00496568542494924,0.002));
#573=CARTESIAN_POINT('',(0.0215228190757501,-0.005,0.002));
#574=CARTESIAN_POINT('',(0.0215228190757501,-0.00553431457505076,0.002));
#575=CARTESIAN_POINT('',(0.0205571336508009,-0.00553431457505076,0.002));
#576=CARTESIAN_POINT('',(0.020086020612175,-0.0050698484809835,0.002));
#577=CARTESIAN_POINT('',(0.0251553879109446,-0.005,0.002));
#578=CARTESIAN_POINT('',(0.0201558690931584,-4.81182213860412E-7,0.002));
#579=CARTESIAN_POINT('',(0.0202257175741419,-0.0050698484809835,0.002));
#580=CARTESIAN_POINT('',(0.0151563502753724,-0.005,0.002));
#581=CARTESIAN_POINT('',(0.0202257175741419,-0.0049301515190165,0.002));
#582=CARTESIAN_POINT('',(0.0201558690931584,-0.00999951881778614,0.002));
#583=CARTESIAN_POINT('',(0.020086020612175,-0.0049301515190165,0.002));
#584=CARTESIAN_POINT('',(0.0201558690931584,-0.005,0.));
#585=CARTESIAN_POINT('',(0.0202257175741419,-0.0049301515190165,0.));
#586=CARTESIAN_POINT('',(0.0201558690931584,-0.00999951881778614,0.));
#587=CARTESIAN_POINT('',(0.0151563502753724,-0.005,0.));
#588=CARTESIAN_POINT('',(0.0202257175741419,-0.0050698484809835,0.));
#589=CARTESIAN_POINT('',(0.0201558690931584,-4.81182213860412E-7,0.));
#590=CARTESIAN_POINT('',(0.020086020612175,-0.0050698484809835,0.));
#591=CARTESIAN_POINT('',(0.0251553879109446,-0.005,0.));
#592=CARTESIAN_POINT('',(0.020086020612175,-0.0049301515190165,0.));
#593=CARTESIAN_POINT('',(0.020086020612175,-0.0049301515190165,0.002));
#594=CARTESIAN_POINT('',(0.0201558690931584,-0.00999951881778614,0.001));
#595=CARTESIAN_POINT('',(0.0251553879109446,-0.005,0.001));
#596=CARTESIAN_POINT('',(0.020086020612175,-0.0050698484809835,0.002));
#597=CARTESIAN_POINT('',(0.0201558690931584,-4.81182213859545E-7,0.001));
#598=CARTESIAN_POINT('',(0.0202257175741419,-0.0049301515190165,0.002));
#599=CARTESIAN_POINT('',(0.0151563502753724,-0.005,0.001));
#600=CARTESIAN_POINT('',(0.0202257175741419,-0.0050698484809835,0.002));
#601=CARTESIAN_POINT('',(0.0215228190757501,-0.0065,0.0089587620703689));
#602=CARTESIAN_POINT('',(0.0215228190757501,-0.0065,0.0159622705285869));
#603=CARTESIAN_POINT('',(0.0215228190757501,-0.00553431457505076,0.0159622705285869));
#604=CARTESIAN_POINT('',(0.0215228190757501,-0.00496568542494924,0.0159622705285869));
#605=CARTESIAN_POINT('',(0.0215228190757501,-0.00553431457505076,0.002));
#606=CARTESIAN_POINT('',(0.0215228190757501,-0.00496568542494924,0.0089587620703689));
#607=CARTESIAN_POINT('',(0.0236096034343484,-0.0065,0.0159622705285869));
#608=CARTESIAN_POINT('',(0.0251513643407401,-0.0065,0.0173685572229747));
#609=CARTESIAN_POINT('',(0.0251513643407401,-0.00553431457505076,0.0173685572229747));
#610=CARTESIAN_POINT('',(0.0251513643407401,-0.00496568542494924,0.0173685572229747));
#611=CARTESIAN_POINT('',(0.0236096034343484,-0.00553431457505076,0.0159622705285869));
#612=CARTESIAN_POINT('',(0.0236096034343484,-0.00496568542494924,0.0159622705285869));
#613=CARTESIAN_POINT('',(0.023318846738001,-0.0065,0.0159622705285869));
#614=CARTESIAN_POINT('',(0.0190228190757501,-0.0065,0.0159622705285869));
#615=CARTESIAN_POINT('',(0.0190228190757501,-0.00553431457505076,0.0159622705285869));
#616=CARTESIAN_POINT('',(0.0190228190757501,-0.00496568542494924,0.0159622705285869));
#617=CARTESIAN_POINT('',(0.023318846738001,-0.00553431457505076,0.0159622705285869));
#618=CARTESIAN_POINT('',(0.0260634091300301,-0.00553431457505076,0.0192673016859414));
#619=CARTESIAN_POINT('',(0.0260634091300301,-0.0065,0.0192673016859414));
#620=CARTESIAN_POINT('',(0.0260634091300301,-0.00496568542494924,0.0192673016859414));
#621=CARTESIAN_POINT('',(0.023318846738001,-0.00496568542494924,0.0159622705285869));
#622=CARTESIAN_POINT('',(0.0190228190757501,-0.0065,0.0089587620703689));
#623=CARTESIAN_POINT('',(0.0190228190757501,-0.00553431457505076,0.0089587620703689));
#624=CARTESIAN_POINT('',(0.0190228190757501,-0.00496568542494924,0.002));
#625=CARTESIAN_POINT('',(0.0225431141028902,-0.0065,0.0111067759014943));
#626=CARTESIAN_POINT('',(0.0256073867353851,-0.0065,0.018317929454458));
#627=CARTESIAN_POINT('',(0.0255911520405468,-0.0065,0.0182841311834804));
#628=CARTESIAN_POINT('',(0.0256283997586379,-0.0065,0.0183616755094983));
#629=CARTESIAN_POINT('',(0.023318846738001,-0.0065,0.0159622705285869));
#630=CARTESIAN_POINT('',(0.0199885045006994,-0.0065,0.0159622705285869));
#631=CARTESIAN_POINT('',(0.0199885045006994,-0.0065,0.0111067759014943));
#632=CARTESIAN_POINT('',(0.0205571336508009,-0.0065,0.0159622705285869));
#633=CARTESIAN_POINT('',(0.0205571336508009,-0.0065,0.0159622705285869));
#634=CARTESIAN_POINT('',(0.0236096034343484,-0.0065,0.0159622705285869));
#635=CARTESIAN_POINT('',(0.0225431141028902,-0.004,0.0111067759014943));
#636=CARTESIAN_POINT('',(0.0199885045006994,-0.004,0.0159622705285869));
#637=CARTESIAN_POINT('',(0.0199885045006994,-0.004,0.0159622705285869));
#638=CARTESIAN_POINT('',(0.023318846738001,-0.004,0.0159622705285869));
#639=CARTESIAN_POINT('',(0.0256283997586379,-0.004,0.0183616755094983));
#640=CARTESIAN_POINT('',(0.0256073867353851,-0.004,0.018317929454458));
#641=CARTESIAN_POINT('',(0.0255911520405468,-0.004,0.0182841311834804));
#642=CARTESIAN_POINT('',(0.0236096034343484,-0.004,0.0159622705285869));
#643=CARTESIAN_POINT('',(0.0205571336508009,-0.004,0.0159622705285869));
#644=CARTESIAN_POINT('',(0.0205571336508009,-0.004,0.0111067759014943));
#645=CARTESIAN_POINT('',(0.0199885045006994,-0.00553431457505076,0.0089587620703689));
#646=CARTESIAN_POINT('',(0.0199885045006994,-0.00553431457505076,0.0159622705285869));
#647=CARTESIAN_POINT('',(0.023318846738001,-0.00553431457505076,0.0159622705285869));
#648=CARTESIAN_POINT('',(0.0260634091300301,-0.00553431457505076,0.0192673016859414));
#649=CARTESIAN_POINT('',(0.0260634091300301,-0.00579478252655711,0.0192673016859414));
#650=CARTESIAN_POINT('',(0.0259646846090798,-0.00630204903046834,0.0190617716070301));
#651=CARTESIAN_POINT('',(0.0257410529912959,-0.00649999999999999,0.0185962031382468));
#652=CARTESIAN_POINT('',(0.0256283997586379,-0.0065,0.0183616755094983));
#653=CARTESIAN_POINT('',(0.0199885045006994,-0.00496568542494924,0.0111067759014943));
#654=CARTESIAN_POINT('',(0.0199885045006994,-0.00496568542494924,0.0159622705285869));
#655=CARTESIAN_POINT('',(0.023318846738001,-0.00496568542494924,0.0159622705285869));
#656=CARTESIAN_POINT('',(0.0256283997586379,-0.004,0.0183616755094983));
#657=CARTESIAN_POINT('',(0.0257411119196952,-0.00400000000000001,0.0185963258185945));
#658=CARTESIAN_POINT('',(0.0259641482586887,-0.00419694395246499,0.0190606550036052));
#659=CARTESIAN_POINT('',(0.0260634091300301,-0.00470502251234825,0.0192673016859414));
#660=CARTESIAN_POINT('',(0.0260634091300301,-0.00496568542494924,0.0192673016859414));
#661=CARTESIAN_POINT('',(0.0205571336508009,-0.00553431457505076,0.0111067759014943));
#662=CARTESIAN_POINT('',(0.0205571336508009,-0.00553431457505076,0.0159622705285869));
#663=CARTESIAN_POINT('',(0.0236096034343484,-0.00553431457505076,0.0159622705285869));
#664=CARTESIAN_POINT('',(0.0255911520405468,-0.0065,0.0182841311834804));
#665=CARTESIAN_POINT('',(0.0254780093504611,-0.0065,0.0180485845756293));
#666=CARTESIAN_POINT('',(0.0252556012069235,-0.00629918454404946,0.0175855632020964));
#667=CARTESIAN_POINT('',(0.0251513643407402,-0.00579601137016687,0.0173685572229749));
#668=CARTESIAN_POINT('',(0.0251513643407402,-0.00553431457505072,0.0173685572229749));
#669=CARTESIAN_POINT('',(0.0205571336508009,-0.00496568542494924,0.0089587620703689));
#670=CARTESIAN_POINT('',(0.0205571336508009,-0.00496568542494924,0.0159622705285869));
#671=CARTESIAN_POINT('',(0.0236096034343484,-0.00496568542494924,0.0159622705285869));
#672=CARTESIAN_POINT('',(0.0251513643407401,-0.00496568542494924,0.0173685572229747));
#673=CARTESIAN_POINT('',(0.0251513643407401,-0.0047042616485055,0.0173685572229747));
#674=CARTESIAN_POINT('',(0.0252552447385836,-0.00420133235112254,0.0175848210869126));
#675=CARTESIAN_POINT('',(0.0254781120207356,-0.004,0.0180487983201928));
#676=CARTESIAN_POINT('',(0.0255911520405468,-0.004,0.0182841311834804));
#677=CARTESIAN_POINT('',(0.0255989537507565,-0.005202794082204,0.018300373208254));
#678=CARTESIAN_POINT('',(0.0255989537507565,-0.005202794082204,0.018300373208254));
#679=CARTESIAN_POINT('',(0.0245165015973802,-0.005202794082204,0.0160468654235656));
#680=CARTESIAN_POINT('',(0.0255989537507565,-0.005202794082204,0.018300373208254));
#681=CARTESIAN_POINT('',(0.0301059693201332,-0.005202794082204,0.0161354689015014));
#682=CARTESIAN_POINT('',(0.0284434328060719,-0.005202794082204,0.012674309934724));
#683=CARTESIAN_POINT('',(0.0301059693201332,-0.005202794082204,0.0161354689015014));
#684=MECHANICAL_DESIGN_GEOMETRIC_PRESENTATION_REPRESENTATION('',(#375),
#685);
#685=(
GEOMETRIC_REPRESENTATION_CONTEXT(3)
GLOBAL_UNCERTAINTY_ASSIGNED_CONTEXT((#686))
GLOBAL_UNIT_ASSIGNED_CONTEXT((#689,#688,#687))
REPRESENTATION_CONTEXT('Desk Lamp','TOP_LEVEL_ASSEMBLY_PART')
);
#686=UNCERTAINTY_MEASURE_WITH_UNIT(LENGTH_MEASURE(2.E-5),#689,
'DISTANCE_ACCURACY_VALUE','Maximum Tolerance applied to model');
#687=(
NAMED_UNIT(*)
SI_UNIT($,.STERADIAN.)
SOLID_ANGLE_UNIT()
);
#688=(
NAMED_UNIT(*)
PLANE_ANGLE_UNIT()
SI_UNIT($,.RADIAN.)
);
#689=(
LENGTH_UNIT()
NAMED_UNIT(*)
SI_UNIT($,.METRE.)
);
#690=PRODUCT_DEFINITION_SHAPE('','',#691);
#691=PRODUCT_DEFINITION('','',#693,#692);
#692=PRODUCT_DEFINITION_CONTEXT('',#699,'design');
#693=PRODUCT_DEFINITION_FORMATION_WITH_SPECIFIED_SOURCE('','',#695,
 .NOT_KNOWN.);
#694=PRODUCT_RELATED_PRODUCT_CATEGORY('','',(#695));
#695=PRODUCT('Desk Lamp','Desk Lamp','Desk Lamp',(#697));
#696=PRODUCT_CATEGORY('','');
#697=PRODUCT_CONTEXT('',#699,'mechanical');
#698=APPLICATION_PROTOCOL_DEFINITION('international standard',
'ap242_managed_model_based_3d_engineering',2020,#699);
#699=APPLICATION_CONTEXT('managed model based 3d engineering');
ENDSEC;
END-ISO-10303-21;
