ISO-10303-21;
HEADER;
/* Generated by software containing ST-Developer
 * from STEP Tools, Inc. (www.steptools.com) 
 */
/* OPTION: using custom renumber hook */

FILE_DESCRIPTION(
/* description */ ('STEP AP242 Edition 2',
'CAx-IF Rec.Pracs.---Representation and Presentation of Product Manufa
cturing Information (PMI)---4.0---2014-10-13',
'CAx-IF Rec.Pracs.---3D Tessellated Geometry---0.4---2014-09-14','2;1',
'CAx-IF Rec.Pracs.---User Defined Attributes---1.5---2016-08-15'),
/* implementation_level */ '2;1');

FILE_NAME(
/* name */ 'Assembly 1 - Alarm',
/* time_stamp */ '2026-09-04T01:58:21Z',
/* author */ (''),
/* organization */ (''),
/* preprocessor_version */ 'ST-DEVELOPER v20',
/* originating_system */ 'ONSHAPE BY PTC INC, 1.220',
/* authorisation */ '  ');

FILE_SCHEMA (('AP242_MANAGED_MODEL_BASED_3D_ENGINEERING_MIM_LF { 1 0 10303 442 3 1 4 }'));
ENDSEC;

DATA;
#10=SHAPE_REPRESENTATION_RELATIONSHIP('','',#357,#11);
#11=ADVANCED_BREP_SHAPE_REPRESENTATION('',(#355),#599);
#12=CYLINDRICAL_SURFACE('',#377,0.00120710678118655);
#13=CYLINDRICAL_SURFACE('',#378,0.00120710678118655);
#14=CYLINDRICAL_SURFACE('',#379,0.00120710678118655);
#15=CYLINDRICAL_SURFACE('',#380,0.00120710678118655);
#16=CYLINDRICAL_SURFACE('',#382,0.000482842712474618);
#17=CYLINDRICAL_SURFACE('',#385,0.000482842712474618);
#18=CYLINDRICAL_SURFACE('',#388,0.000482842712474622);
#19=CYLINDRICAL_SURFACE('',#391,0.000482842712474619);
#20=CIRCLE('',#364,0.000482842712474619);
#21=CIRCLE('',#365,0.000482842712474622);
#22=CIRCLE('',#366,0.000482842712474618);
#23=CIRCLE('',#367,0.000482842712474618);
#24=CIRCLE('',#368,0.00120710678118655);
#25=CIRCLE('',#369,0.00120710678118655);
#26=CIRCLE('',#370,0.00120710678118655);
#27=CIRCLE('',#371,0.00120710678118655);
#28=CIRCLE('',#373,0.00120710678118655);
#29=CIRCLE('',#374,0.00120710678118655);
#30=CIRCLE('',#375,0.00120710678118655);
#31=CIRCLE('',#376,0.00120710678118655);
#32=CIRCLE('',#383,0.000482842712474618);
#33=CIRCLE('',#386,0.000482842712474618);
#34=CIRCLE('',#389,0.000482842712474622);
#35=CIRCLE('',#392,0.000482842712474619);
#36=ORIENTED_EDGE('',*,*,#132,.F.);
#37=ORIENTED_EDGE('',*,*,#133,.T.);
#38=ORIENTED_EDGE('',*,*,#134,.T.);
#39=ORIENTED_EDGE('',*,*,#135,.T.);
#40=ORIENTED_EDGE('',*,*,#136,.F.);
#41=ORIENTED_EDGE('',*,*,#137,.T.);
#42=ORIENTED_EDGE('',*,*,#138,.T.);
#43=ORIENTED_EDGE('',*,*,#139,.T.);
#44=ORIENTED_EDGE('',*,*,#140,.F.);
#45=ORIENTED_EDGE('',*,*,#141,.T.);
#46=ORIENTED_EDGE('',*,*,#142,.T.);
#47=ORIENTED_EDGE('',*,*,#143,.T.);
#48=ORIENTED_EDGE('',*,*,#144,.T.);
#49=ORIENTED_EDGE('',*,*,#145,.T.);
#50=ORIENTED_EDGE('',*,*,#146,.F.);
#51=ORIENTED_EDGE('',*,*,#147,.T.);
#52=ORIENTED_EDGE('',*,*,#148,.F.);
#53=ORIENTED_EDGE('',*,*,#149,.F.);
#54=ORIENTED_EDGE('',*,*,#150,.F.);
#55=ORIENTED_EDGE('',*,*,#151,.F.);
#56=ORIENTED_EDGE('',*,*,#152,.T.);
#57=ORIENTED_EDGE('',*,*,#153,.F.);
#58=ORIENTED_EDGE('',*,*,#154,.T.);
#59=ORIENTED_EDGE('',*,*,#155,.F.);
#60=ORIENTED_EDGE('',*,*,#134,.F.);
#61=ORIENTED_EDGE('',*,*,#156,.T.);
#62=ORIENTED_EDGE('',*,*,#136,.T.);
#63=ORIENTED_EDGE('',*,*,#157,.T.);
#64=ORIENTED_EDGE('',*,*,#140,.T.);
#65=ORIENTED_EDGE('',*,*,#158,.T.);
#66=ORIENTED_EDGE('',*,*,#144,.F.);
#67=ORIENTED_EDGE('',*,*,#159,.T.);
#68=ORIENTED_EDGE('',*,*,#138,.F.);
#69=ORIENTED_EDGE('',*,*,#160,.T.);
#70=ORIENTED_EDGE('',*,*,#132,.T.);
#71=ORIENTED_EDGE('',*,*,#161,.T.);
#72=ORIENTED_EDGE('',*,*,#146,.T.);
#73=ORIENTED_EDGE('',*,*,#162,.T.);
#74=ORIENTED_EDGE('',*,*,#142,.F.);
#75=ORIENTED_EDGE('',*,*,#163,.T.);
#76=ORIENTED_EDGE('',*,*,#156,.F.);
#77=ORIENTED_EDGE('',*,*,#133,.F.);
#78=ORIENTED_EDGE('',*,*,#160,.F.);
#79=ORIENTED_EDGE('',*,*,#137,.F.);
#80=ORIENTED_EDGE('',*,*,#157,.F.);
#81=ORIENTED_EDGE('',*,*,#139,.F.);
#82=ORIENTED_EDGE('',*,*,#163,.F.);
#83=ORIENTED_EDGE('',*,*,#141,.F.);
#84=ORIENTED_EDGE('',*,*,#158,.F.);
#85=ORIENTED_EDGE('',*,*,#143,.F.);
#86=ORIENTED_EDGE('',*,*,#162,.F.);
#87=ORIENTED_EDGE('',*,*,#145,.F.);
#88=ORIENTED_EDGE('',*,*,#159,.F.);
#89=ORIENTED_EDGE('',*,*,#147,.F.);
#90=ORIENTED_EDGE('',*,*,#161,.F.);
#91=ORIENTED_EDGE('',*,*,#135,.F.);
#92=ORIENTED_EDGE('',*,*,#148,.T.);
#93=ORIENTED_EDGE('',*,*,#164,.F.);
#94=ORIENTED_EDGE('',*,*,#165,.F.);
#95=ORIENTED_EDGE('',*,*,#166,.T.);
#96=ORIENTED_EDGE('',*,*,#155,.T.);
#97=ORIENTED_EDGE('',*,*,#167,.F.);
#98=ORIENTED_EDGE('',*,*,#168,.F.);
#99=ORIENTED_EDGE('',*,*,#164,.T.);
#100=ORIENTED_EDGE('',*,*,#154,.F.);
#101=ORIENTED_EDGE('',*,*,#169,.F.);
#102=ORIENTED_EDGE('',*,*,#170,.T.);
#103=ORIENTED_EDGE('',*,*,#167,.T.);
#104=ORIENTED_EDGE('',*,*,#153,.T.);
#105=ORIENTED_EDGE('',*,*,#171,.F.);
#106=ORIENTED_EDGE('',*,*,#172,.F.);
#107=ORIENTED_EDGE('',*,*,#169,.T.);
#108=ORIENTED_EDGE('',*,*,#152,.F.);
#109=ORIENTED_EDGE('',*,*,#173,.F.);
#110=ORIENTED_EDGE('',*,*,#174,.T.);
#111=ORIENTED_EDGE('',*,*,#171,.T.);
#112=ORIENTED_EDGE('',*,*,#151,.T.);
#113=ORIENTED_EDGE('',*,*,#175,.F.);
#114=ORIENTED_EDGE('',*,*,#176,.F.);
#115=ORIENTED_EDGE('',*,*,#173,.T.);
#116=ORIENTED_EDGE('',*,*,#150,.T.);
#117=ORIENTED_EDGE('',*,*,#177,.F.);
#118=ORIENTED_EDGE('',*,*,#178,.F.);
#119=ORIENTED_EDGE('',*,*,#175,.T.);
#120=ORIENTED_EDGE('',*,*,#149,.T.);
#121=ORIENTED_EDGE('',*,*,#166,.F.);
#122=ORIENTED_EDGE('',*,*,#179,.F.);
#123=ORIENTED_EDGE('',*,*,#177,.T.);
#124=ORIENTED_EDGE('',*,*,#165,.T.);
#125=ORIENTED_EDGE('',*,*,#168,.T.);
#126=ORIENTED_EDGE('',*,*,#170,.F.);
#127=ORIENTED_EDGE('',*,*,#172,.T.);
#128=ORIENTED_EDGE('',*,*,#174,.F.);
#129=ORIENTED_EDGE('',*,*,#176,.T.);
#130=ORIENTED_EDGE('',*,*,#178,.T.);
#131=ORIENTED_EDGE('',*,*,#179,.T.);
#132=EDGE_CURVE('',#180,#181,#212,.T.);
#133=EDGE_CURVE('',#180,#182,#213,.F.);
#134=EDGE_CURVE('',#182,#183,#214,.T.);
#135=EDGE_CURVE('',#183,#181,#215,.T.);
#136=EDGE_CURVE('',#184,#185,#216,.T.);
#137=EDGE_CURVE('',#184,#186,#217,.T.);
#138=EDGE_CURVE('',#186,#187,#218,.T.);
#139=EDGE_CURVE('',#187,#185,#219,.F.);
#140=EDGE_CURVE('',#188,#189,#220,.T.);
#141=EDGE_CURVE('',#188,#190,#221,.T.);
#142=EDGE_CURVE('',#190,#191,#222,.T.);
#143=EDGE_CURVE('',#191,#189,#223,.F.);
#144=EDGE_CURVE('',#192,#193,#224,.T.);
#145=EDGE_CURVE('',#193,#194,#225,.T.);
#146=EDGE_CURVE('',#195,#194,#226,.T.);
#147=EDGE_CURVE('',#195,#192,#227,.F.);
#148=EDGE_CURVE('',#196,#197,#228,.T.);
#149=EDGE_CURVE('',#198,#196,#20,.T.);
#150=EDGE_CURVE('',#199,#198,#229,.T.);
#151=EDGE_CURVE('',#200,#199,#21,.T.);
#152=EDGE_CURVE('',#200,#201,#230,.T.);
#153=EDGE_CURVE('',#202,#201,#22,.T.);
#154=EDGE_CURVE('',#202,#203,#231,.T.);
#155=EDGE_CURVE('',#197,#203,#23,.T.);
#156=EDGE_CURVE('',#182,#184,#24,.T.);
#157=EDGE_CURVE('',#185,#188,#25,.T.);
#158=EDGE_CURVE('',#189,#193,#26,.T.);
#159=EDGE_CURVE('',#192,#183,#27,.T.);
#160=EDGE_CURVE('',#186,#180,#28,.F.);
#161=EDGE_CURVE('',#181,#195,#29,.F.);
#162=EDGE_CURVE('',#194,#191,#30,.F.);
#163=EDGE_CURVE('',#190,#187,#31,.F.);
#164=EDGE_CURVE('',#204,#197,#232,.T.);
#165=EDGE_CURVE('',#205,#204,#233,.T.);
#166=EDGE_CURVE('',#205,#196,#234,.T.);
#167=EDGE_CURVE('',#206,#203,#235,.T.);
#168=EDGE_CURVE('',#204,#206,#32,.T.);
#169=EDGE_CURVE('',#207,#202,#236,.T.);
#170=EDGE_CURVE('',#207,#206,#237,.T.);
#171=EDGE_CURVE('',#208,#201,#238,.T.);
#172=EDGE_CURVE('',#207,#208,#33,.T.);
#173=EDGE_CURVE('',#209,#200,#239,.T.);
#174=EDGE_CURVE('',#209,#208,#240,.T.);
#175=EDGE_CURVE('',#210,#199,#241,.T.);
#176=EDGE_CURVE('',#209,#210,#34,.T.);
#177=EDGE_CURVE('',#211,#198,#242,.T.);
#178=EDGE_CURVE('',#210,#211,#243,.T.);
#179=EDGE_CURVE('',#211,#205,#35,.T.);
#180=VERTEX_POINT('',#501);
#181=VERTEX_POINT('',#502);
#182=VERTEX_POINT('',#504);
#183=VERTEX_POINT('',#506);
#184=VERTEX_POINT('',#510);
#185=VERTEX_POINT('',#511);
#186=VERTEX_POINT('',#513);
#187=VERTEX_POINT('',#515);
#188=VERTEX_POINT('',#519);
#189=VERTEX_POINT('',#520);
#190=VERTEX_POINT('',#522);
#191=VERTEX_POINT('',#524);
#192=VERTEX_POINT('',#528);
#193=VERTEX_POINT('',#529);
#194=VERTEX_POINT('',#531);
#195=VERTEX_POINT('',#533);
#196=VERTEX_POINT('',#537);
#197=VERTEX_POINT('',#538);
#198=VERTEX_POINT('',#540);
#199=VERTEX_POINT('',#542);
#200=VERTEX_POINT('',#544);
#201=VERTEX_POINT('',#546);
#202=VERTEX_POINT('',#548);
#203=VERTEX_POINT('',#550);
#204=VERTEX_POINT('',#567);
#205=VERTEX_POINT('',#569);
#206=VERTEX_POINT('',#573);
#207=VERTEX_POINT('',#577);
#208=VERTEX_POINT('',#581);
#209=VERTEX_POINT('',#585);
#210=VERTEX_POINT('',#589);
#211=VERTEX_POINT('',#593);
#212=LINE('',#500,#244);
#213=LINE('',#503,#245);
#214=LINE('',#505,#246);
#215=LINE('',#507,#247);
#216=LINE('',#509,#248);
#217=LINE('',#512,#249);
#218=LINE('',#514,#250);
#219=LINE('',#516,#251);
#220=LINE('',#518,#252);
#221=LINE('',#521,#253);
#222=LINE('',#523,#254);
#223=LINE('',#525,#255);
#224=LINE('',#527,#256);
#225=LINE('',#530,#257);
#226=LINE('',#532,#258);
#227=LINE('',#534,#259);
#228=LINE('',#536,#260);
#229=LINE('',#541,#261);
#230=LINE('',#545,#262);
#231=LINE('',#549,#263);
#232=LINE('',#566,#264);
#233=LINE('',#568,#265);
#234=LINE('',#570,#266);
#235=LINE('',#572,#267);
#236=LINE('',#576,#268);
#237=LINE('',#578,#269);
#238=LINE('',#580,#270);
#239=LINE('',#584,#271);
#240=LINE('',#586,#272);
#241=LINE('',#588,#273);
#242=LINE('',#592,#274);
#243=LINE('',#594,#275);
#244=VECTOR('',#398,1.);
#245=VECTOR('',#399,1.);
#246=VECTOR('',#400,1.);
#247=VECTOR('',#401,1.);
#248=VECTOR('',#404,1.);
#249=VECTOR('',#405,1.);
#250=VECTOR('',#406,1.);
#251=VECTOR('',#407,1.);
#252=VECTOR('',#410,1.);
#253=VECTOR('',#411,1.);
#254=VECTOR('',#412,1.);
#255=VECTOR('',#413,1.);
#256=VECTOR('',#416,1.);
#257=VECTOR('',#417,1.);
#258=VECTOR('',#418,1.);
#259=VECTOR('',#419,1.);
#260=VECTOR('',#422,1.);
#261=VECTOR('',#425,1.);
#262=VECTOR('',#428,1.);
#263=VECTOR('',#431,1.);
#264=VECTOR('',#462,1.);
#265=VECTOR('',#463,1.);
#266=VECTOR('',#464,1.);
#267=VECTOR('',#467,1.);
#268=VECTOR('',#472,1.);
#269=VECTOR('',#473,1.);
#270=VECTOR('',#476,1.);
#271=VECTOR('',#481,1.);
#272=VECTOR('',#482,1.);
#273=VECTOR('',#485,1.);
#274=VECTOR('',#490,1.);
#275=VECTOR('',#491,1.);
#276=EDGE_LOOP('',(#36,#37,#38,#39));
#277=EDGE_LOOP('',(#40,#41,#42,#43));
#278=EDGE_LOOP('',(#44,#45,#46,#47));
#279=EDGE_LOOP('',(#48,#49,#50,#51));
#280=EDGE_LOOP('',(#52,#53,#54,#55,#56,#57,#58,#59));
#281=EDGE_LOOP('',(#60,#61,#62,#63,#64,#65,#66,#67));
#282=EDGE_LOOP('',(#68,#69,#70,#71,#72,#73,#74,#75));
#283=EDGE_LOOP('',(#76,#77,#78,#79));
#284=EDGE_LOOP('',(#80,#81,#82,#83));
#285=EDGE_LOOP('',(#84,#85,#86,#87));
#286=EDGE_LOOP('',(#88,#89,#90,#91));
#287=EDGE_LOOP('',(#92,#93,#94,#95));
#288=EDGE_LOOP('',(#96,#97,#98,#99));
#289=EDGE_LOOP('',(#100,#101,#102,#103));
#290=EDGE_LOOP('',(#104,#105,#106,#107));
#291=EDGE_LOOP('',(#108,#109,#110,#111));
#292=EDGE_LOOP('',(#112,#113,#114,#115));
#293=EDGE_LOOP('',(#116,#117,#118,#119));
#294=EDGE_LOOP('',(#120,#121,#122,#123));
#295=EDGE_LOOP('',(#124,#125,#126,#127,#128,#129,#130,#131));
#296=FACE_BOUND('',#276,.T.);
#297=FACE_BOUND('',#277,.T.);
#298=FACE_BOUND('',#278,.T.);
#299=FACE_BOUND('',#279,.T.);
#300=FACE_BOUND('',#280,.T.);
#301=FACE_BOUND('',#281,.T.);
#302=FACE_BOUND('',#282,.T.);
#303=FACE_BOUND('',#283,.T.);
#304=FACE_BOUND('',#284,.T.);
#305=FACE_BOUND('',#285,.T.);
#306=FACE_BOUND('',#286,.T.);
#307=FACE_BOUND('',#287,.T.);
#308=FACE_BOUND('',#288,.T.);
#309=FACE_BOUND('',#289,.T.);
#310=FACE_BOUND('',#290,.T.);
#311=FACE_BOUND('',#291,.T.);
#312=FACE_BOUND('',#292,.T.);
#313=FACE_BOUND('',#293,.T.);
#314=FACE_BOUND('',#294,.T.);
#315=FACE_BOUND('',#295,.T.);
#316=PLANE('',#359);
#317=PLANE('',#360);
#318=PLANE('',#361);
#319=PLANE('',#362);
#320=PLANE('',#363);
#321=PLANE('',#372);
#322=PLANE('',#381);
#323=PLANE('',#384);
#324=PLANE('',#387);
#325=PLANE('',#390);
#326=PLANE('',#393);
#327=ADVANCED_FACE('',(#296),#316,.T.);
#328=ADVANCED_FACE('',(#297),#317,.F.);
#329=ADVANCED_FACE('',(#298),#318,.F.);
#330=ADVANCED_FACE('',(#299),#319,.T.);
#331=ADVANCED_FACE('',(#300,#301),#320,.T.);
#332=ADVANCED_FACE('',(#302),#321,.F.);
#333=ADVANCED_FACE('',(#303),#12,.T.);
#334=ADVANCED_FACE('',(#304),#13,.T.);
#335=ADVANCED_FACE('',(#305),#14,.T.);
#336=ADVANCED_FACE('',(#306),#15,.T.);
#337=ADVANCED_FACE('',(#307),#322,.F.);
#338=ADVANCED_FACE('',(#308),#16,.F.);
#339=ADVANCED_FACE('',(#309),#323,.T.);
#340=ADVANCED_FACE('',(#310),#17,.F.);
#341=ADVANCED_FACE('',(#311),#324,.T.);
#342=ADVANCED_FACE('',(#312),#18,.F.);
#343=ADVANCED_FACE('',(#313),#325,.F.);
#344=ADVANCED_FACE('',(#314),#19,.F.);
#345=ADVANCED_FACE('',(#315),#326,.T.);
#346=CLOSED_SHELL('',(#327,#328,#329,#330,#331,#332,#333,#334,#335,#336,
#337,#338,#339,#340,#341,#342,#343,#344,#345));
#347=STYLED_ITEM('',(#348),#355);
#348=PRESENTATION_STYLE_ASSIGNMENT((#349));
#349=SURFACE_STYLE_USAGE(.BOTH.,#350);
#350=SURFACE_SIDE_STYLE('',(#351));
#351=SURFACE_STYLE_FILL_AREA(#352);
#352=FILL_AREA_STYLE('',(#353));
#353=FILL_AREA_STYLE_COLOUR('',#354);
#354=COLOUR_RGB('',0.647058823529412,0.647058823529412,0.647058823529412);
#355=MANIFOLD_SOLID_BREP('Alarm',#346);
#356=SHAPE_DEFINITION_REPRESENTATION(#604,#357);
#357=SHAPE_REPRESENTATION('Alarm',(#358),#599);
#358=AXIS2_PLACEMENT_3D('',#498,#394,#395);
#359=AXIS2_PLACEMENT_3D('',#499,#396,#397);
#360=AXIS2_PLACEMENT_3D('',#508,#402,#403);
#361=AXIS2_PLACEMENT_3D('',#517,#408,#409);
#362=AXIS2_PLACEMENT_3D('',#526,#414,#415);
#363=AXIS2_PLACEMENT_3D('',#535,#420,#421);
#364=AXIS2_PLACEMENT_3D('',#539,#423,#424);
#365=AXIS2_PLACEMENT_3D('',#543,#426,#427);
#366=AXIS2_PLACEMENT_3D('',#547,#429,#430);
#367=AXIS2_PLACEMENT_3D('',#551,#432,#433);
#368=AXIS2_PLACEMENT_3D('',#552,#434,#435);
#369=AXIS2_PLACEMENT_3D('',#553,#436,#437);
#370=AXIS2_PLACEMENT_3D('',#554,#438,#439);
#371=AXIS2_PLACEMENT_3D('',#555,#440,#441);
#372=AXIS2_PLACEMENT_3D('',#556,#442,#443);
#373=AXIS2_PLACEMENT_3D('',#557,#444,#445);
#374=AXIS2_PLACEMENT_3D('',#558,#446,#447);
#375=AXIS2_PLACEMENT_3D('',#559,#448,#449);
#376=AXIS2_PLACEMENT_3D('',#560,#450,#451);
#377=AXIS2_PLACEMENT_3D('',#561,#452,#453);
#378=AXIS2_PLACEMENT_3D('',#562,#454,#455);
#379=AXIS2_PLACEMENT_3D('',#563,#456,#457);
#380=AXIS2_PLACEMENT_3D('',#564,#458,#459);
#381=AXIS2_PLACEMENT_3D('',#565,#460,#461);
#382=AXIS2_PLACEMENT_3D('',#571,#465,#466);
#383=AXIS2_PLACEMENT_3D('',#574,#468,#469);
#384=AXIS2_PLACEMENT_3D('',#575,#470,#471);
#385=AXIS2_PLACEMENT_3D('',#579,#474,#475);
#386=AXIS2_PLACEMENT_3D('',#582,#477,#478);
#387=AXIS2_PLACEMENT_3D('',#583,#479,#480);
#388=AXIS2_PLACEMENT_3D('',#587,#483,#484);
#389=AXIS2_PLACEMENT_3D('',#590,#486,#487);
#390=AXIS2_PLACEMENT_3D('',#591,#488,#489);
#391=AXIS2_PLACEMENT_3D('',#595,#492,#493);
#392=AXIS2_PLACEMENT_3D('',#596,#494,#495);
#393=AXIS2_PLACEMENT_3D('',#597,#496,#497);
#394=DIRECTION('',(0.,0.,1.));
#395=DIRECTION('',(1.,0.,0.));
#396=DIRECTION('',(0.,1.,0.));
#397=DIRECTION('',(0.,0.,1.));
#398=DIRECTION('',(1.,0.,0.));
#399=DIRECTION('',(0.,0.,-1.));
#400=DIRECTION('',(1.,0.,0.));
#401=DIRECTION('',(0.,0.,-1.));
#402=DIRECTION('',(1.,0.,0.));
#403=DIRECTION('',(0.,0.,-1.));
#404=DIRECTION('',(0.,-1.,0.));
#405=DIRECTION('',(0.,0.,-1.));
#406=DIRECTION('',(0.,-1.,0.));
#407=DIRECTION('',(0.,0.,-1.));
#408=DIRECTION('',(0.,1.,0.));
#409=DIRECTION('',(0.,0.,1.));
#410=DIRECTION('',(1.,0.,0.));
#411=DIRECTION('',(0.,0.,-1.));
#412=DIRECTION('',(1.,0.,0.));
#413=DIRECTION('',(0.,0.,-1.));
#414=DIRECTION('',(1.,0.,0.));
#415=DIRECTION('',(0.,0.,-1.));
#416=DIRECTION('',(0.,-1.,0.));
#417=DIRECTION('',(0.,0.,-1.));
#418=DIRECTION('',(0.,-1.,0.));
#419=DIRECTION('',(0.,0.,-1.));
#420=DIRECTION('',(0.,0.,1.));
#421=DIRECTION('',(1.,0.,0.));
#422=DIRECTION('',(1.,0.,0.));
#423=DIRECTION('',(0.,0.,1.));
#424=DIRECTION('',(1.,0.,0.));
#425=DIRECTION('',(-1.72289936407014E-16,-1.,0.));
#426=DIRECTION('',(0.,0.,1.));
#427=DIRECTION('',(1.,0.,0.));
#428=DIRECTION('',(1.,-4.07347995913511E-16,0.));
#429=DIRECTION('',(0.,0.,1.));
#430=DIRECTION('',(1.,0.,0.));
#431=DIRECTION('',(0.,-1.,0.));
#432=DIRECTION('',(0.,0.,1.));
#433=DIRECTION('',(1.,0.,0.));
#434=DIRECTION('',(0.,0.,1.));
#435=DIRECTION('',(1.,0.,0.));
#436=DIRECTION('',(0.,0.,1.));
#437=DIRECTION('',(1.,0.,0.));
#438=DIRECTION('',(0.,0.,1.));
#439=DIRECTION('',(1.,0.,0.));
#440=DIRECTION('',(0.,0.,1.));
#441=DIRECTION('',(1.,0.,0.));
#442=DIRECTION('',(0.,0.,1.));
#443=DIRECTION('',(1.,0.,0.));
#444=DIRECTION('',(0.,0.,1.));
#445=DIRECTION('',(1.,0.,0.));
#446=DIRECTION('',(0.,0.,1.));
#447=DIRECTION('',(1.,0.,0.));
#448=DIRECTION('',(0.,0.,1.));
#449=DIRECTION('',(1.,0.,0.));
#450=DIRECTION('',(0.,0.,1.));
#451=DIRECTION('',(1.,0.,0.));
#452=DIRECTION('',(0.,0.,1.));
#453=DIRECTION('',(1.,0.,0.));
#454=DIRECTION('',(0.,0.,-1.));
#455=DIRECTION('',(-1.,0.,0.));
#456=DIRECTION('',(0.,0.,1.));
#457=DIRECTION('',(1.,0.,0.));
#458=DIRECTION('',(0.,0.,-1.));
#459=DIRECTION('',(-1.,0.,0.));
#460=DIRECTION('',(0.,-1.,0.));
#461=DIRECTION('',(0.,0.,-1.));
#462=DIRECTION('',(0.,0.,1.));
#463=DIRECTION('',(1.,0.,0.));
#464=DIRECTION('',(0.,0.,1.));
#465=DIRECTION('',(0.,0.,1.));
#466=DIRECTION('',(1.,0.,0.));
#467=DIRECTION('',(0.,0.,1.));
#468=DIRECTION('',(0.,0.,1.));
#469=DIRECTION('',(1.,0.,0.));
#470=DIRECTION('',(-1.,0.,0.));
#471=DIRECTION('',(0.,0.,1.));
#472=DIRECTION('',(0.,0.,1.));
#473=DIRECTION('',(0.,-1.,0.));
#474=DIRECTION('',(0.,0.,1.));
#475=DIRECTION('',(1.,0.,0.));
#476=DIRECTION('',(0.,0.,1.));
#477=DIRECTION('',(0.,0.,1.));
#478=DIRECTION('',(1.,0.,0.));
#479=DIRECTION('',(-4.07347995913511E-16,-1.,0.));
#480=DIRECTION('',(1.,-4.07347995913511E-16,0.));
#481=DIRECTION('',(0.,0.,1.));
#482=DIRECTION('',(1.,-4.07347995913511E-16,0.));
#483=DIRECTION('',(0.,0.,1.));
#484=DIRECTION('',(1.,0.,0.));
#485=DIRECTION('',(0.,0.,1.));
#486=DIRECTION('',(0.,0.,1.));
#487=DIRECTION('',(1.,0.,0.));
#488=DIRECTION('',(-1.,1.72289936407014E-16,0.));
#489=DIRECTION('',(-1.72289936407014E-16,-1.,0.));
#490=DIRECTION('',(0.,0.,1.));
#491=DIRECTION('',(-1.72289936407014E-16,-1.,0.));
#492=DIRECTION('',(0.,0.,1.));
#493=DIRECTION('',(1.,0.,0.));
#494=DIRECTION('',(0.,0.,1.));
#495=DIRECTION('',(1.,0.,0.));
#496=DIRECTION('',(0.,0.,1.));
#497=DIRECTION('',(1.,0.,0.));
#498=CARTESIAN_POINT('',(0.,0.,0.));
#499=CARTESIAN_POINT('',(0.0140744483781983,-0.0198732072426489,0.0075));
#500=CARTESIAN_POINT('',(0.0140744483781983,-0.0198732072426489,0.));
#501=CARTESIAN_POINT('',(0.00528155515938489,-0.0198732072426489,0.));
#502=CARTESIAN_POINT('',(0.0228673415970118,-0.0198732072426489,0.));
#503=CARTESIAN_POINT('',(0.00528155515938489,-0.0198732072426489,0.0075));
#504=CARTESIAN_POINT('',(0.00528155515938489,-0.0198732072426489,0.0075));
#505=CARTESIAN_POINT('',(0.0140744483781983,-0.0198732072426489,0.0075));
#506=CARTESIAN_POINT('',(0.0228673415970118,-0.0198732072426489,0.0075));
#507=CARTESIAN_POINT('',(0.0228673415970118,-0.0198732072426489,0.0075));
#508=CARTESIAN_POINT('',(0.00407444837819834,-0.0238732072426489,0.0075));
#509=CARTESIAN_POINT('',(0.00407444837819834,-0.0238732072426489,0.0075));
#510=CARTESIAN_POINT('',(0.00407444837819834,-0.0210803140238355,0.0075));
#511=CARTESIAN_POINT('',(0.00407444837819834,-0.0266661004614624,0.0075));
#512=CARTESIAN_POINT('',(0.00407444837819834,-0.0210803140238355,0.));
#513=CARTESIAN_POINT('',(0.00407444837819834,-0.0210803140238355,0.));
#514=CARTESIAN_POINT('',(0.00407444837819834,-0.0238732072426489,0.));
#515=CARTESIAN_POINT('',(0.00407444837819834,-0.0266661004614624,0.));
#516=CARTESIAN_POINT('',(0.00407444837819834,-0.0266661004614624,0.0075));
#517=CARTESIAN_POINT('',(0.0140744483781983,-0.027873207242649,0.0075));
#518=CARTESIAN_POINT('',(0.0140744483781983,-0.027873207242649,0.0075));
#519=CARTESIAN_POINT('',(0.00528155515938489,-0.027873207242649,0.0075));
#520=CARTESIAN_POINT('',(0.0228673415970118,-0.027873207242649,0.0075));
#521=CARTESIAN_POINT('',(0.00528155515938489,-0.027873207242649,0.0075));
#522=CARTESIAN_POINT('',(0.00528155515938489,-0.027873207242649,0.));
#523=CARTESIAN_POINT('',(0.0140744483781983,-0.027873207242649,0.));
#524=CARTESIAN_POINT('',(0.0228673415970118,-0.027873207242649,0.));
#525=CARTESIAN_POINT('',(0.0228673415970118,-0.027873207242649,0.0075));
#526=CARTESIAN_POINT('',(0.0240744483781983,-0.0238732072426489,0.0075));
#527=CARTESIAN_POINT('',(0.0240744483781983,-0.0238732072426489,0.0075));
#528=CARTESIAN_POINT('',(0.0240744483781983,-0.0210803140238355,0.0075));
#529=CARTESIAN_POINT('',(0.0240744483781983,-0.0266661004614624,0.0075));
#530=CARTESIAN_POINT('',(0.0240744483781983,-0.0266661004614624,0.));
#531=CARTESIAN_POINT('',(0.0240744483781983,-0.0266661004614624,0.));
#532=CARTESIAN_POINT('',(0.0240744483781983,-0.0238732072426489,0.));
#533=CARTESIAN_POINT('',(0.0240744483781983,-0.0210803140238355,0.));
#534=CARTESIAN_POINT('',(0.0240744483781983,-0.0210803140238355,0.0075));
#535=CARTESIAN_POINT('',(0.0140744483781983,-0.0238732072426489,0.0075));
#536=CARTESIAN_POINT('',(0.0140481794213665,-0.0268702227523025,0.0075));
#537=CARTESIAN_POINT('',(0.00553102213384113,-0.0268702227523025,0.0075));
#538=CARTESIAN_POINT('',(0.0225653367088919,-0.0268702227523025,0.0075));
#539=CARTESIAN_POINT('',(0.00553102213384113,-0.0263873800398278,0.0075));
#540=CARTESIAN_POINT('',(0.00504817942136651,-0.0263873800398278,0.0075));
#541=CARTESIAN_POINT('',(0.00504817942136651,-0.0238702227523024,0.0075));
#542=CARTESIAN_POINT('',(0.00504817942136651,-0.0213530654647771,0.0075));
#543=CARTESIAN_POINT('',(0.00553102213384113,-0.0213530654647771,0.0075));
#544=CARTESIAN_POINT('',(0.00553102213384113,-0.0208702227523025,0.0075));
#545=CARTESIAN_POINT('',(0.0140481794213665,-0.0208702227523025,0.0075));
#546=CARTESIAN_POINT('',(0.0225653367088919,-0.0208702227523025,0.0075));
#547=CARTESIAN_POINT('',(0.0225653367088919,-0.0213530654647771,0.0075));
#548=CARTESIAN_POINT('',(0.0230481794213665,-0.0213530654647771,0.0075));
#549=CARTESIAN_POINT('',(0.0230481794213665,-0.0238702227523024,0.0075));
#550=CARTESIAN_POINT('',(0.0230481794213665,-0.0263873800398278,0.0075));
#551=CARTESIAN_POINT('',(0.0225653367088919,-0.0263873800398278,0.0075));
#552=CARTESIAN_POINT('',(0.00528155515938489,-0.0210803140238355,0.0075));
#553=CARTESIAN_POINT('',(0.00528155515938489,-0.0266661004614624,0.0075));
#554=CARTESIAN_POINT('',(0.0228673415970118,-0.0266661004614624,0.0075));
#555=CARTESIAN_POINT('',(0.0228673415970118,-0.0210803140238355,0.0075));
#556=CARTESIAN_POINT('',(0.0140744483781983,-0.0238732072426489,0.));
#557=CARTESIAN_POINT('',(0.00528155515938489,-0.0210803140238355,0.));
#558=CARTESIAN_POINT('',(0.0228673415970118,-0.0210803140238355,0.));
#559=CARTESIAN_POINT('',(0.0228673415970118,-0.0266661004614624,0.));
#560=CARTESIAN_POINT('',(0.00528155515938489,-0.0266661004614624,0.));
#561=CARTESIAN_POINT('',(0.00528155515938489,-0.0210803140238355,0.0075));
#562=CARTESIAN_POINT('',(0.00528155515938489,-0.0266661004614624,0.0075));
#563=CARTESIAN_POINT('',(0.0228673415970118,-0.0266661004614624,0.0075));
#564=CARTESIAN_POINT('',(0.0228673415970118,-0.0210803140238355,0.0075));
#565=CARTESIAN_POINT('',(0.0140481794213665,-0.0268702227523025,0.0072));
#566=CARTESIAN_POINT('',(0.0225653367088919,-0.0268702227523025,0.0072));
#567=CARTESIAN_POINT('',(0.0225653367088919,-0.0268702227523025,0.0072));
#568=CARTESIAN_POINT('',(0.0140481794213665,-0.0268702227523025,0.0072));
#569=CARTESIAN_POINT('',(0.00553102213384113,-0.0268702227523025,0.0072));
#570=CARTESIAN_POINT('',(0.00553102213384113,-0.0268702227523025,0.0072));
#571=CARTESIAN_POINT('',(0.0225653367088919,-0.0263873800398278,0.0072));
#572=CARTESIAN_POINT('',(0.0230481794213665,-0.0263873800398278,0.0072));
#573=CARTESIAN_POINT('',(0.0230481794213665,-0.0263873800398278,0.0072));
#574=CARTESIAN_POINT('',(0.0225653367088919,-0.0263873800398278,0.0072));
#575=CARTESIAN_POINT('',(0.0230481794213665,-0.0238702227523024,0.0072));
#576=CARTESIAN_POINT('',(0.0230481794213665,-0.0213530654647771,0.0072));
#577=CARTESIAN_POINT('',(0.0230481794213665,-0.0213530654647771,0.0072));
#578=CARTESIAN_POINT('',(0.0230481794213665,-0.0238702227523024,0.0072));
#579=CARTESIAN_POINT('',(0.0225653367088919,-0.0213530654647771,0.0072));
#580=CARTESIAN_POINT('',(0.0225653367088919,-0.0208702227523025,0.0072));
#581=CARTESIAN_POINT('',(0.0225653367088919,-0.0208702227523025,0.0072));
#582=CARTESIAN_POINT('',(0.0225653367088919,-0.0213530654647771,0.0072));
#583=CARTESIAN_POINT('',(0.0140481794213665,-0.0208702227523025,0.0072));
#584=CARTESIAN_POINT('',(0.00553102213384113,-0.0208702227523025,0.0072));
#585=CARTESIAN_POINT('',(0.00553102213384113,-0.0208702227523025,0.0072));
#586=CARTESIAN_POINT('',(0.0140481794213665,-0.0208702227523025,0.0072));
#587=CARTESIAN_POINT('',(0.00553102213384113,-0.0213530654647771,0.0072));
#588=CARTESIAN_POINT('',(0.00504817942136651,-0.0213530654647771,0.0072));
#589=CARTESIAN_POINT('',(0.00504817942136651,-0.0213530654647771,0.0072));
#590=CARTESIAN_POINT('',(0.00553102213384113,-0.0213530654647771,0.0072));
#591=CARTESIAN_POINT('',(0.00504817942136651,-0.0238702227523024,0.0072));
#592=CARTESIAN_POINT('',(0.00504817942136651,-0.0263873800398278,0.0072));
#593=CARTESIAN_POINT('',(0.00504817942136651,-0.0263873800398278,0.0072));
#594=CARTESIAN_POINT('',(0.00504817942136651,-0.0238702227523024,0.0072));
#595=CARTESIAN_POINT('',(0.00553102213384113,-0.0263873800398278,0.0072));
#596=CARTESIAN_POINT('',(0.00553102213384113,-0.0263873800398278,0.0072));
#597=CARTESIAN_POINT('',(0.0140744483781983,-0.0238732072426489,0.0072));
#598=MECHANICAL_DESIGN_GEOMETRIC_PRESENTATION_REPRESENTATION('',(#347),
#599);
#599=(
GEOMETRIC_REPRESENTATION_CONTEXT(3)
GLOBAL_UNCERTAINTY_ASSIGNED_CONTEXT((#600))
GLOBAL_UNIT_ASSIGNED_CONTEXT((#603,#602,#601))
REPRESENTATION_CONTEXT('Alarm','TOP_LEVEL_ASSEMBLY_PART')
);
#600=UNCERTAINTY_MEASURE_WITH_UNIT(LENGTH_MEASURE(1.E-8),#603,
'DISTANCE_ACCURACY_VALUE','Maximum Tolerance applied to model');
#601=(
NAMED_UNIT(*)
SI_UNIT($,.STERADIAN.)
SOLID_ANGLE_UNIT()
);
#602=(
NAMED_UNIT(*)
PLANE_ANGLE_UNIT()
SI_UNIT($,.RADIAN.)
);
#603=(
LENGTH_UNIT()
NAMED_UNIT(*)
SI_UNIT($,.METRE.)
);
#604=PRODUCT_DEFINITION_SHAPE('','',#605);
#605=PRODUCT_DEFINITION('','',#607,#606);
#606=PRODUCT_DEFINITION_CONTEXT('',#613,'design');
#607=PRODUCT_DEFINITION_FORMATION_WITH_SPECIFIED_SOURCE('','',#609,
 .NOT_KNOWN.);
#608=PRODUCT_RELATED_PRODUCT_CATEGORY('','',(#609));
#609=PRODUCT('Alarm','Alarm','Alarm',(#611));
#610=PRODUCT_CATEGORY('','');
#611=PRODUCT_CONTEXT('',#613,'mechanical');
#612=APPLICATION_PROTOCOL_DEFINITION('international standard',
'ap242_managed_model_based_3d_engineering',2020,#613);
#613=APPLICATION_CONTEXT('managed model based 3d engineering');
ENDSEC;
END-ISO-10303-21;
