ISO-10303-21;
HEADER;
/* Generated by software containing ST-Developer
 * from STEP Tools, Inc. (www.steptools.com) 
 */
/* OPTION: using custom renumber hook */

FILE_DESCRIPTION(
/* description */ ('STEP AP242 Edition 2',
'CAx-IF Rec.Pracs.---Representation and Presentation of Product Manufa
cturing Information (PMI)---4.0---2014-10-13',
'CAx-IF Rec.Pracs.---3D Tessellated Geometry---0.4---2014-09-14','2;1',
'CAx-IF Rec.Pracs.---User Defined Attributes---1.5---2016-08-15'),
/* implementation_level */ '2;1');

FILE_NAME(
/* name */ 'Assembly 1 - Shelf (1)',
/* time_stamp */ '2026-09-04T01:58:22Z',
/* author */ (''),
/* organization */ (''),
/* preprocessor_version */ 'ST-DEVELOPER v20',
/* originating_system */ 'ONSHAPE BY PTC INC, 1.220',
/* authorisation */ '  ');

FILE_SCHEMA (('AP242_MANAGED_MODEL_BASED_3D_ENGINEERING_MIM_LF { 1 0 10303 442 3 1 4 }'));
ENDSEC;

DATA;
#10=SHAPE_REPRESENTATION_RELATIONSHIP('','',#577,#11);
#11=ADVANCED_BREP_SHAPE_REPRESENTATION('',(#575),#975);
#12=SPHERICAL_SURFACE('',#619,0.00072426);
#13=SPHERICAL_SURFACE('',#621,0.00072426);
#14=SPHERICAL_SURFACE('',#630,0.00072426);
#15=SPHERICAL_SURFACE('',#632,0.00072426);
#16=CIRCLE('',#613,0.00072426);
#17=CIRCLE('',#615,0.00072426);
#18=CIRCLE('',#616,0.00072426);
#19=CIRCLE('',#618,0.00072426);
#20=CIRCLE('',#620,0.00072426);
#21=CIRCLE('',#622,0.00072426);
#22=CIRCLE('',#624,0.00072426);
#23=CIRCLE('',#626,0.00072426);
#24=CIRCLE('',#627,0.00072426);
#25=CIRCLE('',#629,0.00072426);
#26=CIRCLE('',#631,0.00072426);
#27=CIRCLE('',#633,0.00072426);
#28=ELLIPSE('',#594,0.00102425831468434,0.00072426);
#29=ELLIPSE('',#595,0.00102425831468434,0.00072426);
#30=ELLIPSE('',#597,0.00102425831468434,0.00072426);
#31=ELLIPSE('',#599,0.00102425831468434,0.00072426);
#32=ELLIPSE('',#602,0.00102425831468434,0.00072426);
#33=ELLIPSE('',#603,0.00102425831468434,0.00072426);
#34=ELLIPSE('',#605,0.00102425831468434,0.00072426);
#35=ELLIPSE('',#607,0.00102425831468434,0.00072426);
#36=ELLIPSE('',#610,0.00102425831468434,0.00072426);
#37=ELLIPSE('',#611,0.00102425831468434,0.00072426);
#38=ELLIPSE('',#635,0.00102425831468434,0.00072426);
#39=ELLIPSE('',#637,0.00102425831468434,0.00072426);
#40=CYLINDRICAL_SURFACE('',#593,0.00072426);
#41=CYLINDRICAL_SURFACE('',#596,0.00072426);
#42=CYLINDRICAL_SURFACE('',#598,0.00072426);
#43=CYLINDRICAL_SURFACE('',#600,0.00072426);
#44=CYLINDRICAL_SURFACE('',#601,0.00072426);
#45=CYLINDRICAL_SURFACE('',#604,0.00072426);
#46=CYLINDRICAL_SURFACE('',#606,0.00072426);
#47=CYLINDRICAL_SURFACE('',#608,0.00072426);
#48=CYLINDRICAL_SURFACE('',#609,0.00072426);
#49=CYLINDRICAL_SURFACE('',#612,0.00072426);
#50=CYLINDRICAL_SURFACE('',#614,0.00072426);
#51=CYLINDRICAL_SURFACE('',#617,0.00072426);
#52=CYLINDRICAL_SURFACE('',#623,0.00072426);
#53=CYLINDRICAL_SURFACE('',#625,0.00072426);
#54=CYLINDRICAL_SURFACE('',#628,0.00072426);
#55=CYLINDRICAL_SURFACE('',#634,0.00072426);
#56=CYLINDRICAL_SURFACE('',#636,0.00072426);
#57=CYLINDRICAL_SURFACE('',#638,0.00072426);
#58=ORIENTED_EDGE('',*,*,#214,.T.);
#59=ORIENTED_EDGE('',*,*,#215,.T.);
#60=ORIENTED_EDGE('',*,*,#216,.T.);
#61=ORIENTED_EDGE('',*,*,#217,.F.);
#62=ORIENTED_EDGE('',*,*,#218,.T.);
#63=ORIENTED_EDGE('',*,*,#219,.T.);
#64=ORIENTED_EDGE('',*,*,#220,.T.);
#65=ORIENTED_EDGE('',*,*,#221,.F.);
#66=ORIENTED_EDGE('',*,*,#222,.T.);
#67=ORIENTED_EDGE('',*,*,#223,.T.);
#68=ORIENTED_EDGE('',*,*,#224,.T.);
#69=ORIENTED_EDGE('',*,*,#225,.T.);
#70=ORIENTED_EDGE('',*,*,#226,.T.);
#71=ORIENTED_EDGE('',*,*,#227,.T.);
#72=ORIENTED_EDGE('',*,*,#228,.F.);
#73=ORIENTED_EDGE('',*,*,#229,.T.);
#74=ORIENTED_EDGE('',*,*,#230,.T.);
#75=ORIENTED_EDGE('',*,*,#231,.T.);
#76=ORIENTED_EDGE('',*,*,#232,.T.);
#77=ORIENTED_EDGE('',*,*,#233,.T.);
#78=ORIENTED_EDGE('',*,*,#234,.T.);
#79=ORIENTED_EDGE('',*,*,#235,.T.);
#80=ORIENTED_EDGE('',*,*,#236,.T.);
#81=ORIENTED_EDGE('',*,*,#237,.T.);
#82=ORIENTED_EDGE('',*,*,#238,.T.);
#83=ORIENTED_EDGE('',*,*,#239,.T.);
#84=ORIENTED_EDGE('',*,*,#240,.T.);
#85=ORIENTED_EDGE('',*,*,#241,.T.);
#86=ORIENTED_EDGE('',*,*,#242,.T.);
#87=ORIENTED_EDGE('',*,*,#243,.T.);
#88=ORIENTED_EDGE('',*,*,#244,.F.);
#89=ORIENTED_EDGE('',*,*,#220,.F.);
#90=ORIENTED_EDGE('',*,*,#245,.T.);
#91=ORIENTED_EDGE('',*,*,#246,.T.);
#92=ORIENTED_EDGE('',*,*,#247,.F.);
#93=ORIENTED_EDGE('',*,*,#216,.F.);
#94=ORIENTED_EDGE('',*,*,#248,.T.);
#95=ORIENTED_EDGE('',*,*,#228,.T.);
#96=ORIENTED_EDGE('',*,*,#249,.T.);
#97=ORIENTED_EDGE('',*,*,#224,.F.);
#98=ORIENTED_EDGE('',*,*,#244,.T.);
#99=ORIENTED_EDGE('',*,*,#250,.T.);
#100=ORIENTED_EDGE('',*,*,#251,.F.);
#101=ORIENTED_EDGE('',*,*,#221,.T.);
#102=ORIENTED_EDGE('',*,*,#252,.T.);
#103=ORIENTED_EDGE('',*,*,#253,.T.);
#104=ORIENTED_EDGE('',*,*,#254,.T.);
#105=ORIENTED_EDGE('',*,*,#255,.T.);
#106=ORIENTED_EDGE('',*,*,#256,.T.);
#107=ORIENTED_EDGE('',*,*,#257,.T.);
#108=ORIENTED_EDGE('',*,*,#242,.F.);
#109=ORIENTED_EDGE('',*,*,#223,.F.);
#110=ORIENTED_EDGE('',*,*,#251,.T.);
#111=ORIENTED_EDGE('',*,*,#258,.T.);
#112=ORIENTED_EDGE('',*,*,#256,.F.);
#113=ORIENTED_EDGE('',*,*,#222,.F.);
#114=ORIENTED_EDGE('',*,*,#247,.T.);
#115=ORIENTED_EDGE('',*,*,#259,.T.);
#116=ORIENTED_EDGE('',*,*,#260,.F.);
#117=ORIENTED_EDGE('',*,*,#217,.T.);
#118=ORIENTED_EDGE('',*,*,#261,.T.);
#119=ORIENTED_EDGE('',*,*,#262,.T.);
#120=ORIENTED_EDGE('',*,*,#263,.T.);
#121=ORIENTED_EDGE('',*,*,#264,.T.);
#122=ORIENTED_EDGE('',*,*,#265,.T.);
#123=ORIENTED_EDGE('',*,*,#266,.T.);
#124=ORIENTED_EDGE('',*,*,#245,.F.);
#125=ORIENTED_EDGE('',*,*,#219,.F.);
#126=ORIENTED_EDGE('',*,*,#260,.T.);
#127=ORIENTED_EDGE('',*,*,#267,.T.);
#128=ORIENTED_EDGE('',*,*,#265,.F.);
#129=ORIENTED_EDGE('',*,*,#218,.F.);
#130=ORIENTED_EDGE('',*,*,#268,.F.);
#131=ORIENTED_EDGE('',*,*,#252,.F.);
#132=ORIENTED_EDGE('',*,*,#269,.F.);
#133=ORIENTED_EDGE('',*,*,#243,.F.);
#134=ORIENTED_EDGE('',*,*,#269,.T.);
#135=ORIENTED_EDGE('',*,*,#255,.F.);
#136=ORIENTED_EDGE('',*,*,#270,.F.);
#137=ORIENTED_EDGE('',*,*,#250,.F.);
#138=ORIENTED_EDGE('',*,*,#268,.T.);
#139=ORIENTED_EDGE('',*,*,#257,.F.);
#140=ORIENTED_EDGE('',*,*,#271,.F.);
#141=ORIENTED_EDGE('',*,*,#253,.F.);
#142=ORIENTED_EDGE('',*,*,#270,.T.);
#143=ORIENTED_EDGE('',*,*,#254,.F.);
#144=ORIENTED_EDGE('',*,*,#271,.T.);
#145=ORIENTED_EDGE('',*,*,#258,.F.);
#146=ORIENTED_EDGE('',*,*,#272,.F.);
#147=ORIENTED_EDGE('',*,*,#261,.F.);
#148=ORIENTED_EDGE('',*,*,#273,.F.);
#149=ORIENTED_EDGE('',*,*,#246,.F.);
#150=ORIENTED_EDGE('',*,*,#273,.T.);
#151=ORIENTED_EDGE('',*,*,#264,.F.);
#152=ORIENTED_EDGE('',*,*,#274,.F.);
#153=ORIENTED_EDGE('',*,*,#259,.F.);
#154=ORIENTED_EDGE('',*,*,#272,.T.);
#155=ORIENTED_EDGE('',*,*,#266,.F.);
#156=ORIENTED_EDGE('',*,*,#275,.F.);
#157=ORIENTED_EDGE('',*,*,#262,.F.);
#158=ORIENTED_EDGE('',*,*,#274,.T.);
#159=ORIENTED_EDGE('',*,*,#263,.F.);
#160=ORIENTED_EDGE('',*,*,#275,.T.);
#161=ORIENTED_EDGE('',*,*,#267,.F.);
#162=ORIENTED_EDGE('',*,*,#276,.F.);
#163=ORIENTED_EDGE('',*,*,#249,.F.);
#164=ORIENTED_EDGE('',*,*,#277,.F.);
#165=ORIENTED_EDGE('',*,*,#235,.F.);
#166=ORIENTED_EDGE('',*,*,#277,.T.);
#167=ORIENTED_EDGE('',*,*,#227,.F.);
#168=ORIENTED_EDGE('',*,*,#278,.F.);
#169=ORIENTED_EDGE('',*,*,#236,.F.);
#170=ORIENTED_EDGE('',*,*,#279,.F.);
#171=ORIENTED_EDGE('',*,*,#237,.F.);
#172=ORIENTED_EDGE('',*,*,#280,.F.);
#173=ORIENTED_EDGE('',*,*,#240,.F.);
#174=ORIENTED_EDGE('',*,*,#276,.T.);
#175=ORIENTED_EDGE('',*,*,#234,.F.);
#176=ORIENTED_EDGE('',*,*,#281,.F.);
#177=ORIENTED_EDGE('',*,*,#225,.F.);
#178=ORIENTED_EDGE('',*,*,#280,.T.);
#179=ORIENTED_EDGE('',*,*,#278,.T.);
#180=ORIENTED_EDGE('',*,*,#282,.F.);
#181=ORIENTED_EDGE('',*,*,#281,.T.);
#182=ORIENTED_EDGE('',*,*,#279,.T.);
#183=ORIENTED_EDGE('',*,*,#283,.F.);
#184=ORIENTED_EDGE('',*,*,#282,.T.);
#185=ORIENTED_EDGE('',*,*,#226,.F.);
#186=ORIENTED_EDGE('',*,*,#284,.F.);
#187=ORIENTED_EDGE('',*,*,#241,.F.);
#188=ORIENTED_EDGE('',*,*,#285,.F.);
#189=ORIENTED_EDGE('',*,*,#238,.F.);
#190=ORIENTED_EDGE('',*,*,#286,.F.);
#191=ORIENTED_EDGE('',*,*,#233,.F.);
#192=ORIENTED_EDGE('',*,*,#283,.T.);
#193=ORIENTED_EDGE('',*,*,#239,.F.);
#194=ORIENTED_EDGE('',*,*,#287,.F.);
#195=ORIENTED_EDGE('',*,*,#214,.F.);
#196=ORIENTED_EDGE('',*,*,#286,.T.);
#197=ORIENTED_EDGE('',*,*,#284,.T.);
#198=ORIENTED_EDGE('',*,*,#288,.F.);
#199=ORIENTED_EDGE('',*,*,#287,.T.);
#200=ORIENTED_EDGE('',*,*,#285,.T.);
#201=ORIENTED_EDGE('',*,*,#289,.F.);
#202=ORIENTED_EDGE('',*,*,#288,.T.);
#203=ORIENTED_EDGE('',*,*,#229,.F.);
#204=ORIENTED_EDGE('',*,*,#290,.F.);
#205=ORIENTED_EDGE('',*,*,#230,.F.);
#206=ORIENTED_EDGE('',*,*,#289,.T.);
#207=ORIENTED_EDGE('',*,*,#232,.F.);
#208=ORIENTED_EDGE('',*,*,#291,.F.);
#209=ORIENTED_EDGE('',*,*,#215,.F.);
#210=ORIENTED_EDGE('',*,*,#290,.T.);
#211=ORIENTED_EDGE('',*,*,#248,.F.);
#212=ORIENTED_EDGE('',*,*,#291,.T.);
#213=ORIENTED_EDGE('',*,*,#231,.F.);
#214=EDGE_CURVE('',#292,#293,#336,.F.);
#215=EDGE_CURVE('',#293,#294,#337,.T.);
#216=EDGE_CURVE('',#294,#295,#338,.T.);
#217=EDGE_CURVE('',#296,#295,#339,.T.);
#218=EDGE_CURVE('',#296,#297,#340,.T.);
#219=EDGE_CURVE('',#297,#298,#341,.T.);
#220=EDGE_CURVE('',#298,#299,#342,.T.);
#221=EDGE_CURVE('',#300,#299,#343,.T.);
#222=EDGE_CURVE('',#300,#301,#344,.T.);
#223=EDGE_CURVE('',#301,#302,#345,.T.);
#224=EDGE_CURVE('',#302,#303,#346,.T.);
#225=EDGE_CURVE('',#303,#292,#347,.F.);
#226=EDGE_CURVE('',#304,#305,#348,.T.);
#227=EDGE_CURVE('',#305,#306,#349,.T.);
#228=EDGE_CURVE('',#307,#306,#350,.T.);
#229=EDGE_CURVE('',#307,#304,#351,.F.);
#230=EDGE_CURVE('',#308,#309,#352,.T.);
#231=EDGE_CURVE('',#309,#310,#353,.T.);
#232=EDGE_CURVE('',#310,#311,#354,.F.);
#233=EDGE_CURVE('',#311,#308,#355,.F.);
#234=EDGE_CURVE('',#312,#313,#356,.T.);
#235=EDGE_CURVE('',#313,#314,#357,.F.);
#236=EDGE_CURVE('',#314,#315,#358,.F.);
#237=EDGE_CURVE('',#315,#312,#359,.T.);
#238=EDGE_CURVE('',#316,#317,#360,.T.);
#239=EDGE_CURVE('',#317,#318,#361,.T.);
#240=EDGE_CURVE('',#318,#319,#362,.F.);
#241=EDGE_CURVE('',#319,#316,#363,.F.);
#242=EDGE_CURVE('',#302,#320,#364,.T.);
#243=EDGE_CURVE('',#320,#321,#365,.F.);
#244=EDGE_CURVE('',#299,#321,#366,.T.);
#245=EDGE_CURVE('',#298,#322,#367,.T.);
#246=EDGE_CURVE('',#322,#323,#368,.F.);
#247=EDGE_CURVE('',#295,#323,#369,.T.);
#248=EDGE_CURVE('',#294,#307,#370,.F.);
#249=EDGE_CURVE('',#306,#303,#371,.T.);
#250=EDGE_CURVE('',#321,#324,#372,.F.);
#251=EDGE_CURVE('',#300,#324,#373,.T.);
#252=EDGE_CURVE('',#325,#326,#374,.T.);
#253=EDGE_CURVE('',#326,#327,#375,.F.);
#254=EDGE_CURVE('',#327,#328,#376,.F.);
#255=EDGE_CURVE('',#328,#325,#377,.T.);
#256=EDGE_CURVE('',#301,#329,#378,.T.);
#257=EDGE_CURVE('',#329,#320,#379,.T.);
#258=EDGE_CURVE('',#324,#329,#380,.T.);
#259=EDGE_CURVE('',#323,#330,#381,.F.);
#260=EDGE_CURVE('',#296,#330,#382,.T.);
#261=EDGE_CURVE('',#331,#332,#383,.T.);
#262=EDGE_CURVE('',#332,#333,#384,.F.);
#263=EDGE_CURVE('',#333,#334,#385,.F.);
#264=EDGE_CURVE('',#334,#331,#386,.T.);
#265=EDGE_CURVE('',#297,#335,#387,.T.);
#266=EDGE_CURVE('',#335,#322,#388,.T.);
#267=EDGE_CURVE('',#330,#335,#389,.T.);
#268=EDGE_CURVE('',#326,#320,#28,.T.);
#269=EDGE_CURVE('',#321,#325,#29,.F.);
#270=EDGE_CURVE('',#324,#328,#30,.F.);
#271=EDGE_CURVE('',#327,#329,#31,.T.);
#272=EDGE_CURVE('',#332,#322,#32,.T.);
#273=EDGE_CURVE('',#323,#331,#33,.F.);
#274=EDGE_CURVE('',#330,#334,#34,.F.);
#275=EDGE_CURVE('',#333,#335,#35,.T.);
#276=EDGE_CURVE('',#303,#313,#36,.T.);
#277=EDGE_CURVE('',#314,#306,#37,.F.);
#278=EDGE_CURVE('',#315,#305,#16,.T.);
#279=EDGE_CURVE('',#312,#318,#17,.T.);
#280=EDGE_CURVE('',#319,#315,#18,.T.);
#281=EDGE_CURVE('',#292,#312,#19,.T.);
#282=EDGE_CURVE('',#319,#305,#20,.F.);
#283=EDGE_CURVE('',#292,#318,#21,.F.);
#284=EDGE_CURVE('',#316,#304,#22,.T.);
#285=EDGE_CURVE('',#317,#311,#23,.T.);
#286=EDGE_CURVE('',#308,#316,#24,.T.);
#287=EDGE_CURVE('',#293,#317,#25,.T.);
#288=EDGE_CURVE('',#308,#304,#26,.F.);
#289=EDGE_CURVE('',#293,#311,#27,.F.);
#290=EDGE_CURVE('',#309,#307,#38,.F.);
#291=EDGE_CURVE('',#294,#310,#39,.T.);
#292=VERTEX_POINT('',#818);
#293=VERTEX_POINT('',#819);
#294=VERTEX_POINT('',#821);
#295=VERTEX_POINT('',#823);
#296=VERTEX_POINT('',#825);
#297=VERTEX_POINT('',#827);
#298=VERTEX_POINT('',#829);
#299=VERTEX_POINT('',#831);
#300=VERTEX_POINT('',#833);
#301=VERTEX_POINT('',#835);
#302=VERTEX_POINT('',#837);
#303=VERTEX_POINT('',#839);
#304=VERTEX_POINT('',#843);
#305=VERTEX_POINT('',#844);
#306=VERTEX_POINT('',#846);
#307=VERTEX_POINT('',#848);
#308=VERTEX_POINT('',#852);
#309=VERTEX_POINT('',#853);
#310=VERTEX_POINT('',#855);
#311=VERTEX_POINT('',#857);
#312=VERTEX_POINT('',#861);
#313=VERTEX_POINT('',#862);
#314=VERTEX_POINT('',#864);
#315=VERTEX_POINT('',#866);
#316=VERTEX_POINT('',#870);
#317=VERTEX_POINT('',#871);
#318=VERTEX_POINT('',#873);
#319=VERTEX_POINT('',#875);
#320=VERTEX_POINT('',#879);
#321=VERTEX_POINT('',#881);
#322=VERTEX_POINT('',#884);
#323=VERTEX_POINT('',#886);
#324=VERTEX_POINT('',#892);
#325=VERTEX_POINT('',#896);
#326=VERTEX_POINT('',#897);
#327=VERTEX_POINT('',#899);
#328=VERTEX_POINT('',#901);
#329=VERTEX_POINT('',#905);
#330=VERTEX_POINT('',#911);
#331=VERTEX_POINT('',#915);
#332=VERTEX_POINT('',#916);
#333=VERTEX_POINT('',#918);
#334=VERTEX_POINT('',#920);
#335=VERTEX_POINT('',#924);
#336=LINE('',#817,#390);
#337=LINE('',#820,#391);
#338=LINE('',#822,#392);
#339=LINE('',#824,#393);
#340=LINE('',#826,#394);
#341=LINE('',#828,#395);
#342=LINE('',#830,#396);
#343=LINE('',#832,#397);
#344=LINE('',#834,#398);
#345=LINE('',#836,#399);
#346=LINE('',#838,#400);
#347=LINE('',#840,#401);
#348=LINE('',#842,#402);
#349=LINE('',#845,#403);
#350=LINE('',#847,#404);
#351=LINE('',#849,#405);
#352=LINE('',#851,#406);
#353=LINE('',#854,#407);
#354=LINE('',#856,#408);
#355=LINE('',#858,#409);
#356=LINE('',#860,#410);
#357=LINE('',#863,#411);
#358=LINE('',#865,#412);
#359=LINE('',#867,#413);
#360=LINE('',#869,#414);
#361=LINE('',#872,#415);
#362=LINE('',#874,#416);
#363=LINE('',#876,#417);
#364=LINE('',#878,#418);
#365=LINE('',#880,#419);
#366=LINE('',#882,#420);
#367=LINE('',#883,#421);
#368=LINE('',#885,#422);
#369=LINE('',#887,#423);
#370=LINE('',#888,#424);
#371=LINE('',#889,#425);
#372=LINE('',#891,#426);
#373=LINE('',#893,#427);
#374=LINE('',#895,#428);
#375=LINE('',#898,#429);
#376=LINE('',#900,#430);
#377=LINE('',#902,#431);
#378=LINE('',#904,#432);
#379=LINE('',#906,#433);
#380=LINE('',#908,#434);
#381=LINE('',#910,#435);
#382=LINE('',#912,#436);
#383=LINE('',#914,#437);
#384=LINE('',#917,#438);
#385=LINE('',#919,#439);
#386=LINE('',#921,#440);
#387=LINE('',#923,#441);
#388=LINE('',#925,#442);
#389=LINE('',#927,#443);
#390=VECTOR('',#643,1.);
#391=VECTOR('',#644,1.);
#392=VECTOR('',#645,1.);
#393=VECTOR('',#646,1.);
#394=VECTOR('',#647,1.);
#395=VECTOR('',#648,1.);
#396=VECTOR('',#649,1.);
#397=VECTOR('',#650,1.);
#398=VECTOR('',#651,1.);
#399=VECTOR('',#652,1.);
#400=VECTOR('',#653,1.);
#401=VECTOR('',#654,1.);
#402=VECTOR('',#657,1.);
#403=VECTOR('',#658,1.);
#404=VECTOR('',#659,1.);
#405=VECTOR('',#660,1.);
#406=VECTOR('',#663,1.);
#407=VECTOR('',#664,1.);
#408=VECTOR('',#665,1.);
#409=VECTOR('',#666,1.);
#410=VECTOR('',#669,1.);
#411=VECTOR('',#670,1.);
#412=VECTOR('',#671,1.);
#413=VECTOR('',#672,1.);
#414=VECTOR('',#675,1.);
#415=VECTOR('',#676,1.);
#416=VECTOR('',#677,1.);
#417=VECTOR('',#678,1.);
#418=VECTOR('',#681,1.);
#419=VECTOR('',#682,1.);
#420=VECTOR('',#683,1.);
#421=VECTOR('',#684,1.);
#422=VECTOR('',#685,1.);
#423=VECTOR('',#686,1.);
#424=VECTOR('',#687,1.);
#425=VECTOR('',#688,1.);
#426=VECTOR('',#691,1.);
#427=VECTOR('',#692,1.);
#428=VECTOR('',#695,1.);
#429=VECTOR('',#696,1.);
#430=VECTOR('',#697,1.);
#431=VECTOR('',#698,1.);
#432=VECTOR('',#701,1.);
#433=VECTOR('',#702,1.);
#434=VECTOR('',#705,1.);
#435=VECTOR('',#708,1.);
#436=VECTOR('',#709,1.);
#437=VECTOR('',#712,1.);
#438=VECTOR('',#713,1.);
#439=VECTOR('',#714,1.);
#440=VECTOR('',#715,1.);
#441=VECTOR('',#718,1.);
#442=VECTOR('',#719,1.);
#443=VECTOR('',#722,1.);
#444=EDGE_LOOP('',(#58,#59,#60,#61,#62,#63,#64,#65,#66,#67,#68,#69));
#445=EDGE_LOOP('',(#70,#71,#72,#73));
#446=EDGE_LOOP('',(#74,#75,#76,#77));
#447=EDGE_LOOP('',(#78,#79,#80,#81));
#448=EDGE_LOOP('',(#82,#83,#84,#85));
#449=EDGE_LOOP('',(#86,#87,#88,#89,#90,#91,#92,#93,#94,#95,#96,#97));
#450=EDGE_LOOP('',(#98,#99,#100,#101));
#451=EDGE_LOOP('',(#102,#103,#104,#105));
#452=EDGE_LOOP('',(#106,#107,#108,#109));
#453=EDGE_LOOP('',(#110,#111,#112,#113));
#454=EDGE_LOOP('',(#114,#115,#116,#117));
#455=EDGE_LOOP('',(#118,#119,#120,#121));
#456=EDGE_LOOP('',(#122,#123,#124,#125));
#457=EDGE_LOOP('',(#126,#127,#128,#129));
#458=EDGE_LOOP('',(#130,#131,#132,#133));
#459=EDGE_LOOP('',(#134,#135,#136,#137));
#460=EDGE_LOOP('',(#138,#139,#140,#141));
#461=EDGE_LOOP('',(#142,#143,#144,#145));
#462=EDGE_LOOP('',(#146,#147,#148,#149));
#463=EDGE_LOOP('',(#150,#151,#152,#153));
#464=EDGE_LOOP('',(#154,#155,#156,#157));
#465=EDGE_LOOP('',(#158,#159,#160,#161));
#466=EDGE_LOOP('',(#162,#163,#164,#165));
#467=EDGE_LOOP('',(#166,#167,#168,#169));
#468=EDGE_LOOP('',(#170,#171,#172,#173));
#469=EDGE_LOOP('',(#174,#175,#176,#177));
#470=EDGE_LOOP('',(#178,#179,#180));
#471=EDGE_LOOP('',(#181,#182,#183));
#472=EDGE_LOOP('',(#184,#185,#186,#187));
#473=EDGE_LOOP('',(#188,#189,#190,#191));
#474=EDGE_LOOP('',(#192,#193,#194,#195));
#475=EDGE_LOOP('',(#196,#197,#198));
#476=EDGE_LOOP('',(#199,#200,#201));
#477=EDGE_LOOP('',(#202,#203,#204,#205));
#478=EDGE_LOOP('',(#206,#207,#208,#209));
#479=EDGE_LOOP('',(#210,#211,#212,#213));
#480=FACE_BOUND('',#444,.T.);
#481=FACE_BOUND('',#445,.T.);
#482=FACE_BOUND('',#446,.T.);
#483=FACE_BOUND('',#447,.T.);
#484=FACE_BOUND('',#448,.T.);
#485=FACE_BOUND('',#449,.T.);
#486=FACE_BOUND('',#450,.T.);
#487=FACE_BOUND('',#451,.T.);
#488=FACE_BOUND('',#452,.T.);
#489=FACE_BOUND('',#453,.T.);
#490=FACE_BOUND('',#454,.T.);
#491=FACE_BOUND('',#455,.T.);
#492=FACE_BOUND('',#456,.T.);
#493=FACE_BOUND('',#457,.T.);
#494=FACE_BOUND('',#458,.T.);
#495=FACE_BOUND('',#459,.T.);
#496=FACE_BOUND('',#460,.T.);
#497=FACE_BOUND('',#461,.T.);
#498=FACE_BOUND('',#462,.T.);
#499=FACE_BOUND('',#463,.T.);
#500=FACE_BOUND('',#464,.T.);
#501=FACE_BOUND('',#465,.T.);
#502=FACE_BOUND('',#466,.T.);
#503=FACE_BOUND('',#467,.T.);
#504=FACE_BOUND('',#468,.T.);
#505=FACE_BOUND('',#469,.T.);
#506=FACE_BOUND('',#470,.T.);
#507=FACE_BOUND('',#471,.T.);
#508=FACE_BOUND('',#472,.T.);
#509=FACE_BOUND('',#473,.T.);
#510=FACE_BOUND('',#474,.T.);
#511=FACE_BOUND('',#475,.T.);
#512=FACE_BOUND('',#476,.T.);
#513=FACE_BOUND('',#477,.T.);
#514=FACE_BOUND('',#478,.T.);
#515=FACE_BOUND('',#479,.T.);
#516=PLANE('',#579);
#517=PLANE('',#580);
#518=PLANE('',#581);
#519=PLANE('',#582);
#520=PLANE('',#583);
#521=PLANE('',#584);
#522=PLANE('',#585);
#523=PLANE('',#586);
#524=PLANE('',#587);
#525=PLANE('',#588);
#526=PLANE('',#589);
#527=PLANE('',#590);
#528=PLANE('',#591);
#529=PLANE('',#592);
#530=ADVANCED_FACE('',(#480),#516,.F.);
#531=ADVANCED_FACE('',(#481),#517,.T.);
#532=ADVANCED_FACE('',(#482),#518,.F.);
#533=ADVANCED_FACE('',(#483),#519,.T.);
#534=ADVANCED_FACE('',(#484),#520,.T.);
#535=ADVANCED_FACE('',(#485),#521,.F.);
#536=ADVANCED_FACE('',(#486),#522,.F.);
#537=ADVANCED_FACE('',(#487),#523,.F.);
#538=ADVANCED_FACE('',(#488),#524,.T.);
#539=ADVANCED_FACE('',(#489),#525,.T.);
#540=ADVANCED_FACE('',(#490),#526,.F.);
#541=ADVANCED_FACE('',(#491),#527,.F.);
#542=ADVANCED_FACE('',(#492),#528,.T.);
#543=ADVANCED_FACE('',(#493),#529,.T.);
#544=ADVANCED_FACE('',(#494),#40,.T.);
#545=ADVANCED_FACE('',(#495),#41,.T.);
#546=ADVANCED_FACE('',(#496),#42,.T.);
#547=ADVANCED_FACE('',(#497),#43,.T.);
#548=ADVANCED_FACE('',(#498),#44,.T.);
#549=ADVANCED_FACE('',(#499),#45,.T.);
#550=ADVANCED_FACE('',(#500),#46,.T.);
#551=ADVANCED_FACE('',(#501),#47,.T.);
#552=ADVANCED_FACE('',(#502),#48,.T.);
#553=ADVANCED_FACE('',(#503),#49,.T.);
#554=ADVANCED_FACE('',(#504),#50,.T.);
#555=ADVANCED_FACE('',(#505),#51,.T.);
#556=ADVANCED_FACE('',(#506),#12,.T.);
#557=ADVANCED_FACE('',(#507),#13,.T.);
#558=ADVANCED_FACE('',(#508),#52,.T.);
#559=ADVANCED_FACE('',(#509),#53,.T.);
#560=ADVANCED_FACE('',(#510),#54,.T.);
#561=ADVANCED_FACE('',(#511),#14,.T.);
#562=ADVANCED_FACE('',(#512),#15,.T.);
#563=ADVANCED_FACE('',(#513),#55,.T.);
#564=ADVANCED_FACE('',(#514),#56,.T.);
#565=ADVANCED_FACE('',(#515),#57,.T.);
#566=CLOSED_SHELL('',(#530,#531,#532,#533,#534,#535,#536,#537,#538,#539,
#540,#541,#542,#543,#544,#545,#546,#547,#548,#549,#550,#551,#552,#553,#554,
#555,#556,#557,#558,#559,#560,#561,#562,#563,#564,#565));
#567=STYLED_ITEM('',(#568),#575);
#568=PRESENTATION_STYLE_ASSIGNMENT((#569));
#569=SURFACE_STYLE_USAGE(.BOTH.,#570);
#570=SURFACE_SIDE_STYLE('',(#571));
#571=SURFACE_STYLE_FILL_AREA(#572);
#572=FILL_AREA_STYLE('',(#573));
#573=FILL_AREA_STYLE_COLOUR('',#574);
#574=COLOUR_RGB('',0.8,0.635294117647059,0.47843137254902);
#575=MANIFOLD_SOLID_BREP('Shelf',#566);
#576=SHAPE_DEFINITION_REPRESENTATION(#980,#577);
#577=SHAPE_REPRESENTATION('Shelf',(#578),#975);
#578=AXIS2_PLACEMENT_3D('',#815,#639,#640);
#579=AXIS2_PLACEMENT_3D('',#816,#641,#642);
#580=AXIS2_PLACEMENT_3D('',#841,#655,#656);
#581=AXIS2_PLACEMENT_3D('',#850,#661,#662);
#582=AXIS2_PLACEMENT_3D('',#859,#667,#668);
#583=AXIS2_PLACEMENT_3D('',#868,#673,#674);
#584=AXIS2_PLACEMENT_3D('',#877,#679,#680);
#585=AXIS2_PLACEMENT_3D('',#890,#689,#690);
#586=AXIS2_PLACEMENT_3D('',#894,#693,#694);
#587=AXIS2_PLACEMENT_3D('',#903,#699,#700);
#588=AXIS2_PLACEMENT_3D('',#907,#703,#704);
#589=AXIS2_PLACEMENT_3D('',#909,#706,#707);
#590=AXIS2_PLACEMENT_3D('',#913,#710,#711);
#591=AXIS2_PLACEMENT_3D('',#922,#716,#717);
#592=AXIS2_PLACEMENT_3D('',#926,#720,#721);
#593=AXIS2_PLACEMENT_3D('',#928,#723,#724);
#594=AXIS2_PLACEMENT_3D('',#929,#725,#726);
#595=AXIS2_PLACEMENT_3D('',#930,#727,#728);
#596=AXIS2_PLACEMENT_3D('',#931,#729,#730);
#597=AXIS2_PLACEMENT_3D('',#932,#731,#732);
#598=AXIS2_PLACEMENT_3D('',#933,#733,#734);
#599=AXIS2_PLACEMENT_3D('',#934,#735,#736);
#600=AXIS2_PLACEMENT_3D('',#935,#737,#738);
#601=AXIS2_PLACEMENT_3D('',#936,#739,#740);
#602=AXIS2_PLACEMENT_3D('',#937,#741,#742);
#603=AXIS2_PLACEMENT_3D('',#938,#743,#744);
#604=AXIS2_PLACEMENT_3D('',#939,#745,#746);
#605=AXIS2_PLACEMENT_3D('',#940,#747,#748);
#606=AXIS2_PLACEMENT_3D('',#941,#749,#750);
#607=AXIS2_PLACEMENT_3D('',#942,#751,#752);
#608=AXIS2_PLACEMENT_3D('',#943,#753,#754);
#609=AXIS2_PLACEMENT_3D('',#944,#755,#756);
#610=AXIS2_PLACEMENT_3D('',#945,#757,#758);
#611=AXIS2_PLACEMENT_3D('',#946,#759,#760);
#612=AXIS2_PLACEMENT_3D('',#947,#761,#762);
#613=AXIS2_PLACEMENT_3D('',#948,#763,#764);
#614=AXIS2_PLACEMENT_3D('',#949,#765,#766);
#615=AXIS2_PLACEMENT_3D('',#950,#767,#768);
#616=AXIS2_PLACEMENT_3D('',#951,#769,#770);
#617=AXIS2_PLACEMENT_3D('',#952,#771,#772);
#618=AXIS2_PLACEMENT_3D('',#953,#773,#774);
#619=AXIS2_PLACEMENT_3D('',#954,#775,#776);
#620=AXIS2_PLACEMENT_3D('',#955,#777,#778);
#621=AXIS2_PLACEMENT_3D('',#956,#779,#780);
#622=AXIS2_PLACEMENT_3D('',#957,#781,#782);
#623=AXIS2_PLACEMENT_3D('',#958,#783,#784);
#624=AXIS2_PLACEMENT_3D('',#959,#785,#786);
#625=AXIS2_PLACEMENT_3D('',#960,#787,#788);
#626=AXIS2_PLACEMENT_3D('',#961,#789,#790);
#627=AXIS2_PLACEMENT_3D('',#962,#791,#792);
#628=AXIS2_PLACEMENT_3D('',#963,#793,#794);
#629=AXIS2_PLACEMENT_3D('',#964,#795,#796);
#630=AXIS2_PLACEMENT_3D('',#965,#797,#798);
#631=AXIS2_PLACEMENT_3D('',#966,#799,#800);
#632=AXIS2_PLACEMENT_3D('',#967,#801,#802);
#633=AXIS2_PLACEMENT_3D('',#968,#803,#804);
#634=AXIS2_PLACEMENT_3D('',#969,#805,#806);
#635=AXIS2_PLACEMENT_3D('',#970,#807,#808);
#636=AXIS2_PLACEMENT_3D('',#971,#809,#810);
#637=AXIS2_PLACEMENT_3D('',#972,#811,#812);
#638=AXIS2_PLACEMENT_3D('',#973,#813,#814);
#639=DIRECTION('',(0.,0.,1.));
#640=DIRECTION('',(1.,0.,0.));
#641=DIRECTION('',(0.,1.,0.));
#642=DIRECTION('',(0.,0.,1.));
#643=DIRECTION('',(1.,0.,0.));
#644=DIRECTION('',(0.,0.,-1.));
#645=DIRECTION('',(1.,0.,0.));
#646=DIRECTION('',(0.,0.,-1.));
#647=DIRECTION('',(1.,0.,0.));
#648=DIRECTION('',(0.,0.,-1.));
#649=DIRECTION('',(1.,0.,0.));
#650=DIRECTION('',(0.,0.,-1.));
#651=DIRECTION('',(1.,0.,0.));
#652=DIRECTION('',(0.,0.,-1.));
#653=DIRECTION('',(1.,0.,0.));
#654=DIRECTION('',(0.,0.,-1.));
#655=DIRECTION('',(0.,1.,0.));
#656=DIRECTION('',(0.,0.,1.));
#657=DIRECTION('',(1.,0.,0.));
#658=DIRECTION('',(0.,0.,-1.));
#659=DIRECTION('',(1.,0.,0.));
#660=DIRECTION('',(0.,0.,-1.));
#661=DIRECTION('',(1.,0.,0.));
#662=DIRECTION('',(0.,0.,-1.));
#663=DIRECTION('',(0.,0.,-1.));
#664=DIRECTION('',(0.,-1.,0.));
#665=DIRECTION('',(0.,0.,-1.));
#666=DIRECTION('',(0.,-1.,0.));
#667=DIRECTION('',(1.,0.,0.));
#668=DIRECTION('',(0.,0.,-1.));
#669=DIRECTION('',(0.,0.,-1.));
#670=DIRECTION('',(0.,-1.,0.));
#671=DIRECTION('',(0.,0.,-1.));
#672=DIRECTION('',(0.,-1.,0.));
#673=DIRECTION('',(0.,0.,1.));
#674=DIRECTION('',(1.,0.,0.));
#675=DIRECTION('',(0.,-1.,0.));
#676=DIRECTION('',(1.,0.,0.));
#677=DIRECTION('',(0.,-1.,0.));
#678=DIRECTION('',(1.,0.,0.));
#679=DIRECTION('',(0.,0.,1.));
#680=DIRECTION('',(1.,0.,0.));
#681=DIRECTION('',(0.,-1.,0.));
#682=DIRECTION('',(1.,0.,0.));
#683=DIRECTION('',(0.,-1.,0.));
#684=DIRECTION('',(0.,-1.,0.));
#685=DIRECTION('',(1.,0.,0.));
#686=DIRECTION('',(0.,-1.,0.));
#687=DIRECTION('',(0.,-1.,0.));
#688=DIRECTION('',(0.,-1.,0.));
#689=DIRECTION('',(1.,0.,0.));
#690=DIRECTION('',(0.,0.,-1.));
#691=DIRECTION('',(0.,0.,-1.));
#692=DIRECTION('',(0.,-1.,0.));
#693=DIRECTION('',(0.,1.,0.));
#694=DIRECTION('',(0.,0.,1.));
#695=DIRECTION('',(1.,0.,0.));
#696=DIRECTION('',(0.,0.,-1.));
#697=DIRECTION('',(1.,0.,0.));
#698=DIRECTION('',(0.,0.,-1.));
#699=DIRECTION('',(1.,0.,0.));
#700=DIRECTION('',(0.,0.,-1.));
#701=DIRECTION('',(0.,-1.,0.));
#702=DIRECTION('',(0.,0.,-1.));
#703=DIRECTION('',(0.,0.,1.));
#704=DIRECTION('',(1.,0.,0.));
#705=DIRECTION('',(1.,0.,0.));
#706=DIRECTION('',(1.,0.,0.));
#707=DIRECTION('',(0.,0.,-1.));
#708=DIRECTION('',(0.,0.,-1.));
#709=DIRECTION('',(0.,-1.,0.));
#710=DIRECTION('',(0.,1.,0.));
#711=DIRECTION('',(0.,0.,1.));
#712=DIRECTION('',(1.,0.,0.));
#713=DIRECTION('',(0.,0.,-1.));
#714=DIRECTION('',(1.,0.,0.));
#715=DIRECTION('',(0.,0.,-1.));
#716=DIRECTION('',(1.,0.,0.));
#717=DIRECTION('',(0.,0.,-1.));
#718=DIRECTION('',(0.,-1.,0.));
#719=DIRECTION('',(0.,0.,-1.));
#720=DIRECTION('',(0.,0.,1.));
#721=DIRECTION('',(1.,0.,0.));
#722=DIRECTION('',(1.,0.,0.));
#723=DIRECTION('',(1.,0.,0.));
#724=DIRECTION('',(0.,0.,-1.));
#725=DIRECTION('',(0.707106781186548,0.,0.707106781186548));
#726=DIRECTION('',(-0.707106781186548,0.,0.707106781186548));
#727=DIRECTION('',(0.707106781186548,0.,-0.707106781186548));
#728=DIRECTION('',(-0.707106781186548,0.,-0.707106781186548));
#729=DIRECTION('',(0.,0.,-1.));
#730=DIRECTION('',(-1.,0.,0.));
#731=DIRECTION('',(-0.707106781186548,0.,-0.707106781186548));
#732=DIRECTION('',(0.707106781186548,0.,-0.707106781186548));
#733=DIRECTION('',(0.,0.,1.));
#734=DIRECTION('',(1.,0.,0.));
#735=DIRECTION('',(-0.707106781186548,0.,0.707106781186548));
#736=DIRECTION('',(0.707106781186548,0.,0.707106781186548));
#737=DIRECTION('',(-1.,0.,0.));
#738=DIRECTION('',(0.,0.,1.));
#739=DIRECTION('',(1.,0.,0.));
#740=DIRECTION('',(0.,0.,-1.));
#741=DIRECTION('',(0.707106781186548,0.,0.707106781186548));
#742=DIRECTION('',(-0.707106781186548,0.,0.707106781186548));
#743=DIRECTION('',(0.707106781186548,0.,-0.707106781186548));
#744=DIRECTION('',(-0.707106781186548,0.,-0.707106781186548));
#745=DIRECTION('',(0.,0.,-1.));
#746=DIRECTION('',(-1.,0.,0.));
#747=DIRECTION('',(-0.707106781186548,0.,-0.707106781186548));
#748=DIRECTION('',(0.707106781186548,0.,-0.707106781186548));
#749=DIRECTION('',(0.,0.,1.));
#750=DIRECTION('',(1.,0.,0.));
#751=DIRECTION('',(-0.707106781186548,0.,0.707106781186548));
#752=DIRECTION('',(0.707106781186548,0.,0.707106781186548));
#753=DIRECTION('',(-1.,0.,0.));
#754=DIRECTION('',(0.,0.,1.));
#755=DIRECTION('',(0.,1.,0.));
#756=DIRECTION('',(0.,0.,1.));
#757=DIRECTION('',(0.,-0.707106781186548,0.707106781186548));
#758=DIRECTION('',(0.,0.707106781186548,0.707106781186548));
#759=DIRECTION('',(0.,-0.707106781186548,-0.707106781186548));
#760=DIRECTION('',(0.,0.707106781186548,-0.707106781186548));
#761=DIRECTION('',(0.,0.,-1.));
#762=DIRECTION('',(-1.,0.,0.));
#763=DIRECTION('',(0.,0.,1.));
#764=DIRECTION('',(1.,0.,0.));
#765=DIRECTION('',(0.,-1.,0.));
#766=DIRECTION('',(0.,0.,-1.));
#767=DIRECTION('',(0.,-1.,0.));
#768=DIRECTION('',(0.,0.,-1.));
#769=DIRECTION('',(0.,1.,0.));
#770=DIRECTION('',(0.,0.,1.));
#771=DIRECTION('',(0.,0.,1.));
#772=DIRECTION('',(1.,0.,0.));
#773=DIRECTION('',(0.,0.,1.));
#774=DIRECTION('',(1.,0.,0.));
#775=DIRECTION('',(1.,0.,0.));
#776=DIRECTION('',(0.,0.,-1.));
#777=DIRECTION('',(1.,0.,0.));
#778=DIRECTION('',(0.,0.,-1.));
#779=DIRECTION('',(1.,0.,0.));
#780=DIRECTION('',(0.,0.,-1.));
#781=DIRECTION('',(1.,0.,0.));
#782=DIRECTION('',(0.,0.,-1.));
#783=DIRECTION('',(1.,0.,0.));
#784=DIRECTION('',(0.,0.,-1.));
#785=DIRECTION('',(-1.,-1.19758337888107E-15,0.));
#786=DIRECTION('',(1.19758337888107E-15,-1.,0.));
#787=DIRECTION('',(0.,1.,0.));
#788=DIRECTION('',(0.,0.,1.));
#789=DIRECTION('',(0.,-1.,0.));
#790=DIRECTION('',(0.,0.,-1.));
#791=DIRECTION('',(0.,1.,0.));
#792=DIRECTION('',(0.,0.,1.));
#793=DIRECTION('',(-1.,0.,0.));
#794=DIRECTION('',(0.,0.,1.));
#795=DIRECTION('',(-1.,0.,0.));
#796=DIRECTION('',(0.,0.,1.));
#797=DIRECTION('',(1.19758337888107E-15,0.,1.));
#798=DIRECTION('',(1.,0.,-1.19758337888107E-15));
#799=DIRECTION('',(0.,0.,1.));
#800=DIRECTION('',(1.,0.,0.));
#801=DIRECTION('',(1.19758337888107E-15,0.,1.));
#802=DIRECTION('',(1.,0.,-1.19758337888107E-15));
#803=DIRECTION('',(0.,0.,1.));
#804=DIRECTION('',(1.,0.,0.));
#805=DIRECTION('',(0.,0.,1.));
#806=DIRECTION('',(1.,0.,0.));
#807=DIRECTION('',(0.,0.707106781186548,0.707106781186548));
#808=DIRECTION('',(0.,-0.707106781186548,0.707106781186548));
#809=DIRECTION('',(0.,0.,-1.));
#810=DIRECTION('',(-1.,0.,0.));
#811=DIRECTION('',(0.,0.707106781186548,-0.707106781186548));
#812=DIRECTION('',(0.,-0.707106781186548,-0.707106781186548));
#813=DIRECTION('',(0.,-1.,0.));
#814=DIRECTION('',(0.,0.,-1.));
#815=CARTESIAN_POINT('',(0.,0.,0.));
#816=CARTESIAN_POINT('',(0.02,-0.003,0.015));
#817=CARTESIAN_POINT('',(0.,-0.003,0.01427574));
#818=CARTESIAN_POINT('',(0.03927574,-0.003,0.01427574));
#819=CARTESIAN_POINT('',(0.00072426,-0.003,0.01427574));
#820=CARTESIAN_POINT('',(0.00072426,-0.003,0.015));
#821=CARTESIAN_POINT('',(0.00072426,-0.003,0.));
#822=CARTESIAN_POINT('',(0.02,-0.003,0.));
#823=CARTESIAN_POINT('',(0.002,-0.003,0.));
#824=CARTESIAN_POINT('',(0.002,-0.003,0.0116));
#825=CARTESIAN_POINT('',(0.002,-0.003,0.0116));
#826=CARTESIAN_POINT('',(0.003,-0.003,0.0116));
#827=CARTESIAN_POINT('',(0.004,-0.003,0.0116));
#828=CARTESIAN_POINT('',(0.004,-0.003,0.0116));
#829=CARTESIAN_POINT('',(0.004,-0.003,0.));
#830=CARTESIAN_POINT('',(0.02,-0.003,0.));
#831=CARTESIAN_POINT('',(0.036,-0.003,0.));
#832=CARTESIAN_POINT('',(0.036,-0.003,0.0116));
#833=CARTESIAN_POINT('',(0.036,-0.003,0.0116));
#834=CARTESIAN_POINT('',(0.037,-0.003,0.0116));
#835=CARTESIAN_POINT('',(0.038,-0.003,0.0116));
#836=CARTESIAN_POINT('',(0.038,-0.003,0.0116));
#837=CARTESIAN_POINT('',(0.038,-0.003,0.));
#838=CARTESIAN_POINT('',(0.02,-0.003,0.));
#839=CARTESIAN_POINT('',(0.03927574,-0.003,0.));
#840=CARTESIAN_POINT('',(0.03927574,-0.003,0.015));
#841=CARTESIAN_POINT('',(0.02,0.,0.015));
#842=CARTESIAN_POINT('',(0.02,0.,0.01427574));
#843=CARTESIAN_POINT('',(0.00072426,0.,0.01427574));
#844=CARTESIAN_POINT('',(0.03927574,0.,0.01427574));
#845=CARTESIAN_POINT('',(0.03927574,0.,0.015));
#846=CARTESIAN_POINT('',(0.03927574,0.,0.));
#847=CARTESIAN_POINT('',(0.02,0.,0.));
#848=CARTESIAN_POINT('',(0.00072426,0.,0.));
#849=CARTESIAN_POINT('',(0.00072426,0.,0.015));
#850=CARTESIAN_POINT('',(0.,-0.0015,0.015));
#851=CARTESIAN_POINT('',(0.,-0.00072426,0.));
#852=CARTESIAN_POINT('',(0.,-0.00072426,0.01427574));
#853=CARTESIAN_POINT('',(0.,-0.00072426,0.00072426));
#854=CARTESIAN_POINT('',(0.,-0.0015,0.00072426));
#855=CARTESIAN_POINT('',(0.,-0.00227574,0.00072426));
#856=CARTESIAN_POINT('',(0.,-0.00227574,0.015));
#857=CARTESIAN_POINT('',(0.,-0.00227574,0.01427574));
#858=CARTESIAN_POINT('',(0.,0.,0.01427574));
#859=CARTESIAN_POINT('',(0.04,-0.0015,0.015));
#860=CARTESIAN_POINT('',(0.04,-0.00227574,0.));
#861=CARTESIAN_POINT('',(0.04,-0.00227574,0.01427574));
#862=CARTESIAN_POINT('',(0.04,-0.00227574,0.00072426));
#863=CARTESIAN_POINT('',(0.04,0.,0.00072426));
#864=CARTESIAN_POINT('',(0.04,-0.00072426,0.00072426));
#865=CARTESIAN_POINT('',(0.04,-0.00072426,0.015));
#866=CARTESIAN_POINT('',(0.04,-0.00072426,0.01427574));
#867=CARTESIAN_POINT('',(0.04,-0.0015,0.01427574));
#868=CARTESIAN_POINT('',(0.02,-0.0015,0.015));
#869=CARTESIAN_POINT('',(0.00072426,-0.003,0.015));
#870=CARTESIAN_POINT('',(0.00072426,-0.00072426,0.015));
#871=CARTESIAN_POINT('',(0.00072426,-0.00227574,0.015));
#872=CARTESIAN_POINT('',(0.04,-0.00227574,0.015));
#873=CARTESIAN_POINT('',(0.03927574,-0.00227574,0.015));
#874=CARTESIAN_POINT('',(0.03927574,-0.0015,0.015));
#875=CARTESIAN_POINT('',(0.03927574,-0.00072426,0.015));
#876=CARTESIAN_POINT('',(0.02,-0.00072426,0.015));
#877=CARTESIAN_POINT('',(0.02,-0.0015,0.));
#878=CARTESIAN_POINT('',(0.038,-0.004,0.));
#879=CARTESIAN_POINT('',(0.038,-0.00427574,0.));
#880=CARTESIAN_POINT('',(0.02,-0.00427574,0.));
#881=CARTESIAN_POINT('',(0.036,-0.00427574,0.));
#882=CARTESIAN_POINT('',(0.036,-0.004,0.));
#883=CARTESIAN_POINT('',(0.004,-0.004,0.));
#884=CARTESIAN_POINT('',(0.004,-0.00427574,0.));
#885=CARTESIAN_POINT('',(0.02,-0.00427574,0.));
#886=CARTESIAN_POINT('',(0.002,-0.00427574,0.));
#887=CARTESIAN_POINT('',(0.002,-0.004,0.));
#888=CARTESIAN_POINT('',(0.00072426,-0.0015,0.));
#889=CARTESIAN_POINT('',(0.03927574,-0.003,0.));
#890=CARTESIAN_POINT('',(0.036,-0.004,0.0116));
#891=CARTESIAN_POINT('',(0.036,-0.00427574,0.0116));
#892=CARTESIAN_POINT('',(0.036,-0.00427574,0.0116));
#893=CARTESIAN_POINT('',(0.036,-0.004,0.0116));
#894=CARTESIAN_POINT('',(0.037,-0.005,0.0116));
#895=CARTESIAN_POINT('',(0.037,-0.005,0.00072426));
#896=CARTESIAN_POINT('',(0.03672426,-0.005,0.00072426));
#897=CARTESIAN_POINT('',(0.03727574,-0.005,0.00072426));
#898=CARTESIAN_POINT('',(0.03727574,-0.005,0.0116));
#899=CARTESIAN_POINT('',(0.03727574,-0.005,0.01087574));
#900=CARTESIAN_POINT('',(0.036,-0.005,0.01087574));
#901=CARTESIAN_POINT('',(0.03672426,-0.005,0.01087574));
#902=CARTESIAN_POINT('',(0.03672426,-0.005,0.0116));
#903=CARTESIAN_POINT('',(0.038,-0.004,0.0116));
#904=CARTESIAN_POINT('',(0.038,-0.004,0.0116));
#905=CARTESIAN_POINT('',(0.038,-0.00427574,0.0116));
#906=CARTESIAN_POINT('',(0.038,-0.00427574,0.));
#907=CARTESIAN_POINT('',(0.02,-0.004,0.0116));
#908=CARTESIAN_POINT('',(0.038,-0.00427574,0.0116));
#909=CARTESIAN_POINT('',(0.002,-0.004,0.0116));
#910=CARTESIAN_POINT('',(0.002,-0.00427574,0.0116));
#911=CARTESIAN_POINT('',(0.002,-0.00427574,0.0116));
#912=CARTESIAN_POINT('',(0.002,-0.004,0.0116));
#913=CARTESIAN_POINT('',(0.003,-0.005,0.0116));
#914=CARTESIAN_POINT('',(0.003,-0.005,0.00072426));
#915=CARTESIAN_POINT('',(0.00272426,-0.005,0.00072426));
#916=CARTESIAN_POINT('',(0.00327574,-0.005,0.00072426));
#917=CARTESIAN_POINT('',(0.00327574,-0.005,0.0116));
#918=CARTESIAN_POINT('',(0.00327574,-0.005,0.01087574));
#919=CARTESIAN_POINT('',(0.002,-0.005,0.01087574));
#920=CARTESIAN_POINT('',(0.00272426,-0.005,0.01087574));
#921=CARTESIAN_POINT('',(0.00272426,-0.005,0.0116));
#922=CARTESIAN_POINT('',(0.004,-0.004,0.0116));
#923=CARTESIAN_POINT('',(0.004,-0.004,0.0116));
#924=CARTESIAN_POINT('',(0.004,-0.00427574,0.0116));
#925=CARTESIAN_POINT('',(0.004,-0.00427574,0.));
#926=CARTESIAN_POINT('',(0.02,-0.004,0.0116));
#927=CARTESIAN_POINT('',(0.004,-0.00427574,0.0116));
#928=CARTESIAN_POINT('',(0.037,-0.00427574,0.00072426));
#929=CARTESIAN_POINT('',(0.03727574,-0.00427574,0.00072426));
#930=CARTESIAN_POINT('',(0.03672426,-0.00427574,0.00072426));
#931=CARTESIAN_POINT('',(0.03672426,-0.00427574,0.0116));
#932=CARTESIAN_POINT('',(0.03672426,-0.00427574,0.01087574));
#933=CARTESIAN_POINT('',(0.03727574,-0.00427574,0.0116));
#934=CARTESIAN_POINT('',(0.03727574,-0.00427574,0.01087574));
#935=CARTESIAN_POINT('',(0.02,-0.00427574,0.01087574));
#936=CARTESIAN_POINT('',(0.003,-0.00427574,0.00072426));
#937=CARTESIAN_POINT('',(0.00327574,-0.00427574,0.00072426));
#938=CARTESIAN_POINT('',(0.00272426,-0.00427574,0.00072426));
#939=CARTESIAN_POINT('',(0.00272426,-0.00427574,0.0116));
#940=CARTESIAN_POINT('',(0.00272426,-0.00427574,0.01087574));
#941=CARTESIAN_POINT('',(0.00327574,-0.00427574,0.0116));
#942=CARTESIAN_POINT('',(0.00327574,-0.00427574,0.01087574));
#943=CARTESIAN_POINT('',(0.02,-0.00427574,0.01087574));
#944=CARTESIAN_POINT('',(0.03927574,-0.0015,0.00072426));
#945=CARTESIAN_POINT('',(0.03927574,-0.00227574,0.00072426));
#946=CARTESIAN_POINT('',(0.03927574,-0.00072426,0.00072426));
#947=CARTESIAN_POINT('',(0.03927574,-0.00072426,0.015));
#948=CARTESIAN_POINT('',(0.03927574,-0.00072426,0.01427574));
#949=CARTESIAN_POINT('',(0.03927574,-0.0015,0.01427574));
#950=CARTESIAN_POINT('',(0.03927574,-0.00227574,0.01427574));
#951=CARTESIAN_POINT('',(0.03927574,-0.00072426,0.01427574));
#952=CARTESIAN_POINT('',(0.03927574,-0.00227574,0.015));
#953=CARTESIAN_POINT('',(0.03927574,-0.00227574,0.01427574));
#954=CARTESIAN_POINT('',(0.03927574,-0.00072426,0.01427574));
#955=CARTESIAN_POINT('',(0.03927574,-0.00072426,0.01427574));
#956=CARTESIAN_POINT('',(0.03927574,-0.00227574,0.01427574));
#957=CARTESIAN_POINT('',(0.03927574,-0.00227574,0.01427574));
#958=CARTESIAN_POINT('',(0.02,-0.00072426,0.01427574));
#959=CARTESIAN_POINT('',(0.00072426,-0.00072426,0.01427574));
#960=CARTESIAN_POINT('',(0.00072426,-0.0015,0.01427574));
#961=CARTESIAN_POINT('',(0.00072426,-0.00227574,0.01427574));
#962=CARTESIAN_POINT('',(0.00072426,-0.00072426,0.01427574));
#963=CARTESIAN_POINT('',(0.02,-0.00227574,0.01427574));
#964=CARTESIAN_POINT('',(0.00072426,-0.00227574,0.01427574));
#965=CARTESIAN_POINT('',(0.00072426,-0.00072426,0.01427574));
#966=CARTESIAN_POINT('',(0.00072426,-0.00072426,0.01427574));
#967=CARTESIAN_POINT('',(0.00072426,-0.00227574,0.01427574));
#968=CARTESIAN_POINT('',(0.00072426,-0.00227574,0.01427574));
#969=CARTESIAN_POINT('',(0.00072426,-0.00072426,0.015));
#970=CARTESIAN_POINT('',(0.00072426,-0.00072426,0.00072426));
#971=CARTESIAN_POINT('',(0.00072426,-0.00227574,0.015));
#972=CARTESIAN_POINT('',(0.00072426,-0.00227574,0.00072426));
#973=CARTESIAN_POINT('',(0.00072426,-0.0015,0.00072426));
#974=MECHANICAL_DESIGN_GEOMETRIC_PRESENTATION_REPRESENTATION('',(#567),
#975);
#975=(
GEOMETRIC_REPRESENTATION_CONTEXT(3)
GLOBAL_UNCERTAINTY_ASSIGNED_CONTEXT((#976))
GLOBAL_UNIT_ASSIGNED_CONTEXT((#979,#978,#977))
REPRESENTATION_CONTEXT('Shelf','TOP_LEVEL_ASSEMBLY_PART')
);
#976=UNCERTAINTY_MEASURE_WITH_UNIT(LENGTH_MEASURE(1.E-8),#979,
'DISTANCE_ACCURACY_VALUE','Maximum Tolerance applied to model');
#977=(
NAMED_UNIT(*)
SI_UNIT($,.STERADIAN.)
SOLID_ANGLE_UNIT()
);
#978=(
NAMED_UNIT(*)
PLANE_ANGLE_UNIT()
SI_UNIT($,.RADIAN.)
);
#979=(
LENGTH_UNIT()
NAMED_UNIT(*)
SI_UNIT($,.METRE.)
);
#980=PRODUCT_DEFINITION_SHAPE('','',#981);
#981=PRODUCT_DEFINITION('','',#983,#982);
#982=PRODUCT_DEFINITION_CONTEXT('',#989,'design');
#983=PRODUCT_DEFINITION_FORMATION_WITH_SPECIFIED_SOURCE('','',#985,
 .NOT_KNOWN.);
#984=PRODUCT_RELATED_PRODUCT_CATEGORY('','',(#985));
#985=PRODUCT('Shelf','Shelf','Shelf',(#987));
#986=PRODUCT_CATEGORY('','');
#987=PRODUCT_CONTEXT('',#989,'mechanical');
#988=APPLICATION_PROTOCOL_DEFINITION('international standard',
'ap242_managed_model_based_3d_engineering',2020,#989);
#989=APPLICATION_CONTEXT('managed model based 3d engineering');
ENDSEC;
END-ISO-10303-21;
