ISO-10303-21;
HEADER;
/* Generated by software containing ST-Developer
 * from STEP Tools, Inc. (www.steptools.com) 
 */
/* OPTION: using custom renumber hook */

FILE_DESCRIPTION(
/* description */ ('STEP AP242 Edition 2',
'CAx-IF Rec.Pracs.---Representation and Presentation of Product Manufa
cturing Information (PMI)---4.0---2014-10-13',
'CAx-IF Rec.Pracs.---3D Tessellated Geometry---0.4---2014-09-14','2;1',
'CAx-IF Rec.Pracs.---User Defined Attributes---1.5---2016-08-15'),
/* implementation_level */ '2;1');

FILE_NAME(
/* name */ 'Assembly 1 - Laptop',
/* time_stamp */ '2026-09-04T01:58:22Z',
/* author */ (''),
/* organization */ (''),
/* preprocessor_version */ 'ST-DEVELOPER v20',
/* originating_system */ 'ONSHAPE BY PTC INC, 1.220',
/* authorisation */ '  ');

FILE_SCHEMA (('AP242_MANAGED_MODEL_BASED_3D_ENGINEERING_MIM_LF { 1 0 10303 442 3 1 4 }'));
ENDSEC;

DATA;
#10=SHAPE_REPRESENTATION_RELATIONSHIP('','',#323,#11);
#11=ADVANCED_BREP_SHAPE_REPRESENTATION('',(#321),#525);
#12=CYLINDRICAL_SURFACE('',#341,0.000724264068711929);
#13=CYLINDRICAL_SURFACE('',#342,0.000724264068711929);
#14=CYLINDRICAL_SURFACE('',#343,0.000724264068711929);
#15=CYLINDRICAL_SURFACE('',#344,0.000724264068711929);
#16=CIRCLE('',#326,0.000724264068711929);
#17=CIRCLE('',#327,0.000724264068711929);
#18=CIRCLE('',#332,0.000724264068711929);
#19=CIRCLE('',#333,0.000724264068711929);
#20=CIRCLE('',#335,0.000724264068711929);
#21=CIRCLE('',#336,0.000724264068711929);
#22=CIRCLE('',#338,0.000724264068711929);
#23=CIRCLE('',#339,0.000724264068711929);
#24=ORIENTED_EDGE('',*,*,#108,.F.);
#25=ORIENTED_EDGE('',*,*,#109,.T.);
#26=ORIENTED_EDGE('',*,*,#110,.T.);
#27=ORIENTED_EDGE('',*,*,#111,.T.);
#28=ORIENTED_EDGE('',*,*,#112,.T.);
#29=ORIENTED_EDGE('',*,*,#113,.T.);
#30=ORIENTED_EDGE('',*,*,#114,.F.);
#31=ORIENTED_EDGE('',*,*,#115,.T.);
#32=ORIENTED_EDGE('',*,*,#116,.T.);
#33=ORIENTED_EDGE('',*,*,#117,.F.);
#34=ORIENTED_EDGE('',*,*,#118,.T.);
#35=ORIENTED_EDGE('',*,*,#119,.T.);
#36=ORIENTED_EDGE('',*,*,#120,.F.);
#37=ORIENTED_EDGE('',*,*,#112,.F.);
#38=ORIENTED_EDGE('',*,*,#121,.T.);
#39=ORIENTED_EDGE('',*,*,#122,.T.);
#40=ORIENTED_EDGE('',*,*,#123,.F.);
#41=ORIENTED_EDGE('',*,*,#124,.T.);
#42=ORIENTED_EDGE('',*,*,#125,.T.);
#43=ORIENTED_EDGE('',*,*,#126,.T.);
#44=ORIENTED_EDGE('',*,*,#127,.T.);
#45=ORIENTED_EDGE('',*,*,#128,.T.);
#46=ORIENTED_EDGE('',*,*,#129,.F.);
#47=ORIENTED_EDGE('',*,*,#130,.F.);
#48=ORIENTED_EDGE('',*,*,#131,.T.);
#49=ORIENTED_EDGE('',*,*,#108,.T.);
#50=ORIENTED_EDGE('',*,*,#120,.T.);
#51=ORIENTED_EDGE('',*,*,#132,.T.);
#52=ORIENTED_EDGE('',*,*,#123,.T.);
#53=ORIENTED_EDGE('',*,*,#133,.T.);
#54=ORIENTED_EDGE('',*,*,#127,.F.);
#55=ORIENTED_EDGE('',*,*,#113,.F.);
#56=ORIENTED_EDGE('',*,*,#125,.F.);
#57=ORIENTED_EDGE('',*,*,#134,.T.);
#58=ORIENTED_EDGE('',*,*,#118,.F.);
#59=ORIENTED_EDGE('',*,*,#135,.F.);
#60=ORIENTED_EDGE('',*,*,#129,.T.);
#61=ORIENTED_EDGE('',*,*,#136,.T.);
#62=ORIENTED_EDGE('',*,*,#137,.F.);
#63=ORIENTED_EDGE('',*,*,#138,.T.);
#64=ORIENTED_EDGE('',*,*,#130,.T.);
#65=ORIENTED_EDGE('',*,*,#135,.T.);
#66=ORIENTED_EDGE('',*,*,#122,.F.);
#67=ORIENTED_EDGE('',*,*,#139,.T.);
#68=ORIENTED_EDGE('',*,*,#110,.F.);
#69=ORIENTED_EDGE('',*,*,#140,.T.);
#70=ORIENTED_EDGE('',*,*,#137,.T.);
#71=ORIENTED_EDGE('',*,*,#141,.T.);
#72=ORIENTED_EDGE('',*,*,#132,.F.);
#73=ORIENTED_EDGE('',*,*,#119,.F.);
#74=ORIENTED_EDGE('',*,*,#134,.F.);
#75=ORIENTED_EDGE('',*,*,#124,.F.);
#76=ORIENTED_EDGE('',*,*,#133,.F.);
#77=ORIENTED_EDGE('',*,*,#126,.F.);
#78=ORIENTED_EDGE('',*,*,#136,.F.);
#79=ORIENTED_EDGE('',*,*,#128,.F.);
#80=ORIENTED_EDGE('',*,*,#109,.F.);
#81=ORIENTED_EDGE('',*,*,#131,.F.);
#82=ORIENTED_EDGE('',*,*,#138,.F.);
#83=ORIENTED_EDGE('',*,*,#140,.F.);
#84=ORIENTED_EDGE('',*,*,#111,.F.);
#85=ORIENTED_EDGE('',*,*,#141,.F.);
#86=ORIENTED_EDGE('',*,*,#139,.F.);
#87=ORIENTED_EDGE('',*,*,#121,.F.);
#88=ORIENTED_EDGE('',*,*,#115,.F.);
#89=ORIENTED_EDGE('',*,*,#142,.F.);
#90=ORIENTED_EDGE('',*,*,#143,.T.);
#91=ORIENTED_EDGE('',*,*,#144,.T.);
#92=ORIENTED_EDGE('',*,*,#114,.T.);
#93=ORIENTED_EDGE('',*,*,#145,.F.);
#94=ORIENTED_EDGE('',*,*,#146,.F.);
#95=ORIENTED_EDGE('',*,*,#142,.T.);
#96=ORIENTED_EDGE('',*,*,#117,.T.);
#97=ORIENTED_EDGE('',*,*,#147,.F.);
#98=ORIENTED_EDGE('',*,*,#148,.F.);
#99=ORIENTED_EDGE('',*,*,#145,.T.);
#100=ORIENTED_EDGE('',*,*,#116,.F.);
#101=ORIENTED_EDGE('',*,*,#144,.F.);
#102=ORIENTED_EDGE('',*,*,#149,.T.);
#103=ORIENTED_EDGE('',*,*,#147,.T.);
#104=ORIENTED_EDGE('',*,*,#143,.F.);
#105=ORIENTED_EDGE('',*,*,#146,.T.);
#106=ORIENTED_EDGE('',*,*,#148,.T.);
#107=ORIENTED_EDGE('',*,*,#149,.F.);
#108=EDGE_CURVE('',#150,#151,#178,.T.);
#109=EDGE_CURVE('',#150,#152,#16,.T.);
#110=EDGE_CURVE('',#152,#153,#179,.T.);
#111=EDGE_CURVE('',#153,#154,#17,.T.);
#112=EDGE_CURVE('',#154,#155,#180,.T.);
#113=EDGE_CURVE('',#155,#151,#181,.T.);
#114=EDGE_CURVE('',#156,#157,#182,.T.);
#115=EDGE_CURVE('',#156,#158,#183,.T.);
#116=EDGE_CURVE('',#158,#159,#184,.T.);
#117=EDGE_CURVE('',#157,#159,#185,.T.);
#118=EDGE_CURVE('',#160,#161,#186,.T.);
#119=EDGE_CURVE('',#161,#162,#187,.F.);
#120=EDGE_CURVE('',#155,#162,#188,.T.);
#121=EDGE_CURVE('',#154,#163,#189,.T.);
#122=EDGE_CURVE('',#163,#160,#190,.T.);
#123=EDGE_CURVE('',#164,#165,#191,.T.);
#124=EDGE_CURVE('',#164,#166,#192,.T.);
#125=EDGE_CURVE('',#166,#167,#193,.T.);
#126=EDGE_CURVE('',#167,#165,#194,.F.);
#127=EDGE_CURVE('',#151,#168,#195,.T.);
#128=EDGE_CURVE('',#168,#169,#196,.T.);
#129=EDGE_CURVE('',#170,#169,#197,.T.);
#130=EDGE_CURVE('',#171,#170,#198,.T.);
#131=EDGE_CURVE('',#171,#150,#199,.F.);
#132=EDGE_CURVE('',#162,#164,#18,.T.);
#133=EDGE_CURVE('',#165,#168,#19,.T.);
#134=EDGE_CURVE('',#166,#161,#20,.F.);
#135=EDGE_CURVE('',#170,#160,#200,.T.);
#136=EDGE_CURVE('',#169,#167,#21,.F.);
#137=EDGE_CURVE('',#172,#173,#201,.T.);
#138=EDGE_CURVE('',#172,#171,#22,.F.);
#139=EDGE_CURVE('',#163,#173,#23,.F.);
#140=EDGE_CURVE('',#152,#172,#202,.T.);
#141=EDGE_CURVE('',#173,#153,#203,.F.);
#142=EDGE_CURVE('',#174,#156,#204,.T.);
#143=EDGE_CURVE('',#174,#175,#205,.T.);
#144=EDGE_CURVE('',#175,#158,#206,.T.);
#145=EDGE_CURVE('',#176,#157,#207,.T.);
#146=EDGE_CURVE('',#174,#176,#208,.T.);
#147=EDGE_CURVE('',#177,#159,#209,.T.);
#148=EDGE_CURVE('',#176,#177,#210,.T.);
#149=EDGE_CURVE('',#175,#177,#211,.T.);
#150=VERTEX_POINT('',#439);
#151=VERTEX_POINT('',#440);
#152=VERTEX_POINT('',#442);
#153=VERTEX_POINT('',#444);
#154=VERTEX_POINT('',#446);
#155=VERTEX_POINT('',#448);
#156=VERTEX_POINT('',#451);
#157=VERTEX_POINT('',#452);
#158=VERTEX_POINT('',#454);
#159=VERTEX_POINT('',#456);
#160=VERTEX_POINT('',#460);
#161=VERTEX_POINT('',#461);
#162=VERTEX_POINT('',#463);
#163=VERTEX_POINT('',#466);
#164=VERTEX_POINT('',#470);
#165=VERTEX_POINT('',#471);
#166=VERTEX_POINT('',#473);
#167=VERTEX_POINT('',#475);
#168=VERTEX_POINT('',#479);
#169=VERTEX_POINT('',#481);
#170=VERTEX_POINT('',#483);
#171=VERTEX_POINT('',#485);
#172=VERTEX_POINT('',#496);
#173=VERTEX_POINT('',#497);
#174=VERTEX_POINT('',#509);
#175=VERTEX_POINT('',#511);
#176=VERTEX_POINT('',#515);
#177=VERTEX_POINT('',#519);
#178=LINE('',#438,#212);
#179=LINE('',#443,#213);
#180=LINE('',#447,#214);
#181=LINE('',#449,#215);
#182=LINE('',#450,#216);
#183=LINE('',#453,#217);
#184=LINE('',#455,#218);
#185=LINE('',#457,#219);
#186=LINE('',#459,#220);
#187=LINE('',#462,#221);
#188=LINE('',#464,#222);
#189=LINE('',#465,#223);
#190=LINE('',#467,#224);
#191=LINE('',#469,#225);
#192=LINE('',#472,#226);
#193=LINE('',#474,#227);
#194=LINE('',#476,#228);
#195=LINE('',#478,#229);
#196=LINE('',#480,#230);
#197=LINE('',#482,#231);
#198=LINE('',#484,#232);
#199=LINE('',#486,#233);
#200=LINE('',#492,#234);
#201=LINE('',#495,#235);
#202=LINE('',#501,#236);
#203=LINE('',#502,#237);
#204=LINE('',#508,#238);
#205=LINE('',#510,#239);
#206=LINE('',#512,#240);
#207=LINE('',#514,#241);
#208=LINE('',#516,#242);
#209=LINE('',#518,#243);
#210=LINE('',#520,#244);
#211=LINE('',#522,#245);
#212=VECTOR('',#354,1.);
#213=VECTOR('',#357,1.);
#214=VECTOR('',#360,1.);
#215=VECTOR('',#361,1.);
#216=VECTOR('',#362,1.);
#217=VECTOR('',#363,1.);
#218=VECTOR('',#364,1.);
#219=VECTOR('',#365,1.);
#220=VECTOR('',#368,1.);
#221=VECTOR('',#369,1.);
#222=VECTOR('',#370,1.);
#223=VECTOR('',#371,1.);
#224=VECTOR('',#372,1.);
#225=VECTOR('',#375,1.);
#226=VECTOR('',#376,1.);
#227=VECTOR('',#377,1.);
#228=VECTOR('',#378,1.);
#229=VECTOR('',#381,1.);
#230=VECTOR('',#382,1.);
#231=VECTOR('',#383,1.);
#232=VECTOR('',#384,1.);
#233=VECTOR('',#385,1.);
#234=VECTOR('',#396,1.);
#235=VECTOR('',#401,1.);
#236=VECTOR('',#408,1.);
#237=VECTOR('',#409,1.);
#238=VECTOR('',#420,1.);
#239=VECTOR('',#421,1.);
#240=VECTOR('',#422,1.);
#241=VECTOR('',#425,1.);
#242=VECTOR('',#426,1.);
#243=VECTOR('',#429,1.);
#244=VECTOR('',#430,1.);
#245=VECTOR('',#433,1.);
#246=EDGE_LOOP('',(#24,#25,#26,#27,#28,#29));
#247=EDGE_LOOP('',(#30,#31,#32,#33));
#248=EDGE_LOOP('',(#34,#35,#36,#37,#38,#39));
#249=EDGE_LOOP('',(#40,#41,#42,#43));
#250=EDGE_LOOP('',(#44,#45,#46,#47,#48,#49));
#251=EDGE_LOOP('',(#50,#51,#52,#53,#54,#55));
#252=EDGE_LOOP('',(#56,#57,#58,#59,#60,#61));
#253=EDGE_LOOP('',(#62,#63,#64,#65,#66,#67));
#254=EDGE_LOOP('',(#68,#69,#70,#71));
#255=EDGE_LOOP('',(#72,#73,#74,#75));
#256=EDGE_LOOP('',(#76,#77,#78,#79));
#257=EDGE_LOOP('',(#80,#81,#82,#83));
#258=EDGE_LOOP('',(#84,#85,#86,#87));
#259=EDGE_LOOP('',(#88,#89,#90,#91));
#260=EDGE_LOOP('',(#92,#93,#94,#95));
#261=EDGE_LOOP('',(#96,#97,#98,#99));
#262=EDGE_LOOP('',(#100,#101,#102,#103));
#263=EDGE_LOOP('',(#104,#105,#106,#107));
#264=FACE_BOUND('',#246,.T.);
#265=FACE_BOUND('',#247,.T.);
#266=FACE_BOUND('',#248,.T.);
#267=FACE_BOUND('',#249,.T.);
#268=FACE_BOUND('',#250,.T.);
#269=FACE_BOUND('',#251,.T.);
#270=FACE_BOUND('',#252,.T.);
#271=FACE_BOUND('',#253,.T.);
#272=FACE_BOUND('',#254,.T.);
#273=FACE_BOUND('',#255,.T.);
#274=FACE_BOUND('',#256,.T.);
#275=FACE_BOUND('',#257,.T.);
#276=FACE_BOUND('',#258,.T.);
#277=FACE_BOUND('',#259,.T.);
#278=FACE_BOUND('',#260,.T.);
#279=FACE_BOUND('',#261,.T.);
#280=FACE_BOUND('',#262,.T.);
#281=FACE_BOUND('',#263,.T.);
#282=PLANE('',#325);
#283=PLANE('',#328);
#284=PLANE('',#329);
#285=PLANE('',#330);
#286=PLANE('',#331);
#287=PLANE('',#334);
#288=PLANE('',#337);
#289=PLANE('',#340);
#290=PLANE('',#345);
#291=PLANE('',#346);
#292=PLANE('',#347);
#293=PLANE('',#348);
#294=PLANE('',#349);
#295=ADVANCED_FACE('',(#264,#265),#282,.T.);
#296=ADVANCED_FACE('',(#266),#283,.F.);
#297=ADVANCED_FACE('',(#267),#284,.F.);
#298=ADVANCED_FACE('',(#268),#285,.T.);
#299=ADVANCED_FACE('',(#269),#286,.T.);
#300=ADVANCED_FACE('',(#270),#287,.F.);
#301=ADVANCED_FACE('',(#271),#288,.F.);
#302=ADVANCED_FACE('',(#272),#289,.T.);
#303=ADVANCED_FACE('',(#273),#12,.T.);
#304=ADVANCED_FACE('',(#274),#13,.T.);
#305=ADVANCED_FACE('',(#275),#14,.T.);
#306=ADVANCED_FACE('',(#276),#15,.T.);
#307=ADVANCED_FACE('',(#277),#290,.T.);
#308=ADVANCED_FACE('',(#278),#291,.F.);
#309=ADVANCED_FACE('',(#279),#292,.F.);
#310=ADVANCED_FACE('',(#280),#293,.T.);
#311=ADVANCED_FACE('',(#281),#294,.T.);
#312=CLOSED_SHELL('',(#295,#296,#297,#298,#299,#300,#301,#302,#303,#304,
#305,#306,#307,#308,#309,#310,#311));
#313=STYLED_ITEM('',(#314),#321);
#314=PRESENTATION_STYLE_ASSIGNMENT((#315));
#315=SURFACE_STYLE_USAGE(.BOTH.,#316);
#316=SURFACE_SIDE_STYLE('',(#317));
#317=SURFACE_STYLE_FILL_AREA(#318);
#318=FILL_AREA_STYLE('',(#319));
#319=FILL_AREA_STYLE_COLOUR('',#320);
#320=COLOUR_RGB('',0.647058823529412,0.647058823529412,0.647058823529412);
#321=MANIFOLD_SOLID_BREP('Laptop',#312);
#322=SHAPE_DEFINITION_REPRESENTATION(#530,#323);
#323=SHAPE_REPRESENTATION('Laptop',(#324),#525);
#324=AXIS2_PLACEMENT_3D('',#436,#350,#351);
#325=AXIS2_PLACEMENT_3D('',#437,#352,#353);
#326=AXIS2_PLACEMENT_3D('',#441,#355,#356);
#327=AXIS2_PLACEMENT_3D('',#445,#358,#359);
#328=AXIS2_PLACEMENT_3D('',#458,#366,#367);
#329=AXIS2_PLACEMENT_3D('',#468,#373,#374);
#330=AXIS2_PLACEMENT_3D('',#477,#379,#380);
#331=AXIS2_PLACEMENT_3D('',#487,#386,#387);
#332=AXIS2_PLACEMENT_3D('',#488,#388,#389);
#333=AXIS2_PLACEMENT_3D('',#489,#390,#391);
#334=AXIS2_PLACEMENT_3D('',#490,#392,#393);
#335=AXIS2_PLACEMENT_3D('',#491,#394,#395);
#336=AXIS2_PLACEMENT_3D('',#493,#397,#398);
#337=AXIS2_PLACEMENT_3D('',#494,#399,#400);
#338=AXIS2_PLACEMENT_3D('',#498,#402,#403);
#339=AXIS2_PLACEMENT_3D('',#499,#404,#405);
#340=AXIS2_PLACEMENT_3D('',#500,#406,#407);
#341=AXIS2_PLACEMENT_3D('',#503,#410,#411);
#342=AXIS2_PLACEMENT_3D('',#504,#412,#413);
#343=AXIS2_PLACEMENT_3D('',#505,#414,#415);
#344=AXIS2_PLACEMENT_3D('',#506,#416,#417);
#345=AXIS2_PLACEMENT_3D('',#507,#418,#419);
#346=AXIS2_PLACEMENT_3D('',#513,#423,#424);
#347=AXIS2_PLACEMENT_3D('',#517,#427,#428);
#348=AXIS2_PLACEMENT_3D('',#521,#431,#432);
#349=AXIS2_PLACEMENT_3D('',#523,#434,#435);
#350=DIRECTION('',(0.,0.,1.));
#351=DIRECTION('',(1.,0.,0.));
#352=DIRECTION('',(0.,-1.,0.));
#353=DIRECTION('',(0.,0.,-1.));
#354=DIRECTION('',(0.,0.,-1.));
#355=DIRECTION('',(0.,-1.,0.));
#356=DIRECTION('',(0.,0.,-1.));
#357=DIRECTION('',(-1.,0.,0.));
#358=DIRECTION('',(0.,-1.,0.));
#359=DIRECTION('',(0.,0.,-1.));
#360=DIRECTION('',(0.,0.,-1.));
#361=DIRECTION('',(1.,0.,0.));
#362=DIRECTION('',(0.,0.,-1.));
#363=DIRECTION('',(1.,0.,0.));
#364=DIRECTION('',(0.,0.,-1.));
#365=DIRECTION('',(1.,0.,0.));
#366=DIRECTION('',(1.,0.,0.));
#367=DIRECTION('',(0.,0.,-1.));
#368=DIRECTION('',(0.,-1.,0.));
#369=DIRECTION('',(0.,0.,-1.));
#370=DIRECTION('',(0.,-1.,0.));
#371=DIRECTION('',(0.,1.,0.));
#372=DIRECTION('',(0.,0.,-1.));
#373=DIRECTION('',(0.,1.,0.));
#374=DIRECTION('',(0.,0.,1.));
#375=DIRECTION('',(1.,0.,0.));
#376=DIRECTION('',(0.,0.,-1.));
#377=DIRECTION('',(1.,0.,0.));
#378=DIRECTION('',(0.,0.,-1.));
#379=DIRECTION('',(1.,0.,0.));
#380=DIRECTION('',(0.,0.,-1.));
#381=DIRECTION('',(0.,-1.,0.));
#382=DIRECTION('',(0.,0.,-1.));
#383=DIRECTION('',(0.,-1.,0.));
#384=DIRECTION('',(0.,0.,-1.));
#385=DIRECTION('',(0.,1.,0.));
#386=DIRECTION('',(0.,0.,1.));
#387=DIRECTION('',(1.,0.,0.));
#388=DIRECTION('',(0.,0.,1.));
#389=DIRECTION('',(1.,0.,0.));
#390=DIRECTION('',(0.,0.,1.));
#391=DIRECTION('',(1.,0.,0.));
#392=DIRECTION('',(0.,0.,1.));
#393=DIRECTION('',(1.,0.,0.));
#394=DIRECTION('',(0.,0.,1.));
#395=DIRECTION('',(1.,0.,0.));
#396=DIRECTION('',(-1.,0.,0.));
#397=DIRECTION('',(0.,0.,1.));
#398=DIRECTION('',(1.,0.,0.));
#399=DIRECTION('',(0.,-1.,0.));
#400=DIRECTION('',(0.,0.,-1.));
#401=DIRECTION('',(-1.,0.,0.));
#402=DIRECTION('',(0.,-1.,0.));
#403=DIRECTION('',(0.,0.,-1.));
#404=DIRECTION('',(0.,-1.,0.));
#405=DIRECTION('',(0.,0.,-1.));
#406=DIRECTION('',(0.,0.,1.));
#407=DIRECTION('',(1.,0.,0.));
#408=DIRECTION('',(0.,1.,0.));
#409=DIRECTION('',(0.,1.,0.));
#410=DIRECTION('',(0.,0.,-1.));
#411=DIRECTION('',(-1.,0.,0.));
#412=DIRECTION('',(0.,0.,1.));
#413=DIRECTION('',(1.,0.,0.));
#414=DIRECTION('',(0.,1.,0.));
#415=DIRECTION('',(0.,0.,1.));
#416=DIRECTION('',(0.,-1.,0.));
#417=DIRECTION('',(0.,0.,-1.));
#418=DIRECTION('',(0.,0.,-1.));
#419=DIRECTION('',(-1.,0.,0.));
#420=DIRECTION('',(0.,-1.,0.));
#421=DIRECTION('',(1.,0.,0.));
#422=DIRECTION('',(0.,-1.,0.));
#423=DIRECTION('',(-1.,0.,0.));
#424=DIRECTION('',(0.,0.,1.));
#425=DIRECTION('',(0.,-1.,0.));
#426=DIRECTION('',(0.,0.,-1.));
#427=DIRECTION('',(0.,0.,-1.));
#428=DIRECTION('',(-1.,0.,0.));
#429=DIRECTION('',(0.,-1.,0.));
#430=DIRECTION('',(1.,0.,0.));
#431=DIRECTION('',(-1.,0.,0.));
#432=DIRECTION('',(0.,0.,1.));
#433=DIRECTION('',(0.,0.,-1.));
#434=DIRECTION('',(0.,-1.,0.));
#435=DIRECTION('',(1.,0.,0.));
#436=CARTESIAN_POINT('',(0.,0.,0.));
#437=CARTESIAN_POINT('',(0.0218270071264671,0.0194557362049818,0.015));
#438=CARTESIAN_POINT('',(0.0318270071264671,0.0194557362049818,0.015));
#439=CARTESIAN_POINT('',(0.0318270071264671,0.0194557362049818,0.0142757359312881));
#440=CARTESIAN_POINT('',(0.0318270071264671,0.0194557362049818,0.0015));
#441=CARTESIAN_POINT('',(0.0311027430577552,0.0194557362049818,0.0142757359312881));
#442=CARTESIAN_POINT('',(0.0311027430577552,0.0194557362049818,0.015));
#443=CARTESIAN_POINT('',(0.0218270071264671,0.0194557362049818,0.015));
#444=CARTESIAN_POINT('',(0.012551271195179,0.0194557362049818,0.015));
#445=CARTESIAN_POINT('',(0.012551271195179,0.0194557362049818,0.0142757359312881));
#446=CARTESIAN_POINT('',(0.0118270071264671,0.0194557362049818,0.0142757359312881));
#447=CARTESIAN_POINT('',(0.0118270071264671,0.0194557362049818,0.015));
#448=CARTESIAN_POINT('',(0.0118270071264671,0.0194557362049818,0.0015));
#449=CARTESIAN_POINT('',(0.0218270071264671,0.0194557362049818,0.0015));
#450=CARTESIAN_POINT('',(0.0128270071264671,0.0194557362049818,0.0085));
#451=CARTESIAN_POINT('',(0.0128270071264671,0.0194557362049818,0.014));
#452=CARTESIAN_POINT('',(0.0128270071264671,0.0194557362049818,0.003));
#453=CARTESIAN_POINT('',(0.0218270071264671,0.0194557362049818,0.014));
#454=CARTESIAN_POINT('',(0.0308270071264671,0.0194557362049818,0.014));
#455=CARTESIAN_POINT('',(0.0308270071264671,0.0194557362049818,0.0085));
#456=CARTESIAN_POINT('',(0.0308270071264671,0.0194557362049818,0.003));
#457=CARTESIAN_POINT('',(0.0218270071264671,0.0194557362049818,0.003));
#458=CARTESIAN_POINT('',(0.0118270071264671,0.0119557362049818,0.0015));
#459=CARTESIAN_POINT('',(0.0118270071264671,0.0119557362049818,0.));
#460=CARTESIAN_POINT('',(0.0118270071264671,0.0204557362049818,0.));
#461=CARTESIAN_POINT('',(0.0118270071264671,0.00518000027369373,0.));
#462=CARTESIAN_POINT('',(0.0118270071264671,0.00518000027369373,0.0015));
#463=CARTESIAN_POINT('',(0.0118270071264671,0.00518000027369373,0.0015));
#464=CARTESIAN_POINT('',(0.0118270071264671,0.0119557362049818,0.0015));
#465=CARTESIAN_POINT('',(0.0118270071264671,0.0204557362049818,0.0142757359312881));
#466=CARTESIAN_POINT('',(0.0118270071264671,0.0204557362049818,0.0142757359312881));
#467=CARTESIAN_POINT('',(0.0118270071264671,0.0204557362049818,0.015));
#468=CARTESIAN_POINT('',(0.0218270071264671,0.00445573620498181,0.0015));
#469=CARTESIAN_POINT('',(0.0218270071264671,0.00445573620498181,0.0015));
#470=CARTESIAN_POINT('',(0.012551271195179,0.00445573620498181,0.0015));
#471=CARTESIAN_POINT('',(0.0311027430577552,0.00445573620498181,0.0015));
#472=CARTESIAN_POINT('',(0.012551271195179,0.00445573620498181,0.0015));
#473=CARTESIAN_POINT('',(0.012551271195179,0.00445573620498181,0.));
#474=CARTESIAN_POINT('',(0.0218270071264671,0.00445573620498181,0.));
#475=CARTESIAN_POINT('',(0.0311027430577552,0.00445573620498181,0.));
#476=CARTESIAN_POINT('',(0.0311027430577552,0.00445573620498181,0.0015));
#477=CARTESIAN_POINT('',(0.0318270071264671,0.0119557362049818,0.0015));
#478=CARTESIAN_POINT('',(0.0318270071264671,0.0119557362049818,0.0015));
#479=CARTESIAN_POINT('',(0.0318270071264671,0.00518000027369373,0.0015));
#480=CARTESIAN_POINT('',(0.0318270071264671,0.00518000027369373,0.));
#481=CARTESIAN_POINT('',(0.0318270071264671,0.00518000027369373,0.));
#482=CARTESIAN_POINT('',(0.0318270071264671,0.0119557362049818,0.));
#483=CARTESIAN_POINT('',(0.0318270071264671,0.0204557362049818,0.));
#484=CARTESIAN_POINT('',(0.0318270071264671,0.0204557362049818,0.015));
#485=CARTESIAN_POINT('',(0.0318270071264671,0.0204557362049818,0.0142757359312881));
#486=CARTESIAN_POINT('',(0.0318270071264671,0.0119557362049818,0.0142757359312881));
#487=CARTESIAN_POINT('',(0.0218270071264671,0.0119557362049818,0.0015));
#488=CARTESIAN_POINT('',(0.012551271195179,0.00518000027369373,0.0015));
#489=CARTESIAN_POINT('',(0.0311027430577552,0.00518000027369373,0.0015));
#490=CARTESIAN_POINT('',(0.0218270071264671,0.0119557362049818,0.));
#491=CARTESIAN_POINT('',(0.012551271195179,0.00518000027369373,0.));
#492=CARTESIAN_POINT('',(0.0218270071264671,0.0204557362049818,0.));
#493=CARTESIAN_POINT('',(0.0311027430577552,0.00518000027369373,0.));
#494=CARTESIAN_POINT('',(0.0218270071264671,0.0204557362049818,0.015));
#495=CARTESIAN_POINT('',(0.0218270071264671,0.0204557362049818,0.015));
#496=CARTESIAN_POINT('',(0.0311027430577552,0.0204557362049818,0.015));
#497=CARTESIAN_POINT('',(0.012551271195179,0.0204557362049818,0.015));
#498=CARTESIAN_POINT('',(0.0311027430577552,0.0204557362049818,0.0142757359312881));
#499=CARTESIAN_POINT('',(0.012551271195179,0.0204557362049818,0.0142757359312881));
#500=CARTESIAN_POINT('',(0.0218270071264671,0.0199557362049818,0.015));
#501=CARTESIAN_POINT('',(0.0311027430577552,0.0199557362049818,0.015));
#502=CARTESIAN_POINT('',(0.012551271195179,0.0194557362049818,0.015));
#503=CARTESIAN_POINT('',(0.012551271195179,0.00518000027369373,0.0015));
#504=CARTESIAN_POINT('',(0.0311027430577552,0.00518000027369373,0.0015));
#505=CARTESIAN_POINT('',(0.0311027430577552,0.0199557362049818,0.0142757359312881));
#506=CARTESIAN_POINT('',(0.012551271195179,0.0119557362049818,0.0142757359312881));
#507=CARTESIAN_POINT('',(0.0218270071264671,0.0196557362049818,0.014));
#508=CARTESIAN_POINT('',(0.0128270071264671,0.0196557362049818,0.014));
#509=CARTESIAN_POINT('',(0.0128270071264671,0.0196557362049818,0.014));
#510=CARTESIAN_POINT('',(0.0218270071264671,0.0196557362049818,0.014));
#511=CARTESIAN_POINT('',(0.0308270071264671,0.0196557362049818,0.014));
#512=CARTESIAN_POINT('',(0.0308270071264671,0.0196557362049818,0.014));
#513=CARTESIAN_POINT('',(0.0128270071264671,0.0196557362049818,0.0085));
#514=CARTESIAN_POINT('',(0.0128270071264671,0.0196557362049818,0.003));
#515=CARTESIAN_POINT('',(0.0128270071264671,0.0196557362049818,0.003));
#516=CARTESIAN_POINT('',(0.0128270071264671,0.0196557362049818,0.0085));
#517=CARTESIAN_POINT('',(0.0218270071264671,0.0196557362049818,0.003));
#518=CARTESIAN_POINT('',(0.0308270071264671,0.0196557362049818,0.003));
#519=CARTESIAN_POINT('',(0.0308270071264671,0.0196557362049818,0.003));
#520=CARTESIAN_POINT('',(0.0218270071264671,0.0196557362049818,0.003));
#521=CARTESIAN_POINT('',(0.0308270071264671,0.0196557362049818,0.0085));
#522=CARTESIAN_POINT('',(0.0308270071264671,0.0196557362049818,0.0085));
#523=CARTESIAN_POINT('',(0.0218270071264671,0.0196557362049818,0.00825));
#524=MECHANICAL_DESIGN_GEOMETRIC_PRESENTATION_REPRESENTATION('',(#313),
#525);
#525=(
GEOMETRIC_REPRESENTATION_CONTEXT(3)
GLOBAL_UNCERTAINTY_ASSIGNED_CONTEXT((#526))
GLOBAL_UNIT_ASSIGNED_CONTEXT((#529,#528,#527))
REPRESENTATION_CONTEXT('Laptop','TOP_LEVEL_ASSEMBLY_PART')
);
#526=UNCERTAINTY_MEASURE_WITH_UNIT(LENGTH_MEASURE(1.E-8),#529,
'DISTANCE_ACCURACY_VALUE','Maximum Tolerance applied to model');
#527=(
NAMED_UNIT(*)
SI_UNIT($,.STERADIAN.)
SOLID_ANGLE_UNIT()
);
#528=(
NAMED_UNIT(*)
PLANE_ANGLE_UNIT()
SI_UNIT($,.RADIAN.)
);
#529=(
LENGTH_UNIT()
NAMED_UNIT(*)
SI_UNIT($,.METRE.)
);
#530=PRODUCT_DEFINITION_SHAPE('','',#531);
#531=PRODUCT_DEFINITION('','',#533,#532);
#532=PRODUCT_DEFINITION_CONTEXT('',#539,'design');
#533=PRODUCT_DEFINITION_FORMATION_WITH_SPECIFIED_SOURCE('','',#535,
 .NOT_KNOWN.);
#534=PRODUCT_RELATED_PRODUCT_CATEGORY('','',(#535));
#535=PRODUCT('Laptop','Laptop','Laptop',(#537));
#536=PRODUCT_CATEGORY('','');
#537=PRODUCT_CONTEXT('',#539,'mechanical');
#538=APPLICATION_PROTOCOL_DEFINITION('international standard',
'ap242_managed_model_based_3d_engineering',2020,#539);
#539=APPLICATION_CONTEXT('managed model based 3d engineering');
ENDSEC;
END-ISO-10303-21;
